<svg width="370" height="539" viewBox="0 0 370 539" fill="none" xmlns="http://www.w3.org/2000/svg">
<mask id="mask0_159_624" style="mask-type:alpha" maskUnits="userSpaceOnUse" x="0" y="11" width="370" height="547">
<path fill-rule="evenodd" clip-rule="evenodd" d="M1.38601 192.352C9.92324 148.758 67.1837 141.229 101.5 113C143.496 78.454 167.164 10.3588 221.615 11.1904C277.082 12.0375 339.265 45.2983 359.57 96.8816C380.053 148.92 362.899 205.723 359.57 261.5C357.515 295.933 342.958 317.796 344.328 352.268C346.764 413.591 374.83 490.89 328.51 531.14C284.955 568.988 119.024 562.028 66.0001 539C22.7852 520.232 37.0297 530.779 13.5001 490C-5.16059 457.659 52.5037 344.002 42.7022 307.995C31.683 267.514 -6.67031 233.491 1.38601 192.352Z" fill="#FFF6E0"/>
</mask>
<g mask="url(#mask0_159_624)">
<g filter="url(#filter0_d_159_624)">
<path d="M486 526H-61" stroke="#263238" stroke-linecap="round" stroke-linejoin="round"/>
<path d="M432.255 526V37.2729H282.101C278.789 82.8366 253.573 123.818 214.474 147.364L212.436 148.509V526H432.255Z" stroke="#263238" stroke-miterlimit="10" stroke-linecap="round" stroke-linejoin="round"/>
<g opacity="0.2">
<path d="M294.455 72.9092C294.327 74.8183 293.563 76.7274 292.799 78.5092C291.78 80.6728 291.653 82.7092 290.379 84.7456C296.874 85.1274 301.714 85.5092 304.134 85.2547C306.808 81.4365 306.936 75.9637 306.426 71.6365C302.605 72.7819 297.893 71.6365 293.945 72.6547L294.455 72.9092Z" fill="black"/>
</g>
<path d="M294.582 71.2544C294.2 73.1635 293.308 74.9453 292.162 76.7271C290.889 78.7635 289.488 80.6726 287.832 82.5817C294.2 83.4726 299.167 83.3453 301.714 83.218C304.898 79.6544 306.426 75.9635 306.299 71.6362C301.714 71.5089 294.582 71.2544 294.582 71.2544Z" fill="white"/>
<g opacity="0.2">
<path d="M274.205 89.0724C274.077 90.9815 273.313 92.8906 272.549 94.6724C271.53 96.836 272.167 98.8724 270.766 100.909C277.261 101.291 282.101 101.672 284.521 101.418C287.195 97.5997 286.686 92.127 286.049 87.7997C282.228 88.9451 277.516 87.7997 273.568 88.8179L274.205 89.0724Z" fill="black"/>
</g>
<path d="M274.332 87.5455C273.95 89.4546 273.058 91.2364 271.912 93.0183C270.639 95.0546 269.238 96.9637 267.582 98.8728C273.95 99.7637 278.917 99.6364 281.464 99.5092C284.648 95.9455 286.176 92.2546 286.049 87.9273C281.464 87.8001 274.332 87.5455 274.332 87.5455Z" fill="white"/>
<g opacity="0.2">
<path d="M315.85 71.8909C315.723 73.8 314.959 75.7091 314.195 77.4909C313.176 79.6545 313.049 81.6909 311.648 83.7273C318.143 84.1091 322.982 84.4909 325.402 84.2363C328.077 80.4182 328.332 74.9454 327.695 70.6182C323.874 71.7636 319.162 70.6182 315.214 71.6363L315.85 71.8909Z" fill="black"/>
</g>
<path d="M315.978 70.2363C315.596 72.1454 314.704 73.9272 313.558 75.7091C312.285 77.7454 310.884 79.6545 309.228 81.5636C315.596 82.4545 320.563 82.3272 323.11 82.2C326.294 78.6363 327.822 74.9454 327.695 70.6182C323.11 70.4909 315.978 70.2363 315.978 70.2363Z" fill="#FFEFC6"/>
<g opacity="0.2">
<path d="M369.596 183.509C369.468 185.418 368.704 187.327 367.94 189.109C366.921 191.273 366.794 193.309 365.393 195.346C371.888 195.727 376.728 196.109 379.147 195.855C381.822 192.036 382.077 186.564 381.44 182.236C377.619 183.382 372.907 182.236 368.959 183.255L369.596 183.509Z" fill="black"/>
</g>
<path d="M369.723 181.854C369.341 183.764 368.449 185.545 367.303 187.327C366.03 189.364 364.629 191.273 362.973 193.182C369.341 194.073 374.308 193.945 376.855 193.818C380.039 190.255 381.567 186.564 381.44 182.236C376.982 182.109 369.723 181.854 369.723 181.854Z" fill="#FFEFC6"/>
<g opacity="0.2">
<path d="M347.053 179.564C346.926 181.473 346.161 183.382 345.397 185.164C344.378 187.327 344.251 189.364 342.85 191.4C349.345 191.782 354.185 192.164 356.605 191.909C359.279 188.091 359.534 182.618 358.897 178.291C355.076 179.436 350.364 178.291 346.416 179.309L347.053 179.564Z" fill="black"/>
</g>
<path d="M347.18 177.909C346.798 179.818 345.907 181.6 344.761 183.382C343.487 185.418 342.086 187.327 340.43 189.236C346.798 190.127 351.765 190 354.312 189.873C357.496 186.309 359.025 182.618 358.897 178.291C354.312 178.164 347.18 177.909 347.18 177.909Z" fill="white"/>
<path d="M407.166 60.309H333.044V169.254H407.166V60.309Z" fill="#263238"/>
<path d="M404.236 167.854H328.841L332.534 124.582C333.171 117.073 333.426 109.564 333.298 102.055L332.407 58.9091H406.147L406.529 111.855C406.529 116.182 406.529 120.382 406.274 124.709L404.236 167.854Z" fill="white" stroke="#263238" stroke-miterlimit="10" stroke-linecap="round" stroke-linejoin="round"/>
<path d="M401.053 166.454H324.893L327.185 154.364C332.152 124.709 333.426 111.6 332.662 73.1636L331.897 57.509H404.109L405.001 72.2727C406.911 136.545 401.053 166.454 401.053 166.454Z" fill="white" stroke="#263238" stroke-miterlimit="10" stroke-linecap="round" stroke-linejoin="round"/>
<path d="M336.227 62.982C335.081 62.982 334.317 62.0911 334.317 61.0729C334.317 59.9275 335.209 59.1638 336.227 59.1638C336.355 59.1638 336.482 59.2911 336.482 59.4184C336.482 59.5456 336.355 59.6729 336.227 59.6729C335.463 59.6729 334.827 60.3093 334.827 61.0729C334.827 61.8365 335.463 62.4729 336.227 62.4729C336.992 62.4729 337.628 61.8365 337.628 61.0729C337.628 60.9456 337.756 60.8184 337.883 60.8184C338.011 60.8184 338.138 60.9456 338.138 61.0729C338.138 62.0911 337.246 62.982 336.227 62.982Z" fill="#263238"/>
<path d="M336.1 62.0912C334.317 62.0912 334.19 58.273 334.19 57.3821C334.19 56.6184 334.317 52.673 336.1 52.673C337.883 52.673 338.011 56.873 338.011 57.3821H336.482C336.482 56.2366 336.228 55.2184 336.1 54.7093C335.973 55.2184 335.718 56.1093 335.718 57.3821C335.718 58.5275 335.846 59.5457 336.1 60.0548V59.9275L336.228 59.5457L337.374 59.8002C337.629 59.9275 337.756 60.0548 337.629 60.3093C337.374 61.5821 336.864 62.0912 336.1 62.0912Z" fill="#263238"/>
<path d="M337.884 61.3273C337.756 61.3273 337.629 61.2001 337.629 61.0728C337.629 60.3092 336.992 59.6728 336.228 59.6728C336.1 59.6728 335.973 59.5455 335.973 59.4182C335.973 59.291 336.1 59.1637 336.228 59.1637C337.374 59.1637 338.138 60.0546 338.138 61.0728C338.138 61.2001 338.011 61.3273 337.884 61.3273Z" fill="#263238"/>
<path d="M345.525 62.982C344.378 62.982 343.614 62.0911 343.614 61.0729C343.614 59.9275 344.506 59.1638 345.525 59.1638C345.652 59.1638 345.779 59.2911 345.779 59.4184C345.779 59.5456 345.652 59.6729 345.525 59.6729C344.76 59.6729 344.124 60.3093 344.124 61.0729C344.124 61.8365 344.76 62.4729 345.525 62.4729C346.289 62.4729 346.926 61.8365 346.926 61.0729C346.926 60.9456 347.053 60.8184 347.18 60.8184C347.308 60.8184 347.435 60.9456 347.435 61.0729C347.435 62.0911 346.543 62.982 345.525 62.982Z" fill="#263238"/>
<path d="M345.397 62.0912C343.614 62.0912 343.487 58.273 343.487 57.3821C343.487 56.6184 343.614 52.673 345.397 52.673C347.18 52.673 347.308 56.873 347.308 57.3821H345.779C345.779 56.2366 345.525 55.2184 345.397 54.7093C345.27 55.2184 345.015 56.1093 345.015 57.3821C345.015 58.5275 345.143 59.5457 345.397 60.0548V59.9275L345.525 59.5457L346.671 59.8002C346.926 59.9275 347.053 60.0548 346.926 60.3093C346.671 61.5821 346.162 62.0912 345.397 62.0912Z" fill="#263238"/>
<path d="M347.18 61.3273C347.053 61.3273 346.926 61.2001 346.926 61.0728C346.926 60.3092 346.289 59.6728 345.525 59.6728C345.397 59.6728 345.27 59.5455 345.27 59.4182C345.27 59.291 345.397 59.1637 345.525 59.1637C346.671 59.1637 347.435 60.0546 347.435 61.0728C347.435 61.2001 347.308 61.3273 347.18 61.3273Z" fill="#263238"/>
<path d="M354.695 62.982C353.548 62.982 352.784 62.0911 352.784 61.0729C352.784 59.9275 353.676 59.1638 354.695 59.1638C354.822 59.1638 354.949 59.2911 354.949 59.4184C354.949 59.5456 354.822 59.6729 354.695 59.6729C353.93 59.6729 353.294 60.3093 353.294 61.0729C353.294 61.8365 353.93 62.4729 354.695 62.4729C355.459 62.4729 356.095 61.8365 356.095 61.0729C356.095 60.9456 356.223 60.8184 356.35 60.8184C356.478 60.8184 356.605 60.9456 356.605 61.0729C356.732 62.0911 355.841 62.982 354.695 62.982Z" fill="#263238"/>
<path d="M354.695 62.0912C352.912 62.0912 352.784 58.273 352.784 57.3821C352.784 56.6184 352.912 52.673 354.695 52.673C356.478 52.673 356.605 56.873 356.605 57.3821H355.077C355.077 56.2366 354.822 55.2184 354.695 54.7093C354.567 55.2184 354.312 56.1093 354.312 57.3821C354.312 58.5275 354.44 59.5457 354.695 60.0548V59.9275L354.822 59.5457L355.968 59.8002C356.223 59.9275 356.35 60.0548 356.223 60.3093C355.968 61.5821 355.459 62.0912 354.695 62.0912Z" fill="#263238"/>
<path d="M356.35 61.3273C356.223 61.3273 356.096 61.2001 356.096 61.0728C356.096 60.3092 355.459 59.6728 354.695 59.6728C354.567 59.6728 354.44 59.5455 354.44 59.4182C354.44 59.291 354.567 59.1637 354.695 59.1637C355.841 59.1637 356.605 60.0546 356.605 61.0728C356.732 61.2001 356.605 61.3273 356.35 61.3273Z" fill="#263238"/>
<path d="M363.992 62.982C362.845 62.982 362.081 62.0911 362.081 61.0729C362.081 59.9275 362.973 59.1638 363.992 59.1638C364.119 59.1638 364.246 59.2911 364.246 59.4184C364.246 59.5456 364.119 59.6729 363.992 59.6729C363.228 59.6729 362.591 60.3093 362.591 61.0729C362.591 61.8365 363.228 62.4729 363.992 62.4729C364.756 62.4729 365.393 61.8365 365.393 61.0729C365.393 60.9456 365.52 60.8184 365.647 60.8184C365.775 60.8184 365.902 60.9456 365.902 61.0729C366.029 62.0911 365.138 62.982 363.992 62.982Z" fill="#263238"/>
<path d="M363.992 62.0912C362.209 62.0912 362.081 58.273 362.081 57.3821C362.081 56.6184 362.209 52.673 363.992 52.673C365.775 52.673 365.902 56.873 365.902 57.3821H364.374C364.374 56.2366 364.119 55.2184 363.992 54.7093C363.864 55.2184 363.61 56.1093 363.61 57.3821C363.61 58.5275 363.737 59.5457 363.992 60.0548V59.9275L364.119 59.5457L365.265 59.8002C365.52 59.9275 365.647 60.0548 365.52 60.3093C365.265 61.5821 364.628 62.0912 363.992 62.0912Z" fill="#263238"/>
<path d="M365.647 61.3273C365.52 61.3273 365.393 61.2001 365.393 61.0728C365.393 60.3092 364.756 59.6728 363.992 59.6728C363.864 59.6728 363.737 59.5455 363.737 59.4182C363.737 59.291 363.864 59.1637 363.992 59.1637C365.138 59.1637 365.902 60.0546 365.902 61.0728C366.03 61.2001 365.902 61.3273 365.647 61.3273Z" fill="#263238"/>
<path d="M354.694 54.8363H366.029V46.9454C366.029 45.4182 367.175 44.2727 368.704 44.2727C370.232 44.2727 371.378 45.4182 371.378 46.9454V54.8363H382.586" fill="white"/>
<path d="M354.694 54.8363H366.029V46.9454C366.029 45.4182 367.175 44.2727 368.704 44.2727C370.232 44.2727 371.378 45.4182 371.378 46.9454V54.8363H382.586" stroke="#263238" stroke-miterlimit="10" stroke-linecap="round" stroke-linejoin="round"/>
<path d="M361.954 68.2001V69.9819H359.916V80.5455H358.006V69.9819H355.968V68.2001H361.954Z" fill="#263238"/>
<path d="M367.048 80.4181L366.666 78.1272H364.246L363.864 80.4181H362.081L363.992 68.2H366.793L368.704 80.4181H367.048ZM366.411 76.4727L365.52 70.2363L364.628 76.4727H366.411Z" fill="#263238"/>
<path d="M356.987 86.1451C366.793 83.7269 376.982 82.4542 387.043 82.5815L356.987 86.1451Z" fill="white"/>
<path d="M356.987 86.1451C366.793 83.7269 376.982 82.4542 387.043 82.5815" stroke="#263238" stroke-miterlimit="10" stroke-linecap="round" stroke-linejoin="round"/>
<path d="M347.817 124.709H339.284V133.236H347.817V124.709Z" stroke="#FFEFC6" stroke-miterlimit="10" stroke-linecap="round" stroke-linejoin="round"/>
<path d="M346.671 138.709H338.138V147.236H346.671V138.709Z" stroke="#FFEFC6" stroke-miterlimit="10" stroke-linecap="round" stroke-linejoin="round"/>
<path d="M348.199 110.327H339.666V118.855H348.199V110.327Z" stroke="#FFEFC6" stroke-miterlimit="10" stroke-linecap="round" stroke-linejoin="round"/>
<path d="M349.091 96.8363H340.558V105.364H349.091V96.8363Z" stroke="#FFEFC6" stroke-miterlimit="10" stroke-linecap="round" stroke-linejoin="round"/>
<path d="M342.595 99.7637C342.85 99.7637 343.105 99.7637 343.36 99.7637C343.487 101.673 344.124 103.455 345.143 104.982C345.27 105.109 345.397 105.364 345.652 105.364C346.034 105.364 346.161 104.982 346.289 104.727C347.945 100.782 349.345 96.7091 350.619 92.7637" stroke="#263238" stroke-miterlimit="10" stroke-linecap="round" stroke-linejoin="round"/>
<path d="M356.987 119.873C357.878 118.091 358.77 116.436 359.661 114.654C360.425 113.254 361.062 111.6 362.208 110.454C362.463 110.2 362.845 109.818 363.227 109.564C363.355 109.436 363.355 109.436 363.482 109.436C363.482 109.818 363.1 110.073 362.845 110.454C362.973 110.582 362.973 110.582 363.227 110.582C363.737 110.582 364.246 110.582 364.883 110.582C365.392 110.582 365.902 110.709 366.284 110.964C366.666 111.345 366.666 111.727 366.539 112.236C366.284 113.127 366.029 113.891 365.52 114.654C365.01 115.418 364.501 116.182 363.864 116.818C363.355 117.327 362.845 117.836 362.208 118.218C361.954 118.473 361.699 118.473 361.444 118.345C361.19 118.345 361.19 118.091 361.19 117.836C361.317 117.454 361.572 117.073 361.954 116.691C362.463 116.182 362.973 115.8 363.609 115.545C364.374 115.164 365.138 114.909 365.902 114.654C366.284 114.527 366.793 114.527 367.175 114.4C367.557 114.4 367.812 114.4 368.194 114.4C368.449 114.4 368.576 114.273 368.831 114.273C368.322 114.654 367.812 115.036 367.685 115.673C367.685 115.8 367.557 116.054 367.557 116.182C367.557 116.309 367.557 116.564 367.685 116.691C367.812 116.818 367.94 116.818 368.067 116.945C368.449 116.945 368.704 116.945 368.958 116.691C369.213 116.564 369.34 116.436 369.468 116.182C369.595 116.054 369.723 115.8 369.723 115.673C369.85 115.545 369.85 115.418 369.85 115.164C369.85 115.036 369.85 114.909 369.723 114.782C369.723 114.654 369.595 114.654 369.468 114.654C369.34 114.654 369.213 114.654 369.213 114.654C368.958 114.782 368.831 114.909 368.704 115.036C368.831 115.036 368.958 114.909 369.086 114.909C369.468 114.782 369.85 114.654 370.232 114.527C371.251 114.273 372.27 113.891 373.289 113.764C373.161 113.891 372.906 114.018 372.779 114.145C372.397 114.4 372.015 114.654 371.76 115.036C371.506 115.418 371.378 115.927 371.251 116.436C371.251 116.818 371.251 117.2 371.76 117.327C372.142 117.327 372.397 117.073 372.779 116.945C373.161 116.691 373.416 116.309 373.671 116.054C373.798 115.927 374.307 115.545 374.18 115.291C374.053 115.418 374.053 115.673 373.925 115.8C373.798 116.054 373.798 116.182 373.798 116.436C374.053 116.818 374.562 116.309 374.817 116.182C375.326 115.8 375.836 115.291 375.963 114.654C375.836 114.909 375.708 115.164 375.708 115.545C375.708 115.8 375.581 116.182 375.708 116.436C376.09 116.436 376.345 115.927 376.6 115.545C376.727 115.291 376.982 114.909 377.237 115.036C377.237 115.291 377.237 115.545 377.109 115.8C377.109 115.927 376.982 116.054 376.982 116.182C376.982 115.927 377.237 115.545 377.364 115.418C377.491 115.291 377.619 115.291 377.873 115.291C378.255 115.291 378.256 115.418 378.638 115.164C378.892 115.036 379.147 114.909 379.402 114.654C379.529 114.527 379.656 114.4 379.784 114.527C379.656 115.036 379.402 115.418 379.274 115.927C379.274 116.054 379.147 116.309 379.147 116.436C379.02 116.691 379.147 116.945 379.274 117.073C379.529 117.073 379.656 116.945 379.911 116.945C380.548 116.691 381.312 116.309 381.949 116.054C382.458 115.8 382.84 115.418 383.222 115.036C383.35 114.909 383.477 114.782 383.605 114.527C383.732 114.4 383.732 114.145 383.732 114.018C383.477 113.891 383.222 113.891 382.84 114.145C382.713 114.273 382.458 114.273 382.331 114.4C381.949 114.654 381.694 115.036 381.567 115.545C381.439 116.054 381.567 116.436 381.949 116.691C382.204 117.073 382.458 117.073 382.84 116.945C383.35 116.818 383.732 116.564 384.114 116.309C384.751 115.927 385.26 115.418 385.642 114.782C385.388 114.782 385.005 115.673 385.005 115.673C384.878 116.054 384.623 116.309 384.496 116.691C384.623 116.182 384.878 115.8 385.26 115.418C385.642 115.036 386.024 114.527 386.534 114.4C386.534 114.654 386.534 114.909 386.406 115.164C386.406 115.291 386.279 115.418 386.279 115.673C386.152 115.8 386.152 116.054 386.152 116.309C386.406 116.436 386.661 116.436 386.916 116.054C387.298 115.8 387.68 115.418 387.935 115.036C388.189 114.654 388.444 114.4 388.699 113.891C388.954 113.636 388.954 113.382 388.954 113.127C388.571 113.509 388.317 114.018 388.062 114.654C387.935 114.909 387.807 115.291 387.807 115.545C387.68 115.8 387.68 116.182 387.935 116.436C387.935 116.818 388.189 117.073 388.571 117.327C388.826 117.327 389.081 117.327 389.208 117.327C389.463 117.2 389.718 117.073 389.972 117.073C390.227 116.945 390.482 116.691 390.482 116.309C390.609 115.927 390.609 115.673 390.482 115.291C390.482 115.036 390.354 114.909 390.1 114.909C389.972 114.909 389.718 114.782 389.59 114.782C389.208 114.654 388.826 114.654 388.444 114.654C388.444 114.654 387.935 114.654 387.807 114.782C388.444 114.909 389.336 114.782 389.972 114.654C390.354 114.527 390.864 114.4 391.246 114.145C391.246 114.145 390.991 114.145 391.119 114.273C391.119 114.4 391.246 114.273 391.373 114.273C391.246 114.4 391.246 114.4 391.373 114.527C391.755 114.782 392.265 115.036 392.774 115.164C393.411 115.418 393.666 115.8 393.538 116.309C393.666 116.945 393.284 117.454 392.647 117.836C392.137 118.473 391.628 118.6 391.246 118.091C391.501 117.454 392.01 117.073 392.647 116.691C393.029 116.309 393.538 116.054 394.175 116.054" stroke="#263238" stroke-width="0.75" stroke-miterlimit="10" stroke-linecap="round" stroke-linejoin="round"/>
<path d="M355.204 99.1273C355.204 99.7636 358.77 98.6182 358.642 98.6182C361.572 97.7273 364.756 96.3273 367.94 96.5818" stroke="#263238" stroke-width="0.75" stroke-miterlimit="10" stroke-linecap="round" stroke-linejoin="round"/>
<path d="M361.317 96.0726C361.444 95.9453 361.444 95.9453 361.572 95.9453C361.572 96.0726 361.444 96.1999 361.444 96.4544C361.19 97.218 361.062 98.1089 360.935 98.8726C360.68 100.273 360.298 101.545 359.916 102.945C359.789 103.2 359.279 104.6 359.534 105.109" stroke="#263238" stroke-width="0.75" stroke-miterlimit="10" stroke-linecap="round" stroke-linejoin="round"/>
<path d="M363.355 99.2549C363.355 100.273 363.355 101.164 363.1 102.055C362.973 102.691 362.591 103.455 362.591 104.219C363.609 102.946 364.119 101.164 365.775 100.655C366.157 101.164 365.902 101.928 365.775 102.564C365.647 103.2 365.52 103.837 365.647 104.473C366.539 104.728 367.303 104.346 367.94 103.837C368.576 103.455 369.595 102.819 370.105 102.055C370.232 101.673 370.487 100.909 369.977 100.655C369.341 100.4 368.958 101.291 368.831 101.673C368.449 102.437 368.194 103.2 368.322 103.964C368.449 104.6 368.958 105.109 369.723 104.728C370.359 104.346 370.869 103.582 371.251 102.946C371.506 102.691 371.633 102.309 371.888 101.928C371.888 102.309 371.888 102.691 371.888 102.946C371.888 103.455 371.633 103.837 371.633 104.219C372.015 103.2 372.142 101.164 373.416 100.909C373.671 101.164 373.543 101.928 373.543 102.309C373.543 102.564 373.543 102.946 373.543 103.328C373.798 103.328 374.18 102.564 374.18 102.564C374.435 102.182 374.69 101.8 374.944 101.419C375.581 100.909 376.09 101.164 376.218 101.928C376.345 102.564 376.09 103.073 375.836 103.582C375.836 103.709 375.708 103.964 375.708 104.219C375.836 104.473 375.836 104.473 376.09 104.346C376.473 104.219 376.855 103.709 377.364 103.582C378.638 103.073 380.166 102.691 380.803 101.546C381.057 101.164 381.057 100.655 380.548 100.4C379.911 100.019 379.402 100.528 378.892 100.909C378.383 101.546 378.128 102.182 377.873 102.946C377.746 103.582 377.491 104.473 377.746 105.109C378.128 105.873 379.656 104.855 379.911 104.6C380.421 104.091 380.93 103.582 381.312 103.073" stroke="#263238" stroke-width="0.75" stroke-miterlimit="10" stroke-linecap="round" stroke-linejoin="round"/>
<path d="M354.312 133.746C354.312 133.618 354.44 133.364 354.44 133.236C354.822 132.218 355.968 131.2 356.605 130.436C358.133 128.909 359.661 127.509 361.444 126.236C362.336 125.6 363.227 124.709 364.246 124.327C364.373 124.836 364.246 125.218 364.119 125.727C363.864 126.746 363.482 127.764 363.1 128.782C362.845 129.673 362.718 130.564 362.59 131.455C362.463 131.836 362.336 132.727 362.59 133.109C362.973 132.982 362.973 132.346 362.973 132.091" stroke="#263238" stroke-width="0.75" stroke-miterlimit="10" stroke-linecap="round" stroke-linejoin="round"/>
<path d="M359.661 129.927C360.553 130.055 361.444 129.8 362.336 129.546C363.609 129.291 364.755 128.909 366.029 128.4" stroke="#263238" stroke-width="0.75" stroke-miterlimit="10" stroke-linecap="round" stroke-linejoin="round"/>
<path d="M367.048 124.582C366.793 125.982 366.411 127.382 365.902 128.655C365.52 129.673 365.265 130.691 365.01 131.709C364.756 132.218 364.628 132.727 364.883 133.236C365.01 133.364 365.265 133.236 365.392 133.236" stroke="#263238" stroke-width="0.75" stroke-miterlimit="10" stroke-linecap="round" stroke-linejoin="round"/>
<path d="M368.32 128.655C367.811 129.8 367.303 131.073 367.303 132.346C367.303 132.6 367.303 132.855 367.557 132.982C367.684 133.109 367.938 132.982 367.938 132.855" stroke="#263238" stroke-width="0.75" stroke-miterlimit="10" stroke-linecap="round" stroke-linejoin="round"/>
<path d="M365.902 130.182C366.284 130.182 366.666 130.309 367.175 130.437C367.557 130.437 367.939 130.437 368.449 130.437C368.831 130.437 369.468 130.437 369.722 130.182C369.977 130.182 370.869 131.073 371.123 130.946C371.505 130.946 371.887 130.564 372.142 130.182C372.397 129.8 372.269 129.546 371.76 129.546C371.251 129.418 370.741 129.673 370.486 130.055C369.977 130.691 369.722 132.855 371.123 132.473C372.015 132.218 372.524 131.709 373.034 131.073C373.543 130.437 374.052 129.927 374.435 129.164C373.67 129.8 374.052 130.818 373.67 131.582C373.543 130.564 374.689 129.164 375.963 129.418C376.218 129.546 376.09 129.673 375.963 129.927C375.708 130.564 375.326 131.073 375.071 131.709C375.581 131.073 375.835 130.437 376.345 129.8C376.472 129.673 376.854 129.164 377.109 129.164C377.873 129.291 377.491 130.818 377.618 131.2C378.001 131.327 378.765 130.564 378.892 130.437C379.529 129.927 380.038 129.291 380.675 128.909C380.548 129.673 379.401 130.309 379.656 131.2C380.166 131.073 380.42 130.437 380.548 130.182C380.675 129.927 380.802 129.418 381.057 129.164C381.184 129.418 380.93 129.927 380.93 130.182C381.057 130.564 381.439 131.073 381.821 131.2C383.35 131.837 384.878 129.8 385.387 128.782C385.005 129.037 384.75 129.927 384.623 130.182C384.496 130.564 384.368 130.818 384.241 131.2C383.986 131.582 383.986 131.964 384.368 132.346C384.623 132.346 384.878 132.346 385.005 132.346C385.515 132.091 385.897 131.837 386.151 131.327C386.406 131.073 386.661 130.691 386.788 130.437C387.043 130.055 387.17 129.546 387.17 129.164" stroke="#263238" stroke-width="0.75" stroke-miterlimit="10" stroke-linecap="round" stroke-linejoin="round"/>
<path d="M359.534 139.218C359.789 139.091 359.661 139.473 359.661 139.6C359.279 140.746 358.77 141.764 358.388 142.909C358.006 143.8 357.496 145.2 357.623 146.346C357.623 146.727 357.751 146.982 358.006 147.109C358.133 147.236 358.26 147.109 358.388 146.982" stroke="#263238" stroke-width="0.75" stroke-miterlimit="10" stroke-linecap="round" stroke-linejoin="round"/>
<path d="M357.496 139.09C357.623 139.217 357.878 139.217 358.006 139.217C358.77 139.217 359.534 139.09 360.171 138.963C360.935 138.836 361.572 138.582 362.336 138.455C362.59 138.327 362.845 138.327 363.1 138.455C363.355 138.455 363.482 138.582 363.482 138.836" stroke="#263238" stroke-width="0.75" stroke-miterlimit="10" stroke-linecap="round" stroke-linejoin="round"/>
<path d="M356.987 143.291C358.77 142.782 360.425 141.891 362.336 141.891" stroke="#263238" stroke-width="0.75" stroke-miterlimit="10" stroke-linecap="round" stroke-linejoin="round"/>
<path d="M363.736 143.036C363.736 143.418 363.482 143.927 363.482 144.182C363.355 144.691 363.355 145.073 363.355 145.582" stroke="#263238" stroke-width="0.75" stroke-miterlimit="10" stroke-linecap="round" stroke-linejoin="round"/>
<path d="M365.265 143.036C365.647 142.909 365.52 143.673 365.393 143.8C365.265 144.436 365.01 145.073 364.883 145.836C365.01 145.709 365.01 145.582 365.01 145.455C365.265 145.073 365.392 144.564 365.647 144.182C365.902 143.673 366.284 143.164 366.666 142.782C366.793 142.527 367.048 142.4 367.303 142.527C367.303 143.291 367.048 144.055 366.921 144.946C366.793 145.327 366.539 146.218 367.048 146.473" stroke="#263238" stroke-width="0.75" stroke-miterlimit="10" stroke-linecap="round" stroke-linejoin="round"/>
<path d="M369.084 142.909C368.703 144.055 368.321 145.073 368.194 146.218C368.449 146.345 368.703 145.709 368.703 145.582" stroke="#263238" stroke-width="0.75" stroke-miterlimit="10" stroke-linecap="round" stroke-linejoin="round"/>
<path d="M145.446 401.018C159.328 401.018 199.573 391.982 199.573 391.982H91.3193C91.3193 391.982 131.564 401.018 145.446 401.018Z" fill="#858585" stroke="#263238" stroke-miterlimit="10" stroke-linecap="round" stroke-linejoin="round"/>
<path d="M133.078 413.514H157.913V396.46H133.078V413.514Z" fill="#858585" stroke="#263238" stroke-miterlimit="10" stroke-linecap="round" stroke-linejoin="round"/>
<path d="M93.892 370.362H114.779V326.708H93.892V370.362Z" fill="#263238" stroke="#263238" stroke-miterlimit="10" stroke-linecap="round" stroke-linejoin="round"/>
<path d="M129.258 490.64H161.479V413.64H129.258V490.64Z" fill="#858585" stroke="#263238" stroke-miterlimit="10" stroke-linecap="round" stroke-linejoin="round"/>
<path d="M53.3668 331.655H143.536C154.107 331.655 162.512 322.618 161.748 312.055L154.616 214.818C153.979 205.273 145.956 197.891 136.404 197.891H60.4988C50.947 197.891 43.0509 205.273 42.2867 214.818L35.1547 312.055C34.3906 322.618 42.7962 331.655 53.3668 331.655Z" fill="#FFEFC6" stroke="#263238" stroke-miterlimit="10" stroke-linecap="round" stroke-linejoin="round"/>
<path d="M51.2018 312.055L58.3338 214.818C58.9706 205.273 66.9941 197.891 76.5459 197.891H136.404C145.956 197.891 153.852 205.273 154.616 214.818L161.748 312.055C162.512 322.618 154.107 331.655 143.536 331.655H69.4139C58.7159 331.655 50.4376 322.618 51.2018 312.055Z" fill="#263238" stroke="#263238" stroke-miterlimit="10" stroke-linecap="round" stroke-linejoin="round"/>
<path d="M91.3193 506.018C91.3193 507.673 92.8476 509.073 94.6306 508.691C104.437 506.527 133.984 500.291 145.574 500.291C157.036 500.291 186.583 506.527 196.517 508.691C198.172 509.073 199.828 507.8 199.828 506.018C199.828 502.709 197.535 499.782 194.224 499.145C182.635 496.727 156.399 491.255 145.574 491.255C134.748 491.255 108.513 496.6 96.9231 499.145C93.6118 499.909 91.3193 502.709 91.3193 506.018Z" fill="#263238" stroke="#263238" stroke-miterlimit="10" stroke-linecap="round" stroke-linejoin="round"/>
<path d="M190.276 516.454C190.276 521.545 194.479 525.745 199.573 525.745C204.667 525.745 208.87 521.545 208.87 516.454C208.87 511.364 204.667 507.164 199.573 507.164C194.479 507.164 190.276 511.364 190.276 516.454ZM194.606 516.454C194.606 513.654 196.898 511.491 199.573 511.491C202.247 511.491 204.54 513.782 204.54 516.454C204.54 519.254 202.247 521.418 199.573 521.418C196.898 521.418 194.606 519.254 194.606 516.454Z" fill="#858585" stroke="#263238" stroke-miterlimit="10" stroke-linecap="round" stroke-linejoin="round"/>
<path d="M136.149 516.454C136.149 521.545 140.352 525.745 145.446 525.745C150.541 525.745 154.743 521.545 154.743 516.454C154.743 511.364 150.541 507.164 145.446 507.164C140.352 507.164 136.149 511.364 136.149 516.454ZM140.479 516.454C140.479 513.654 142.772 511.491 145.446 511.491C148.248 511.491 150.413 513.782 150.413 516.454C150.413 519.254 148.121 521.418 145.446 521.418C142.644 521.418 140.479 519.254 140.479 516.454Z" fill="#858585" stroke="#263238" stroke-miterlimit="10" stroke-linecap="round" stroke-linejoin="round"/>
<path d="M83.1685 516.454C83.1685 521.545 87.3712 525.745 92.4655 525.745C97.5598 525.745 101.763 521.545 101.763 516.454C101.763 511.364 97.5598 507.164 92.4655 507.164C87.2439 507.164 83.1685 511.364 83.1685 516.454ZM87.3712 516.454C87.3712 513.654 89.6637 511.491 92.3382 511.491C95.14 511.491 97.3051 513.782 97.3051 516.454C97.3051 519.254 95.0127 521.418 92.3382 521.418C89.6637 521.418 87.3712 519.254 87.3712 516.454Z" fill="#858585" stroke="#263238" stroke-miterlimit="10" stroke-linecap="round" stroke-linejoin="round"/>
<path d="M118.064 363.473H226.191C233.578 363.473 239.563 369.454 239.563 376.836V378.618C239.563 386 233.578 391.982 226.191 391.982H118.064V363.473Z" fill="#FFEFC6" stroke="#263238" stroke-miterlimit="10" stroke-linecap="round" stroke-linejoin="round"/>
<path d="M59.9894 391.982H129.781C134.621 391.982 138.442 388.036 138.442 383.327V372.127C138.442 367.291 134.493 363.473 129.781 363.473H59.9894C55.1498 363.473 51.3291 367.418 51.3291 372.127V383.327C51.3291 388.164 55.2772 391.982 59.9894 391.982Z" fill="#FFEFC6" stroke="#263238" stroke-miterlimit="10" stroke-linecap="round" stroke-linejoin="round"/>
<path d="M306.935 139.473C298.657 162.891 272.931 182.618 263.252 186.309C258.667 188.091 198.809 209.982 198.809 209.982C185.691 208.582 178.686 188.218 178.177 182.618C177.413 174.473 177.031 168.109 190.276 167.345C211.035 166.2 252.044 161.491 260.068 154.873C266.69 149.4 289.233 132.218 295.983 127C295.983 127 301.841 128.654 306.935 139.473Z" fill="#FFEFC6" stroke="#263238" stroke-miterlimit="10" stroke-linecap="round" stroke-linejoin="round"/>
<path d="M292.034 131.582L304.898 116.564L305.28 114.654C306.681 107.909 309.355 101.418 313.048 95.6908L326.93 90.4727L338.265 99.2545L335.081 106.509L334.062 110.709C333.808 111.854 333.171 112.745 332.152 113.509C326.548 118.218 323.237 120.127 316.614 123.182L316.105 123.436L304.388 144.182C302.096 148.127 297.893 147.745 294.709 144.054C294.709 143.927 294.709 144.054 294.582 144.054C292.799 142.527 288.978 136.673 292.034 131.582Z" fill="white" stroke="#263238" stroke-miterlimit="10" stroke-linecap="round" stroke-linejoin="round"/>
<path d="M346.819 92.8323L337.459 94.7375L337.739 96.1094L347.098 94.2041L346.819 92.8323Z" fill="white" stroke="#263238" stroke-miterlimit="10" stroke-linecap="round" stroke-linejoin="round"/>
<path d="M342.711 92.8518L333.351 94.7571L333.987 97.8749L343.347 95.9697L342.711 92.8518Z" fill="white" stroke="#263238" stroke-miterlimit="10" stroke-linecap="round" stroke-linejoin="round"/>
<path d="M337.824 92.9867L294.647 101.792L295.662 106.781L338.839 97.9757L337.824 92.9867Z" fill="white" stroke="#263238" stroke-miterlimit="10" stroke-linecap="round" stroke-linejoin="round"/>
<path d="M345.524 92.8909C345.524 92.8909 349.6 91.8727 349.855 93.0182C349.982 94.0364 345.906 94.6727 345.906 94.6727L345.524 92.8909Z" fill="#263238"/>
<path d="M297.256 103.964C297.511 105.364 297.001 106.764 296.11 106.891C295.218 107.018 294.199 106.127 293.945 104.6C293.69 103.2 294.199 101.8 295.091 101.673C295.982 101.545 297.001 102.564 297.256 103.964Z" fill="white" stroke="#263238" stroke-miterlimit="10" stroke-linecap="round" stroke-linejoin="round"/>
<path d="M319.798 114.273C319.034 115.418 318.015 116.309 316.742 116.818L319.798 114.273Z" fill="white"/>
<path d="M319.798 114.273C319.034 115.418 318.015 116.309 316.742 116.818" stroke="#263238" stroke-miterlimit="10" stroke-linecap="round" stroke-linejoin="round"/>
<path d="M312.539 104.855C313.048 102.946 316.742 98.6183 328.586 97.2183C329.859 97.9819 329.095 100.146 327.822 100.909C326.548 101.673 324.765 101.927 323.874 103.2C322.855 104.346 322.6 108.291 321.199 111.727" fill="white"/>
<path d="M312.539 104.855C313.048 102.946 316.742 98.6183 328.586 97.2183C329.859 97.9819 329.095 100.146 327.822 100.909C326.548 101.673 324.765 101.927 323.874 103.2C322.855 104.346 322.6 108.291 321.199 111.727" stroke="#263238" stroke-miterlimit="10" stroke-linecap="round" stroke-linejoin="round"/>
<path d="M325.53 95.5637L328.586 97.2182C333.935 99.891 335.973 96.0728 335.463 95.4364L327.822 91.1091" fill="white"/>
<path d="M325.53 95.5637L328.586 97.2182C333.935 99.891 335.973 96.0728 335.463 95.4364L327.822 91.1091" stroke="#263238" stroke-miterlimit="10" stroke-linecap="round" stroke-linejoin="round"/>
<path d="M332.916 112.618L329.86 113.764C329.35 113.891 328.713 114.145 328.204 114.145C327.567 114.273 326.803 114.273 326.166 113.636C325.784 113.255 325.657 112.745 325.784 112.236C325.784 111.727 326.039 111.345 326.294 111.091C326.93 110.327 327.822 109.818 328.841 109.564C328.841 109.564 333.808 107.527 334.954 106.382L334.826 108.418C334.699 109.945 334.062 111.473 332.916 112.618Z" fill="white" stroke="#263238" stroke-miterlimit="10" stroke-linecap="round" stroke-linejoin="round"/>
<path d="M330.496 103.582C329.35 103.836 328.204 104.473 327.44 105.364C327.058 105.746 326.803 106.127 326.676 106.636C326.548 107.146 326.676 107.655 327.058 108.036C327.567 108.673 328.586 108.546 329.35 108.291C329.987 108.164 330.751 107.909 331.388 107.655L335.081 106.255C335.081 106.255 337.119 105.746 338.265 99.0001L337.628 98.491L336.227 99.2546C336.227 99.2546 335.081 104.091 333.044 104.6C331.133 105.236 330.496 103.582 330.496 103.582Z" fill="white" stroke="#263238" stroke-miterlimit="10" stroke-linecap="round" stroke-linejoin="round"/>
<path d="M336.482 98.491C336.227 99.2546 335.973 100.146 335.591 101.164C335.081 102.436 334.317 103.582 333.68 104.218C332.916 105.109 331.388 104.982 331.006 103.836C330.878 103.582 330.751 103.2 330.624 102.818C330.496 101.927 330.751 100.655 331.133 99.5091L336.482 98.491Z" fill="white" stroke="#263238" stroke-miterlimit="10" stroke-linecap="round" stroke-linejoin="round"/>
<path d="M330.751 92.6362C333.044 92.8905 334.445 92.6362 335.846 93.1447L330.751 92.6362Z" fill="white"/>
<path d="M330.751 92.6362C333.044 92.8905 334.445 92.6362 335.846 93.1447" stroke="#263238" stroke-miterlimit="10" stroke-linecap="round" stroke-linejoin="round"/>
<path d="M328.841 100.273C329.095 101.418 329.349 102.564 329.604 103.709L328.841 100.273Z" fill="white"/>
<path d="M328.841 100.273C329.095 101.418 329.349 102.564 329.604 103.709" stroke="#263238" stroke-miterlimit="10" stroke-linecap="round" stroke-linejoin="round"/>
<path d="M137.805 162.127C134.621 156.654 132.456 150.545 131.309 144.309C131.309 143.8 131.437 143.036 131.437 142.273C131.819 145.2 132.838 148.127 134.493 150.673C135.385 152.073 136.531 153.473 137.168 155C138.059 157.163 137.932 159.709 137.805 162.127Z" fill="#263238" stroke="#263238" stroke-miterlimit="10" stroke-linecap="round" stroke-linejoin="round"/>
<path d="M170.153 525.491H115.135C113.989 525.491 112.97 524.727 112.842 523.582C111.951 519.254 112.206 509.454 117.173 496.473L117.682 470.127L145.828 474.963L142.262 497.363C142.262 497.363 153.597 509.836 158.946 512.127C162.767 513.654 171.3 513.909 172.446 522.945C172.7 524.218 171.554 525.491 170.153 525.491Z" fill="white" stroke="#263238" stroke-miterlimit="10" stroke-linecap="round" stroke-linejoin="round"/>
<path d="M126.47 505.127C139.46 508.055 142.262 497.236 142.262 497.236C142.262 497.236 153.597 509.709 158.946 512C162.767 513.527 171.3 513.782 172.446 522.818C172.573 524.218 171.554 525.491 170.026 525.491H115.008C113.861 525.491 112.843 524.727 112.715 523.582C111.824 519.255 112.078 509.455 117.045 496.473C117.173 496.473 119.465 503.6 126.47 505.127Z" fill="#263238" stroke="#263238" stroke-miterlimit="10" stroke-linecap="round" stroke-linejoin="round"/>
<path d="M239.818 510.218L235.106 459.436L262.997 464.4L265.289 504.745L239.818 510.218Z" fill="white" stroke="#263238" stroke-miterlimit="10" stroke-linecap="round" stroke-linejoin="round"/>
<path d="M175.63 310.909C175.63 310.909 181.106 316.636 203.776 320.2C226.445 323.763 273.44 335.218 272.931 353.672C272.421 372.254 265.544 477.636 265.544 477.636C265.544 477.636 243.893 473.563 233.832 467.327C233.832 467.327 227.337 415.4 227.846 371.745C227.846 371.745 169.135 364.491 136.658 351.127C104.182 337.763 123.286 307.218 123.286 307.218L175.63 310.909Z" fill="#263238" stroke="#263238" stroke-miterlimit="10" stroke-linecap="round" stroke-linejoin="round"/>
<path d="M138.696 308.236C138.696 308.236 130.418 322.236 136.531 329.873C142.772 337.636 178.05 352.018 174.101 369.582C170.153 387.145 156.908 424.182 148.375 482.982C148.375 482.982 128.38 479.927 114.88 474.2C114.88 474.2 112.715 402.036 128.253 376.2C128.253 376.2 83.6777 367.927 79.2202 353.036C74.7627 338.018 83.1683 315.236 83.2956 307.091L138.696 308.236Z" fill="#263238" stroke="#263238" stroke-miterlimit="10" stroke-linecap="round" stroke-linejoin="round"/>
<path d="M268.346 477.636L267.2 484.254C267.072 485.018 266.435 485.527 265.799 485.4C260.577 484.891 239.054 482.473 230.775 477.382C230.266 477.127 230.011 476.491 230.011 475.854L230.266 468.6C230.266 467.582 231.157 466.818 232.049 467.2C235.615 468.854 245.549 472.418 267.072 475.473C267.836 475.727 268.473 476.745 268.346 477.636Z" fill="white" stroke="#263238" stroke-miterlimit="10" stroke-linecap="round" stroke-linejoin="round"/>
<path d="M150.922 479.673C151.05 478.909 150.286 478.273 149.521 478.527C147.993 479.036 145.573 479.545 141.753 478.654C136.022 477.382 119.592 472.164 114.626 470.636C113.989 470.382 113.225 470.891 113.225 471.654V478.527C113.225 478.909 113.479 479.291 113.861 479.545C117.682 481.2 138.314 490.109 149.012 487.691C149.394 487.564 149.776 487.182 149.776 486.8L150.922 479.673Z" fill="white" stroke="#263238" stroke-miterlimit="10" stroke-linecap="round" stroke-linejoin="round"/>
<path d="M135.384 316.127C135.002 317.273 134.748 318.418 134.621 319.564" stroke="#7F7F7F" stroke-linecap="round" stroke-linejoin="round"/>
<path d="M303.624 521.927C303.624 523.964 301.968 525.491 300.058 525.491C300.058 525.491 262.742 525.745 260.45 525.618C258.412 525.491 255.738 522.309 247.205 521.418C245.167 521.164 244.403 523.073 245.804 525.364L235.106 525.618C233.068 525.618 231.412 523.964 231.54 521.927C231.54 517.6 229.247 507.8 237.526 497.491C238.544 501.309 241.601 503.345 246.441 503.6C265.926 504.491 265.799 495.327 265.799 495.327C265.799 495.327 275.733 506.909 283.629 509.709C288.723 511.618 304.388 515.182 303.624 521.927Z" fill="#263238" stroke="#263238" stroke-miterlimit="10" stroke-linecap="round" stroke-linejoin="round"/>
<path d="M192.696 236.709C185.436 262.673 176.139 311.927 176.139 311.927C130.036 321.6 81.5127 311.927 81.5127 311.927C81.258 301.236 82.5316 286.982 84.0599 272.091C76.5458 270.054 71.0694 263.054 70.8147 251.473C70.4326 237.473 72.9798 212.145 74.3807 200.436C75.6543 190 74.7628 183.891 90.8098 176C98.8334 171.291 112.206 169.127 128.762 166.963C147.993 164.418 165.569 165.309 178.432 167.218C190.021 169 197.79 176.509 199.191 187.582C201.101 204.382 198.045 219.782 192.696 236.709Z" fill="#FFEFC6"/>
<mask id="mask1_159_624" style="mask-type:luminance" maskUnits="userSpaceOnUse" x="70" y="165" width="130" height="152">
<path d="M192.696 236.709C185.436 262.673 176.139 311.927 176.139 311.927C130.036 321.6 81.5127 311.927 81.5127 311.927C81.258 301.236 82.5316 286.982 84.0599 272.091C76.5458 270.054 71.0694 263.054 70.8147 251.473C70.4326 237.473 72.9798 212.145 74.3807 200.436C75.6543 190 74.7628 183.891 90.8098 176C98.8334 171.291 112.206 169.127 128.762 166.963C147.993 164.418 165.569 165.309 178.432 167.218C190.021 169 197.79 176.509 199.191 187.582C201.101 204.382 198.045 219.782 192.696 236.709Z" fill="white"/>
</mask>
<g mask="url(#mask1_159_624)">
<path opacity="0.3" d="M81.5127 311.927C81.258 304.164 81.8948 294.618 82.9136 284.309C81.3853 306.2 126.979 313.073 128.38 301.236C129.781 289.4 84.0599 272.218 108.895 278.2C130.673 283.418 172.828 278.454 183.144 277.054C179.196 295.764 176.139 311.927 176.139 311.927C130.163 321.6 81.5127 311.927 81.5127 311.927Z" fill="black"/>
</g>
<mask id="mask2_159_624" style="mask-type:luminance" maskUnits="userSpaceOnUse" x="70" y="165" width="130" height="152">
<path d="M192.696 236.709C185.436 262.673 176.139 311.927 176.139 311.927C130.036 321.6 81.5127 311.927 81.5127 311.927C81.258 301.236 82.5316 286.982 84.0599 272.091C76.5458 270.054 71.0694 263.054 70.8147 251.473C70.4326 237.473 72.9798 212.145 74.3807 200.436C75.6543 190 74.7628 183.891 90.8098 176C98.8334 171.291 112.206 169.127 128.762 166.963C147.993 164.418 165.569 165.309 178.432 167.218C190.021 169 197.79 176.509 199.191 187.582C201.101 204.382 198.045 219.782 192.696 236.709Z" fill="white"/>
</mask>
<g mask="url(#mask2_159_624)">
<path opacity="0.3" d="M127.361 164.036C121.885 177.527 120.866 192.8 124.687 206.8C129.399 202.091 137.168 200.818 143.154 203.745C147.611 205.909 152.069 210.109 156.654 208.327C158.564 207.563 159.965 205.909 161.748 204.763C166.205 201.836 173.083 203.491 175.63 208.327C174.611 201.2 173.21 194.073 171.427 187.073C170.154 181.982 168.625 176.891 165.441 172.818C161.239 167.473 154.361 164.545 147.484 163.909C140.607 163.4 133.729 164.927 127.234 167.218" fill="black"/>
</g>
<mask id="mask3_159_624" style="mask-type:luminance" maskUnits="userSpaceOnUse" x="70" y="165" width="130" height="152">
<path d="M192.696 236.709C185.436 262.673 176.139 311.927 176.139 311.927C130.036 321.6 81.5127 311.927 81.5127 311.927C81.258 301.236 82.5316 286.982 84.0599 272.091C76.5458 270.054 71.0694 263.054 70.8147 251.473C70.4326 237.473 72.9798 212.145 74.3807 200.436C75.6543 190 74.7628 183.891 90.8098 176C98.8334 171.291 112.206 169.127 128.762 166.963C147.993 164.418 165.569 165.309 178.432 167.218C190.021 169 197.79 176.509 199.191 187.582C201.101 204.382 198.045 219.782 192.696 236.709Z" fill="white"/>
</mask>
<g mask="url(#mask3_159_624)">
<path opacity="0.3" d="M102.399 201.836C102.399 201.836 108.894 220.927 108.894 230.982C108.894 241.036 127.107 247.782 127.234 247.782C117.427 245.745 107.876 243.2 103.291 241.8C101.635 241.291 100.616 239.764 100.744 238.109C101.762 227.927 102.781 213.927 102.399 201.836Z" fill="black"/>
</g>
<path d="M192.696 236.709C185.436 262.673 176.139 311.927 176.139 311.927C130.036 321.6 81.5127 311.927 81.5127 311.927C81.258 301.236 82.5316 286.982 84.0599 272.091C76.5458 270.054 71.0694 263.054 70.8147 251.473C70.4326 237.473 72.9798 212.145 74.3807 200.436C75.6543 190 74.7628 183.891 90.8098 176C98.8334 171.291 112.206 169.127 128.762 166.963C147.993 164.418 165.569 165.309 178.432 167.218C190.021 169 197.79 176.509 199.191 187.582C201.101 204.382 198.045 219.782 192.696 236.709Z" stroke="#263238" stroke-miterlimit="10" stroke-linecap="round" stroke-linejoin="round"/>
<path d="M78.7109 255.8C82.5317 243.2 89.0269 240.018 94.1212 239.763C94.8853 239.763 95.2674 238.618 94.5032 238.236C91.574 236.582 85.7156 235.436 78.7109 243.2" stroke="#263238" stroke-width="0.75" stroke-miterlimit="10" stroke-linecap="round" stroke-linejoin="round"/>
<path d="M206.705 264.327C206.705 264.327 215.747 269.927 211.29 272.473C208.361 274.127 203.139 267.636 199.191 267.382C195.243 267.127 201.229 263.563 201.229 263.563L206.705 264.327Z" fill="white" stroke="#263238" stroke-miterlimit="10" stroke-linecap="round" stroke-linejoin="round"/>
<path d="M143.663 251.982C144.427 251.473 145.319 251.345 146.083 251.6C149.394 252.491 159.073 254.909 162.894 255.291C169.517 256.054 189.512 255.164 189.512 255.164C190.021 255.164 190.403 255.291 190.785 255.418L202.12 261.018C202.502 261.273 202.884 261.527 203.139 261.909C203.139 261.909 206.323 265.6 206.45 265.982L207.469 270.309C207.087 268.654 207.597 270.564 207.597 270.691C207.724 271.327 207.597 272.218 207.469 272.854C207.087 274 205.686 274.509 204.667 273.745L204.158 272.218C205.304 275.4 204.413 276.036 203.903 276.164C202.502 276.8 200.974 276.036 200.337 274.636L199.573 272.854C199.573 272.854 198.554 276.164 195.116 272.854C194.606 272.345 193.842 270.309 192.186 268.273C192.186 268.273 190.021 265.473 188.493 264.836C185.182 263.436 184.545 262.8 183.526 262.673C183.526 262.673 193.842 270.564 191.295 272.727C188.748 274.891 181.234 266.236 178.304 266.491C175.375 266.745 173.974 273.618 158.946 268.527C158.309 268.273 157.545 268.145 156.908 268.273C154.106 268.527 146.465 269.418 142.135 269.8C140.352 270.054 138.696 268.654 138.569 266.745C138.441 262.418 138.696 255.164 143.663 251.982Z" fill="white" stroke="#263238" stroke-miterlimit="10" stroke-linecap="round" stroke-linejoin="round"/>
<path d="M189.257 260.764L191.422 261.527C192.441 261.909 193.46 262.545 194.097 263.436L197.153 267.382C197.535 267.764 199.573 272.218 199.7 272.727" stroke="#263238" stroke-miterlimit="10" stroke-linecap="round" stroke-linejoin="round"/>
<path d="M194.606 259.745C194.606 259.745 199.191 262.036 199.955 262.927L202.757 268.527C203.139 268.909 205.177 272.982 204.795 275.145" stroke="#263238" stroke-miterlimit="10" stroke-linecap="round" stroke-linejoin="round"/>
<path d="M163.531 257.582C169.135 255.927 177.795 254.782 181.87 255.291" stroke="#263238" stroke-miterlimit="10" stroke-linecap="round" stroke-linejoin="round"/>
<path d="M102.399 198.782C102.909 211.509 101.89 227.036 100.871 238.236C100.744 239.891 101.763 241.418 103.418 241.927C109.659 243.709 125.451 248.036 138.314 249.818" stroke="#263238" stroke-miterlimit="10" stroke-linecap="round" stroke-linejoin="round"/>
<path d="M143.663 250.709L129.526 244.345C129.526 244.345 124.942 253.764 126.088 265.727C127.234 277.691 145.446 268.4 145.446 268.4L143.663 250.709Z" fill="white" stroke="#263238" stroke-miterlimit="10" stroke-linecap="round" stroke-linejoin="round"/>
<path d="M295.983 127L306.935 139.472L300.058 160.472L283.247 136.8L295.983 127Z" fill="white" stroke="#263238" stroke-miterlimit="10" stroke-linecap="round" stroke-linejoin="round"/>
<path d="M101.635 189.873C101.762 191.273 102.017 192.927 102.144 194.455" stroke="#263238" stroke-width="0.75" stroke-miterlimit="10" stroke-linecap="round" stroke-linejoin="round"/>
<path d="M96.7957 176.382C98.4513 177.782 99.7249 180.454 100.489 183.891" stroke="#263238" stroke-width="0.75" stroke-miterlimit="10" stroke-linecap="round" stroke-linejoin="round"/>
<path d="M130.163 199.164C130.163 199.164 135.13 192.291 143.281 198.909C149.139 203.618 154.87 209.854 154.87 209.854C154.87 209.854 164.422 198.145 167.734 196.618C174.866 193.436 176.394 198.909 176.394 198.909C176.394 198.909 175.63 183.764 169.517 166.964C169.517 166.964 163.276 156.273 133.729 161.236C133.729 161.236 127.616 162.509 126.215 167.345C126.47 167.218 123.286 187.073 130.163 199.164Z" fill="white" stroke="#263238" stroke-miterlimit="10" stroke-linecap="round" stroke-linejoin="round"/>
<path d="M168.88 167.854C168.88 167.854 167.988 164.927 163.149 163.4C158.309 161.745 144.937 160.854 136.404 165.054C127.743 169.254 140.861 190.382 140.861 190.382L143.536 194.073C146.847 198.654 150.922 202.727 155.38 206.164L160.984 198.782C160.984 198.782 170.918 185.927 170.281 179.054C169.389 172.054 168.88 167.854 168.88 167.854Z" fill="white" stroke="#263238" stroke-miterlimit="10" stroke-linecap="round" stroke-linejoin="round"/>
<path d="M137.677 161.873C137.04 163.145 139.842 184.145 149.012 190C158.309 195.727 165.823 185.927 165.823 185.927C165.823 185.927 150.795 196.363 137.04 163.273L136.276 165.182" fill="#263238"/>
<path d="M137.677 161.873C137.04 163.145 139.842 184.145 149.012 190C158.309 195.727 165.823 185.927 165.823 185.927C165.823 185.927 150.795 196.363 137.04 163.273L136.276 165.182" stroke="#263238" stroke-miterlimit="10" stroke-linecap="round" stroke-linejoin="round"/>
<path d="M184.672 152.836C184.672 152.836 190.658 128.4 179.196 116.691C167.734 104.982 155.253 102.564 145.828 108.291C136.531 114.018 132.583 128.4 134.111 135.909C135.512 143.291 134.875 170.018 147.738 180.964C160.602 192.036 168.498 189.236 176.903 174.218C182.38 164.291 185.054 161.491 184.672 152.836Z" fill="white"/>
<mask id="mask4_159_624" style="mask-type:luminance" maskUnits="userSpaceOnUse" x="133" y="105" width="54" height="83">
<path d="M184.672 152.836C184.672 152.836 190.658 128.4 179.196 116.691C167.734 104.982 155.253 102.564 145.828 108.291C136.531 114.018 132.583 128.4 134.111 135.909C135.512 143.291 134.875 170.018 147.738 180.964C160.602 192.036 168.498 189.236 176.903 174.218C182.38 164.291 185.054 161.491 184.672 152.836Z" fill="white"/>
</mask>
<g mask="url(#mask4_159_624)">
<path opacity="0.2" d="M146.083 153.345C146.465 154.109 146.465 155.127 146.592 156.018C147.229 158.436 148.503 164.291 151.05 164.418C161.62 165.054 163.786 164.291 169.517 166.327C171.682 167.091 172.573 170.527 174.356 169.382C180.851 165.182 177.668 172.945 178.686 170.909C176.776 174.345 175.248 181.091 168.116 185.291C163.404 188.091 157.29 187.582 152.578 184.909C147.866 182.236 144.3 177.782 141.88 172.945C140.734 170.654 134.748 156.273 137.932 155.382C139.206 155 140.861 157.291 142.517 156.782C144.045 156.018 144.427 149.909 146.083 153.345Z" fill="black"/>
</g>
<path d="M184.672 152.836C184.672 152.836 190.658 128.4 179.196 116.691C167.734 104.982 155.253 102.564 145.828 108.291C136.531 114.018 132.583 128.4 134.111 135.909C135.512 143.291 134.875 170.018 147.738 180.964C160.602 192.036 168.498 189.236 176.903 174.218C182.38 164.291 185.054 161.491 184.672 152.836Z" stroke="#263238" stroke-miterlimit="10" stroke-linecap="round" stroke-linejoin="round"/>
<path d="M143.154 146.473C143.154 146.473 140.734 133.109 133.856 134.254C127.106 135.527 131.946 155.254 139.97 153.091" fill="white"/>
<path d="M143.154 146.473C143.154 146.473 140.734 133.109 133.856 134.254C127.106 135.527 131.946 155.254 139.97 153.091" stroke="#263238" stroke-miterlimit="10" stroke-linecap="round" stroke-linejoin="round"/>
<path d="M169.135 175.236C169.135 175.236 160.729 174.727 157.29 168.618" stroke="#263238" stroke-miterlimit="10" stroke-linecap="round" stroke-linejoin="round"/>
<path d="M179.832 151.945C179.578 153.091 179.832 154.109 180.469 154.236C181.106 154.364 181.743 153.473 181.998 152.327C182.252 151.182 181.998 150.164 181.361 150.036C180.851 150.036 180.087 150.8 179.832 151.945Z" fill="#263238"/>
<path d="M164.04 150.8C163.786 151.945 164.04 152.964 164.677 153.091C165.314 153.218 165.951 152.327 166.205 151.182C166.46 150.036 166.205 149.018 165.569 148.891C165.059 148.764 164.295 149.527 164.04 150.8Z" fill="#263238"/>
<path d="M178.814 147.745C176.394 149.273 175.502 152.454 175.63 155.254C175.757 158.054 176.776 160.854 177.285 163.654C177.667 165.436 177.667 167.727 176.139 168.745C174.993 169.636 173.21 169.382 171.936 168.618C170.663 167.854 169.899 166.454 169.007 165.309" stroke="#263238" stroke-miterlimit="10" stroke-linecap="round" stroke-linejoin="round"/>
<path d="M144.3 157.545C145.828 160.727 146.72 164.163 146.72 167.727" stroke="#263238" stroke-width="0.75" stroke-miterlimit="10" stroke-linecap="round" stroke-linejoin="round"/>
<path d="M159.965 140.618C158.564 140.745 157.035 141.254 157.035 142.145C157.035 142.782 157.927 143.291 158.946 143.545C159.965 143.673 160.983 143.673 162.13 143.673C165.186 143.8 167.861 144.945 170.79 145.327C175.502 145.963 175.63 143.418 172.318 142.145C168.625 140.618 164.295 139.982 159.965 140.618Z" fill="#263238" stroke="#263238" stroke-miterlimit="10" stroke-linecap="round" stroke-linejoin="round"/>
<path d="M181.488 143.164C180.087 143.291 179.068 143.8 179.068 144.564C179.068 145.2 179.96 145.709 180.979 145.964C181.998 146.091 182.38 145.964 184.163 146.854C186.073 147.745 186.582 147.109 185.818 143.673C185.818 142.909 184.163 142.909 181.488 143.164Z" fill="#263238" stroke="#263238" stroke-miterlimit="10" stroke-linecap="round" stroke-linejoin="round"/>
<path opacity="0.3" d="M135.64 269.927C136.786 270.945 136.149 272.854 134.621 272.854C124.942 272.854 98.706 272.982 88.5174 272.345C75.909 271.582 85.5881 257.963 95.6494 263.182C104.946 268.018 124.56 260 135.64 269.927Z" fill="black"/>
<path d="M271.275 361.691C269.11 371.491 263.379 380.527 255.355 386.509" stroke="#7F7F7F" stroke-linecap="round" stroke-linejoin="round"/>
<path d="M272.294 354.436C272.294 355.454 272.167 356.473 272.04 357.618" stroke="#7F7F7F" stroke-linecap="round" stroke-linejoin="round"/>
<path d="M143.791 367.163C144.937 366.781 146.21 366.527 147.484 366.4" stroke="#7F7F7F" stroke-linecap="round" stroke-linejoin="round"/>
<path d="M126.979 376.964C130.673 373.145 135.257 370.218 140.224 368.309" stroke="#7F7F7F" stroke-linecap="round" stroke-linejoin="round"/>
<path d="M261.978 422.4C256.374 436.527 248.478 449.891 238.544 461.473" stroke="#7F7F7F" stroke-linecap="round" stroke-linejoin="round"/>
<path d="M266.054 410.563C265.417 412.854 264.653 415.145 263.889 417.309" stroke="#7F7F7F" stroke-linecap="round" stroke-linejoin="round"/>
<path d="M169.262 381.927C167.606 385.364 165.441 388.545 163.021 391.345" stroke="#7F7F7F" stroke-linecap="round" stroke-linejoin="round"/>
<path d="M142.899 327.327C157.545 334.582 172.191 347.436 173.974 362.582L174.102 363.6C173.847 368.945 172.701 374.163 170.663 379" stroke="#7F7F7F" stroke-linecap="round" stroke-linejoin="round"/>
<path d="M135.385 324.018C136.659 324.527 138.06 325.036 139.333 325.673" stroke="#7F7F7F" stroke-linecap="round" stroke-linejoin="round"/>
<path d="M123.413 470.509C137.55 456.127 148.885 438.945 156.654 420.364" stroke="#7F7F7F" stroke-linecap="round" stroke-linejoin="round"/>
<path d="M230.011 358.764C231.667 358 233.45 357.109 234.978 356.218" stroke="#7F7F7F" stroke-linecap="round" stroke-linejoin="round"/>
<path d="M173.974 362.454C191.549 366.782 209.252 366.527 225.044 360.8" stroke="#7F7F7F" stroke-linecap="round" stroke-linejoin="round"/>
<path d="M241.346 360.291C242.365 359.527 244.53 358.382 244.53 358.382" stroke="#7F7F7F" stroke-linecap="round" stroke-linejoin="round"/>
<path d="M227.337 372.509C231.922 366.273 234.214 365.509 238.29 362.454" stroke="#7F7F7F" stroke-linecap="round" stroke-linejoin="round"/>
<path d="M200.082 121.018C199.828 123.818 197.408 126.364 194.606 126.745C196.898 129.164 197.026 133.109 195.115 135.782C193.078 138.327 189.13 139.218 186.328 137.691C183.781 135.782 180.087 137.436 176.903 137.309C170.918 137.182 158.436 128.909 157.29 128.4C155.38 127.636 153.852 125.854 152.323 124.454C149.521 121.782 146.338 119.363 143.026 117.582C142.772 117.454 142.389 117.2 142.007 117.073C142.007 118.091 142.135 118.982 142.517 119.873C143.79 120.509 145.064 121.145 145.955 121.909C152.196 126.236 155.762 134.127 154.361 141.636C154.234 142.273 153.979 143.036 153.342 143.291C152.196 143.673 151.559 142.145 150.795 141.254C149.012 139.345 145.446 140.618 144.427 143.036C143.408 145.2 143.918 147.745 144.427 150.163C143.408 146.218 142.135 142.4 140.352 138.709C139.333 136.673 137.932 134.254 135.512 134.254C133.984 134.254 132.583 135.4 131.946 136.8C131.946 136.927 131.819 137.054 131.819 137.182C131.309 138.454 131.309 139.982 131.437 141.382C131.437 141.764 131.564 142.018 131.564 142.4C131.564 143.291 131.437 143.927 131.437 144.436C131.437 144.691 131.437 144.818 131.437 144.945C129.399 139.6 128.38 125.473 130.418 120.127C133.474 112.236 138.441 105.618 146.465 101.8C146.72 101.673 146.974 101.545 147.356 101.418C148.63 100.909 150.031 100.4 151.432 100.145C157.29 99.1271 163.149 101.036 168.88 102.309C170.535 102.691 172.191 102.945 173.847 102.563C176.903 101.8 178.686 98.618 181.488 96.9635C184.163 95.4362 187.601 95.5635 190.531 96.8362C193.332 98.1089 195.625 100.4 197.408 102.945C198.809 104.854 199.955 107.018 199.955 109.309C199.955 111.6 198.299 114.145 196.007 114.4C198.554 115.291 200.337 118.091 200.082 121.018Z" fill="#263238" stroke="#263238" stroke-miterlimit="10" stroke-linecap="round" stroke-linejoin="round"/>
<path d="M182.762 106.509C183.526 106.382 184.29 106.509 184.927 106.763" stroke="#7F7F7F" stroke-linecap="round" stroke-linejoin="round"/>
<path d="M159.837 110.709C163.658 114.527 170.281 115.036 174.611 111.855C176.266 110.709 177.54 109.182 179.196 107.909" stroke="#7F7F7F" stroke-linecap="round" stroke-linejoin="round"/>
<path d="M187.601 116.946C188.493 117.073 189.512 117.454 190.276 117.962" stroke="#7F7F7F" stroke-linecap="round" stroke-linejoin="round"/>
<path d="M168.498 117.709C171.172 120.382 175.63 119.618 179.323 118.346C181.106 117.709 183.144 117.073 185.054 116.818" stroke="#7F7F7F" stroke-linecap="round" stroke-linejoin="round"/>
<path d="M173.974 123.564C176.267 123.946 178.559 124.2 180.851 124.582C182.762 124.836 184.672 125.218 186.2 126.236C187.729 127.255 188.875 129.291 188.238 131.073C187.601 132.855 184.8 133.618 183.781 132.091" stroke="#7F7F7F" stroke-linecap="round" stroke-linejoin="round"/>
<path d="M168.625 122.8C169.517 122.927 170.408 123.054 171.3 123.181" stroke="#7F7F7F" stroke-linecap="round" stroke-linejoin="round"/>
<path d="M237.78 375.182C243.639 371.109 249.497 367.418 255.61 363.855C257.775 362.582 260.068 361.436 262.488 361.564C263.634 363.727 262.233 366.273 260.705 368.182C256.502 373.655 251.153 378.236 245.04 381.418" stroke="#7F7F7F" stroke-linecap="round" stroke-linejoin="round"/>
<path d="M47.2539 233.273C62.1547 236.327 77.4376 237.091 92.5931 235.818C93.4846 235.691 94.5035 235.564 95.0129 234.927C95.7771 233.782 94.8856 232.382 94.1214 231.364C91.4469 227.291 90.6828 222.2 91.829 217.618C80.1121 227.036 65.3387 232.636 50.3105 233.4L47.2539 233.273Z" fill="white" stroke="#263238" stroke-miterlimit="10" stroke-linecap="round" stroke-linejoin="round"/>
<path d="M15.789 283.642H80.1045V233.242H15.789V283.642Z" fill="#999999" stroke="#263238" stroke-miterlimit="10" stroke-linecap="round" stroke-linejoin="round"/>
<path d="M123.541 233.273H79.8574V283.673H123.541V233.273Z" fill="white" stroke="#263238" stroke-miterlimit="10" stroke-linecap="round" stroke-linejoin="round"/>
<path d="M62.5369 236.582H75.6547" stroke="#263238" stroke-miterlimit="10" stroke-linecap="round" stroke-linejoin="round"/>
<path d="M20.2542 236.582H34.1361" stroke="#263238" stroke-miterlimit="10" stroke-linecap="round" stroke-linejoin="round"/>
<path d="M54.1311 246H75.6545" stroke="#263238" stroke-miterlimit="10" stroke-linecap="round" stroke-linejoin="round"/>
<path d="M20.2542 246H39.103" stroke="#263238" stroke-miterlimit="10" stroke-linecap="round" stroke-linejoin="round"/>
<path d="M64.9565 255.418H75.6546" stroke="#263238" stroke-miterlimit="10" stroke-linecap="round" stroke-linejoin="round"/>
<path d="M20.2542 255.418H44.07" stroke="#263238" stroke-miterlimit="10" stroke-linecap="round" stroke-linejoin="round"/>
<path d="M54.1311 264.836H75.6545" stroke="#263238" stroke-miterlimit="10" stroke-linecap="round" stroke-linejoin="round"/>
<path d="M20.2542 264.836H28.5324" stroke="#263238" stroke-miterlimit="10" stroke-linecap="round" stroke-linejoin="round"/>
<path d="M64.9565 274.255H75.6546" stroke="#263238" stroke-miterlimit="10" stroke-linecap="round" stroke-linejoin="round"/>
<path d="M20.2542 274.255H29.9333" stroke="#263238" stroke-miterlimit="10" stroke-linecap="round" stroke-linejoin="round"/>
<path d="M104.31 236.582H119.084" stroke="#263238" stroke-miterlimit="10" stroke-linecap="round" stroke-linejoin="round"/>
<path d="M84.3149 236.582H90.6828" stroke="#263238" stroke-miterlimit="10" stroke-linecap="round" stroke-linejoin="round"/>
<path d="M102.145 246H119.084" stroke="#263238" stroke-miterlimit="10" stroke-linecap="round" stroke-linejoin="round"/>
<path d="M84.3149 246H94.6309" stroke="#263238" stroke-miterlimit="10" stroke-linecap="round" stroke-linejoin="round"/>
<path d="M106.093 255.418H119.083" stroke="#263238" stroke-miterlimit="10" stroke-linecap="round" stroke-linejoin="round"/>
<path d="M84.3149 255.418H98.579" stroke="#263238" stroke-miterlimit="10" stroke-linecap="round" stroke-linejoin="round"/>
<path d="M97.5601 264.836H119.083" stroke="#263238" stroke-miterlimit="10" stroke-linecap="round" stroke-linejoin="round"/>
<path d="M84.3149 264.836H86.3527" stroke="#263238" stroke-miterlimit="10" stroke-linecap="round" stroke-linejoin="round"/>
<path d="M106.093 274.255H119.083" stroke="#263238" stroke-miterlimit="10" stroke-linecap="round" stroke-linejoin="round"/>
<path d="M84.3149 274.255H87.4989" stroke="#263238" stroke-miterlimit="10" stroke-linecap="round" stroke-linejoin="round"/>
<path d="M18.7258 241.673L29.9333 236.582H20.2541L18.7258 241.673Z" fill="white" stroke="#263238" stroke-miterlimit="10" stroke-linecap="round" stroke-linejoin="round"/>
<path d="M117.3 241.673L105.966 236.582H115.645L117.3 241.673Z" fill="#999999" stroke="#263238" stroke-miterlimit="10" stroke-linecap="round" stroke-linejoin="round"/>
<path d="M107.749 269.8L96.4141 264.836H112.843L107.749 269.8Z" fill="#999999" stroke="#263238" stroke-miterlimit="10" stroke-linecap="round" stroke-linejoin="round"/>
<path d="M48.0179 262.545L52.9849 255.418H29.6785L48.0179 262.545Z" fill="white" stroke="#263238" stroke-miterlimit="10" stroke-linecap="round" stroke-linejoin="round"/>
<path d="M15.7967 265.345L9.17407 274.254L15.7967 273.491V265.345Z" fill="white" stroke="#263238" stroke-miterlimit="10" stroke-linecap="round" stroke-linejoin="round"/>
<path d="M305.172 283.875H369.488V208.53H305.172V283.875Z" fill="#999999" stroke="#263238" stroke-miterlimit="10" stroke-linecap="round" stroke-linejoin="round"/>
<path d="M369.166 283.875H412.849V208.53H369.166V283.875Z" fill="white" stroke="#263238" stroke-miterlimit="10" stroke-linecap="round" stroke-linejoin="round"/>
<path d="M356.478 218H365.01" stroke="#263238" stroke-miterlimit="10" stroke-linecap="round" stroke-linejoin="round"/>
<path d="M309.61 218H337.374" stroke="#263238" stroke-miterlimit="10" stroke-linecap="round" stroke-linejoin="round"/>
<path d="M343.615 227.418H365.011" stroke="#263238" stroke-miterlimit="10" stroke-linecap="round" stroke-linejoin="round"/>
<path d="M309.61 227.418H323.492" stroke="#263238" stroke-miterlimit="10" stroke-linecap="round" stroke-linejoin="round"/>
<path d="M352.02 236.836H365.01" stroke="#263238" stroke-miterlimit="10" stroke-linecap="round" stroke-linejoin="round"/>
<path d="M309.61 236.836H323.492" stroke="#263238" stroke-miterlimit="10" stroke-linecap="round" stroke-linejoin="round"/>
<path d="M343.615 246.255H365.011" stroke="#263238" stroke-miterlimit="10" stroke-linecap="round" stroke-linejoin="round"/>
<path d="M309.61 246.255H328.459" stroke="#263238" stroke-miterlimit="10" stroke-linecap="round" stroke-linejoin="round"/>
<path d="M354.312 255.673H365.011" stroke="#263238" stroke-miterlimit="10" stroke-linecap="round" stroke-linejoin="round"/>
<path d="M309.61 255.673H333.426" stroke="#263238" stroke-miterlimit="10" stroke-linecap="round" stroke-linejoin="round"/>
<path d="M343.615 265.091H365.011" stroke="#263238" stroke-miterlimit="10" stroke-linecap="round" stroke-linejoin="round"/>
<path d="M309.61 265.091H318.016" stroke="#263238" stroke-miterlimit="10" stroke-linecap="round" stroke-linejoin="round"/>
<path d="M354.312 274.509H365.011" stroke="#263238" stroke-miterlimit="10" stroke-linecap="round" stroke-linejoin="round"/>
<path d="M309.61 274.509H319.289" stroke="#263238" stroke-miterlimit="10" stroke-linecap="round" stroke-linejoin="round"/>
<path d="M343.487 234.545L359.662 227.418H336.228L343.487 234.545Z" fill="white" stroke="#263238" stroke-miterlimit="10" stroke-linecap="round" stroke-linejoin="round"/>
<path d="M308.082 241.927L319.289 236.836H309.61L308.082 241.927Z" fill="white" stroke="#263238" stroke-miterlimit="10" stroke-linecap="round" stroke-linejoin="round"/>
<path d="M337.501 262.8L342.341 255.673H319.034L337.501 262.8Z" fill="white" stroke="#263238" stroke-miterlimit="10" stroke-linecap="round" stroke-linejoin="round"/>
<path d="M305.153 218L294.073 226.909L305.153 226.145V218Z" fill="white" stroke="#263238" stroke-miterlimit="10" stroke-linecap="round" stroke-linejoin="round"/>
<path d="M305.152 265.6L298.657 274.636L305.152 273.745V265.6Z" fill="white" stroke="#263238" stroke-miterlimit="10" stroke-linecap="round" stroke-linejoin="round"/>
<path d="M324.129 277.309C324.129 277.309 324.638 272.6 315.596 270.055C299.167 265.6 289.36 275.018 289.36 275.018C285.539 278.455 287.577 284.055 292.417 284.055C295.219 284.055 298.657 284.055 302.987 284.055L324.129 277.309Z" fill="white" stroke="#263238" stroke-miterlimit="10" stroke-linecap="round" stroke-linejoin="round"/>
<path d="M305.153 284.055H321.964C323.237 284.055 324.129 283.037 324.129 281.891V276.036H302.86V281.891C302.86 283.037 303.879 284.055 305.153 284.055Z" fill="white" stroke="#263238" stroke-miterlimit="10" stroke-linecap="round" stroke-linejoin="round"/>
<path d="M324.128 276.036C324.128 272.982 319.416 270.564 313.557 270.564C307.699 270.564 302.987 272.982 302.987 276.036H324.128Z" fill="white" stroke="#263238" stroke-miterlimit="10" stroke-linecap="round" stroke-linejoin="round"/>
<path d="M302.86 276.036C302.86 272.982 307.572 270.564 313.431 270.564V276.036H302.86Z" fill="white" stroke="#263238" stroke-miterlimit="10" stroke-linecap="round" stroke-linejoin="round"/>
<path d="M160.22 282.782H191.932V275.018L160.22 278.455V282.782Z" fill="#999999" stroke="#263238" stroke-miterlimit="10" stroke-linecap="round" stroke-linejoin="round"/>
<path d="M192.027 282.894H262.583V275.131H192.027V282.894Z" fill="#5C5C5C" stroke="#263238" stroke-miterlimit="10" stroke-linecap="round" stroke-linejoin="round"/>
<path d="M201.484 171.036H210.399L201.229 257.964H192.314C190.276 257.964 188.748 256.309 189.003 254.273L197.408 174.855C197.536 172.691 199.446 171.036 201.484 171.036Z" fill="white" stroke="#263238" stroke-miterlimit="10" stroke-linecap="round" stroke-linejoin="round"/>
<path d="M196.517 257.963H309.228C311.266 257.963 313.176 256.309 313.303 254.273L321.709 174.854C321.964 172.818 320.435 171.163 318.398 171.163H205.686C203.649 171.163 201.738 172.818 201.611 174.854L193.205 254.273C192.951 256.309 194.479 257.963 196.517 257.963Z" fill="#999999" stroke="#263238" stroke-miterlimit="10" stroke-linecap="round" stroke-linejoin="round"/>
<path d="M235.615 177.654H244.785" stroke="#263238" stroke-miterlimit="10" stroke-linecap="round" stroke-linejoin="round"/>
<path d="M204.285 207.054L206.578 187.963C207.215 182.109 212.309 177.654 218.167 177.654H230.521" stroke="#263238" stroke-miterlimit="10" stroke-linecap="round" stroke-linejoin="round"/>
<path d="M235.734 284.774H291.771V275.865H235.734V284.774Z" fill="#5C5C5C" stroke="#263238" stroke-miterlimit="10" stroke-linecap="round" stroke-linejoin="round"/>
<path d="M219.166 284.774H235.595V275.865H219.166V284.774Z" fill="#263238" stroke="#263238" stroke-miterlimit="10" stroke-linecap="round" stroke-linejoin="round"/>
<path d="M264.143 237.982C263.761 233.909 260.45 230.345 256.502 229.454C257.139 229.327 257.903 229.2 258.54 229.2C263.379 229.2 267.837 233.145 268.346 237.982C268.856 242.818 265.29 246.763 260.45 246.763C259.686 246.763 259.049 246.636 258.285 246.509C262.106 245.618 264.653 242.182 264.143 237.982Z" fill="#263238" stroke="#263238" stroke-miterlimit="10" stroke-linecap="round" stroke-linejoin="round"/>
<path d="M244.148 222.836L249.752 275.909H245.549L239.945 222.836C239.818 221.564 240.71 220.546 241.983 220.546H246.186C244.912 220.546 244.021 221.564 244.148 222.836Z" fill="#263238" stroke="#263238" stroke-miterlimit="10" stroke-linecap="round" stroke-linejoin="round"/>
<path d="M244.148 222.836L249.752 275.909H277.388L271.785 222.836C271.657 221.564 270.511 220.546 269.238 220.546H246.186C244.912 220.546 244.021 221.564 244.148 222.836ZM258.667 229.2C263.506 229.2 267.964 233.146 268.473 237.982C268.983 242.818 265.417 246.764 260.577 246.764C255.738 246.764 251.28 242.818 250.771 237.982C250.261 233.146 253.827 229.2 258.667 229.2Z" fill="#5C5C5C" stroke="#263238" stroke-miterlimit="10" stroke-linecap="round" stroke-linejoin="round"/>
<path d="M117.539 322.828L407.15 322.828V298.01L117.539 298.01V322.828Z" fill="#5C5C5C" stroke="#263238" stroke-miterlimit="10" stroke-linecap="round" stroke-linejoin="round"/>
<path d="M14.5028 322.828H117.535V298.01H14.5028V322.828Z" fill="#5C5C5C" stroke="#263238" stroke-miterlimit="10" stroke-linecap="round" stroke-linejoin="round"/>
<path d="M129.592 297.928L416.4 297.928V283.928L129.592 283.928V297.928Z" fill="#FFEFC6" stroke="#263238" stroke-miterlimit="10" stroke-linecap="round" stroke-linejoin="round"/>
<path d="M5.13944 297.928H129.568V283.928H5.13944V297.928Z" fill="#FFEFC6"/>
<mask id="mask5_159_624" style="mask-type:luminance" maskUnits="userSpaceOnUse" x="5" y="284" width="125" height="15">
<path d="M129.654 284.055L5.22607 284.055L5.22607 298.055L129.654 298.055V284.055Z" fill="white"/>
</mask>
<g mask="url(#mask5_159_624)">
<path opacity="0.3" d="M5.13969 297.928H129.568V283.928H5.13969V297.928Z" fill="black"/>
</g>
<path d="M5.13944 297.928H129.568V283.928H5.13944V297.928Z" stroke="#263238" stroke-miterlimit="10" stroke-linecap="round" stroke-linejoin="round"/>
<path d="M308.591 525.745H314.832L317.124 322.745H308.591V525.745Z" fill="#999999" stroke="#263238" stroke-miterlimit="10" stroke-linecap="round" stroke-linejoin="round"/>
<path d="M302.351 525.745H308.591V322.745H300.058L302.351 525.745Z" fill="#858585" stroke="#263238" stroke-miterlimit="10" stroke-linecap="round" stroke-linejoin="round"/>
<path d="M112.97 525.745H119.211L121.503 322.745H112.97V525.745Z" fill="#999999" stroke="#263238" stroke-miterlimit="10" stroke-linecap="round" stroke-linejoin="round"/>
<path d="M106.73 525.745H112.97V322.745H104.437L106.73 525.745Z" fill="#858585" stroke="#263238" stroke-miterlimit="10" stroke-linecap="round" stroke-linejoin="round"/>
<path d="M30.188 525.745H36.4285L38.7209 322.745H30.188V525.745Z" fill="#999999" stroke="#263238" stroke-miterlimit="10" stroke-linecap="round" stroke-linejoin="round"/>
<path d="M23.9475 525.745H30.188V322.745H21.655L23.9475 525.745Z" fill="#858585" stroke="#263238" stroke-miterlimit="10" stroke-linecap="round" stroke-linejoin="round"/>
<path d="M149.649 244.346H154.998L158.946 221.564C159.201 219.909 157.927 218.509 156.399 218.509C155.126 218.509 153.979 219.4 153.852 220.673L149.649 244.346Z" fill="#263238" stroke="#263238" stroke-miterlimit="10" stroke-linecap="round" stroke-linejoin="round"/>
<path d="M133.984 244.345H139.588L137.423 223.218C137.295 222.455 136.786 221.945 136.022 221.945H133.22C132.456 221.945 131.819 222.709 131.819 223.473L133.984 244.345Z" fill="white" stroke="#263238" stroke-miterlimit="10" stroke-linecap="round" stroke-linejoin="round"/>
<path d="M143.918 244.345H147.484L149.649 219.273H146.083L143.918 244.345Z" fill="#999999" stroke="#263238" stroke-miterlimit="10" stroke-linecap="round" stroke-linejoin="round"/>
<path d="M137.423 284.436H153.724C156.526 284.436 158.819 282.145 158.819 279.345V231.873H132.328V279.345C132.328 282.145 134.621 284.436 137.423 284.436Z" fill="white" stroke="#263238" stroke-miterlimit="10" stroke-linecap="round" stroke-linejoin="round"/>
<path d="M154.361 246V277.818C154.361 279.218 153.215 280.236 151.942 280.236H142.517" stroke="#263238" stroke-miterlimit="10" stroke-linecap="round" stroke-linejoin="round"/>
<path d="M154.361 238.236V241.927" stroke="#263238" stroke-miterlimit="10" stroke-linecap="round" stroke-linejoin="round"/>
<path d="M6.83799 525.237H58.7998L58.7998 467.2H6.83799L6.83799 525.237Z" fill="#999999" stroke="#263238" stroke-miterlimit="10" stroke-linecap="round" stroke-linejoin="round"/>
<path d="M93.7394 467.2H58.4614V525.236H93.7394V467.2Z" fill="white" stroke="#263238" stroke-miterlimit="10" stroke-linecap="round" stroke-linejoin="round"/>
<path d="M7.13633 455.364C12.2306 458.8 18.0891 460.582 23.9475 460.455C24.7116 460.455 25.3484 460.455 25.9852 460.073C26.622 459.691 27.1314 458.927 27.1314 458.164C27.1314 457.273 26.3673 456.636 25.7305 456.127C21.9098 453.327 17.8344 451.164 13.6316 449.509C11.4665 448.745 9.30141 448.109 7.00898 447.6C5.22597 447.218 3.31561 446.327 1.40525 446.327C0.895818 450.273 4.46183 453.582 7.13633 455.364Z" fill="#FFEFC6"/>
<path d="M78.4566 432.836C81.0038 429.655 84.5698 427.491 88.3905 427.109C88.6452 427.109 88.8999 427.109 89.0273 427.236C89.282 427.491 89.282 427.873 89.282 428.127C89.4094 433.218 87.8811 438.309 85.0792 442.127C83.8057 443.909 82.15 445.564 80.2396 446.2C78.8387 446.709 77.1831 446.709 75.7821 445.945C74.3812 445.182 74.6359 444.036 74.7633 442.509C75.1453 439.073 76.4189 435.636 78.4566 432.836Z" fill="#FFEFC6"/>
<path opacity="0.2" d="M78.4566 432.836C81.0038 429.655 84.5698 427.491 88.3905 427.109C88.6452 427.109 88.8999 427.109 89.0273 427.236C89.282 427.491 89.282 427.873 89.282 428.127C89.4094 433.218 87.8811 438.309 85.0792 442.127C83.8057 443.909 82.15 445.564 80.2396 446.2C78.8387 446.709 77.1831 446.709 75.7821 445.945C74.3812 445.182 74.6359 444.036 74.7633 442.509C75.1453 439.073 76.4189 435.636 78.4566 432.836Z" fill="black"/>
<path d="M54.2586 437.418C56.1689 435.127 57.4425 432.2 57.5699 429.145C57.5699 426.6 56.8057 424.055 55.5322 421.764C54.2586 419.6 52.7303 417.691 51.0747 415.782C50.5652 421.382 50.4379 427.109 50.5652 432.836C50.5652 433.982 50.6926 435.255 51.202 436.4C51.7114 437.418 52.7303 438.309 53.7492 438.055L54.2586 437.418Z" fill="#FFEFC6"/>
<path d="M61.5181 420.236C57.9521 423.8 55.787 428.891 55.5323 434.236C55.4049 436.146 55.5323 438.055 56.4238 439.709C57.188 441.364 58.8436 442.636 60.4992 442.382C62.2822 442.255 63.5558 440.6 64.5747 438.946C66.2303 436.273 68.1407 432.327 67.2492 429.018C66.103 425.582 64.0653 422.4 61.5181 420.236Z" fill="#FFEFC6"/>
<path opacity="0.1" d="M61.5181 420.236C57.9521 423.8 55.787 428.891 55.5323 434.236C55.4049 436.146 55.5323 438.055 56.4238 439.709C57.188 441.364 58.8436 442.636 60.4992 442.382C62.2822 442.255 63.5558 440.6 64.5747 438.946C66.2303 436.273 68.1407 432.327 67.2492 429.018C66.103 425.582 64.0653 422.4 61.5181 420.236Z" fill="black"/>
<path d="M72.0885 438.945C74.8904 436.273 76.164 431.818 76.0366 427.618C75.9093 423.418 74.6357 419.345 73.3621 415.4C70.5603 419.218 68.2678 423.545 66.6122 428.127C65.9754 429.909 65.466 431.691 65.3386 433.6C65.3386 435.509 65.848 437.545 67.1216 438.691C68.3952 439.964 70.4329 440.345 71.7065 439.2C71.5791 439.327 71.3244 439.327 71.1971 439.454L72.0885 438.945Z" fill="#FFEFC6"/>
<g opacity="0.2">
<path d="M72.0885 438.945C74.8904 436.273 76.164 431.818 76.0366 427.618C75.9093 423.418 74.6357 419.345 73.3621 415.4C70.5603 419.218 68.2678 423.545 66.6122 428.127C65.9754 429.909 65.466 431.691 65.3386 433.6C65.3386 435.509 65.848 437.545 67.1216 438.691C68.3952 439.964 70.4329 440.345 71.7065 439.2C71.5791 439.327 71.3244 439.327 71.1971 439.454L72.0885 438.945Z" fill="black"/>
</g>
<path d="M78.5838 422.527C79.348 427.746 79.9848 432.964 79.0933 438.182C78.2018 443.273 75.3999 448.364 71.0698 450.146C69.2868 450.909 66.9943 450.909 65.7207 449.255C64.9566 448.109 64.8292 446.455 65.2113 445.055C65.5934 443.655 66.3575 442.382 67.1217 441.237C70.5603 435.509 77.8197 421.891 78.5838 422.527Z" fill="#FFEFC6"/>
<path d="M78.5838 422.527C79.348 427.746 79.9848 432.964 79.0933 438.182C78.2018 443.273 75.3999 448.364 71.0698 450.146C69.2868 450.909 66.9943 450.909 65.7207 449.255C64.9566 448.109 64.8292 446.455 65.2113 445.055C65.5934 443.655 66.3575 442.382 67.1217 441.237C70.5603 435.509 77.8197 421.891 78.5838 422.527Z" fill="#FFEFC6"/>
<g opacity="0.1">
<path d="M78.5838 422.527C79.348 427.746 79.9848 432.964 79.0933 438.182C78.2018 443.273 75.3999 448.364 71.0698 450.146C69.2868 450.909 66.9943 450.909 65.7207 449.255C64.9566 448.109 64.8292 446.455 65.2113 445.055C65.5934 443.655 66.3575 442.382 67.1217 441.237C70.5603 435.509 77.8197 421.891 78.5838 422.527Z" fill="black"/>
</g>
<path d="M65.2114 429.527C66.867 432.582 68.268 435.891 68.9047 439.454C69.5415 443.018 69.1595 446.836 67.6312 450.018C65.9755 453.2 63.0463 455.491 59.8624 455.491C57.4426 455.491 55.0228 453.963 53.6219 451.673C52.0936 449.127 53.2398 446.709 54.386 444.163C56.9332 438.309 61.1359 433.854 65.2114 429.527Z" fill="#FFEFC6"/>
<path d="M97.0507 439.073C97.9422 440.473 97.9422 442.509 97.3054 444.036C96.6686 445.691 95.6498 446.964 94.5036 448.236C86.8621 456.382 76.0367 460.582 65.5934 459.309C64.7019 459.182 63.6831 458.927 63.301 458.164C62.7916 457.273 63.301 456 64.0652 455.236C64.8293 454.6 65.8482 454.345 66.7397 454.091C72.0887 452.818 77.183 450.4 81.8952 447.218C86.4801 444.036 92.0838 441.745 97.0507 439.073Z" fill="#FFEFC6"/>
<path opacity="0.1" d="M97.0507 439.073C97.9422 440.473 97.9422 442.509 97.3054 444.036C96.6686 445.691 95.6498 446.964 94.5036 448.236C86.8621 456.382 76.0367 460.582 65.5934 459.309C64.7019 459.182 63.6831 458.927 63.301 458.164C62.7916 457.273 63.301 456 64.0652 455.236C64.8293 454.6 65.8482 454.345 66.7397 454.091C72.0887 452.818 77.183 450.4 81.8952 447.218C86.4801 444.036 92.0838 441.745 97.0507 439.073Z" fill="black"/>
<path d="M78.5838 439.073C79.3479 437.927 80.3668 436.655 81.6404 436.782C82.6592 436.909 83.296 437.927 83.8054 438.946C85.4611 443.146 83.4234 448.109 80.3668 450.909C77.1828 453.709 73.1074 454.727 69.2867 455.746C67.8858 456.127 66.6122 456.382 65.2113 456.764C63.5556 457.146 60.3717 456.636 61.7726 454.091C62.7915 452.436 65.9754 451.418 67.3763 450.4C71.7065 447.473 75.5272 443.655 78.5838 439.073Z" fill="#FFEFC6"/>
<path d="M95.1404 455.364C90.0461 458.8 84.1876 460.582 78.3292 460.455C77.5651 460.455 76.9283 460.455 76.2915 460.073C75.6547 459.691 75.1453 458.927 75.1453 458.164C75.1453 457.273 75.9094 456.636 76.5462 456.127C80.3669 453.327 84.4423 451.164 88.6451 449.509C90.8102 448.745 92.9753 448.109 95.2677 447.6C97.0507 447.218 98.9611 446.327 100.744 446.327C101.381 450.273 97.8149 453.582 95.1404 455.364Z" fill="#FFEFC6"/>
<path d="M78.9659 470.891C83.9328 470.509 88.645 468.218 92.7205 465.036C93.4846 464.4 94.3761 463.509 93.994 462.491C93.7393 461.855 92.9752 461.473 92.3384 461.346C87.6262 459.818 82.9139 458.164 78.0744 458.418C75.7819 458.546 73.4895 459.055 71.3244 460.2C69.6688 461.091 66.2301 463.127 65.848 465.291C65.3386 467.582 69.6688 469.236 71.1971 469.873C73.6168 470.764 76.2914 471.146 78.9659 470.891Z" fill="#FFEFC6"/>
<path opacity="0.1" d="M78.9659 470.891C83.9328 470.509 88.645 468.218 92.7205 465.036C93.4846 464.4 94.3761 463.509 93.994 462.491C93.7393 461.855 92.9752 461.473 92.3384 461.346C87.6262 459.818 82.9139 458.164 78.0744 458.418C75.7819 458.546 73.4895 459.055 71.3244 460.2C69.6688 461.091 66.2301 463.127 65.848 465.291C65.3386 467.582 69.6688 469.236 71.1971 469.873C73.6168 470.764 76.2914 471.146 78.9659 470.891Z" fill="black"/>
<path d="M59.4802 458.673C64.3198 457.527 69.2867 457.273 74.1263 457.909C75.3999 458.036 76.5461 458.291 77.6923 458.927C78.7112 459.564 79.6027 460.836 79.73 462.236C79.73 463.636 78.9659 464.909 77.947 465.673C76.9282 466.436 75.6546 466.818 74.5084 467.073C70.9424 467.964 67.3764 468.855 63.8104 468.473C61.1359 468.091 58.0793 466.818 56.2963 464.4C54.0039 461.091 56.9331 459.309 59.4802 458.673Z" fill="#FFEFC6"/>
<path opacity="0.1" d="M59.4802 458.673C64.3198 457.527 69.2867 457.273 74.1263 457.909C75.3999 458.036 76.5461 458.291 77.6923 458.927C78.7112 459.564 79.6027 460.836 79.73 462.236C79.73 463.636 78.9659 464.909 77.947 465.673C76.9282 466.436 75.6546 466.818 74.5084 467.073C70.9424 467.964 67.3764 468.855 63.8104 468.473C61.1359 468.091 58.0793 466.818 56.2963 464.4C54.0039 461.091 56.9331 459.309 59.4802 458.673Z" fill="white"/>
<path d="M44.8342 458.673C43.9427 457.909 42.9238 457.145 42.4144 456C41.9049 454.855 41.9049 453.327 42.6691 452.436C43.8153 451.164 49.9285 449.255 51.5841 448.873C52.8577 448.618 54.2586 449.127 55.4048 449.636C57.1878 450.4 58.9708 451.291 60.6265 452.309C61.518 452.818 62.4095 453.327 63.0463 454.091C63.6831 454.855 64.0651 456 63.9378 457.018C63.5557 458.545 62.1548 459.309 60.8812 459.691C57.5699 460.836 54.1312 461.473 50.5652 461.345C50.6926 461.345 46.3624 459.818 44.8342 458.673Z" fill="#FFEFC6"/>
<g opacity="0.1">
<path d="M44.8342 458.673C43.9427 457.909 42.9238 457.145 42.4144 456C41.9049 454.855 41.9049 453.327 42.6691 452.436C43.8153 451.164 49.9285 449.255 51.5841 448.873C52.8577 448.618 54.2586 449.127 55.4048 449.636C57.1878 450.4 58.9708 451.291 60.6265 452.309C61.518 452.818 62.4095 453.327 63.0463 454.091C63.6831 454.855 64.0651 456 63.9378 457.018C63.5557 458.545 62.1548 459.309 60.8812 459.691C57.5699 460.836 54.1312 461.473 50.5652 461.345C50.6926 461.345 46.3624 459.818 44.8342 458.673Z" fill="black"/>
</g>
<path d="M57.4426 461.091C58.9709 461.6 60.3718 462.618 61.136 464.145C61.9001 465.8 61.6454 467.964 60.3718 468.982C59.4803 469.745 58.2068 470 57.0606 470C55.6596 470.127 54.2587 470.254 52.8578 470.382C51.9663 470.509 50.9474 470.509 50.3106 470C49.2918 469.236 49.2917 467.582 49.2917 466.182C49.2917 464.909 49.2917 463.509 49.8012 462.364C50.438 460.836 51.4568 460.073 52.8578 460.327C54.2587 460.709 55.9143 460.582 57.4426 461.091Z" fill="#FFEFC6"/>
<path d="M23.8201 432.836C21.2729 429.655 17.7069 427.491 13.8862 427.109C13.6315 427.109 13.3767 427.109 13.2494 427.236C12.9947 427.491 12.9947 427.873 12.9947 428.127C12.8673 433.218 14.3956 438.309 17.1975 442.127C18.471 443.909 20.1267 445.564 22.037 446.2C23.438 446.709 25.0936 446.709 26.4946 445.945C27.8955 445.182 27.6408 444.036 27.5134 442.509C27.1313 439.073 25.8578 435.636 23.8201 432.836Z" fill="#FFEFC6"/>
<path opacity="0.2" d="M23.8201 432.836C21.2729 429.655 17.7069 427.491 13.8862 427.109C13.6315 427.109 13.3767 427.109 13.2494 427.236C12.9947 427.491 12.9947 427.873 12.9947 428.127C12.8673 433.218 14.3956 438.309 17.1975 442.127C18.471 443.909 20.1267 445.564 22.037 446.2C23.438 446.709 25.0936 446.709 26.4946 445.945C27.8955 445.182 27.6408 444.036 27.5134 442.509C27.1313 439.073 25.8578 435.636 23.8201 432.836Z" fill="black"/>
<path d="M48.0181 437.418C46.1077 435.127 44.8341 432.2 44.7068 429.145C44.7068 426.6 45.4709 424.055 46.7445 421.764C48.0181 419.6 49.5464 417.691 51.202 415.782C51.7114 421.382 51.8388 427.109 51.7114 432.836C51.7114 433.982 51.5841 435.255 51.0747 436.4C50.5652 437.418 49.5464 438.309 48.5275 438.055L48.0181 437.418Z" fill="#FFEFC6"/>
<path d="M40.8861 420.236C44.4521 423.8 46.6171 428.891 46.8719 434.236C46.9992 436.146 46.8719 438.055 45.9804 439.709C45.2162 441.364 43.5606 442.636 41.9049 442.382C40.1219 442.255 38.8483 440.6 37.8295 438.946C36.1738 436.273 34.2635 432.327 35.155 429.018C36.1738 425.582 38.2116 422.4 40.8861 420.236Z" fill="#FFEFC6"/>
<path opacity="0.1" d="M40.8861 420.236C44.4521 423.8 46.6171 428.891 46.8719 434.236C46.9992 436.146 46.8719 438.055 45.9804 439.709C45.2162 441.364 43.5606 442.636 41.9049 442.382C40.1219 442.255 38.8483 440.6 37.8295 438.946C36.1738 436.273 34.2635 432.327 35.155 429.018C36.1738 425.582 38.2116 422.4 40.8861 420.236Z" fill="black"/>
<path d="M30.1879 438.945C27.3861 436.273 26.1125 431.818 26.2399 427.618C26.3672 423.418 27.6408 419.345 28.9144 415.4C31.7162 419.218 34.0087 423.545 35.6643 428.127C36.3011 429.909 36.8105 431.691 36.9379 433.6C36.9379 435.509 36.4285 437.545 35.1549 438.691C33.8813 439.964 31.8436 440.345 30.57 439.2C30.6974 439.327 30.9521 439.327 31.0794 439.454L30.1879 438.945Z" fill="#FFEFC6"/>
<g opacity="0.2">
<path d="M30.1879 438.945C27.3861 436.273 26.1125 431.818 26.2399 427.618C26.3672 423.418 27.6408 419.345 28.9144 415.4C31.7162 419.218 34.0087 423.545 35.6643 428.127C36.3011 429.909 36.8105 431.691 36.9379 433.6C36.9379 435.509 36.4285 437.545 35.1549 438.691C33.8813 439.964 31.8436 440.345 30.57 439.2C30.6974 439.327 30.9521 439.327 31.0794 439.454L30.1879 438.945Z" fill="black"/>
</g>
<path d="M23.6927 422.527C22.9286 427.746 22.2918 432.964 23.1833 438.182C24.0748 443.273 26.8767 448.364 31.2068 450.146C32.9898 450.909 35.2823 450.909 36.5558 449.255C37.32 448.109 37.4473 446.455 37.0653 445.055C36.6832 443.655 35.919 442.382 35.1549 441.237C31.7163 435.509 24.4569 421.891 23.6927 422.527Z" fill="#FFEFC6"/>
<path d="M23.6927 422.527C22.9286 427.746 22.2918 432.964 23.1833 438.182C24.0748 443.273 26.8767 448.364 31.2068 450.146C32.9898 450.909 35.2823 450.909 36.5558 449.255C37.32 448.109 37.4473 446.455 37.0653 445.055C36.6832 443.655 35.919 442.382 35.1549 441.237C31.7163 435.509 24.4569 421.891 23.6927 422.527Z" fill="#FFEFC6"/>
<g opacity="0.1">
<path d="M23.6927 422.527C22.9286 427.746 22.2918 432.964 23.1833 438.182C24.0748 443.273 26.8767 448.364 31.2068 450.146C32.9898 450.909 35.2823 450.909 36.5558 449.255C37.32 448.109 37.4473 446.455 37.0653 445.055C36.6832 443.655 35.919 442.382 35.1549 441.237C31.7163 435.509 24.4569 421.891 23.6927 422.527Z" fill="black"/>
</g>
<path d="M37.0655 429.527C35.4098 432.582 34.0089 435.891 33.3721 439.454C32.7353 443.018 33.1174 446.836 34.6457 450.018C36.3013 453.2 39.2305 455.491 42.4145 455.491C44.8343 455.491 47.2541 453.963 48.655 451.673C50.1833 449.127 49.0371 446.709 47.8909 444.163C45.3437 438.309 41.1409 433.854 37.0655 429.527Z" fill="#FFEFC6"/>
<path d="M5.22595 439.455C4.33445 440.855 4.33444 442.764 4.97123 444.418C5.60802 445.946 6.62688 447.346 7.7731 448.491C15.2872 456.509 25.8578 460.582 36.1738 459.309C37.0653 459.182 37.9568 458.927 38.4662 458.164C38.9757 457.273 38.4662 456 37.8294 455.364C37.0653 454.727 36.1738 454.473 35.1549 454.218C29.9333 452.946 24.9663 450.655 20.3815 447.473C15.5419 444.291 10.1929 442.127 5.22595 439.455Z" fill="#FFEFC6"/>
<path opacity="0.1" d="M5.22595 439.455C4.33445 440.855 4.33444 442.764 4.97123 444.418C5.60802 445.946 6.62688 447.346 7.7731 448.491C15.2872 456.509 25.8578 460.582 36.1738 459.309C37.0653 459.182 37.9568 458.927 38.4662 458.164C38.9757 457.273 38.4662 456 37.8294 455.364C37.0653 454.727 36.1738 454.473 35.1549 454.218C29.9333 452.946 24.9663 450.655 20.3815 447.473C15.5419 444.291 10.1929 442.127 5.22595 439.455Z" fill="black"/>
<path d="M22.8013 438.691C22.0371 437.545 21.1456 436.273 19.872 436.4C18.8532 436.527 18.2164 437.545 17.8343 438.436C16.1787 442.509 18.089 447.473 21.273 450.273C24.3296 453.073 28.405 454.091 32.2257 454.982C33.4993 455.364 34.9002 455.618 36.1738 456C37.7021 456.382 40.886 455.873 39.4851 453.327C38.5936 451.673 35.4096 450.654 34.0087 449.764C29.6786 446.964 25.8578 443.145 22.8013 438.691Z" fill="#FFEFC6"/>
<path d="M23.3107 470.891C18.3438 470.509 13.6316 468.218 9.55614 465.036C8.79199 464.4 7.90049 463.509 8.28256 462.491C8.53728 461.855 9.30142 461.473 9.9382 461.346C14.6504 459.818 19.3627 458.164 24.2022 458.418C26.4947 458.546 28.7871 459.055 30.9522 460.2C32.6078 461.091 36.0465 463.127 36.4285 465.291C36.938 467.582 32.6078 469.236 31.0795 469.873C28.6597 470.764 25.9852 471.146 23.3107 470.891Z" fill="#FFEFC6"/>
<path opacity="0.1" d="M23.3107 470.891C18.3438 470.509 13.6316 468.218 9.55614 465.036C8.79199 464.4 7.90049 463.509 8.28256 462.491C8.53728 461.855 9.30142 461.473 9.9382 461.346C14.6504 459.818 19.3627 458.164 24.2022 458.418C26.4947 458.546 28.7871 459.055 30.9522 460.2C32.6078 461.091 36.0465 463.127 36.4285 465.291C36.938 467.582 32.6078 469.236 31.0795 469.873C28.6597 470.764 25.9852 471.146 23.3107 470.891Z" fill="black"/>
<path d="M42.7965 458.673C37.9569 457.527 32.9899 457.273 28.1504 457.909C26.8768 458.036 25.7306 458.291 24.5843 458.927C23.5655 459.564 22.674 460.836 22.5466 462.236C22.5466 463.636 23.3108 464.909 24.3296 465.673C25.3485 466.436 26.6221 466.818 27.7683 467.073C31.3343 467.964 34.9003 468.855 38.4663 468.473C41.1408 468.091 44.1974 466.818 45.9804 464.4C48.2728 461.091 45.471 459.309 42.7965 458.673Z" fill="#FFEFC6"/>
<path opacity="0.1" d="M42.7965 458.673C37.9569 457.527 32.9899 457.273 28.1504 457.909C26.8768 458.036 25.7306 458.291 24.5843 458.927C23.5655 459.564 22.674 460.836 22.5466 462.236C22.5466 463.636 23.3108 464.909 24.3296 465.673C25.3485 466.436 26.6221 466.818 27.7683 467.073C31.3343 467.964 34.9003 468.855 38.4663 468.473C41.1408 468.091 44.1974 466.818 45.9804 464.4C48.2728 461.091 45.471 459.309 42.7965 458.673Z" fill="white"/>
<path d="M57.4425 458.673C58.334 457.909 59.3528 457.145 59.8623 456C60.3717 454.855 60.3717 453.327 59.6075 452.436C58.4613 451.164 52.3482 449.255 50.6925 448.873C49.4189 448.618 48.018 449.127 46.8718 449.636C45.0888 450.4 43.3058 451.291 41.6501 452.309C40.7586 452.818 39.8671 453.327 39.2304 454.091C38.5936 454.855 38.2115 456 38.3389 457.018C38.7209 458.545 40.1219 459.309 41.3954 459.691C44.7067 460.836 48.1454 461.473 51.7114 461.345C51.584 461.345 55.9142 459.818 57.4425 458.673Z" fill="#FFEFC6"/>
<g opacity="0.1">
<path d="M57.4425 458.673C58.334 457.909 59.3528 457.145 59.8623 456C60.3717 454.855 60.3717 453.327 59.6075 452.436C58.4613 451.164 52.3482 449.255 50.6925 448.873C49.4189 448.618 48.018 449.127 46.8718 449.636C45.0888 450.4 43.3058 451.291 41.6501 452.309C40.7586 452.818 39.8671 453.327 39.2304 454.091C38.5936 454.855 38.2115 456 38.3389 457.018C38.7209 458.545 40.1219 459.309 41.3954 459.691C44.7067 460.836 48.1454 461.473 51.7114 461.345C51.584 461.345 55.9142 459.818 57.4425 458.673Z" fill="black"/>
</g>
<path d="M44.9616 461.091C43.4333 461.6 42.0324 462.618 41.2682 464.145C40.5041 465.8 40.7588 467.964 42.0324 468.982C42.9239 469.745 44.1974 470 45.3436 470C46.7446 470.127 48.1455 470.254 49.5464 470.382C50.4379 470.509 51.4568 470.509 52.0936 470C53.1124 469.236 53.1124 467.582 53.1124 466.182C53.1124 464.909 53.1124 463.509 52.603 462.364C51.9662 460.836 50.9474 460.073 49.5464 460.327C48.0181 460.709 46.3625 460.582 44.9616 461.091Z" fill="#FFEFC6"/>
<path d="M51.8374 430.799C51.5832 430.545 51.3289 430.418 51.0747 430.291C51.2018 430.291 51.2018 430.291 51.3289 430.291H51.4561C51.4561 430.291 51.5832 430.291 51.5832 430.418L51.7103 430.545C51.8374 430.672 51.8374 430.672 51.8374 430.799Z" fill="#FFEFC6"/>
<path opacity="0.1" d="M51.8374 430.799C51.5832 430.545 51.3289 430.418 51.0747 430.291C51.2018 430.291 51.2018 430.291 51.3289 430.291H51.4561C51.4561 430.291 51.5832 430.291 51.5832 430.418L51.7103 430.545C51.8374 430.672 51.8374 430.672 51.8374 430.799Z" fill="#FFEFC6"/>
<path d="M57.1879 445.182C56.6785 446.582 56.0417 447.982 55.0228 449.127C54.004 450.145 52.7304 450.909 51.3295 450.909H51.2021H51.0747C49.6738 450.909 48.4002 450.145 47.3814 449.127C46.3625 448.109 45.7257 446.709 45.2163 445.182C44.5795 443.273 44.0701 441.236 44.3248 439.2C44.5795 437.036 45.8531 435 47.254 433.473C47.6361 433.473 48.9097 432.073 49.2917 431.691C49.2917 431.691 49.4191 431.691 49.4191 431.564L49.5464 431.436C49.8012 431.182 50.1832 430.927 50.5653 430.673C50.6927 430.545 50.9474 430.418 51.0747 430.291C51.0747 430.291 51.2021 430.291 51.2021 430.164C51.2021 430.164 51.3295 430.164 51.3295 430.036C51.5842 430.164 51.8389 430.291 52.0936 430.545C52.603 430.927 52.9851 431.309 53.2398 431.564C53.6219 431.818 54.8955 433.345 55.2775 433.345C56.8058 434.873 57.952 436.782 58.2068 439.073C58.3341 441.236 57.8247 443.273 57.1879 445.182Z" fill="#FFEFC6"/>
<path d="M51.2007 430.291C51.2007 430.291 51.0736 430.291 51.0736 430.418C51.0736 430.418 50.9465 430.418 50.9465 430.545C50.8193 430.672 50.6922 430.799 50.438 430.926C50.5651 430.672 50.6922 430.418 50.9465 430.418C50.9465 430.291 51.0736 430.291 51.2007 430.291Z" fill="#FFEFC6"/>
<g opacity="0.2">
<path d="M57.1879 445.181C56.6785 446.581 56.0417 447.982 55.0228 449.127C54.004 450.145 52.7304 450.909 51.3295 450.909H51.2021H51.0747C49.6738 450.909 48.4002 450.145 47.3814 449.127C46.3625 448.109 45.7257 446.709 45.2163 445.181C44.5795 443.272 44.0701 441.236 44.3248 439.2C44.5795 437.036 45.8531 435 47.254 433.472C47.6361 433.472 48.9097 432.072 49.2917 431.691C49.5465 431.563 50.0559 431.054 50.438 430.672C50.6927 430.418 50.9474 430.291 51.2021 430.163C51.4568 430.291 51.7115 430.418 51.9662 430.672C52.4757 431.054 52.8577 431.436 53.1125 431.691C53.4945 431.945 54.7681 433.472 55.1502 433.472C56.6785 435 57.8247 436.909 58.0794 439.2C58.3341 441.236 57.8247 443.272 57.1879 445.181Z" fill="white"/>
<path d="M51.2007 430.291C50.9465 430.418 50.6922 430.545 50.438 430.799C50.5651 430.545 50.6922 430.291 50.9465 430.291C50.9465 430.291 51.0736 430.291 51.2007 430.291Z" fill="white"/>
</g>
<path opacity="0.1" d="M51.8374 430.799C51.5832 430.545 51.3289 430.418 51.0747 430.291C51.2018 430.291 51.2018 430.291 51.3289 430.291C51.5832 430.291 51.8374 430.545 51.8374 430.799Z" fill="white"/>
<path d="M231.922 1V21.2364H226.955" stroke="#263238" stroke-miterlimit="10" stroke-linecap="round" stroke-linejoin="round"/>
<path d="M226.955 21.2364V1" stroke="#263238" stroke-miterlimit="10" stroke-linecap="round" stroke-linejoin="round"/>
<path d="M226.955 18.1818C202.248 18.1818 182.253 38.1636 182.253 62.8545H271.658C271.658 38.1636 251.662 18.1818 226.955 18.1818Z" fill="white"/>
<mask id="mask6_159_624" style="mask-type:luminance" maskUnits="userSpaceOnUse" x="182" y="18" width="90" height="45">
<path d="M226.955 18.1818C202.248 18.1818 182.253 38.1636 182.253 62.8545H271.658C271.658 38.1636 251.662 18.1818 226.955 18.1818Z" fill="white"/>
</mask>
<g mask="url(#mask6_159_624)">
<path d="M218.677 18.9453C220.078 18.6908 221.351 18.4362 222.752 18.309C245.422 20.3453 263.252 39.4362 263.252 62.7271H254.974C255.101 40.9635 239.436 22.8908 218.677 18.9453Z" fill="#999999"/>
</g>
<path d="M226.955 18.1818C202.248 18.1818 182.253 38.1636 182.253 62.8545H271.658C271.658 38.1636 251.662 18.1818 226.955 18.1818Z" stroke="#263238" stroke-miterlimit="10" stroke-linecap="round" stroke-linejoin="round"/>
</g>
</g>
<defs>
<filter id="filter0_d_159_624" x="-65.5" y="-3.5" width="564" height="542" filterUnits="userSpaceOnUse" color-interpolation-filters="sRGB">
<feFlood flood-opacity="0" result="BackgroundImageFix"/>
<feColorMatrix in="SourceAlpha" type="matrix" values="0 0 0 0 0 0 0 0 0 0 0 0 0 0 0 0 0 0 127 0" result="hardAlpha"/>
<feOffset dx="4" dy="4"/>
<feGaussianBlur stdDeviation="4"/>
<feComposite in2="hardAlpha" operator="out"/>
<feColorMatrix type="matrix" values="0 0 0 0 0.12549 0 0 0 0 0.0196078 0 0 0 0 0.407843 0 0 0 0.75 0"/>
<feBlend mode="normal" in2="BackgroundImageFix" result="effect1_dropShadow_159_624"/>
<feBlend mode="normal" in="SourceGraphic" in2="effect1_dropShadow_159_624" result="shape"/>
</filter>
</defs>
</svg>
