<svg width="640" height="602" viewBox="0 0 640 602" fill="none" xmlns="http://www.w3.org/2000/svg">
<g clip-path="url(#clip0_1082_1931)">
<path d="M540.601 106.109C518.481 84.2673 492.851 66.2899 464.779 52.9256C422.977 33.3788 376.924 23.972 330.871 23.4018C196.271 21.7729 186.031 179.857 144.65 201.78C103.269 223.702 28.2616 226.335 25.6676 314.242C24.0515 369.529 36.9533 426.378 73.2687 469.448C106.515 508.895 155.379 528.89 203.51 543.658C257.548 560.246 314.873 576.521 371.723 565.377C430.12 553.893 471.067 507.714 518.98 476.521C549.143 456.865 576.224 436.178 594.843 404.659C597.07 400.885 599.171 397.048 601.145 393.148C626.079 344.159 631.023 287.65 617.225 234.643C604.88 187.011 577.025 141.701 540.601 106.109Z" fill="#FFD260"/>
<path opacity="0.7" d="M540.601 106.109C518.481 84.2673 492.851 66.2899 464.779 52.9256C422.977 33.3788 376.924 23.972 330.871 23.4018C196.271 21.7729 186.031 179.857 144.65 201.78C103.269 223.702 28.2616 226.335 25.6676 314.242C24.0515 369.529 36.9533 426.378 73.2687 469.448C106.515 508.895 155.379 528.89 203.51 543.658C257.548 560.246 314.873 576.521 371.723 565.377C430.12 553.893 471.067 507.714 518.98 476.521C549.143 456.865 576.224 436.178 594.843 404.659C597.07 400.885 599.171 397.048 601.145 393.148C626.079 344.159 631.023 287.65 617.225 234.643C604.88 187.011 577.025 141.701 540.601 106.109Z" fill="white"/>
<path d="M0.678711 594.141H630.058" stroke="#263238" stroke-linecap="round" stroke-linejoin="round"/>
<path d="M538.823 498.253C541.851 499.61 549.239 499.407 549.253 499.407C549.266 499.407 547.664 494.574 547.515 494.276C545.898 490.882 540.724 485.276 536.65 485.846C535.952 485.945 535.283 486.191 534.687 486.567C534.092 486.944 533.582 487.442 533.194 488.03C532.805 488.617 532.545 489.28 532.431 489.976C532.318 490.671 532.353 491.382 532.535 492.063C533.282 494.981 536.242 497.126 538.823 498.253Z" fill="#263238"/>
<path d="M541.376 519.673C544.513 520.121 551.113 518.22 551.643 518.057C552.722 521.837 554.061 525.538 555.649 529.134C556.546 531.238 557.537 533.315 558.542 535.405C557.944 534.523 557.388 533.736 557.306 533.641C554.848 530.79 548.411 526.745 544.54 528.387C543.904 528.679 543.336 529.102 542.873 529.627C542.411 530.153 542.064 530.77 541.855 531.438C541.647 532.106 541.581 532.81 541.662 533.505C541.743 534.201 541.969 534.871 542.326 535.473C543.752 538.079 547.188 539.369 549.972 539.763C552.756 540.156 558.447 538.663 559.941 538.242L561.122 540.618C563.037 544.432 564.966 548.219 566.731 551.993C567.356 553.35 567.926 554.708 568.497 555.984C567.967 555.196 567.505 554.545 567.424 554.45C564.966 551.613 558.528 547.554 554.658 549.21C554.022 549.501 553.454 549.922 552.992 550.446C552.53 550.97 552.183 551.586 551.974 552.253C551.765 552.92 551.699 553.623 551.78 554.318C551.861 555.012 552.087 555.681 552.444 556.282C553.802 558.888 557.306 560.178 560.09 560.585C562.874 560.992 568.021 559.621 569.8 559.133C570.344 560.49 570.887 561.848 571.349 563.205C571.647 564.142 572.001 565.024 572.245 565.92C572.49 566.816 572.775 567.807 573.033 568.73C573.467 570.522 573.916 572.381 574.296 574.159C574.567 575.381 574.798 576.562 575.043 577.743C574.432 576.386 573.196 573.834 573.06 573.671C571.064 570.481 565.319 565.526 561.231 566.544C560.558 566.737 559.934 567.068 559.398 567.518C558.862 567.967 558.427 568.525 558.121 569.153C557.815 569.782 557.645 570.468 557.621 571.167C557.598 571.866 557.722 572.561 557.985 573.209C559.004 576.005 562.195 577.797 564.884 578.639C567.845 579.535 574.391 578.707 575.219 578.639C575.6 580.594 575.966 582.507 576.279 584.313C576.93 587.978 577.433 591.29 577.813 594.141H580.529C580.054 591.181 579.457 587.706 578.696 583.851C578.302 581.87 577.854 579.779 577.338 577.58C579.307 576.784 581.23 575.878 583.096 574.865C585.256 577.2 590.783 579.942 591.489 580.295C590.742 582.141 589.995 583.933 589.262 585.616C587.904 588.806 586.546 591.67 585.351 594.154H588.311C589.33 591.901 590.416 589.362 591.557 586.593C592.331 584.707 593.119 582.698 593.907 580.621C594.694 580.784 601.186 582.1 604.201 581.422C606.917 580.797 610.272 579.25 611.494 576.535C611.807 575.911 611.984 575.228 612.015 574.53C612.046 573.833 611.929 573.137 611.673 572.488C611.417 571.838 611.026 571.25 610.528 570.762C610.029 570.273 609.432 569.896 608.778 569.653C604.785 568.295 598.687 572.843 596.46 575.87C596.324 576.046 595.102 578.15 594.368 579.48C594.681 578.625 595.007 577.811 595.319 576.929C595.957 575.191 596.541 573.44 597.18 571.499C597.451 570.576 597.736 569.653 598.008 568.716C598.28 567.78 598.511 566.775 598.769 565.798C599.312 563.517 599.746 561.183 600.127 558.807C601.648 559.364 607.08 561.264 609.905 561.06C612.73 560.857 616.22 559.839 617.85 557.341C618.251 556.768 618.527 556.117 618.659 555.43C618.792 554.743 618.778 554.036 618.62 553.355C618.461 552.674 618.16 552.033 617.737 551.476C617.315 550.919 616.779 550.456 616.166 550.12C612.417 548.178 605.708 551.748 603.047 554.395C602.87 554.558 601.172 556.676 600.262 557.857C600.493 556.499 600.724 555.02 600.901 553.567C601.417 549.4 601.811 545.151 602.259 540.93L602.666 537.048C603.21 537.251 609.62 539.64 612.77 539.41C615.582 539.22 619.099 538.188 620.715 535.69C621.117 535.118 621.394 534.468 621.527 533.781C621.661 533.095 621.649 532.388 621.491 531.707C621.333 531.026 621.034 530.386 620.613 529.828C620.191 529.27 619.657 528.807 619.045 528.469C615.297 526.541 608.588 530.098 605.912 532.745C605.722 532.948 603.277 536.002 602.693 536.817C602.992 533.98 603.318 531.143 603.753 528.36C604.32 524.605 605.132 520.892 606.184 517.243C606.428 517.338 613.11 519.863 616.342 519.632C619.153 519.442 622.671 518.41 624.287 515.913C624.691 515.341 624.969 514.691 625.104 514.004C625.239 513.317 625.227 512.61 625.069 511.928C624.912 511.246 624.612 510.606 624.189 510.048C623.766 509.49 623.23 509.028 622.617 508.691C618.868 506.764 612.159 510.32 609.484 512.967C609.28 513.184 606.659 516.469 606.224 517.039C606.224 516.822 606.32 516.605 606.387 516.388C607.543 512.757 609.02 509.236 610.801 505.868C611.752 503.995 612.784 502.257 613.803 500.587C615.011 501.185 620.498 503.845 623.431 503.967C626.365 504.09 629.855 503.438 631.743 501.144C632.206 500.618 632.553 500 632.761 499.331C632.969 498.662 633.033 497.957 632.95 497.261C632.866 496.566 632.637 495.896 632.277 495.295C631.917 494.694 631.434 494.175 630.86 493.773C627.356 491.452 620.294 494.248 617.347 496.597C617.184 496.719 615.704 498.198 614.631 499.312C615.106 498.565 615.582 497.791 616.057 497.085C617.823 494.371 619.588 492.104 621.191 490.068C622.101 488.914 622.943 487.882 623.757 486.932C625.238 486.932 631.2 486.728 633.807 485.507C636.415 484.285 639.24 482.086 639.878 479.167C640.04 478.493 640.06 477.793 639.936 477.11C639.813 476.428 639.548 475.779 639.16 475.204C638.771 474.63 638.268 474.142 637.68 473.773C637.093 473.404 636.436 473.161 635.749 473.059C631.566 472.611 626.582 478.353 625.061 481.787C624.925 482.086 623.391 486.973 623.472 486.959H623.527C622.739 487.869 621.897 488.832 621.001 489.918C619.357 491.927 617.524 494.221 615.704 496.855C613.702 499.659 611.865 502.578 610.204 505.596C608.332 508.971 606.764 512.505 605.518 516.157C605.512 516.202 605.512 516.248 605.518 516.293C605.518 515.058 605.518 511.61 605.45 511.338C604.961 507.619 601.838 500.696 597.696 499.922C597.004 499.815 596.298 499.854 595.622 500.037C594.947 500.22 594.317 500.542 593.774 500.984C593.232 501.425 592.788 501.976 592.471 502.6C592.155 503.224 591.973 503.907 591.937 504.605C591.693 507.578 593.852 510.537 595.944 512.411C598.307 514.528 604.866 516.564 605.45 516.727C604.289 520.476 603.382 524.299 602.734 528.17C602.327 530.423 601.987 532.704 601.688 534.957C601.688 533.885 601.688 532.935 601.688 532.799C601.2 529.066 598.076 522.143 593.934 521.383C593.242 521.276 592.536 521.315 591.86 521.498C591.185 521.68 590.555 522.003 590.012 522.445C589.47 522.886 589.026 523.436 588.709 524.06C588.393 524.684 588.211 525.368 588.175 526.066C587.931 529.039 590.077 531.998 592.182 533.871C594.287 535.745 599.869 537.631 601.349 538.093C601.24 538.975 601.118 539.858 601.009 540.808C600.507 545.029 600.018 549.251 599.42 553.377C599.203 554.83 598.945 556.255 598.687 557.68C598.687 556.73 598.687 555.929 598.687 555.807C598.198 552.088 595.075 545.165 590.932 544.391C590.24 544.284 589.534 544.323 588.858 544.507C588.182 544.691 587.553 545.015 587.011 545.458C586.469 545.901 586.027 546.453 585.712 547.079C585.398 547.704 585.219 548.389 585.188 549.088C584.943 552.047 587.089 555.006 589.18 556.88C591.272 558.753 596.324 560.449 598.09 561.02C597.777 562.472 597.465 563.924 597.112 565.323C596.84 566.273 596.636 567.196 596.324 568.132C596.012 569.069 595.726 569.992 595.428 570.847C594.789 572.585 594.151 574.377 593.486 576.06C593.037 577.241 592.589 578.34 592.128 579.467C592.358 578.014 592.739 575.177 592.739 574.947C592.698 571.636 591.805 568.391 590.145 565.526C590.156 565.158 590.133 564.79 590.077 564.427C589.989 563.733 589.756 563.065 589.393 562.466C589.03 561.868 588.546 561.352 587.971 560.953C587.396 560.554 586.743 560.28 586.056 560.149C585.368 560.017 584.661 560.032 583.979 560.192C579.905 561.278 577.324 568.418 577.189 572.178C577.189 572.395 577.324 574.825 577.433 576.345C577.229 575.463 577.039 574.594 576.822 573.63C576.401 571.838 575.912 570.046 575.464 568.132C575.179 567.209 574.907 566.286 574.622 565.336C574.337 564.386 573.956 563.449 573.63 562.499C572.829 560.3 571.906 558.101 570.914 555.916C572.49 555.536 578.071 554.124 580.312 552.4C582.553 550.676 584.902 547.893 584.875 544.921C584.898 544.216 584.77 543.515 584.5 542.864C584.231 542.213 583.825 541.626 583.312 541.143C582.798 540.661 582.187 540.293 581.52 540.064C580.853 539.835 580.145 539.751 579.443 539.817C575.246 540.265 571.62 546.943 570.86 550.676C570.86 550.907 570.561 553.608 570.452 555.101C569.855 553.744 569.257 552.481 568.619 551.178C566.745 547.405 564.735 543.645 562.738 539.898C562.127 538.744 561.53 537.591 560.932 536.437C561.489 536.301 568.157 534.767 570.67 532.84C572.897 531.129 575.26 528.333 575.246 525.36C575.264 524.657 575.134 523.958 574.863 523.309C574.591 522.659 574.186 522.075 573.673 521.593C573.16 521.111 572.552 520.743 571.887 520.513C571.221 520.282 570.515 520.195 569.814 520.256C565.631 520.704 561.991 527.383 561.231 531.116C561.231 531.387 560.824 535.283 560.783 536.274C559.425 533.736 558.175 531.197 556.994 528.645C555.407 525.199 554.046 521.653 552.919 518.03C553.177 517.962 560.144 516.388 562.711 514.406C564.939 512.696 567.302 509.899 567.288 506.927C567.306 506.223 567.175 505.524 566.904 504.875C566.633 504.226 566.228 503.641 565.715 503.159C565.202 502.677 564.593 502.309 563.928 502.079C563.263 501.849 562.557 501.761 561.856 501.823C557.673 502.284 554.033 508.949 553.273 512.682C553.273 512.967 552.838 517.148 552.824 517.922C552.756 517.704 552.661 517.501 552.607 517.284C551.56 513.618 550.846 509.865 550.475 506.071C550.244 503.981 550.135 501.999 550.067 500.017C551.426 499.854 557.455 499.04 559.968 497.52C562.48 495.999 565.034 493.543 565.4 490.597C565.496 489.903 565.444 489.197 565.249 488.524C565.054 487.852 564.72 487.228 564.268 486.693C563.815 486.158 563.256 485.724 562.625 485.419C561.994 485.114 561.307 484.945 560.606 484.923C556.396 484.923 552.05 491.153 550.882 494.723C550.882 494.927 550.407 496.977 550.108 498.47C550.108 497.588 550.108 496.665 550.108 495.823C550.108 492.633 550.325 489.715 550.516 487.136C550.651 485.67 550.787 484.421 550.937 483.063C552.159 482.222 557.034 478.774 558.528 476.276C560.022 473.779 561.245 470.426 560.09 467.657C559.855 467.006 559.487 466.412 559.01 465.912C558.532 465.411 557.956 465.016 557.317 464.75C556.678 464.485 555.991 464.355 555.3 464.369C554.608 464.383 553.927 464.541 553.3 464.833C549.551 466.774 548.574 474.335 549.225 478.014C549.225 478.339 550.692 483.253 550.76 483.213H550.842C550.665 484.394 550.502 485.67 550.353 487.068C550.108 489.66 549.837 492.579 549.755 495.769C549.636 499.214 549.722 502.663 550.013 506.099C550.314 509.947 550.95 513.763 551.914 517.501V517.623C551.249 516.591 549.293 513.741 549.117 513.551C546.659 510.7 540.235 506.655 536.351 508.298C535.714 508.59 535.147 509.012 534.684 509.538C534.222 510.063 533.875 510.68 533.666 511.348C533.457 512.016 533.391 512.721 533.473 513.416C533.554 514.111 533.78 514.781 534.137 515.383C535.169 517.976 538.592 519.211 541.376 519.673Z" fill="#263238"/>
<path d="M613.64 499.882C613.64 499.882 614.998 494.968 614.998 494.642C615.514 490.923 614.332 483.416 610.543 481.584C609.904 481.298 609.213 481.149 608.513 481.148C607.813 481.146 607.12 481.291 606.48 481.574C605.84 481.857 605.267 482.271 604.797 482.789C604.327 483.308 603.971 483.919 603.753 484.584C602.734 487.38 604.024 490.814 605.545 493.176C607.379 495.945 613.64 499.882 613.64 499.882Z" fill="#263238"/>
<path d="M483.644 369.896C485.803 370.846 491.099 370.724 491.099 370.724C491.099 370.724 489.959 367.262 489.864 367.059C488.696 364.629 485.029 360.624 482.055 361.032C481.56 361.111 481.087 361.294 480.668 361.568C480.249 361.842 479.892 362.202 479.622 362.623C479.351 363.045 479.173 363.519 479.098 364.014C479.024 364.51 479.055 365.015 479.189 365.498C479.705 367.493 481.824 369.027 483.644 369.896Z" fill="#263238"/>
<path d="M485.49 385.126C487.731 385.452 492.444 384.094 492.824 383.986C493.591 386.682 494.544 389.321 495.676 391.886C496.328 393.392 497.034 394.886 497.754 396.379C497.319 395.741 496.926 395.184 496.871 395.116C495.106 393.08 490.515 390.189 487.745 391.356C487.291 391.566 486.886 391.868 486.556 392.244C486.226 392.619 485.979 393.06 485.829 393.536C485.679 394.013 485.631 394.516 485.687 395.012C485.744 395.509 485.903 395.988 486.156 396.419C487.188 398.279 489.633 399.134 491.588 399.487C493.544 399.84 497.645 398.7 498.718 398.401C498.99 398.971 499.275 399.542 499.56 400.098C500.918 402.813 502.277 405.528 503.567 408.243C504.015 409.193 504.409 410.143 504.83 411.093L504.056 409.994C502.304 407.971 497.7 405.08 494.929 406.247C494.475 406.457 494.07 406.759 493.74 407.135C493.411 407.511 493.164 407.951 493.015 408.429C492.867 408.906 492.82 409.409 492.878 409.905C492.937 410.402 493.099 410.88 493.354 411.31C494.372 413.17 496.831 414.093 498.786 414.378C501.139 414.397 503.481 414.049 505.726 413.346C506.12 414.324 506.5 415.315 506.84 416.292C507.057 416.957 507.301 417.649 507.478 418.274C507.655 418.898 507.845 419.631 508.035 420.283C508.347 421.559 508.673 422.889 508.945 424.151C509.135 425.02 509.298 425.862 509.474 426.703C509.04 425.753 508.116 423.989 508.116 423.771C506.758 421.491 502.589 417.935 499.669 418.681C499.188 418.818 498.74 419.055 498.356 419.376C497.972 419.696 497.66 420.094 497.44 420.544C497.22 420.993 497.096 421.483 497.078 421.983C497.06 422.483 497.146 422.981 497.333 423.446C498.066 425.441 500.348 426.717 502.277 427.314C504.205 427.911 509.067 427.314 509.651 427.314C509.936 428.672 510.194 430.029 510.411 431.386C510.873 434.006 511.24 436.368 511.512 438.418H513.521C513.182 436.3 512.761 433.816 512.163 431.061C511.892 429.635 511.566 428.129 511.213 426.581C512.609 426.017 513.969 425.368 515.287 424.64C517.102 426.197 519.122 427.499 521.29 428.509C520.76 429.866 520.217 431.115 519.687 432.31C518.696 434.59 517.759 436.64 516.903 438.418H519.022C519.742 436.803 520.529 434.997 521.344 432.988C521.887 431.631 522.458 430.206 523.015 428.726C523.585 428.848 528.216 429.785 530.375 429.296C532.535 428.807 534.708 427.749 535.59 425.808C535.812 425.36 535.936 424.87 535.955 424.371C535.974 423.872 535.888 423.375 535.703 422.911C535.517 422.448 535.235 422.029 534.877 421.681C534.518 421.333 534.09 421.065 533.621 420.894C530.769 419.93 526.41 423.174 524.807 425.332C524.712 425.468 523.843 426.961 523.313 427.911C523.544 427.301 523.775 426.717 523.992 426.093C524.454 424.844 524.875 423.595 525.35 422.251C525.554 421.586 525.744 420.894 525.948 420.256C526.152 419.618 526.301 418.898 526.491 418.179C526.872 416.55 527.184 414.88 527.469 413.184C528.556 413.577 532.44 414.935 534.45 414.785C536.46 414.636 538.972 413.917 540.126 412.138C540.414 411.728 540.612 411.263 540.707 410.771C540.803 410.28 540.794 409.774 540.681 409.286C540.569 408.799 540.355 408.34 540.053 407.941C539.752 407.541 539.369 407.209 538.931 406.967C536.215 405.609 531.462 408.134 529.547 410.034C529.438 410.143 528.189 411.663 527.564 412.505C527.727 411.487 527.89 410.469 528.026 409.437C528.393 406.464 528.678 403.424 528.963 400.397L529.248 397.682C529.642 397.831 534.219 399.542 536.473 399.379C538.483 399.243 540.996 398.496 542.15 396.664C542.437 396.255 542.635 395.79 542.73 395.3C542.826 394.81 542.817 394.305 542.704 393.818C542.591 393.331 542.377 392.874 542.076 392.476C541.775 392.077 541.393 391.747 540.955 391.506C538.239 390.148 533.485 392.673 531.571 394.56C531.435 394.709 529.683 396.881 529.275 397.465C529.493 395.429 529.724 393.392 530.036 391.424C530.44 388.739 531.016 386.082 531.761 383.47C531.951 383.538 536.718 385.343 539.026 385.18C541.036 385.044 543.549 384.298 544.703 382.465C544.99 382.056 545.188 381.592 545.284 381.101C545.379 380.611 545.37 380.106 545.257 379.62C545.145 379.133 544.931 378.676 544.629 378.277C544.328 377.879 543.946 377.548 543.508 377.307C540.792 375.95 536.039 378.461 534.124 380.361C533.974 380.511 532.1 382.859 531.801 383.307C531.801 383.158 531.801 382.995 531.91 382.845C532.738 380.251 533.792 377.735 535.061 375.325C535.753 373.968 536.419 372.746 537.22 371.552C538.076 371.972 542.001 373.886 544.092 373.968C546.184 374.049 548.682 373.588 550.027 371.945C550.356 371.57 550.603 371.13 550.751 370.654C550.899 370.177 550.945 369.675 550.886 369.18C550.827 368.684 550.665 368.207 550.409 367.778C550.153 367.349 549.81 366.979 549.402 366.692C546.903 365.022 541.851 367.018 539.746 368.701C539.638 368.796 538.578 369.841 537.804 370.629C538.157 370.086 538.497 369.529 538.836 369.027C540.086 367.14 541.362 365.47 542.503 364.018C543.155 363.19 543.753 362.457 544.337 361.778C545.396 361.778 549.647 361.629 551.507 360.76C553.368 359.891 555.405 358.317 555.853 356.226C555.972 355.741 555.987 355.235 555.898 354.743C555.809 354.251 555.617 353.783 555.335 353.37C555.054 352.956 554.688 352.607 554.263 352.343C553.837 352.08 553.361 351.909 552.865 351.842C549.878 351.53 546.319 355.629 545.219 358.086C545.124 358.29 544.038 361.778 544.092 361.778L542.286 363.896C541.118 365.335 539.814 366.964 538.51 368.837C537.076 370.844 535.761 372.933 534.572 375.094C533.238 377.509 532.116 380.034 531.217 382.642C531.223 382.673 531.223 382.705 531.217 382.737C531.217 381.854 531.217 379.384 531.217 379.194C530.864 376.479 528.637 371.592 525.676 371.049C525.185 370.979 524.684 371.012 524.206 371.146C523.727 371.28 523.282 371.512 522.899 371.827C522.516 372.143 522.202 372.535 521.979 372.978C521.756 373.421 521.627 373.906 521.602 374.402C521.426 376.52 522.96 378.637 524.468 379.981C525.975 381.325 530.837 382.94 531.258 383.063C530.415 385.73 529.753 388.451 529.275 391.207C528.99 392.822 528.746 394.451 528.528 396.094C528.528 395.334 528.528 394.641 528.528 394.546C528.189 391.831 525.948 386.931 522.987 386.402C522.495 386.329 521.994 386.36 521.515 386.493C521.036 386.627 520.59 386.859 520.206 387.174C519.822 387.49 519.509 387.883 519.286 388.328C519.063 388.772 518.936 389.258 518.913 389.755C518.737 391.872 520.271 393.99 521.765 395.334C523.259 396.677 527.197 398.048 528.311 398.347C528.243 398.971 528.148 399.609 528.08 400.234C527.714 403.247 527.374 406.274 526.939 409.22C526.79 410.252 526.6 411.27 526.423 412.288C526.423 411.609 526.423 411.039 526.423 410.93C526.07 408.215 523.843 403.315 520.882 402.786C520.391 402.715 519.89 402.748 519.412 402.882C518.933 403.016 518.488 403.248 518.105 403.564C517.722 403.879 517.408 404.271 517.185 404.714C516.962 405.158 516.833 405.643 516.808 406.139C516.632 408.256 518.166 410.374 519.674 411.704C521.625 413.015 523.77 414.013 526.029 414.663C525.812 415.708 525.595 416.74 525.337 417.744C525.133 418.41 524.997 419.102 524.766 419.74C524.536 420.378 524.345 421.097 524.128 421.722C523.68 422.971 523.218 424.246 522.77 425.455C522.458 426.296 522.132 427.083 521.806 427.884C521.969 426.853 522.254 424.83 522.254 424.654C522.228 422.269 521.588 419.931 520.393 417.867C520.42 417.605 520.42 417.341 520.393 417.079C520.331 416.583 520.164 416.106 519.905 415.679C519.645 415.251 519.298 414.884 518.887 414.599C518.476 414.315 518.009 414.12 517.517 414.029C517.026 413.937 516.52 413.949 516.034 414.066C513.114 414.84 511.281 419.943 511.131 422.618C511.131 422.78 511.226 424.504 511.321 425.604C511.172 424.966 511.036 424.355 510.873 423.704C510.574 422.414 510.235 421.138 509.868 419.767C509.66 419.115 509.456 418.45 509.257 417.772C509.081 417.106 508.795 416.414 508.564 415.749C507.98 414.174 507.329 412.6 506.622 411.039C507.75 410.767 511.742 409.763 513.331 408.528C514.92 407.292 516.618 405.311 516.604 403.179C516.62 402.68 516.529 402.183 516.338 401.721C516.148 401.259 515.862 400.843 515.499 400.499C515.136 400.156 514.704 399.893 514.232 399.728C513.76 399.563 513.259 399.499 512.761 399.542C509.76 399.867 507.166 404.632 506.622 407.265C506.622 407.428 506.405 409.356 506.337 410.414C505.903 409.478 505.482 408.541 504.979 407.618C503.621 404.903 502.263 402.188 500.783 399.555C500.348 398.727 499.913 397.913 499.492 397.085C499.886 396.99 504.653 395.89 506.446 394.506C508.239 393.121 509.732 391.288 509.719 389.171C509.732 388.67 509.639 388.173 509.447 387.71C509.255 387.247 508.968 386.83 508.605 386.486C508.241 386.142 507.809 385.878 507.336 385.711C506.864 385.545 506.361 385.479 505.862 385.519C502.874 385.845 500.28 390.61 499.737 393.243C499.737 393.447 499.438 396.216 499.411 396.935C498.474 395.116 497.55 393.297 496.695 391.506C495.553 389.043 494.573 386.508 493.761 383.918C493.938 383.918 498.922 382.737 500.755 381.339C502.344 380.117 504.042 378.108 504.028 375.99C504.041 375.49 503.949 374.992 503.757 374.529C503.565 374.067 503.278 373.65 502.914 373.306C502.55 372.961 502.118 372.697 501.646 372.531C501.173 372.364 500.671 372.299 500.171 372.339C497.184 372.665 494.59 377.429 494.046 380.063C494.046 380.266 493.734 383.266 493.721 383.809C493.721 383.66 493.612 383.51 493.571 383.361C492.819 380.743 492.305 378.063 492.036 375.352C491.874 373.846 491.792 372.42 491.751 371.009C492.702 370.9 497.034 370.316 498.827 369.23C500.62 368.145 502.439 366.393 502.657 364.276C502.73 363.779 502.697 363.272 502.56 362.788C502.422 362.305 502.184 361.856 501.861 361.471C501.538 361.087 501.136 360.775 500.684 360.556C500.231 360.338 499.737 360.217 499.234 360.204C496.219 360.204 493.123 364.656 492.295 367.208C492.295 367.357 491.941 368.81 491.738 369.923C491.738 369.298 491.738 368.565 491.738 368.036C491.738 365.755 491.887 363.679 492.023 361.833C492.118 360.787 492.213 359.837 492.322 358.955C493.191 358.358 496.681 355.901 497.754 354.136C498.827 352.371 499.655 349.955 498.881 347.973C498.714 347.503 498.449 347.072 498.104 346.711C497.759 346.349 497.341 346.064 496.879 345.875C496.416 345.685 495.919 345.595 495.419 345.611C494.919 345.626 494.429 345.747 493.979 345.964C491.262 347.322 490.597 352.751 491.045 355.371C491.045 355.602 492.091 359.118 492.132 359.091C492.009 359.946 491.901 360.855 491.792 361.805C491.602 363.651 491.412 365.742 491.357 368.022C491.277 370.485 491.336 372.951 491.534 375.407C491.748 378.156 492.203 380.881 492.892 383.551C492.898 383.583 492.898 383.615 492.892 383.646C492.417 382.9 491.032 380.931 490.909 380.728C489.144 378.692 484.553 375.8 481.783 376.968C481.329 377.177 480.924 377.48 480.594 377.855C480.264 378.231 480.017 378.671 479.867 379.148C479.717 379.624 479.669 380.127 479.725 380.624C479.782 381.12 479.941 381.6 480.194 382.031C481.05 383.918 483.494 384.827 485.49 385.126Z" fill="#263238"/>
<path d="M537.125 370.995C537.125 370.995 538.089 367.479 538.116 367.249C538.483 364.534 537.641 359.226 534.925 357.923C534.469 357.717 533.974 357.61 533.474 357.608C532.974 357.607 532.479 357.71 532.021 357.913C531.564 358.115 531.154 358.412 530.819 358.783C530.484 359.154 530.231 359.592 530.076 360.068C529.343 362.063 530.267 364.507 531.367 366.19C532.643 368.172 537.125 370.995 537.125 370.995Z" fill="#263238"/>
<path d="M106.298 498.253C103.283 499.61 95.8818 499.407 95.8818 499.407C95.8818 499.407 97.4708 494.574 97.6066 494.276C99.2363 490.882 104.397 485.276 108.471 485.846C109.169 485.95 109.836 486.2 110.429 486.58C111.022 486.96 111.528 487.462 111.913 488.052C112.298 488.642 112.554 489.307 112.663 490.003C112.772 490.699 112.732 491.411 112.546 492.09C111.853 494.981 108.879 497.126 106.298 498.253Z" fill="#263238"/>
<path d="M103.745 519.673C100.621 520.121 94.0072 518.22 93.4911 518.057C92.3774 521.835 91.0164 525.535 89.4169 529.134C88.507 531.238 87.5291 533.315 86.5241 535.405C87.1217 534.523 87.6649 533.736 87.76 533.641C90.2181 530.79 96.6419 526.745 100.526 528.387C101.172 528.673 101.75 529.091 102.222 529.616C102.694 530.141 103.05 530.759 103.265 531.431C103.481 532.104 103.552 532.814 103.473 533.515C103.394 534.216 103.167 534.893 102.808 535.5C101.368 538.106 97.9457 539.396 95.1616 539.79C92.3775 540.183 86.6735 538.69 85.1796 538.269C84.7858 539.057 84.4055 539.858 83.9981 540.645C82.0968 544.459 80.1683 548.246 78.3892 552.02C77.7645 553.377 77.2076 554.735 76.6372 556.011C77.1669 555.223 77.6286 554.572 77.7101 554.477C80.1683 551.64 86.592 547.581 90.4762 549.237C91.1121 549.528 91.6796 549.949 92.142 550.473C92.6044 550.998 92.9513 551.613 93.16 552.28C93.3688 552.947 93.4349 553.651 93.3539 554.345C93.2729 555.039 93.0466 555.708 92.6899 556.309C91.2503 558.916 87.8143 560.205 85.0438 560.612C82.2733 561.02 77.1126 559.649 75.3335 559.16C74.7902 560.517 74.2334 561.875 73.7717 563.232C73.4729 564.169 73.1198 565.051 72.8753 565.947L72.142 568.838C71.7074 570.63 71.2456 572.49 70.8789 574.268C70.6073 575.49 70.3629 576.671 70.1184 577.852C70.7296 576.494 71.979 573.942 72.1012 573.779C74.1112 570.589 79.8423 565.635 83.9302 566.653C84.6039 566.844 85.2298 567.174 85.7671 567.623C86.3044 568.072 86.7411 568.629 87.0486 569.258C87.3561 569.887 87.5276 570.573 87.5519 571.273C87.5762 571.972 87.4528 572.669 87.1896 573.318C86.171 576.114 82.9659 577.906 80.2905 578.747C77.3299 579.643 70.7839 578.815 69.9554 578.747C69.5616 580.702 69.1949 582.616 68.8825 584.421C68.2442 588.086 67.7418 591.399 67.3479 594.249H64.6317C65.0935 591.29 65.691 587.815 66.4516 583.96C66.8454 581.978 67.3072 579.888 67.8097 577.689C65.8405 576.893 63.918 575.987 62.0514 574.974C59.892 577.309 54.3646 580.051 53.6448 580.403C54.4053 582.25 55.1523 584.041 55.8856 585.725C57.2437 588.914 58.6018 591.779 59.7833 594.263H56.7412C55.7362 592.009 54.6362 589.471 53.509 586.702C52.7349 584.815 51.9472 582.806 51.1595 580.729C50.3582 580.892 43.8801 582.209 40.8516 581.53C38.1354 580.906 34.7945 579.358 33.5586 576.643C33.2482 576.019 33.0724 575.336 33.0426 574.639C33.0128 573.943 33.1297 573.248 33.3858 572.599C33.6418 571.95 34.0313 571.362 34.5289 570.874C35.0266 570.385 35.6214 570.006 36.2748 569.761C40.2676 568.404 46.3654 572.951 48.6063 575.978C48.7285 576.155 49.9644 578.259 50.6977 579.589C50.3718 578.734 50.0594 577.919 49.7335 577.037C49.0952 575.3 48.5112 573.549 47.8865 571.607C47.6013 570.684 47.3297 569.761 47.0445 568.825C46.7593 567.888 46.5556 566.884 46.2975 565.906C45.7543 563.626 45.3061 561.291 44.9394 558.916C43.4184 559.472 37.9724 561.373 35.1612 561.169C32.3499 560.965 28.8325 559.947 27.2163 557.45C26.8147 556.877 26.538 556.227 26.4044 555.541C26.2708 554.854 26.2831 554.148 26.4407 553.467C26.5982 552.785 26.8975 552.145 27.3189 551.587C27.7403 551.029 28.2746 550.566 28.8868 550.228C32.6351 548.287 39.3577 551.857 42.0195 554.504C42.1825 554.667 43.8801 556.784 44.7357 557.965C44.5184 556.608 44.2875 555.128 44.111 553.676C43.5949 549.509 43.1875 545.26 42.7529 541.038C42.6307 539.681 42.4813 538.446 42.3455 537.156C41.8158 537.36 35.392 539.749 32.2413 539.518C29.4436 539.328 25.9262 538.297 24.2965 535.799C23.8953 535.226 23.6195 534.574 23.4868 533.888C23.3542 533.201 23.3677 532.494 23.5266 531.813C23.6854 531.131 23.9861 530.491 24.4088 529.934C24.8316 529.376 25.3671 528.914 25.9805 528.577C29.7152 526.65 36.4378 530.206 39.0996 532.853C39.3033 533.057 41.8158 536.111 42.3319 536.925C42.0195 534.088 41.7072 531.252 41.259 528.469C40.6963 524.714 39.8887 521.001 38.8416 517.352C38.5836 517.447 31.9018 519.971 28.6695 519.741C25.8718 519.551 22.3544 518.519 20.7247 516.021C20.3235 515.448 20.0477 514.797 19.915 514.11C19.7824 513.423 19.7959 512.716 19.9548 512.035C20.1137 511.354 20.4143 510.714 20.8371 510.156C21.2599 509.599 21.7954 509.137 22.4087 508.8C26.1435 506.872 32.866 510.429 35.5279 513.076C35.7452 513.293 38.3663 516.578 38.8009 517.148C38.733 516.931 38.6922 516.714 38.6243 516.496C37.4736 512.866 36.001 509.345 34.2241 505.976C33.2599 504.103 32.2413 502.366 31.2091 500.696C30.014 501.293 24.5138 503.954 21.5803 504.076C18.6468 504.198 15.1701 503.547 13.2823 501.253C12.8207 500.727 12.4748 500.11 12.267 499.441C12.0592 498.773 11.9942 498.069 12.0762 497.374C12.1581 496.679 12.3852 496.009 12.7427 495.408C13.1002 494.806 13.5802 494.286 14.1515 493.882C17.669 491.561 24.731 494.357 27.7324 496.705C27.8954 496.827 29.3757 498.307 30.4486 499.42C29.9733 498.674 29.4844 497.9 29.0905 497.194C27.325 494.479 25.5459 492.212 23.9569 490.176C23.047 489.022 22.1914 487.991 21.3901 487.04C19.9098 487.04 13.9478 486.837 11.3403 485.615C8.73274 484.394 5.90792 482.195 5.26961 479.276C5.09015 478.594 5.05741 477.881 5.17355 477.185C5.2897 476.489 5.55209 475.825 5.94345 475.238C6.3348 474.65 6.84624 474.152 7.44406 473.777C8.04188 473.401 8.71252 473.157 9.41179 473.059C13.6083 472.611 18.5789 478.353 20.1135 481.787C20.2493 482.086 21.784 486.973 21.7025 486.959H21.6074C22.4087 487.869 23.2507 488.832 24.1471 489.918C25.7768 491.927 27.6102 494.221 29.4436 496.855C31.4272 499.658 33.2413 502.577 34.876 505.596C36.7519 508.971 38.3244 512.505 39.575 516.157V516.293C39.575 515.058 39.575 511.61 39.575 511.338C40.0503 507.619 43.1875 500.696 47.3297 499.922C48.0208 499.813 48.7273 499.85 49.4029 500.032C50.0786 500.214 50.7081 500.537 51.2504 500.979C51.7927 501.421 52.2355 501.973 52.5498 502.598C52.8641 503.223 53.0429 503.907 53.0744 504.605C53.3188 507.578 51.1731 510.537 49.0816 512.411C46.7185 514.528 40.1454 516.564 39.575 516.727C40.7298 520.478 41.6372 524.301 42.2911 528.17C42.6986 530.424 43.0245 532.704 43.3369 534.957C43.3369 533.885 43.3369 532.935 43.3369 532.799C43.8258 529.066 46.9494 522.143 51.0916 521.383C51.8144 521.213 52.5663 521.206 53.2919 521.364C54.0175 521.522 54.6985 521.841 55.2847 522.297C55.871 522.753 56.3476 523.334 56.6795 523.998C57.0115 524.662 57.1904 525.392 57.203 526.134C57.4474 529.107 55.3017 532.066 53.2102 533.939C51.1187 535.812 45.5234 537.699 44.0431 538.161C44.1517 539.043 44.274 539.925 44.369 540.876C44.8851 545.097 45.3604 549.319 45.9716 553.445C46.1753 554.898 46.4469 556.323 46.7049 557.748C46.7049 556.798 46.7049 555.997 46.7049 555.875C47.1939 552.156 50.3175 545.233 54.4732 544.459C55.1584 544.354 55.8579 544.393 56.5273 544.573C57.1967 544.752 57.8214 545.069 58.3616 545.503C58.9019 545.937 59.3459 546.479 59.6655 547.094C59.9851 547.708 60.1732 548.383 60.2179 549.074C60.4624 552.034 58.3166 554.993 56.2116 556.866C54.1065 558.739 49.068 560.436 47.3161 561.006C47.6284 562.458 47.9272 563.911 48.2939 565.309C48.5655 566.259 48.7557 567.182 49.0816 568.119C49.4075 569.056 49.6792 569.979 49.9779 570.834C50.6027 572.571 51.2545 574.363 51.9064 576.046C52.3546 577.227 52.8163 578.327 53.2645 579.453C53.0336 578.001 52.6534 575.164 52.6398 574.933C52.6867 571.623 53.5796 568.38 55.2337 565.513C55.2293 565.145 55.252 564.777 55.3016 564.413C55.3897 563.719 55.6227 563.051 55.9855 562.453C56.3484 561.854 56.8329 561.339 57.4078 560.94C57.9827 560.54 58.6351 560.266 59.3227 560.135C60.0103 560.004 60.7179 560.018 61.3995 560.178C65.4737 561.264 68.0541 568.404 68.1899 572.164C68.1899 572.381 68.0541 574.811 67.9319 576.331C68.1356 575.449 68.3257 574.58 68.5566 573.616C68.9776 571.825 69.4529 570.033 69.9147 568.119C70.1863 567.196 70.4715 566.273 70.7567 565.323C71.0419 564.372 71.4086 563.436 71.7345 562.486C72.5494 560.287 73.4548 558.092 74.4507 555.902C72.8753 555.522 67.2936 554.11 65.0527 552.386C62.8119 550.663 60.4624 547.88 60.476 544.907C60.4558 544.203 60.5852 543.503 60.8555 542.853C61.1259 542.203 61.5311 541.617 62.0444 541.135C62.5577 540.652 63.1675 540.284 63.8335 540.055C64.4996 539.825 65.2067 539.74 65.9083 539.803C70.0912 540.251 73.7309 546.93 74.4915 550.663C74.4915 550.893 74.7902 553.595 74.8989 555.088C75.4964 553.73 76.0804 552.468 76.7323 551.165C78.6065 547.391 80.6164 543.631 82.6128 539.885C83.224 538.731 83.808 537.577 84.4191 536.423C83.8487 536.288 77.1805 534.754 74.6816 532.826C72.4408 531.116 70.0777 528.319 70.1048 525.347C70.0825 524.642 70.2104 523.941 70.48 523.29C70.7496 522.639 71.1547 522.052 71.6685 521.569C72.1823 521.087 72.793 520.719 73.46 520.49C74.127 520.261 74.8351 520.177 75.5372 520.243C79.7337 520.691 83.3598 527.369 84.1203 531.102C84.1203 531.374 84.5413 535.269 84.5821 536.26C85.9402 533.722 87.1896 531.184 88.3576 528.632C89.9384 525.183 91.2992 521.637 92.4318 518.017C92.1738 517.949 85.2068 516.374 82.64 514.392C80.3992 512.682 78.0361 509.886 78.0632 506.913C78.0431 506.209 78.1724 505.509 78.4428 504.859C78.7132 504.209 79.1183 503.623 79.6317 503.141C80.145 502.658 80.7548 502.29 81.4208 502.061C82.0868 501.831 82.794 501.746 83.4956 501.809C87.6921 502.271 91.3318 508.936 92.0923 512.668C92.0923 512.954 92.5269 517.134 92.5405 517.908C92.5405 517.691 92.6899 517.487 92.7578 517.27C93.7919 513.601 94.5053 509.85 94.89 506.058C95.1208 503.967 95.2295 501.986 95.2838 500.004C93.9257 499.841 87.8958 499.026 85.3969 497.506C82.898 495.986 80.3313 493.529 79.9646 490.583C79.8691 489.891 79.9202 489.186 80.1145 488.514C80.3089 487.842 80.6421 487.219 81.0927 486.684C81.5433 486.149 82.1013 485.715 82.7304 485.409C83.3596 485.104 84.0459 484.933 84.745 484.909C88.9687 484.909 93.3146 491.14 94.469 494.71C94.469 494.914 94.9579 496.963 95.2431 498.456C95.2431 497.574 95.2431 496.651 95.2431 495.809C95.2431 492.619 95.0394 489.701 94.8356 487.122C94.7134 485.656 94.564 484.407 94.4282 483.05C93.2059 482.208 88.3304 478.76 86.8365 476.263C85.3426 473.765 84.1203 470.412 85.2611 467.643C85.504 466.976 85.8865 466.368 86.383 465.86C86.8796 465.352 87.4788 464.956 88.1407 464.697C88.8025 464.439 89.5119 464.325 90.2214 464.362C90.9309 464.4 91.6243 464.588 92.2553 464.915C95.99 466.856 96.9814 474.417 96.3295 478.095C96.3295 478.421 94.8628 483.335 94.7949 483.294C94.9579 484.475 95.1208 485.751 95.2702 487.149C95.5283 489.742 95.7999 492.66 95.8678 495.85C95.9849 499.295 95.9033 502.744 95.6233 506.18C95.3244 510.03 94.6835 513.846 93.7084 517.582V517.705C94.3739 516.673 96.316 513.822 96.4925 513.632C98.9642 510.782 105.388 506.737 109.272 508.379C109.907 508.672 110.474 509.096 110.935 509.622C111.396 510.148 111.741 510.765 111.949 511.433C112.156 512.101 112.221 512.805 112.139 513.499C112.057 514.194 111.83 514.863 111.472 515.465C109.965 517.976 106.529 519.211 103.745 519.673Z" fill="#263238"/>
<path d="M31.4944 499.882C31.4944 499.882 30.1363 494.968 30.1363 494.642C29.6203 490.923 30.8154 483.416 34.6044 481.584C35.2432 481.298 35.9349 481.149 36.6348 481.148C37.3347 481.146 38.0271 481.291 38.6673 481.574C39.3074 481.857 39.881 482.271 40.3509 482.789C40.8208 483.308 41.1764 483.919 41.3949 484.584C42.3999 487.38 41.1233 490.814 39.5886 493.176C37.7552 495.945 31.4944 499.882 31.4944 499.882Z" fill="#263238"/>
<path d="M161.464 369.896C159.304 370.846 154.021 370.724 154.021 370.724C154.021 370.724 155.149 367.262 155.257 367.059C156.412 364.629 160.079 360.624 163.066 361.032C163.56 361.112 164.031 361.296 164.449 361.571C164.866 361.846 165.221 362.206 165.49 362.628C165.76 363.049 165.937 363.523 166.011 364.017C166.084 364.512 166.053 365.016 165.918 365.498C165.429 367.493 163.311 369.027 161.464 369.896Z" fill="#263238"/>
<path d="M159.644 385.126C157.403 385.452 152.691 384.094 152.31 383.986C151.532 386.68 150.575 389.319 149.445 391.886C148.806 393.392 148.087 394.886 147.38 396.379C147.815 395.741 148.195 395.184 148.263 395.116C150.015 393.08 154.619 390.189 157.39 391.356C157.844 391.566 158.249 391.868 158.578 392.244C158.908 392.62 159.155 393.06 159.304 393.538C159.452 394.015 159.499 394.518 159.44 395.015C159.382 395.511 159.22 395.99 158.965 396.419C157.946 398.279 155.488 399.134 153.533 399.487C151.577 399.84 147.475 398.7 146.403 398.401C146.117 398.971 145.846 399.542 145.561 400.098C144.202 402.813 142.844 405.528 141.486 408.243C141.038 409.193 140.631 410.143 140.223 411.093L140.984 409.994C142.749 407.971 147.34 405.08 150.11 406.247C150.564 406.457 150.969 406.759 151.299 407.135C151.629 407.51 151.876 407.95 152.026 408.427C152.176 408.904 152.224 409.407 152.168 409.903C152.111 410.4 151.952 410.879 151.699 411.31C150.667 413.17 148.222 414.093 146.267 414.378C143.918 414.397 141.581 414.049 139.34 413.346C138.947 414.324 138.553 415.315 138.227 416.292C138.01 416.957 137.765 417.649 137.589 418.274L137.018 420.283C136.719 421.559 136.393 422.889 136.122 424.151C135.932 425.02 135.755 425.862 135.579 426.703C136.013 425.753 136.937 423.989 137.005 423.771C138.363 421.491 142.532 417.935 145.452 418.681C145.933 418.818 146.38 419.054 146.764 419.375C147.148 419.697 147.459 420.095 147.678 420.545C147.898 420.994 148.019 421.485 148.036 421.985C148.052 422.485 147.963 422.983 147.774 423.446C147.054 425.441 144.759 426.717 142.844 427.314C140.726 427.952 136.054 427.314 135.47 427.314C135.185 428.672 134.927 430.029 134.696 431.386C134.234 434.006 133.881 436.368 133.609 438.418H131.64C131.966 436.3 132.401 433.816 132.998 431.061C133.283 429.635 133.609 428.129 133.962 426.581C132.568 426.014 131.207 425.366 129.888 424.64C128.077 426.203 126.057 427.505 123.885 428.509C124.429 429.866 124.958 431.115 125.488 432.31C126.479 434.59 127.43 436.64 128.286 438.418H126.058C125.325 436.798 124.551 434.988 123.736 432.988C123.179 431.631 122.622 430.206 122.052 428.726C121.495 428.848 116.864 429.785 114.691 429.296C112.735 428.862 110.372 427.749 109.49 425.808C109.261 425.353 109.132 424.854 109.112 424.346C109.092 423.837 109.182 423.33 109.375 422.859C109.568 422.388 109.86 421.964 110.232 421.616C110.603 421.267 111.044 421.003 111.527 420.839C114.379 419.876 118.738 423.12 120.327 425.278C120.422 425.414 121.291 426.907 121.821 427.857C121.604 427.246 121.373 426.663 121.142 426.038C120.694 424.789 120.273 423.541 119.784 422.197C119.594 421.532 119.39 420.839 119.186 420.201C118.983 419.563 118.833 418.844 118.657 418.125C118.263 416.496 117.951 414.826 117.679 413.129C116.592 413.523 112.708 414.88 110.685 414.731C108.661 414.582 106.176 413.862 105.008 412.084C104.723 411.673 104.528 411.206 104.434 410.715C104.341 410.223 104.351 409.718 104.465 409.23C104.579 408.743 104.794 408.285 105.095 407.886C105.397 407.487 105.779 407.155 106.217 406.912C108.933 405.555 113.686 408.08 115.587 409.98C115.71 410.089 116.946 411.609 117.57 412.451C117.421 411.432 117.244 410.414 117.122 409.383C116.755 406.41 116.47 403.369 116.171 400.342C116.09 399.419 115.981 398.496 115.886 397.628C115.506 397.777 110.916 399.487 108.661 399.324C106.665 399.189 104.152 398.442 102.984 396.61C102.697 396.201 102.5 395.736 102.404 395.246C102.309 394.755 102.317 394.25 102.43 393.764C102.543 393.277 102.757 392.82 103.058 392.421C103.36 392.023 103.742 391.692 104.18 391.451C106.896 390.094 111.663 392.619 113.564 394.506C113.713 394.655 115.452 396.827 115.873 397.41C115.655 395.374 115.425 393.338 115.112 391.37C114.695 388.7 114.1 386.061 113.333 383.47C113.157 383.538 108.376 385.343 106.067 385.18C104.071 385.044 101.558 384.298 100.39 382.465C100.103 382.056 99.9056 381.592 99.8101 381.101C99.7146 380.611 99.7236 380.106 99.8363 379.62C99.949 379.133 100.163 378.676 100.464 378.277C100.766 377.879 101.148 377.548 101.586 377.307C104.302 375.95 109.069 378.461 110.97 380.361C111.119 380.511 112.994 382.859 113.306 383.307C113.306 383.158 113.306 382.995 113.184 382.845C112.356 380.251 111.302 377.735 110.033 375.325C109.354 373.968 108.675 372.746 107.887 371.552C107.032 371.972 103.107 373.886 101.002 373.968C98.8966 374.049 96.4248 373.588 95.0667 371.945C94.7375 371.57 94.4908 371.13 94.3428 370.654C94.1948 370.177 94.1487 369.675 94.2077 369.18C94.2666 368.684 94.4291 368.207 94.6848 367.778C94.9404 367.349 95.2834 366.979 95.6915 366.692C98.2039 365.022 103.256 367.018 105.361 368.701C105.47 368.796 106.529 369.841 107.29 370.629C106.95 370.086 106.611 369.529 106.271 369.027C105.008 367.14 103.745 365.47 102.604 364.018C101.952 363.19 101.341 362.457 100.771 361.778C99.7114 361.778 95.447 361.629 93.5864 360.76C91.7258 359.891 89.6887 358.317 89.2541 356.226C89.1331 355.741 89.1158 355.236 89.2032 354.744C89.2907 354.252 89.4809 353.784 89.7616 353.37C90.0422 352.957 90.4069 352.607 90.832 352.343C91.257 352.08 91.7328 351.909 92.2283 351.842C95.2297 351.53 98.7879 355.629 99.8744 358.086C99.9694 358.29 101.07 361.778 101.015 361.778H100.947C101.518 362.43 102.115 363.136 102.754 363.896C103.921 365.335 105.239 366.964 106.543 368.837C107.967 370.847 109.278 372.937 110.467 375.094C111.807 377.506 112.929 380.032 113.822 382.642C113.822 382.642 113.822 382.71 113.822 382.737C113.822 381.854 113.822 379.384 113.822 379.194C114.161 376.479 116.402 371.592 119.363 371.049C119.855 370.977 120.357 371.008 120.836 371.141C121.315 371.274 121.761 371.506 122.145 371.822C122.528 372.138 122.842 372.531 123.064 372.975C123.287 373.42 123.414 373.906 123.437 374.402C123.614 376.52 122.079 378.637 120.585 379.981C118.888 381.488 114.202 382.94 113.795 383.063C114.633 385.73 115.291 388.451 115.764 391.207C116.063 392.822 116.294 394.451 116.511 396.094C116.511 395.334 116.511 394.641 116.511 394.546C116.864 391.831 119.091 386.931 122.052 386.402C122.544 386.331 123.045 386.364 123.523 386.498C124.001 386.632 124.446 386.864 124.829 387.18C125.213 387.495 125.526 387.887 125.749 388.33C125.973 388.774 126.101 389.259 126.126 389.755C126.303 391.872 124.768 393.99 123.261 395.334C121.753 396.677 117.828 398.048 116.715 398.347L116.959 400.234C117.312 403.247 117.665 406.274 118.1 409.22C118.249 410.252 118.439 411.27 118.616 412.288C118.616 411.609 118.616 411.039 118.616 410.93C118.956 408.215 121.196 403.315 124.157 402.786C124.649 402.713 125.151 402.744 125.63 402.877C126.109 403.011 126.555 403.243 126.939 403.558C127.322 403.874 127.636 404.267 127.859 404.712C128.081 405.156 128.208 405.642 128.231 406.139C128.408 408.256 126.873 410.374 125.379 411.704C123.428 413.015 121.283 414.013 119.023 414.663C119.241 415.708 119.458 416.74 119.716 417.744C119.906 418.41 120.042 419.102 120.273 419.74C120.504 420.378 120.707 421.097 120.911 421.722C121.373 422.971 121.821 424.246 122.269 425.455C122.595 426.296 122.921 427.083 123.234 427.884C123.071 426.853 122.799 424.83 122.799 424.654C122.819 422.27 123.455 419.932 124.646 417.867C124.626 417.605 124.626 417.341 124.646 417.079C124.706 416.582 124.872 416.104 125.131 415.676C125.39 415.247 125.736 414.878 126.148 414.594C126.56 414.309 127.028 414.115 127.52 414.024C128.013 413.933 128.519 413.947 129.005 414.066C131.912 414.84 133.759 419.943 133.895 422.618C133.895 422.78 133.799 424.504 133.718 425.604C133.867 424.966 134.003 424.355 134.153 423.704C134.465 422.414 134.804 421.138 135.171 419.767C135.361 419.115 135.565 418.41 135.769 417.772C135.972 417.134 136.244 416.414 136.475 415.749C137.045 414.174 137.711 412.6 138.403 411.039C137.276 410.767 133.297 409.763 131.694 408.528C130.092 407.292 128.408 405.311 128.421 403.179C128.408 402.679 128.501 402.182 128.693 401.72C128.885 401.258 129.172 400.842 129.536 400.499C129.9 400.155 130.333 399.893 130.805 399.728C131.278 399.563 131.78 399.499 132.278 399.542C135.266 399.867 137.874 404.632 138.417 407.265C138.417 407.428 138.621 409.356 138.702 410.414C139.123 409.478 139.544 408.541 140.06 407.618C141.418 404.903 142.776 402.188 144.257 399.555L145.615 397.085C145.207 396.99 140.441 395.89 138.648 394.506C136.855 393.121 135.375 391.288 135.388 389.171C135.373 388.671 135.464 388.173 135.655 387.711C135.845 387.248 136.131 386.831 136.494 386.487C136.856 386.142 137.288 385.878 137.76 385.711C138.231 385.544 138.733 385.479 139.232 385.519C142.233 385.845 144.827 390.61 145.37 393.243C145.37 393.447 145.656 396.216 145.683 396.935C146.633 395.116 147.557 393.297 148.399 391.506C149.545 389.043 150.53 386.508 151.346 383.918C151.156 383.918 146.185 382.737 144.338 381.339C142.749 380.117 141.065 378.108 141.079 375.99C141.064 375.49 141.155 374.993 141.345 374.53C141.535 374.068 141.821 373.651 142.184 373.306C142.547 372.961 142.978 372.697 143.45 372.531C143.922 372.364 144.423 372.299 144.922 372.339C147.924 372.665 150.518 377.429 151.061 380.063C151.061 380.266 151.373 383.266 151.387 383.809C151.387 383.66 151.495 383.51 151.536 383.361C152.278 380.741 152.787 378.061 153.057 375.352C153.234 373.846 153.302 372.42 153.342 371.009C152.405 370.9 148.073 370.316 146.28 369.23C144.488 368.145 142.654 366.393 142.437 364.276C142.368 363.778 142.405 363.272 142.544 362.789C142.684 362.307 142.924 361.859 143.248 361.475C143.572 361.091 143.973 360.779 144.425 360.56C144.877 360.341 145.371 360.22 145.873 360.204C148.874 360.204 151.984 364.656 152.813 367.208C152.813 367.357 153.166 368.81 153.37 369.923C153.37 369.298 153.37 368.565 153.37 368.036C153.37 365.755 153.22 363.679 153.071 361.833C152.989 360.787 152.881 359.837 152.786 358.955C151.903 358.358 148.426 355.901 147.353 354.136C146.28 352.371 145.452 349.955 146.24 347.973C146.407 347.503 146.672 347.072 147.017 346.711C147.362 346.349 147.78 346.064 148.242 345.875C148.705 345.685 149.202 345.595 149.702 345.611C150.201 345.626 150.692 345.747 151.142 345.964C153.858 347.322 154.524 352.751 154.076 355.371C154.076 355.602 153.03 359.118 152.976 359.091C153.084 359.946 153.207 360.855 153.315 361.805C153.492 363.651 153.682 365.742 153.736 368.022C153.816 370.485 153.757 372.951 153.56 375.407C153.352 378.157 152.898 380.883 152.202 383.551C152.207 383.583 152.207 383.615 152.202 383.646C152.677 382.9 154.076 380.931 154.198 380.728C155.95 378.692 160.554 375.8 163.324 376.968C163.778 377.177 164.183 377.48 164.513 377.855C164.843 378.231 165.09 378.672 165.239 379.149C165.387 379.626 165.434 380.13 165.375 380.626C165.317 381.122 165.155 381.601 164.9 382.031C164.085 383.918 161.627 384.827 159.644 385.126Z" fill="#263238"/>
<path d="M108.009 370.995C108.009 370.995 107.044 367.479 107.017 367.249C106.637 364.534 107.493 359.226 110.195 357.923C110.652 357.717 111.147 357.61 111.649 357.608C112.15 357.606 112.646 357.71 113.105 357.912C113.563 358.114 113.974 358.411 114.31 358.782C114.647 359.154 114.901 359.592 115.057 360.068C115.777 362.063 114.853 364.507 113.767 366.19C112.477 368.172 108.009 370.995 108.009 370.995Z" fill="#263238"/>
<path d="M368.423 115.068H276.235L261.527 181.975H383.131L368.423 115.068Z" fill="#F0F0F0" stroke="#263238" stroke-linecap="round" stroke-linejoin="round"/>
<path d="M397.826 180.753H246.833L222.727 280.591H421.932L397.826 180.753Z" fill="#E3E3E3" stroke="#263238" stroke-linecap="round" stroke-linejoin="round"/>
<path d="M368.314 180.93H276.344V193.052H368.314V180.93Z" fill="white" stroke="#263238" stroke-linecap="round" stroke-linejoin="round"/>
<path d="M370.799 191.925H273.873V204.305H370.799V191.925Z" fill="white" stroke="#263238" stroke-linecap="round" stroke-linejoin="round"/>
<path d="M373.271 203.558H271.387V216.182H373.271V203.558Z" fill="white" stroke="#263238" stroke-linecap="round" stroke-linejoin="round"/>
<path d="M375.756 215.517H268.916V228.399H375.756V215.517Z" fill="white" stroke="#263238" stroke-linecap="round" stroke-linejoin="round"/>
<path d="M378.228 227.788H266.43V240.914H378.228V227.788Z" fill="white" stroke="#263238" stroke-linecap="round" stroke-linejoin="round"/>
<path d="M380.713 240.371H263.958V253.755H380.713V240.371Z" fill="white" stroke="#263238" stroke-linecap="round" stroke-linejoin="round"/>
<path d="M383.185 253.592H261.473V267.234H383.185V253.592Z" fill="white" stroke="#263238" stroke-linecap="round" stroke-linejoin="round"/>
<path d="M385.671 266.501H259.001V280.388H385.671V266.501Z" fill="white" stroke="#263238" stroke-linecap="round" stroke-linejoin="round"/>
<path d="M343.828 115.231H300.844V123.24H343.828V115.231Z" fill="white" stroke="#263238" stroke-linecap="round" stroke-linejoin="round"/>
<path d="M344.982 122.507H299.676V130.678H344.982V122.507Z" fill="white" stroke="#263238" stroke-linecap="round" stroke-linejoin="round"/>
<path d="M346.137 130.19H298.522V138.524H346.137V130.19Z" fill="white" stroke="#263238" stroke-linecap="round" stroke-linejoin="round"/>
<path d="M347.305 138.076H297.368V146.587H347.305V138.076Z" fill="white" stroke="#263238" stroke-linecap="round" stroke-linejoin="round"/>
<path d="M348.459 146.18H296.2V154.854H348.459V146.18Z" fill="white" stroke="#263238" stroke-linecap="round" stroke-linejoin="round"/>
<path d="M349.613 154.501H295.045V163.338H349.613V154.501Z" fill="white" stroke="#263238" stroke-linecap="round" stroke-linejoin="round"/>
<path d="M350.781 163.229H293.891V172.242H350.781V163.229Z" fill="white" stroke="#263238" stroke-linecap="round" stroke-linejoin="round"/>
<path d="M351.922 171.754H292.723V180.93H351.922V171.754Z" fill="white" stroke="#263238" stroke-linecap="round" stroke-linejoin="round"/>
<path d="M449.596 279.899H195.063L154.429 429.785H490.23L449.596 279.899Z" fill="#C7C7C7" stroke="#263238" stroke-linecap="round" stroke-linejoin="round"/>
<path d="M544.458 425.088H100.214L57.2979 594.141H587.36L544.458 425.088Z" fill="#C7C7C7" stroke="#263238" stroke-linecap="round" stroke-linejoin="round"/>
<path d="M489.51 442.042H155.148L156.289 425.346H488.383L489.51 442.042Z" fill="white" stroke="#263238" stroke-linecap="round" stroke-linejoin="round"/>
<path d="M493.775 459.471H150.897L152.093 442.219H492.579L493.775 459.471Z" fill="white" stroke="#263238" stroke-linecap="round" stroke-linejoin="round"/>
<path d="M498.08 477.145H146.579L147.829 459.336H496.831L498.08 477.145Z" fill="white" stroke="#263238" stroke-linecap="round" stroke-linejoin="round"/>
<path d="M502.467 495.076H142.192L143.523 476.697H501.149L502.467 495.076Z" fill="white" stroke="#263238" stroke-linecap="round" stroke-linejoin="round"/>
<path d="M506.907 513.266H137.751L139.136 494.303H505.522L506.907 513.266Z" fill="white" stroke="#263238" stroke-linecap="round" stroke-linejoin="round"/>
<path d="M511.512 533.016H133.161L134.614 513.429H510.058L511.512 533.016Z" fill="white" stroke="#263238" stroke-linecap="round" stroke-linejoin="round"/>
<path d="M516.183 553.065H128.476L130.01 532.853H514.649L516.183 553.065Z" fill="white" stroke="#263238" stroke-linecap="round" stroke-linejoin="round"/>
<path d="M520.936 573.44H123.735L125.338 552.563H519.32L520.936 573.44Z" fill="white" stroke="#263238" stroke-linecap="round" stroke-linejoin="round"/>
<path d="M525.757 594.141H118.9L120.584 572.598H524.073L525.757 594.141Z" fill="white" stroke="#263238" stroke-linecap="round" stroke-linejoin="round"/>
<path d="M410.564 279.845H234.107V297.586H410.564V279.845Z" fill="white" stroke="#263238" stroke-linecap="round" stroke-linejoin="round"/>
<path d="M415.304 295.93H229.341V314.038H415.304V295.93Z" fill="white" stroke="#263238" stroke-linecap="round" stroke-linejoin="round"/>
<path d="M420.071 312.952H224.587V331.426H420.071V312.952Z" fill="white" stroke="#263238" stroke-linecap="round" stroke-linejoin="round"/>
<path d="M424.824 330.449H219.834V349.29H424.824V330.449Z" fill="white" stroke="#263238" stroke-linecap="round" stroke-linejoin="round"/>
<path d="M429.591 348.394H215.081V367.602H429.591V348.394Z" fill="white" stroke="#263238" stroke-linecap="round" stroke-linejoin="round"/>
<path d="M434.345 366.814H210.328V386.402H434.345V366.814Z" fill="white" stroke="#263238" stroke-linecap="round" stroke-linejoin="round"/>
<path d="M439.098 386.157H205.561V406.111H439.098V386.157Z" fill="white" stroke="#263238" stroke-linecap="round" stroke-linejoin="round"/>
<path d="M443.851 405.053H200.807V425.373H443.851V405.053Z" fill="white" stroke="#263238" stroke-linecap="round" stroke-linejoin="round"/>
<path d="M191.328 181.636L179.187 192.305" stroke="#263238" stroke-linecap="round" stroke-linejoin="round"/>
<path d="M299.5 86.5759L198.811 175.052" stroke="#263238" stroke-linecap="round" stroke-linejoin="round"/>
<path d="M288.92 83.9425L220.174 109.041" stroke="#263238" stroke-linecap="round" stroke-linejoin="round"/>
<path d="M225.959 73.6533L181.821 77.3319" stroke="#263238" stroke-linecap="round" stroke-linejoin="round"/>
<path d="M277.024 69.4046L230.876 73.2461" stroke="#263238" stroke-linecap="round" stroke-linejoin="round"/>
<path d="M158.883 10.9L147.448 7.28931" stroke="#263238" stroke-linecap="round" stroke-linejoin="round"/>
<path d="M257.454 42.012L162.17 11.9316" stroke="#263238" stroke-linecap="round" stroke-linejoin="round"/>
<path d="M273.058 46.9394L263.85 44.0345" stroke="#263238" stroke-linecap="round" stroke-linejoin="round"/>
<path d="M457.921 181.636L470.076 192.305" stroke="#263238" stroke-linecap="round" stroke-linejoin="round"/>
<path d="M349.75 86.5759L450.438 175.052" stroke="#263238" stroke-linecap="round" stroke-linejoin="round"/>
<path d="M360.329 83.9425L429.089 109.041" stroke="#263238" stroke-linecap="round" stroke-linejoin="round"/>
<path d="M423.29 73.6533L467.428 77.3319" stroke="#263238" stroke-linecap="round" stroke-linejoin="round"/>
<path d="M372.226 69.4046L418.374 73.2461" stroke="#263238" stroke-linecap="round" stroke-linejoin="round"/>
<path d="M490.366 10.9L501.801 7.28931" stroke="#263238" stroke-linecap="round" stroke-linejoin="round"/>
<path d="M391.796 42.012L487.08 11.9316" stroke="#263238" stroke-linecap="round" stroke-linejoin="round"/>
<path d="M376.191 46.9394L385.399 44.0345" stroke="#263238" stroke-linecap="round" stroke-linejoin="round"/>
<path d="M308.233 255.764C308.233 255.764 302.8 254.162 303.113 258.968C303.425 263.773 309.183 266.963 309.183 266.963L308.233 255.764Z" fill="white" stroke="#263238" stroke-linecap="round" stroke-linejoin="round"/>
<path d="M341.506 255.764C341.506 255.764 345.987 253.524 345.987 257.692C345.987 261.859 341.193 265.999 341.193 265.999L341.506 255.764Z" fill="white" stroke="#263238" stroke-linecap="round" stroke-linejoin="round"/>
<path d="M307.594 242.651C307.594 242.651 307.907 265.361 309.183 269.528C310.46 273.696 314.303 279.125 317.834 279.125C321.365 279.125 333.194 278.161 335.489 276.885C337.219 275.639 338.639 274.011 339.637 272.128C340.636 270.245 341.187 268.157 341.248 266.026C341.248 260.909 341.886 248.122 341.886 248.122C343.294 247.03 344.398 245.595 345.091 243.955C346.368 241.077 341.886 236.923 340.922 236.597C339.958 236.272 336.44 235.321 336.44 235.321C336.44 235.321 338.681 233.407 338.043 231.806C337.404 230.204 331.32 229.24 328.767 229.24C326.729 229.451 324.763 230.109 323.009 231.168C323.009 231.168 312.769 230.842 309.564 234.683C308.629 235.762 307.963 237.046 307.62 238.431C307.278 239.816 307.269 241.262 307.594 242.651Z" fill="#263238" stroke="#263238" stroke-linecap="round" stroke-linejoin="round"/>
<path d="M343.434 283.591L302.46 284.243C302.46 284.243 304.389 278.161 306.63 277.456C308.871 276.75 331.904 276.166 336.711 276.818C341.519 277.469 343.434 283.591 343.434 283.591Z" fill="#FFD260" stroke="#263238" stroke-linecap="round" stroke-linejoin="round"/>
<path d="M329.16 553.757C329.16 553.757 327.422 572.354 328.902 572.938C330.383 573.521 334.81 575.653 345.444 572.938C348.269 572.232 343.081 553.16 343.081 553.16C343.081 553.16 336.209 557.314 329.16 553.757Z" fill="#263238" stroke="#263238" stroke-linecap="round" stroke-linejoin="round"/>
<path d="M279.93 409.763L285.362 490.706C285.362 490.706 282.103 505.637 285.09 518.858C288.078 532.08 292.94 578.68 292.94 578.68C292.94 578.68 295.371 574.078 303.506 573.25C311.641 572.422 313.244 575.68 313.244 575.68C313.244 575.68 312.714 540.496 312.714 536.437C312.714 532.378 315.96 506.669 315.688 498.809C315.381 493.171 314.655 487.563 313.515 482.032L315.417 433.043L319.749 432.5C319.749 432.5 316.775 472.828 318.662 482.032C320.55 491.235 325.168 519.931 325.453 522.36C325.738 524.79 329.242 553.757 329.242 553.757C329.242 553.757 336.277 555.658 339.536 555.386C341.607 555.136 343.526 554.177 344.969 552.672C344.969 552.672 350.917 509.085 350.401 502.325C349.885 495.565 343.611 479.317 343.611 477.959C343.611 476.602 341.981 467.399 341.981 467.399C341.981 467.399 353.362 435.73 355.249 424.369C357.137 413.007 357.341 407.903 357.341 407.903C357.341 407.903 325.113 413.048 309.129 413.048C299.306 412.999 289.517 411.898 279.93 409.763Z" fill="#FFD260" stroke="#263238" stroke-linecap="round" stroke-linejoin="round"/>
<path d="M294.448 490.271C298.716 486.71 303.257 483.487 308.029 480.633" stroke="#263238" stroke-linecap="round" stroke-linejoin="round"/>
<path d="M287.929 496.013C287.929 496.013 289.287 494.656 291.677 492.633" stroke="#263238" stroke-linecap="round" stroke-linejoin="round"/>
<path d="M293.836 484.977L310.785 473.548" stroke="#263238" stroke-linecap="round" stroke-linejoin="round"/>
<path d="M357.341 407.903C357.341 407.903 325.113 413.048 309.129 413.048C299.306 412.999 289.517 411.898 279.93 409.763L280.256 414.582C284.941 418.111 293.28 424.572 300.124 430.871C308.192 438.255 313.298 441.363 315.063 442.314L315.417 433.07L319.749 432.527C319.749 432.527 316.775 472.856 318.662 482.059C319.545 486.294 320.985 494.669 322.316 502.719C324.312 496.434 328.128 488.914 335.136 488.194C339.581 487.795 344.03 488.904 347.766 491.343C345.838 485.045 343.583 478.815 343.583 478C343.583 476.643 341.954 467.439 341.954 467.439C341.954 467.439 353.334 435.771 355.222 424.409C357.11 413.048 357.341 407.903 357.341 407.903Z" fill="#263238" stroke="#263238" stroke-linecap="round" stroke-linejoin="round"/>
<path d="M270.423 393.881C270.423 393.881 272.419 397.655 273.75 398.103C275.081 398.551 276.195 402.541 276.195 406.532C276.195 410.523 274.837 410.971 274.837 410.971C275.413 411.718 275.812 412.587 276.002 413.511C276.193 414.436 276.171 415.391 275.937 416.306C275.054 419.183 269.282 421.179 266.838 422.075C264.393 422.971 260.618 418.966 259.069 416.971C257.521 414.975 258.621 398.985 258.621 398.985C258.621 398.985 269.54 396.107 270.423 393.881Z" fill="white" stroke="#263238" stroke-linecap="round" stroke-linejoin="round"/>
<path d="M274.878 410.971C274.878 410.971 270.437 412.749 269.771 413.197C269.106 413.645 266.661 410.754 267.544 409.871C268.89 408.754 270.3 407.716 271.768 406.763" stroke="#263238" stroke-linecap="round" stroke-linejoin="round"/>
<path d="M265.765 402.989C265.765 402.989 270.437 404.089 268.875 408.31" stroke="#263238" stroke-linecap="round" stroke-linejoin="round"/>
<path d="M268.427 412.532C268.427 412.532 263.769 414.31 263.769 416.075C263.769 417.839 265.996 420.147 267.327 419.848C268.658 419.55 267.096 417.853 267.096 417.853" stroke="#263238" stroke-linecap="round" stroke-linejoin="round"/>
<path d="M379.464 402.989C377.619 405.123 375.982 407.427 374.575 409.871C373.475 412.301 371.248 414.527 371.696 416.075C372.144 417.622 372.361 418.79 372.361 418.79C372.361 418.79 370.365 423.446 372.361 424.776C373.652 425.728 375.199 426.272 376.802 426.337C377.685 426.337 381.243 429.215 383.688 428.767C386.132 428.319 389.677 427.219 389.908 419.672C390.139 412.125 391.008 403.464 391.008 403.464C391.008 403.464 383.022 402.989 379.464 402.989Z" stroke="#263238" stroke-linecap="round" stroke-linejoin="round"/>
<path d="M372.361 418.763C372.361 418.763 378.351 422.536 380.13 422.536C381.909 422.536 383.24 419.821 381.909 418.532C380.296 417.158 378.589 415.897 376.802 414.758" stroke="#263238" stroke-linecap="round" stroke-linejoin="round"/>
<path d="M384.122 410.089C384.122 410.089 380.578 414.079 381.909 418.518" stroke="#263238" stroke-linecap="round" stroke-linejoin="round"/>
<path d="M382.574 419.848C382.574 419.848 386.798 420.962 387.015 422.292C387.232 423.622 386.798 425.848 385.902 425.848C385.005 425.848 384.543 424.287 384.543 424.287" stroke="#263238" stroke-linecap="round" stroke-linejoin="round"/>
<path d="M394.322 401.32C393.179 403.773 391.273 405.792 388.889 407.075C385.032 408.989 378.323 403.872 378.323 403.872L371.275 362.606L355.915 339.53L354.625 373.167C354.625 373.167 360.709 410.265 359.758 410.917C358.808 411.568 344.711 417.948 321.026 420.514C297.34 423.079 276.548 411.88 276.548 411.88L286.462 373.479L281.98 344.973L270.939 362.267L272.379 391.994C272.379 391.994 269.826 398.713 265.344 399.677C262.487 400.236 259.549 400.236 256.693 399.677C256.696 399.641 256.696 399.605 256.693 399.569C256.693 399.379 256.598 398.944 256.489 398.306C256.489 398.021 256.394 397.682 256.326 397.302C256.245 396.718 256.122 396.026 256 395.266C255.878 394.506 255.81 394.058 255.701 393.392C255.593 392.727 255.484 392.035 255.362 391.302C253.637 380.551 250.853 363.163 250.636 361.615V361.547C250.636 358.548 271.442 304.984 272.705 303.722C273.968 302.459 274.063 298.292 278.477 295.401C282.89 292.509 306.996 282.614 306.996 282.614C316.259 279.722 341.872 283.564 341.872 283.564C341.872 283.564 351.8 289.319 353.076 289.971C354.353 290.623 368.111 298.916 371.316 300.83C374.521 302.744 374.833 306.26 376.11 310.427C377.386 314.594 386.676 345.299 389.555 350.729C392.434 356.159 394.322 401.32 394.322 401.32Z" fill="#FFD260" stroke="#263238" stroke-linecap="round" stroke-linejoin="round"/>
<path d="M270.939 362.308L272.379 392.035C272.379 392.035 269.826 398.754 265.344 399.718C262.487 400.277 259.549 400.277 256.693 399.718C256.696 399.682 256.696 399.646 256.693 399.609C256.693 399.419 256.598 398.985 256.489 398.347C256.489 398.062 256.394 397.709 256.326 397.342C256.245 396.759 256.122 396.067 256 395.306C255.878 394.546 255.81 394.098 255.701 393.433C255.593 392.768 255.484 392.076 255.362 391.343C253.637 380.592 250.853 363.204 250.636 361.656V361.588C252.483 362.633 255.919 364.303 258.119 363.936C259.789 363.624 261.813 361.398 263.293 359.443C263.592 358.548 263.836 357.882 263.972 357.489C265.575 353.186 274.959 327.11 274.959 327.11L281.994 345.028L270.939 362.308Z" fill="#263238" stroke="#263238" stroke-linecap="round" stroke-linejoin="round"/>
<path d="M276.222 315.26L281.98 345.014" stroke="#263238" stroke-linecap="round" stroke-linejoin="round"/>
<path d="M360.492 318.938L355.915 339.571L365.503 319.101" stroke="#263238" stroke-linecap="round" stroke-linejoin="round"/>
<path d="M362.312 310.794L361.578 314.079" stroke="#263238" stroke-linecap="round" stroke-linejoin="round"/>
<path d="M318.785 321.979C318.785 321.979 337.35 355.914 340.867 358.127" stroke="#263238" stroke-linecap="round" stroke-linejoin="round"/>
<path d="M338.667 361.005L341.193 363.244" stroke="#263238" stroke-linecap="round" stroke-linejoin="round"/>
<path d="M324.23 348.218L336.046 358.697" stroke="#263238" stroke-linecap="round" stroke-linejoin="round"/>
<path d="M394.322 401.32C394.322 401.32 393.805 389.184 392.895 376.737C387.354 374.837 380.985 372.176 378.636 369.325C374.154 363.896 357.83 341.811 357.83 341.811V342.503L371.234 362.606L378.269 403.872C378.269 403.872 384.991 408.989 388.835 407.075C391.24 405.802 393.165 403.782 394.322 401.32Z" fill="#263238" stroke="#263238" stroke-linecap="round" stroke-linejoin="round"/>
<path d="M292.872 578.666L292.275 588.29C292.275 588.29 287.549 594.792 288.73 598.335C289.912 601.878 294.638 601.281 301.727 601.281C308.816 601.281 313.841 596.272 313.841 591.779C313.841 587.286 313.176 575.625 313.176 575.625C313.176 575.625 310.161 572.911 303.438 573.196C301.396 573.335 299.404 573.893 297.587 574.834C295.769 575.775 294.165 577.079 292.872 578.666Z" fill="#263238" stroke="#263238" stroke-linecap="round" stroke-linejoin="round"/>
<path d="M312.116 596.462C310.884 595.472 309.426 594.801 307.871 594.51C306.317 594.219 304.715 594.316 303.207 594.792C298.019 596.516 294.896 599.679 291.08 600.67C293.361 601.538 297.014 601.281 301.727 601.281C303.712 601.326 305.681 600.915 307.483 600.079C309.284 599.244 310.869 598.006 312.116 596.462Z" fill="white" stroke="#263238" stroke-linecap="round" stroke-linejoin="round"/>
<path d="M325.955 75.1329H318.676V106.109H325.955V75.1329Z" fill="#FFD260" stroke="#263238" stroke-linecap="round" stroke-linejoin="round"/>
<path d="M333.072 112.747H311.56L314.086 100.734H330.532L333.072 112.747Z" fill="#FFD260" stroke="#263238" stroke-linecap="round" stroke-linejoin="round"/>
<path d="M346.027 117.81H298.589L303.655 106.747H340.975L346.027 117.81Z" fill="#FFD260" stroke="#263238" stroke-linecap="round" stroke-linejoin="round"/>
<path d="M298.277 42.3513C294.889 42.292 291.559 43.2421 288.713 45.0806C285.867 46.9191 283.632 49.5627 282.294 52.6748C280.956 55.7869 280.575 59.2267 281.2 62.5559C281.824 65.8852 283.426 68.9534 285.801 71.3696C288.176 73.7858 291.217 75.4408 294.537 76.1237C297.856 76.8066 301.304 76.4866 304.44 75.2044C307.577 73.9223 310.261 71.7359 312.151 68.9238C314.04 66.1118 315.049 62.8013 315.05 59.414C315.069 57.1929 314.651 54.9896 313.819 52.9301C312.987 50.8705 311.757 48.995 310.199 47.4105C308.642 45.8261 306.787 44.5638 304.742 43.6957C302.696 42.8277 300.499 42.3708 298.277 42.3513ZM298.277 72.2144C295.748 72.2603 293.263 71.5526 291.138 70.1817C289.013 68.8108 287.344 66.8386 286.345 64.5164C285.345 62.1943 285.06 59.6272 285.525 57.1424C285.99 54.6575 287.185 52.3672 288.957 50.5634C290.729 48.7596 292.998 47.5238 295.475 47.0135C297.952 46.5032 300.525 46.7415 302.866 47.6981C305.208 48.6546 307.211 50.2861 308.621 52.3847C310.031 54.4832 310.785 56.9539 310.785 59.4819C310.8 62.817 309.492 66.0221 307.148 68.3956C304.803 70.7692 301.614 72.1179 298.277 72.1466V72.2144Z" fill="#FFD260" stroke="#263238" stroke-linecap="round" stroke-linejoin="round"/>
<path d="M348.88 42.3513C345.491 42.2893 342.16 43.2371 339.312 45.0739C336.464 46.9107 334.227 49.5533 332.887 52.6652C331.547 55.777 331.164 59.2171 331.787 62.5473C332.41 65.8774 334.011 68.9468 336.385 71.3644C338.76 73.782 341.801 75.4383 345.12 76.1224C348.44 76.8065 351.888 76.4873 355.026 75.2056C358.164 73.9238 360.848 71.7375 362.738 68.9252C364.628 66.1129 365.638 62.8019 365.638 59.414C365.678 54.9306 363.935 50.6148 360.793 47.4153C357.65 44.2158 353.365 42.3943 348.88 42.3513ZM348.88 72.2144C346.355 72.2548 343.875 71.5441 341.755 70.1728C339.635 68.8015 337.97 66.8314 336.973 64.5126C335.976 62.1939 335.69 59.6312 336.153 57.1499C336.616 54.6687 337.806 52.381 339.572 50.5772C341.339 48.7735 343.602 47.5352 346.074 47.0195C348.545 46.5039 351.115 46.7341 353.456 47.6811C355.796 48.6281 357.803 50.2491 359.22 52.3381C360.637 54.4272 361.401 56.8901 361.415 59.414C361.431 61.0734 361.119 62.7198 360.497 64.2585C359.876 65.7973 358.956 67.1983 357.792 68.3812C356.627 69.564 355.24 70.5055 353.711 71.1517C352.182 71.7978 350.54 72.1359 348.88 72.1466V72.2144Z" fill="#FFD260" stroke="#263238" stroke-linecap="round" stroke-linejoin="round"/>
<path d="M322.316 83.671C316.697 83.671 311.308 81.44 307.335 77.4688C303.362 73.4976 301.129 68.1115 301.129 62.4954V40.6817H343.502V62.4954C343.502 68.1115 341.27 73.4976 337.297 77.4688C333.323 81.44 327.935 83.671 322.316 83.671Z" fill="#FFD260" stroke="#263238" stroke-linecap="round" stroke-linejoin="round"/>
<path d="M307.553 52.3148L316.517 68.1558L318.88 62.8483L324.706 63.7985L312.551 48.5547L307.553 52.3148Z" fill="#263238" stroke="#263238" stroke-linecap="round" stroke-linejoin="round"/>
<path d="M307.078 50.4415L303.954 68.373L309.156 65.7667L313.053 70.1919L313.311 50.6994L307.078 50.4415Z" fill="#263238" stroke="#263238" stroke-linecap="round" stroke-linejoin="round"/>
<path d="M320.333 45.7584C320.333 43.9597 319.799 42.2013 318.799 40.7057C317.799 39.2101 316.378 38.0444 314.716 37.3561C313.053 36.6677 311.223 36.4876 309.458 36.8385C307.693 37.1894 306.072 38.0556 304.799 39.3275C303.527 40.5994 302.66 42.22 302.309 43.9842C301.958 45.7484 302.138 47.577 302.827 49.2388C303.516 50.9007 304.682 52.3211 306.178 53.3204C307.675 54.3197 309.434 54.8531 311.233 54.8531C312.429 54.8549 313.613 54.6209 314.718 54.1645C315.822 53.7081 316.826 53.0382 317.672 52.1933C318.517 51.3485 319.187 50.3452 319.644 49.2409C320.1 48.1367 320.334 46.9533 320.333 45.7584Z" fill="white" stroke="#263238" stroke-linecap="round" stroke-linejoin="round"/>
<path d="M318.255 45.7584C318.255 44.3704 317.843 43.0136 317.071 41.8595C316.3 40.7055 315.203 39.806 313.92 39.2748C312.637 38.7436 311.225 38.6047 309.863 38.8754C308.501 39.1462 307.25 39.8146 306.268 40.7961C305.286 41.7775 304.618 43.028 304.347 44.3893C304.076 45.7507 304.215 47.1617 304.746 48.444C305.278 49.7264 306.178 50.8224 307.332 51.5936C308.487 52.3647 309.845 52.7763 311.233 52.7763C312.156 52.7781 313.07 52.5978 313.922 52.2457C314.775 51.8937 315.55 51.3768 316.202 50.7248C316.854 50.0728 317.372 49.2984 317.724 48.4462C318.076 47.5939 318.256 46.6805 318.255 45.7584Z" fill="white" stroke="#263238" stroke-linecap="round" stroke-linejoin="round"/>
<path d="M309.183 42.2292C309.361 42.2601 309.544 42.2549 309.721 42.214C309.897 42.1732 310.064 42.0973 310.211 41.9911C310.358 41.8848 310.482 41.7502 310.576 41.5953C310.67 41.4404 310.732 41.2682 310.758 41.0889H311.722V50.2243H310.364V43.2472H309.251L309.183 42.2292Z" fill="#263238"/>
<path d="M386.458 264.995C385.372 258.832 383.742 243.52 393.113 236.014C404.942 226.512 413.335 243.642 423.643 230.299C433.951 216.956 436.993 187.961 467.509 188.341C498.025 188.721 500.321 205.893 500.321 211.607C500.321 217.322 509.474 221.517 511.389 221.517C513.304 221.517 523.979 216.562 527.795 227.625C531.611 238.688 529.017 245.081 535.088 245.271C541.158 245.461 548.669 237.235 556.926 241.376C565.183 245.516 565.183 254.271 568.619 257.325C572.055 260.379 577.773 255.045 585.405 258.085C590.023 259.931 591.421 262.904 591.802 264.954L386.458 264.995Z" fill="white" stroke="black" stroke-miterlimit="10"/>
<path d="M400.691 61.5452C400.338 59.5227 399.822 54.4866 402.878 52.0433C406.776 48.9077 409.533 54.5409 412.914 50.1565C416.296 45.772 417.301 36.2566 427.324 36.3787C437.346 36.5009 438.107 42.1342 438.107 44.021C438.107 45.9078 441.122 47.2788 441.747 47.2788C442.371 47.2788 445.889 45.6499 447.179 49.2877C448.469 52.9256 447.586 55.016 449.569 55.0975C451.552 55.1789 454.037 52.3826 456.753 53.7401C459.47 55.0975 459.47 57.9888 460.597 58.9933C461.724 59.9978 463.598 58.2331 466.111 59.2376C466.628 59.3966 467.095 59.6883 467.464 60.0836C467.833 60.479 468.092 60.9642 468.216 61.4909L400.691 61.5452Z" fill="white" stroke="black" stroke-miterlimit="10"/>
<path d="M384.503 147.456C383.837 143.682 382.887 134.357 388.577 129.81C395.789 124 400.908 134.466 407.196 126.321C413.484 118.177 415.345 100.53 433.964 100.734C452.584 100.937 453.983 111.43 453.983 114.919C453.983 118.407 459.564 120.973 460.773 120.973C461.982 120.973 468.446 117.946 470.769 124.692C473.091 131.439 471.529 135.348 475.223 135.552C478.917 135.755 483.508 130.651 488.546 133.176C493.585 135.701 493.585 141.049 495.676 142.909C497.767 144.768 501.258 141.551 505.916 143.37C506.881 143.66 507.752 144.202 508.439 144.939C509.126 145.676 509.605 146.582 509.827 147.565L384.503 147.456Z" fill="white" stroke="black" stroke-miterlimit="10"/>
<path d="M280.636 34.4376C281.112 31.7228 281.804 24.9357 277.703 21.6779C272.488 17.47 268.794 25.0308 264.258 19.1531C259.722 13.2755 258.377 0.51584 244.932 0.67873C231.487 0.84162 230.482 8.40242 230.482 10.9272C230.482 13.452 226.408 15.2981 225.606 15.2981C224.805 15.2981 220.065 13.1127 218.381 18.0129C216.697 22.9132 217.838 25.6959 215.176 25.7909C212.515 25.8859 209.187 22.2616 205.547 24.0806C201.908 25.8995 201.908 29.7681 200.4 31.112C198.893 32.4558 196.326 30.0939 193.012 31.4378C192.314 31.6439 191.683 32.0334 191.186 32.5658C190.69 33.0982 190.345 33.7539 190.188 34.4648L280.636 34.4376Z" fill="white" stroke="black" stroke-miterlimit="10"/>
<path d="M303.778 222.453C305.136 214.865 307.051 196.024 295.629 186.78C281.071 175.039 270.736 196.16 258.051 179.735C245.366 163.311 241.605 127.611 204.026 128.154C166.448 128.697 163.623 149.75 163.623 156.795C163.623 163.84 152.351 169.012 150.042 169.012C147.733 169.012 134.546 162.903 129.847 176.532C125.148 190.16 128.326 198.02 120.87 198.251C113.414 198.481 104.03 188.341 93.8715 193.432C83.713 198.522 83.713 209.327 79.4894 213.087C75.2657 216.847 68.2036 210.264 58.8192 214.024C53.1152 216.291 51.404 219.942 50.9287 222.467L303.778 222.453Z" fill="white" stroke="black" stroke-miterlimit="10"/>
<path d="M209.146 145.542C209.567 143.139 210.178 137.167 206.552 134.248C201.935 130.529 198.662 137.221 194.642 132.009C190.622 126.796 189.44 115.502 177.543 115.72C165.647 115.937 164.75 122.507 164.75 124.801C164.75 127.095 161.178 128.656 160.432 128.656C159.685 128.656 155.529 126.728 154.035 131.045C152.541 135.361 153.56 137.832 151.197 137.941C148.833 138.049 145.9 134.805 142.681 136.42C139.463 138.036 139.463 141.443 138.118 142.637C136.774 143.832 134.546 141.741 131.572 142.936C130.95 143.122 130.389 143.472 129.95 143.95C129.51 144.428 129.207 145.015 129.073 145.651L209.146 145.542Z" fill="white" stroke="black" stroke-miterlimit="10"/>
</g>
<defs>
<clipPath id="clip0_1082_1931">
<rect width="640" height="602" fill="white"/>
</clipPath>
</defs>
</svg>
