<svg width="1366" height="768" viewBox="0 0 1366 768" fill="none" xmlns="http://www.w3.org/2000/svg">
<rect width="1366" height="768" fill="#200568"/>
<mask id="mask0_159_301" style="mask-type:alpha" maskUnits="userSpaceOnUse" x="0" y="0" width="1366" height="768">
<rect width="1366" height="768" fill="#46527D"/>
</mask>
<g mask="url(#mask0_159_301)">
<g filter="url(#filter0_f_159_301)">
<path fill-rule="evenodd" clip-rule="evenodd" d="M991.834 202.645C1075.27 219.007 1113.3 310.915 1185.26 357.258C1303.94 433.692 1509.51 415.523 1540.28 555.858C1569.99 691.361 1415.62 801.916 1297.63 869.845C1205.2 923.058 1097.46 862.896 991.834 871.605C866.483 881.941 717.609 1019.86 632.629 924.679C546.591 828.315 695.297 685.723 709.921 555.858C721.254 455.209 644.535 341.85 707.082 263.484C770.965 183.443 892.837 183.231 991.834 202.645Z" fill="#7B28AD"/>
<path fill-rule="evenodd" clip-rule="evenodd" d="M208.672 -437.556C308.343 -409.478 327.268 -273.587 405.106 -205.38C466.459 -151.617 553.911 -141.35 612.021 -84.1089C691.767 -5.55515 835.429 78.3599 801.304 184.896C764.466 299.903 579.615 267.132 478.366 333.155C414.707 374.667 399.669 481.049 325.023 495.474C249.703 510.029 195.257 415.57 119.67 402.471C28.2373 386.625 -69.8017 453.894 -152.9 412.648C-243.253 367.801 -367.059 272.575 -333.32 177.626C-291.106 58.824 -63.1202 114.383 -6.82339 1.55206C46.1706 -104.659 -127.064 -234.006 -74.7708 -340.563C-29.9145 -431.965 110.561 -465.194 208.672 -437.556Z" fill="#7B28AD"/>
<path fill-rule="evenodd" clip-rule="evenodd" d="M678.338 1270.88C543.88 1279.51 487.314 1100.81 370.559 1033.69C258.263 969.129 90.15 1005.44 23.5817 894.446C-50.5534 770.834 -56.04 588.344 37.829 478.899C127.813 373.983 294.422 428.419 432.362 417.836C527.046 410.571 625.939 377.001 706.23 427.618C783.783 476.509 784.635 581.575 823.592 664.475C877.046 778.222 1002.14 872.813 972.87 995.016C940.322 1130.9 817.991 1261.91 678.338 1270.88Z" fill="#200568"/>
<path fill-rule="evenodd" clip-rule="evenodd" d="M1416.97 -149.987C1464.08 -68.5312 1572.23 -10.3151 1557.22 82.5425C1541.9 177.312 1433.87 220.057 1349.66 266.388C1267.88 311.384 1182.27 355.652 1090.32 339.431C990.939 321.9 900.284 264.189 848.145 177.917C795.112 90.1631 762.651 -27.8884 815.074 -116.007C864.013 -198.269 993.563 -158.084 1076.52 -205.971C1159.6 -253.921 1190.72 -403.055 1285.4 -387.485C1378.34 -372.201 1369.87 -231.434 1416.97 -149.987Z" fill="#200568"/>
</g>
</g>
<defs>
<filter id="filter0_f_159_301" x="-739" y="-847" width="2697.63" height="2518.18" filterUnits="userSpaceOnUse" color-interpolation-filters="sRGB">
<feFlood flood-opacity="0" result="BackgroundImageFix"/>
<feBlend mode="normal" in="SourceGraphic" in2="BackgroundImageFix" result="shape"/>
<feGaussianBlur stdDeviation="200" result="effect1_foregroundBlur_159_301"/>
</filter>
</defs>
</svg>
