<svg width="391" height="305" viewBox="0 0 391 305" fill="none" xmlns="http://www.w3.org/2000/svg">
<mask id="mask0_159_1152" style="mask-type:alpha" maskUnits="userSpaceOnUse" x="0" y="0" width="391" height="305">
<path d="M0.5 0H390.5V305H0.5V0Z" fill="#D9D9D9"/>
</mask>
<g mask="url(#mask0_159_1152)">
<path d="M236.5 152.1V5H245.6" stroke="#263238" stroke-miterlimit="10" stroke-linecap="round" stroke-linejoin="round"/>
<path d="M236.5 169.6V165.7" stroke="#263238" stroke-miterlimit="10" stroke-linecap="round" stroke-linejoin="round"/>
<path d="M269 5H363V183.3H236.5" stroke="#263238" stroke-miterlimit="10" stroke-linecap="round" stroke-linejoin="round"/>
<path d="M257.5 5H265.7" stroke="#263238" stroke-miterlimit="10" stroke-linecap="round" stroke-linejoin="round"/>
<path d="M358.2 9.70001H241.2V178.6H358.2V9.70001Z" stroke="#263238" stroke-miterlimit="10" stroke-linecap="round" stroke-linejoin="round"/>
<path d="M352.8 18.8V88.9H246.7V84.3" stroke="#263238" stroke-miterlimit="10" stroke-linecap="round" stroke-linejoin="round"/>
<path d="M246.7 73.6V14.7H352.8" stroke="#263238" stroke-miterlimit="10" stroke-linecap="round" stroke-linejoin="round"/>
<path d="M246.7 80.8V76.3" stroke="#263238" stroke-miterlimit="10" stroke-linecap="round" stroke-linejoin="round"/>
<path d="M334.9 94.1H358.3" stroke="#263238" stroke-miterlimit="10" stroke-linecap="round" stroke-linejoin="round"/>
<path d="M326.6 94.1H329.9" stroke="#263238" stroke-miterlimit="10" stroke-linecap="round" stroke-linejoin="round"/>
<path d="M241.2 94.1H322.6" stroke="#263238" stroke-miterlimit="10" stroke-linecap="round" stroke-linejoin="round"/>
<path d="M293.9 88.9V86.5H303.7V87.8H299.7V88.9" stroke="#263238" stroke-miterlimit="10" stroke-linecap="round" stroke-linejoin="round"/>
<path d="M241.4 157.3C241.4 157.3 243 158.5 244.2 166C244.2 166 246.2 154.1 248.5 153.9C250.9 153.7 250.4 161.6 250.4 161.6C250.4 161.6 250.8 157.7 252.7 157.9C254.6 158.1 252.7 166 252.7 166C252.7 166 254.9 159.9 257.1 160C259.2 160.1 255.7 171.1 255.7 171.1C255.7 171.1 261.1 167.2 263.3 169.1C265.5 171 262.1 175.9 262.1 175.9C262.1 175.9 269.9 174.2 271.1 178.8" stroke="#263238" stroke-miterlimit="10" stroke-linecap="round" stroke-linejoin="round"/>
<path d="M271.1 174.3C271.1 174.3 274.5 172.1 277.2 173.1C277.2 173.1 275.5 170.5 277.2 168.9C278.9 167.3 281.1 173.1 281.1 173.1C281.1 173.1 281.3 163.4 284.7 163.9C288.1 164.4 284.7 173.1 284.7 173.1C284.7 173.1 290.8 167.7 292.2 169.6C293.7 171.5 291.2 174.3 291.2 174.3C291.2 174.3 294.8 173.1 297.5 175.9C297.5 175.9 301.6 171.7 306.1 171.2C306.1 171.2 303.1 162.5 304.6 160.7C306.1 158.9 308.7 168.3 308.7 168.3C308.7 168.3 309.9 162.2 313.7 161.7C313.7 161.7 310.5 160 311.5 157.4C312.5 154.8 316.8 158 316.8 158C316.8 158 315 153.4 317.8 152.2C320.6 150.9 321.8 156 321.8 156C321.8 156 322.6 150.7 325.9 151C329.2 151.3 328.2 157.4 328.2 157.4C328.2 157.4 331.4 152.5 333 153C336.4 154 335.3 161.7 335.3 161.7C335.3 161.7 340 158.4 341.2 159.9C342.5 161.5 336.3 165.7 336.3 165.7C336.3 165.7 341 166.2 343.9 168.9" stroke="#263238" stroke-miterlimit="10" stroke-linecap="round" stroke-linejoin="round"/>
<path d="M358.3 159.1C358.3 159.1 357.8 154.2 352.9 153.9C348 153.6 354.2 164.7 354.2 164.7C354.2 164.7 350.2 161.4 348.7 162.4C347.2 163.4 352.8 169.1 352.8 169.1C352.8 169.1 350.1 166.6 347.3 167.4C344.5 168.2 348.9 176.1 348.9 176.1C348.9 176.1 343 174.6 336.4 177.6" stroke="#263238" stroke-miterlimit="10" stroke-linecap="round" stroke-linejoin="round"/>
<path d="M191.2 296.7V306" stroke="#263238" stroke-miterlimit="10" stroke-linecap="round" stroke-linejoin="round"/>
<path d="M8 354.7V273.6H191.2V291.4" stroke="#263238" stroke-miterlimit="10" stroke-linecap="round" stroke-linejoin="round"/>
<path d="M34.6998 282.5H18.7998V347.3" stroke="#263238" stroke-miterlimit="10" stroke-linecap="round" stroke-linejoin="round"/>
<path d="M180.4 354.5V282.5H43.8999" stroke="#263238" stroke-miterlimit="10" stroke-linecap="round" stroke-linejoin="round"/>
<path d="M172.8 265.2H167.7" stroke="#263238" stroke-miterlimit="10" stroke-linecap="round" stroke-linejoin="round"/>
<path d="M160.5 265.2H3.3999V273.6H195.7V265.2H176" stroke="#263238" stroke-miterlimit="10" stroke-linecap="round" stroke-linejoin="round"/>
<path d="M14.2998 211.8C14.2998 211.8 29.3998 213 29.9998 224.1C29.8998 224.1 14.6998 231.1 14.2998 211.8Z" stroke="#263238" stroke-miterlimit="10" stroke-linecap="round" stroke-linejoin="round"/>
<path d="M43.9998 214.5C43.9998 214.5 52.3998 203.1 65.9998 209C65.9998 209 57.6998 222.8 43.9998 214.5Z" stroke="#263238" stroke-miterlimit="10" stroke-linecap="round" stroke-linejoin="round"/>
<path d="M64.8999 178.7C64.8999 178.7 67.2999 200.6 47.3999 194.6C47.3999 194.5 53.6999 178.4 64.8999 178.7Z" stroke="#263238" stroke-miterlimit="10" stroke-linecap="round" stroke-linejoin="round"/>
<path d="M40.3997 166.5C40.3997 166.5 56.0997 175 44.5997 187.9C44.5997 187.9 33.5997 178.6 40.3997 166.5Z" stroke="#263238" stroke-miterlimit="10" stroke-linecap="round" stroke-linejoin="round"/>
<path d="M21.0999 186C21.0999 186 38.1999 184.3 38.1999 200.1C38.1999 200.1 21.0999 200.8 21.0999 186Z" stroke="#263238" stroke-miterlimit="10" stroke-linecap="round" stroke-linejoin="round"/>
<path d="M33.8999 233C33.6999 227.7 33.6999 220.8 36.8999 213.6C44.3999 196.9 46.8999 182.9 42.9999 173" stroke="#263238" stroke-miterlimit="10" stroke-linecap="round" stroke-linejoin="round"/>
<path d="M26.6997 190.3C26.6997 190.3 36.9997 194.4 40.4997 204.9" stroke="#263238" stroke-miterlimit="10" stroke-linecap="round" stroke-linejoin="round"/>
<path d="M59.4998 187.4C59.4998 187.4 53.5998 195.5 43.4998 194.6" stroke="#263238" stroke-miterlimit="10" stroke-linecap="round" stroke-linejoin="round"/>
<path d="M59.4998 211.3C59.4998 211.3 43.0998 216 36.4998 214.5" stroke="#263238" stroke-miterlimit="10" stroke-linecap="round" stroke-linejoin="round"/>
<path d="M19.1997 216.8C19.1997 216.8 26.4997 224.9 33.8997 224.7" stroke="#263238" stroke-miterlimit="10" stroke-linecap="round" stroke-linejoin="round"/>
<path d="M53.3998 233H17.6998C17.1998 233 16.7998 233.4 16.7998 233.9V236.6C16.7998 237.1 17.1998 237.5 17.6998 237.5H18.6998L21.8998 265.3H49.0998L52.2998 237.5H53.2998C53.7998 237.5 54.1998 237.1 54.1998 236.6V233.9C54.2998 233.4 53.8998 233 53.3998 233Z" stroke="#263238" stroke-miterlimit="10"/>
<path d="M21.0999 237.5H41.7999" stroke="#263238" stroke-miterlimit="10" stroke-linecap="round" stroke-linejoin="round"/>
<path d="M45.6997 237.5H48.8997" stroke="#263238" stroke-miterlimit="10" stroke-linecap="round" stroke-linejoin="round"/>
<path d="M125.6 159.2L129.6 167.7C129.6 167.7 146.1 201.9 156.3 241C156.5 241.9 161.8 260.5 157.6 306.6L160 314.7L157.4 328.1C157.4 328.1 161.3 333.8 161.2 335.6C161.2 335.6 151.5 337.4 148.2 339.2C145.7 340.6 138.1 348 138.1 348C136 347.6 135.8 338.9 135.8 338.9C135.8 338.9 131.3 261.8 130 258.5C128.7 255.2 120.8 240.9 108.5 208.1C108.5 208.1 108.2 253.9 104.9 265.4C102 275.7 105.4 304.5 105.4 304.5L103.4 336.6C103.4 336.6 110.3 343.8 104.7 345.7C104.7 345.7 101 338.5 90.3 336.8C84.9 336 78.1 345.6 78.1 345.6C75.7 344.8 79.1 332.7 79.1 332.7C71.5 275.6 77.1 285.9 75.6 258C74.6 240.1 69.5 163.4 75.5 157.2L125.6 159.2Z" fill="#BFBFBF"/>
<mask id="mask1_159_1152" style="mask-type:luminance" maskUnits="userSpaceOnUse" x="72" y="157" width="90" height="192">
<path d="M125.6 159.2L129.6 167.7C129.6 167.7 146.1 201.9 156.3 241C156.5 241.9 161.8 260.5 157.6 306.6L160 314.7L157.4 328.1C157.4 328.1 161.3 333.8 161.2 335.6C161.2 335.6 151.5 337.4 148.2 339.2C145.7 340.6 138.1 348 138.1 348C136 347.6 135.8 338.9 135.8 338.9C135.8 338.9 131.3 261.8 130 258.5C128.7 255.2 120.8 240.9 108.5 208.1C108.5 208.1 108.2 253.9 104.9 265.4C102 275.7 105.4 304.5 105.4 304.5L103.4 336.6C103.4 336.6 110.3 343.8 104.7 345.7C104.7 345.7 101 338.5 90.3 336.8C84.9 336 78.1 345.6 78.1 345.6C75.7 344.8 79.1 332.7 79.1 332.7C71.5 275.6 77.1 285.9 75.6 258C74.6 240.1 69.5 163.4 75.5 157.2L125.6 159.2Z" fill="white"/>
</mask>
<g mask="url(#mask1_159_1152)">
<path opacity="0.2" d="M72.8 185.6C99.5 187.7 122.7 179 132.7 174.4C130.8 170.1 129.6 167.7 129.6 167.7L125.6 159.2L75.6001 157.4C73.5001 159.6 72.8 171.1 72.8 185.6Z" fill="black"/>
</g>
<mask id="mask2_159_1152" style="mask-type:luminance" maskUnits="userSpaceOnUse" x="72" y="157" width="90" height="192">
<path d="M125.6 159.2L129.6 167.7C129.6 167.7 146.1 201.9 156.3 241C156.5 241.9 161.8 260.5 157.6 306.6L160 314.7L157.4 328.1C157.4 328.1 161.3 333.8 161.2 335.6C161.2 335.6 151.5 337.4 148.2 339.2C145.7 340.6 138.1 348 138.1 348C136 347.6 135.8 338.9 135.8 338.9C135.8 338.9 131.3 261.8 130 258.5C128.7 255.2 120.8 240.9 108.5 208.1C108.5 208.1 108.2 253.9 104.9 265.4C102 275.7 105.4 304.5 105.4 304.5L103.4 336.6C103.4 336.6 110.3 343.8 104.7 345.7C104.7 345.7 101 338.5 90.3 336.8C84.9 336 78.1 345.6 78.1 345.6C75.7 344.8 79.1 332.7 79.1 332.7C71.5 275.6 77.1 285.9 75.6 258C74.6 240.1 69.5 163.4 75.5 157.2L125.6 159.2Z" fill="white"/>
</mask>
<g mask="url(#mask2_159_1152)">
<path opacity="0.2" d="M108.7 208.7C120.9 241 128.7 255.2 130 258.5C130.7 260.4 132.5 286.6 133.9 308.5C135.5 288.5 137.2 267.4 137.3 263.3C137.6 255.1 131.6 243.8 130.8 240.9C129.9 238 131.9 234.8 131.9 234.8L121.2 221.3C121.6 216.7 115.9 196.7 115.9 196.7C112.5 200 109.5 206.8 108.7 208.7Z" fill="black"/>
</g>
<path d="M125.6 159.2L129.6 167.7C129.6 167.7 146.1 201.9 156.3 241C156.5 241.9 161.8 260.5 157.6 306.6L160 314.7L157.4 328.1C157.4 328.1 161.3 333.8 161.2 335.6C161.2 335.6 151.5 337.4 148.2 339.2C145.7 340.6 138.1 348 138.1 348C136 347.6 135.8 338.9 135.8 338.9C135.8 338.9 131.3 261.8 130 258.5C128.7 255.2 120.8 240.9 108.5 208.1C108.5 208.1 108.2 253.9 104.9 265.4C102 275.7 105.4 304.5 105.4 304.5L103.4 336.6C103.4 336.6 110.3 343.8 104.7 345.7C104.7 345.7 101 338.5 90.3 336.8C84.9 336 78.1 345.6 78.1 345.6C75.7 344.8 79.1 332.7 79.1 332.7C71.5 275.6 77.1 285.9 75.6 258C74.6 240.1 69.5 163.4 75.5 157.2L125.6 159.2Z" stroke="#263238" stroke-miterlimit="10" stroke-linecap="round" stroke-linejoin="round"/>
<path d="M108.5 208.1C108.5 208.1 114.6 196.3 119.8 193" stroke="#263238" stroke-miterlimit="10" stroke-linecap="round" stroke-linejoin="round"/>
<path d="M122.1 189.2C122.1 189.2 103.5 194.8 97.1001 195.9" stroke="#263238" stroke-miterlimit="10" stroke-linecap="round" stroke-linejoin="round"/>
<path d="M112.6 170.3C113.4 185.8 118.9 188.4 113.6 191.8C113.6 191.8 113.7 199 111.1 203.6" stroke="#263238" stroke-miterlimit="10" stroke-linecap="round" stroke-linejoin="round"/>
<path d="M80.1 164.4C80.1 164.4 82.3 188.2 75 192.6" stroke="#263238" stroke-miterlimit="10" stroke-linecap="round" stroke-linejoin="round"/>
<path d="M75.0001 172C75.0001 172 74.5001 187.8 75.0001 200.6C75.0001 200.6 76.8001 254.5 78.7001 261.2C80.5001 268 75.9001 278.2 76.3001 307.4" stroke="#263238" stroke-miterlimit="10" stroke-linecap="round" stroke-linejoin="round"/>
<path d="M100.5 211.9C96.4 216.5 89.9 225.2 83.2 225.9" stroke="#263238" stroke-miterlimit="10" stroke-linecap="round" stroke-linejoin="round"/>
<path d="M106.8 204.4C105.5 206 104.2 207.6 102.9 209.1" stroke="#263238" stroke-miterlimit="10" stroke-linecap="round" stroke-linejoin="round"/>
<path d="M100.9 258.2C100.9 258.2 91.6 270.9 86.5 271.6" stroke="#263238" stroke-miterlimit="10" stroke-linecap="round" stroke-linejoin="round"/>
<path d="M111.9 205.8C111.9 205.8 128.5 252 134.3 256.6C134.3 256.6 135 290.6 135.1 302.5C135.3 314.4 138 330.2 138 330.2" stroke="#263238" stroke-miterlimit="10" stroke-linecap="round" stroke-linejoin="round"/>
<path d="M139.6 240C130.7 234.4 118.9 227.4 114.2 217.6" stroke="#263238" stroke-miterlimit="10" stroke-linecap="round" stroke-linejoin="round"/>
<path d="M147.3 244.6C145.6 243.7 144 242.7 142.3 241.7" stroke="#263238" stroke-miterlimit="10" stroke-linecap="round" stroke-linejoin="round"/>
<path d="M119.3 176.5C114.5 176.4 109.3 175.8 105.2 173.1" stroke="#263238" stroke-miterlimit="10" stroke-linecap="round" stroke-linejoin="round"/>
<path d="M126.9 176.1C125.5 176.3 124.1 176.4 122.8 176.5" stroke="#263238" stroke-miterlimit="10" stroke-linecap="round" stroke-linejoin="round"/>
<path d="M135.8 69.9001C132.1 64.4001 113.5 62.9001 101.5 62.9001C89.4999 62.9001 74.9999 60.9001 68.3999 74.4001C63.3999 84.7001 74.8999 139.2 74.8999 139.2L72.0999 162.7C93.7999 169.5 130.9 168 130.9 168L125.9 146.7C125.9 146.9 139.4 75.5001 135.8 69.9001Z" fill="#263238"/>
<path d="M94.3998 49.3001C94.3998 49.3001 95.9999 62.1001 91.0999 64.9001C91.0999 64.9001 93.4999 74.3001 102.1 74.9001C110.6 75.5001 114.5 66.3001 114.5 66.3001L94.3998 49.3001Z" fill="white" stroke="#263238" stroke-miterlimit="10" stroke-linecap="round" stroke-linejoin="round"/>
<path d="M165.1 31.6001L139.5 34.0001L138.1 18.4001C138 17.4001 138.8 16.4001 139.8 16.4001L161.7 14.4001C162.7 14.3001 163.7 15.1001 163.7 16.1001L165.1 31.6001Z" fill="#8EA6FC"/>
<mask id="mask3_159_1152" style="mask-type:luminance" maskUnits="userSpaceOnUse" x="138" y="14" width="28" height="20">
<path d="M165.1 31.6001L139.5 34.0001L138.1 18.4001C138 17.4001 138.8 16.4001 139.8 16.4001L161.7 14.4001C162.7 14.3001 163.7 15.1001 163.7 16.1001L165.1 31.6001Z" fill="white"/>
</mask>
<g mask="url(#mask3_159_1152)">
<path opacity="0.3" d="M165.1 31.6001L139.5 34.0001L138.1 18.4001C138 17.4001 138.8 16.4001 139.8 16.4001L161.7 14.4001C162.7 14.3001 163.7 15.1001 163.7 16.1001L165.1 31.6001Z" fill="black" fill-opacity="0.7"/>
</g>
<mask id="mask4_159_1152" style="mask-type:luminance" maskUnits="userSpaceOnUse" x="137" y="14" width="29" height="22">
<path d="M165.92 31.0709L140.648 35.8131L137.82 20.4072C137.629 19.4206 138.333 18.3513 139.329 18.2594L160.953 14.2555C161.94 14.0641 163.009 14.7688 163.101 15.7646L165.92 31.0709Z" fill="white"/>
</mask>
<g mask="url(#mask4_159_1152)">
<path opacity="0.3" d="M162.314 15.9377L156.04 16.5166L157.207 29.1633L163.481 28.5844L162.314 15.9377Z" fill="white" fill-opacity="0.7"/>
</g>
<path d="M165.1 31.6001L139.5 34.0001L138.1 18.4001C138 17.4001 138.8 16.4001 139.8 16.4001L161.7 14.4001C162.7 14.3001 163.7 15.1001 163.7 16.1001L165.1 31.6001Z" stroke="#263238" stroke-miterlimit="10" stroke-linecap="round" stroke-linejoin="round"/>
<path d="M203 28.2001L177.4 30.6001L176 15.0001C175.9 14.0001 176.7 13.0001 177.7 13.0001L199.6 11.0001C200.6 10.9001 201.6 11.7001 201.6 12.7001L203 28.2001Z" fill="#8EA6FC"/>
<mask id="mask5_159_1152" style="mask-type:luminance" maskUnits="userSpaceOnUse" x="175" y="10" width="28" height="21">
<path d="M203 28.2001L177.4 30.6001L176 15.0001C175.9 14.0001 176.7 13.0001 177.7 13.0001L199.6 11.0001C200.6 10.9001 201.6 11.7001 201.6 12.7001L203 28.2001Z" fill="white"/>
</mask>
<g mask="url(#mask5_159_1152)">
<path opacity="0.3" d="M203 28.2001L177.4 30.6001L176 15.0001C175.9 14.0001 176.7 13.0001 177.7 13.0001L199.6 11.0001C200.6 10.9001 201.6 11.7001 201.6 12.7001L203 28.2001Z" fill="black" fill-opacity="0.7"/>
</g>
<mask id="mask6_159_1152" style="mask-type:luminance" maskUnits="userSpaceOnUse" x="175" y="10" width="29" height="23">
<path d="M203.84 27.7409L178.568 32.4832L175.74 17.0773C175.549 16.0907 176.253 15.0214 177.249 14.9295L198.873 10.9256C199.86 10.7341 200.929 11.4388 201.021 12.4346L203.84 27.7409Z" fill="white"/>
</mask>
<g mask="url(#mask6_159_1152)">
<path opacity="0.3" d="M199.717 12.4545L195.933 12.8037L197.1 25.4504L200.884 25.1012L199.717 12.4545Z" fill="white" fill-opacity="0.7"/>
</g>
<path d="M203 28.2001L177.4 30.6001L176 15.0001C175.9 14.0001 176.7 13.0001 177.7 13.0001L199.6 11.0001C200.6 10.9001 201.6 11.7001 201.6 12.7001L203 28.2001Z" stroke="#263238" stroke-miterlimit="10" stroke-linecap="round" stroke-linejoin="round"/>
<path d="M195 28.9001L169.4 31.3001L168 15.7001C167.9 14.7001 168.7 13.7001 169.7 13.7001L191.6 11.7001C192.6 11.6001 193.6 12.4001 193.6 13.4001L195 28.9001Z" fill="#8EA6FC" stroke="#263238" stroke-miterlimit="10" stroke-linecap="round" stroke-linejoin="round"/>
<path d="M232.8 25.4001L207.2 27.8001L205.8 12.2001C205.7 11.2001 206.5 10.2001 207.5 10.2001L229.4 8.20011C230.4 8.10011 231.4 8.9001 231.4 9.9001L232.8 25.4001Z" fill="#8EA6FC" stroke="#263238" stroke-miterlimit="10" stroke-linecap="round" stroke-linejoin="round"/>
<path opacity="0.3" d="M192.111 13.1447L185.838 13.7236L187.005 26.3703L193.279 25.7913L192.111 13.1447Z" fill="white" fill-opacity="0.7"/>
<path opacity="0.3" d="M229.617 9.7371L223.343 10.316L224.51 22.9626L230.784 22.3838L229.617 9.7371Z" fill="white" fill-opacity="0.7"/>
<path d="M243.7 20.7001L250.3 92.6001L134.5 103.3L127.9 31.4001C127.7 28.9001 129.5 26.7001 132 26.5001L238.8 16.6001C241.3 16.4001 243.5 18.2001 243.7 20.7001Z" fill="#8EA6FC"/>
<mask id="mask7_159_1152" style="mask-type:luminance" maskUnits="userSpaceOnUse" x="127" y="16" width="124" height="88">
<path d="M243.7 20.7001L250.3 92.6001L134.5 103.3L127.9 31.4001C127.7 28.9001 129.5 26.7001 132 26.5001L238.8 16.6001C241.3 16.4001 243.5 18.2001 243.7 20.7001Z" fill="white"/>
</mask>
<g mask="url(#mask7_159_1152)">
<path opacity="0.3" d="M243.7 20.7001L250.3 92.6001L134.5 103.3L127.9 31.4001C127.7 28.9001 129.5 26.7001 132 26.5001L238.8 16.6001C241.3 16.4001 243.5 18.2001 243.7 20.7001Z" fill="black" fill-opacity="0.7"/>
</g>
<path d="M243.7 20.7001L250.3 92.6001L134.5 103.3L127.9 31.4001C127.7 28.9001 129.5 26.7001 132 26.5001L238.8 16.6001C241.3 16.4001 243.5 18.2001 243.7 20.7001Z" stroke="#263238" stroke-miterlimit="10" stroke-linecap="round" stroke-linejoin="round"/>
<path d="M243.7 20.7001L250.3 92.6001L164.4 100.5L157.8 28.6001C157.6 26.1001 159.4 23.9001 161.9 23.7001L238.8 16.6001C241.3 16.4001 243.5 18.2001 243.7 20.7001Z" fill="#8EA6FC" stroke="#263238" stroke-miterlimit="10" stroke-linecap="round" stroke-linejoin="round"/>
<path opacity="0.3" d="M238.1 23.8001L164.6 30.6001C163.6 30.7001 162.7 29.9001 162.6 28.9001C162.5 27.9001 163.3 27.0001 164.3 26.9001L237.8 20.1001C238.8 20.0001 239.7 20.8001 239.8 21.8001C239.9 22.8001 239.2 23.7001 238.1 23.8001Z" fill="white" fill-opacity="0.7"/>
<path d="M109 23.9001C109 23.9001 92.1 20.5001 90.2 31.4001C88.3 42.3001 94.5 46.9001 94.5 46.9001L109 23.9001Z" fill="#263238"/>
<path d="M94.5001 52.9001C92.8001 48.0001 92.1002 42.3001 93.6002 36.0001C95.3002 29.0001 103.6 19.4001 116.2 28.1001C122.7 32.6001 123.1 42.4001 121.1 51.4001C120.6 53.5001 121 55.6001 120.3 57.6001C117.8 64.5001 113.2 69.8001 110.7 69.9001C106.5 70.1001 98.2001 65.1001 98.5001 60.7001" fill="white"/>
<path d="M94.5001 52.9001C92.8001 48.0001 92.1002 42.3001 93.6002 36.0001C95.3002 29.0001 103.6 19.4001 116.2 28.1001C122.7 32.6001 123.1 42.4001 121.1 51.4001C120.6 53.5001 121 55.6001 120.3 57.6001C117.8 64.5001 113.2 69.8001 110.7 69.9001C106.5 70.1001 98.2001 65.1001 98.5001 60.7001" stroke="#263238" stroke-miterlimit="10" stroke-linecap="round" stroke-linejoin="round"/>
<path d="M111.4 49.7001C111.4 49.7001 108 47.3001 104.8 49.3001" stroke="#263238" stroke-miterlimit="10" stroke-linecap="round" stroke-linejoin="round"/>
<path d="M117.8 49.3001C117.8 49.3001 120.3 47.0001 122 47.3001" stroke="#263238" stroke-miterlimit="10" stroke-linecap="round" stroke-linejoin="round"/>
<path d="M106.6 53.5001C106.6 54.1001 106.9 54.6001 107.3 54.6001C107.7 54.6001 108 54.1001 108 53.5001C108 52.9001 107.7 52.4001 107.3 52.4001C106.9 52.4001 106.6 52.9001 106.6 53.5001Z" fill="#263238"/>
<path d="M117.8 54.0001C118.187 54.0001 118.5 53.5076 118.5 52.9001C118.5 52.2926 118.187 51.8001 117.8 51.8001C117.413 51.8001 117.1 52.2926 117.1 52.9001C117.1 53.5076 117.413 54.0001 117.8 54.0001Z" fill="#263238"/>
<path d="M116.3 51.7001C115.1 53.3001 116.8 59.5001 116.3 59.9001C115.8 60.3001 112.6 59.1001 112.6 59.1001C112.6 59.1001 111.9 58.2001 113.4 57.7001" stroke="#263238" stroke-miterlimit="10" stroke-linecap="round" stroke-linejoin="round"/>
<path d="M113.4 63.0001C113.4 63.0001 109.1 63.0001 108 61.4001" stroke="#263238" stroke-miterlimit="10" stroke-linecap="round" stroke-linejoin="round"/>
<path d="M103.3 39.9001L103 45.1001C103 45.1001 99.2999 47.0001 98.3999 48.9001C97.4999 50.8001 97.8 52.9001 97.8 52.9001C97.8 52.9001 95.5999 49.0001 94.3999 49.3001C93.9999 49.4001 93.9999 51.0001 93.9999 51.0001C93.9999 51.0001 88.9999 39.8001 93.4999 33.9001C97.9999 28.0001 103.3 39.9001 103.3 39.9001Z" fill="#757575" stroke="#263238" stroke-miterlimit="10" stroke-linecap="round" stroke-linejoin="round"/>
<path d="M96.2001 51.7001C96.2001 51.7001 95.2001 48.0001 91.8001 47.0001C88.4001 46.0001 90.7001 55.0001 93.6001 56.2001C96.5001 57.4001 97.2001 58.2001 97.4001 57.1001" fill="white"/>
<path d="M96.2001 51.7001C96.2001 51.7001 95.2001 48.0001 91.8001 47.0001C88.4001 46.0001 90.7001 55.0001 93.6001 56.2001C96.5001 57.4001 97.2001 58.2001 97.4001 57.1001" stroke="#263238" stroke-miterlimit="10" stroke-linecap="round" stroke-linejoin="round"/>
<path d="M91.6001 39.2001C91.3001 38.8001 90.1001 29.2001 96.4001 24.9001C102.7 20.6001 113.5 21.0001 120.3 27.0001C127.1 33.0001 125.2 43.3001 120.3 46.9001V42.6001C120.3 42.6001 118 46.9001 111.3 47.3001L113.4 44.1001C113.4 44.1001 110.1 46.1001 104.2 45.9001C104.2 45.9001 106.9 43.7001 106.6 41.8001C106.6 41.8001 97.3001 47.0001 91.6001 39.2001Z" fill="#263238"/>
<path d="M92.8 73.9001C88.1 74.5001 81.5 80.6001 85.8 91.4001C88.6 98.3001 111.3 94.2001 111.3 94.2001C119.7 90.7001 132.1 78.2001 141.1 72.4001C141.1 72.4001 139.2 60.4001 137 62.1001C126.8 69.9001 118.4 70.5001 104.1 77.3001C104.2 77.3001 95.8 73.6001 92.8 73.9001Z" fill="white" stroke="#263238" stroke-miterlimit="10" stroke-linecap="round" stroke-linejoin="round"/>
<path d="M103.3 87.2001C103.2 91.7001 105 92.5001 108.1 93.5001L103.3 87.2001Z" fill="white"/>
<path d="M103.3 87.2001C103.2 91.7001 105 92.5001 108.1 93.5001" stroke="#263238" stroke-miterlimit="10" stroke-linecap="round" stroke-linejoin="round"/>
<path d="M136.4 63.0001C136.6 62.4001 140.4 55.7001 141.5 54.0001C142.6 52.3001 147.4 50.8001 149.2 49.8001C151 48.8001 151.2 47.2001 152.2 48.3001C153.3 49.4001 152.2 51.9001 146.7 54.6001C146.7 54.6001 151.1 54.8001 152.6 54.6001C154.1 54.4001 155.4 53.0001 156.1 54.0001C156.8 54.9001 156.9 56.6001 153.6 57.6001C150.3 58.6001 148.7 58.6001 148.7 58.6001C148.7 58.6001 152.9 59.6001 153.4 60.0001C153.9 60.4001 154.7 61.3001 155.5 61.4001C156.3 61.5001 157.1 62.4001 155.7 63.4001C154.2 64.4001 152.3 63.5001 152.3 63.5001C152.3 63.5001 156.1 65.3001 154.9 66.5001C153.7 67.7001 149.9 67.4001 149.9 67.4001C149.9 67.4001 144.2 74.3001 139.5 72.8001" fill="white"/>
<path d="M136.4 63.0001C136.6 62.4001 140.4 55.7001 141.5 54.0001C142.6 52.3001 147.4 50.8001 149.2 49.8001C151 48.8001 151.2 47.2001 152.2 48.3001C153.3 49.4001 152.2 51.9001 146.7 54.6001C146.7 54.6001 151.1 54.8001 152.6 54.6001C154.1 54.4001 155.4 53.0001 156.1 54.0001C156.8 54.9001 156.9 56.6001 153.6 57.6001C150.3 58.6001 148.7 58.6001 148.7 58.6001C148.7 58.6001 152.9 59.6001 153.4 60.0001C153.9 60.4001 154.7 61.3001 155.5 61.4001C156.3 61.5001 157.1 62.4001 155.7 63.4001C154.2 64.4001 152.3 63.5001 152.3 63.5001C152.3 63.5001 156.1 65.3001 154.9 66.5001C153.7 67.7001 149.9 67.4001 149.9 67.4001C149.9 67.4001 144.2 74.3001 139.5 72.8001" stroke="#263238" stroke-miterlimit="10" stroke-linecap="round" stroke-linejoin="round"/>
<path d="M143.2 54.0001C143.2 54.0001 144.3 54.1001 144.6 55.3001C144.9 56.5001 145.9 56.6001 146.5 57.9001C147.1 59.2001 146.9 61.3001 147.5 62.0001C148.1 62.7001 147.5 65.7001 147.5 65.7001" stroke="#263238" stroke-miterlimit="10" stroke-linecap="round" stroke-linejoin="round"/>
<path d="M93.7999 73.1001C91.2999 70.0001 85.8999 71.4002 85.8999 71.4002" stroke="white" stroke-miterlimit="10" stroke-linecap="round" stroke-linejoin="round"/>
<path d="M82.8999 65.6001C82.8999 65.6001 88.5999 66.4001 90.1999 71.1001" stroke="white" stroke-miterlimit="10" stroke-linecap="round" stroke-linejoin="round"/>
<path d="M92.7999 95.4001C92.7999 95.4001 87.2999 99.7001 78.8999 93.5001" stroke="white" stroke-miterlimit="10" stroke-linecap="round" stroke-linejoin="round"/>
<path d="M85.9 96.7001C85.9 96.7001 83.1 100.6 76.3 100.5" stroke="white" stroke-miterlimit="10" stroke-linecap="round" stroke-linejoin="round"/>
<path d="M120.9 145.4C120.9 145.4 106.5 156.9 91.8 155.4" stroke="white" stroke-miterlimit="10" stroke-linecap="round" stroke-linejoin="round"/>
<path d="M81.8999 120.1C81.8999 120.1 104.3 136.5 120.9 137.6" stroke="white" stroke-miterlimit="10" stroke-linecap="round" stroke-linejoin="round"/>
<path d="M273.2 122.4L269.2 144.1L236.6 163.9L241.1 172.2C241.1 172.2 278.8 160.7 279.7 158C280.6 155.3 289.3 126.8 289.3 126.8L273.2 122.4Z" fill="#263238"/>
<path d="M287.5 85.6001L285.3 112L284.2 125.8C277.9 128.9 271.8 124.3 271.4 124C273.1 119 275 90.6001 287.5 85.6001Z" fill="#999999" stroke="#263238" stroke-miterlimit="10" stroke-linecap="round" stroke-linejoin="round"/>
<path d="M285.3 112L284.2 125.8C277.9 128.9 271.8 124.3 271.4 124C271.7 124.1 275 125.5 277.1 124C277.1 124 275.2 121.9 275.1 121.4C275 120.9 277.1 120.7 277.1 120.7C277.1 120.7 275.7 109.5 279.4 104.8C280.8 102.9 283.1 106.7 285.3 112Z" fill="#263238"/>
<path d="M301 306.4C301 306.4 288 301.6 285.5 311.2C285.5 311.2 287.8 321.8 286.4 327.5C285 333.3 278 344.3 277.6 346.4C276.8 350.5 277.4 350.8 277.4 350.8C277.4 350.8 282.5 353.7 289.3 350.6C296.1 347.4 308 333.9 309.8 331.1C311.7 328.3 304 317.3 304 317.3L301 306.4Z" fill="white"/>
<mask id="mask8_159_1152" style="mask-type:luminance" maskUnits="userSpaceOnUse" x="277" y="305" width="34" height="48">
<path d="M301 306.4C301 306.4 288 301.6 285.5 311.2C285.5 311.2 287.8 321.8 286.4 327.5C285 333.3 278 344.3 277.6 346.4C276.8 350.5 277.4 350.8 277.4 350.8C277.4 350.8 282.5 353.7 289.3 350.6C296.1 347.4 308 333.9 309.8 331.1C311.7 328.3 304 317.3 304 317.3L301 306.4Z" fill="white"/>
</mask>
<g mask="url(#mask8_159_1152)">
</g>
<path d="M301 306.4C301 306.4 288 301.6 285.5 311.2C285.5 311.2 287.8 321.8 286.4 327.5C285 333.3 278 344.3 277.6 346.4C276.8 350.5 277.4 350.8 277.4 350.8C277.4 350.8 282.5 353.7 289.3 350.6C296.1 347.4 308 333.9 309.8 331.1C311.7 328.3 304 317.3 304 317.3L301 306.4Z" stroke="#263238" stroke-miterlimit="10" stroke-linecap="round" stroke-linejoin="round"/>
<path d="M289.7 160.3C281.4 186.6 255.6 228.9 258.2 239.7C259.6 245.6 268.1 279 274.8 293.7C277.3 299.3 282.8 303.1 282.8 303.1L286.8 311.6C296.4 315.8 299.9 307.3 299.9 307.3L298 297.7C303.2 288.3 301 288.3 294.3 239.7C293.5 234 306.8 216.3 306.8 216.3L313.6 260.8L314.7 297.3L318.2 308.6C318.2 308.6 319.1 319.2 319 319.8H334.8L336.5 308.2C336.5 308.2 343.9 301.3 343.9 293.3C343.9 285.3 342.3 244.6 343.9 232.7C345.5 220.8 340.2 165.5 340.2 165.5L289.7 160.3Z" fill="#263238"/>
<path d="M204.4 154.6L178.8 152.4L180.1 136.8C180.2 135.8 181.1 135 182.1 135.1L204 137C205 137.1 205.8 138 205.7 139L204.4 154.6Z" fill="#8EA6FC"/>
<mask id="mask9_159_1152" style="mask-type:luminance" maskUnits="userSpaceOnUse" x="178" y="135" width="28" height="20">
<path d="M204.4 154.6L178.8 152.4L180.1 136.8C180.2 135.8 181.1 135 182.1 135.1L204 137C205 137.1 205.8 138 205.7 139L204.4 154.6Z" fill="white"/>
</mask>
<g mask="url(#mask9_159_1152)">
<path opacity="0.3" d="M204.4 154.6L178.8 152.4L180.1 136.8C180.2 135.8 181.1 135 182.1 135.1L204 137C205 137.1 205.8 138 205.7 139L204.4 154.6Z" fill="black" fill-opacity="0.7"/>
</g>
<mask id="mask10_159_1152" style="mask-type:luminance" maskUnits="userSpaceOnUse" x="178" y="133" width="29" height="22">
<path d="M203.524 154.875L178.207 150.489L180.839 135.058C181.024 134.071 181.989 133.351 182.977 133.536L204.633 137.305C205.621 137.491 206.341 138.456 206.156 139.444L203.524 154.875Z" fill="white"/>
</mask>
<g mask="url(#mask10_159_1152)">
<path opacity="0.3" d="M204.323 138.583L198.046 138.044L196.958 150.697L203.234 151.236L204.323 138.583Z" fill="white" fill-opacity="0.7"/>
</g>
<path d="M204.4 154.6L178.8 152.4L180.1 136.8C180.2 135.8 181.1 135 182.1 135.1L204 137C205 137.1 205.8 138 205.7 139L204.4 154.6Z" stroke="#263238" stroke-miterlimit="10" stroke-linecap="round" stroke-linejoin="round"/>
<path d="M242.3 157.8L216.7 155.6L218 140C218.1 139 219 138.2 220 138.3L241.9 140.2C242.9 140.3 243.7 141.2 243.6 142.2L242.3 157.8Z" fill="#8EA6FC"/>
<mask id="mask11_159_1152" style="mask-type:luminance" maskUnits="userSpaceOnUse" x="216" y="138" width="28" height="20">
<path d="M242.3 157.8L216.7 155.6L218 140C218.1 139 219 138.2 220 138.3L241.9 140.2C242.9 140.3 243.7 141.2 243.6 142.2L242.3 157.8Z" fill="white"/>
</mask>
<g mask="url(#mask11_159_1152)">
<path opacity="0.3" d="M242.3 157.8L216.7 155.6L218 140C218.1 139 219 138.2 220 138.3L241.9 140.2C242.9 140.3 243.7 141.2 243.6 142.2L242.3 157.8Z" fill="black" fill-opacity="0.7"/>
</g>
<mask id="mask12_159_1152" style="mask-type:luminance" maskUnits="userSpaceOnUse" x="216" y="136" width="29" height="23">
<path d="M241.436 158.007L216.12 153.622L218.751 138.191C218.936 137.203 219.902 136.483 220.889 136.669L242.546 140.438C243.533 140.623 244.253 141.588 244.068 142.576L241.436 158.007Z" fill="white"/>
</mask>
<g mask="url(#mask12_159_1152)">
<path opacity="0.3" d="M241.828 141.781L238.042 141.456L236.954 154.109L240.74 154.434L241.828 141.781Z" fill="white" fill-opacity="0.7"/>
</g>
<path d="M242.3 157.8L216.7 155.6L218 140C218.1 139 219 138.2 220 138.3L241.9 140.2C242.9 140.3 243.7 141.2 243.6 142.2L242.3 157.8Z" stroke="#263238" stroke-miterlimit="10" stroke-linecap="round" stroke-linejoin="round"/>
<path d="M234.3 157.1L208.7 154.9L210 139.3C210.1 138.3 211 137.5 212 137.6L233.9 139.5C234.9 139.6 235.7 140.5 235.6 141.5L234.3 157.1Z" fill="#8EA6FC" stroke="#263238" stroke-miterlimit="10" stroke-linecap="round" stroke-linejoin="round"/>
<path d="M272.2 160.4L246.6 158.2L247.9 142.6C248 141.6 248.9 140.8 249.9 140.9L271.8 142.8C272.8 142.9 273.6 143.8 273.5 144.8L272.2 160.4Z" fill="#8EA6FC" stroke="#263238" stroke-miterlimit="10" stroke-linecap="round" stroke-linejoin="round"/>
<path opacity="0.3" d="M234.227 141.084L227.951 140.544L226.863 153.198L233.14 153.737L234.227 141.084Z" fill="white" fill-opacity="0.7"/>
<path opacity="0.3" d="M271.72 144.389L265.443 143.849L264.355 156.502L270.632 157.042L271.72 144.389Z" fill="white" fill-opacity="0.7"/>
<path d="M283.7 157.7L277.5 229.6L161.6 219.6L167.8 147.7C168 145.2 170.2 143.3 172.7 143.6L279.5 152.8C282 153 283.9 155.2 283.7 157.7Z" fill="#8EA6FC"/>
<mask id="mask13_159_1152" style="mask-type:luminance" maskUnits="userSpaceOnUse" x="161" y="143" width="123" height="87">
<path d="M283.7 157.7L277.5 229.6L161.6 219.6L167.8 147.7C168 145.2 170.2 143.3 172.7 143.6L279.5 152.8C282 153 283.9 155.2 283.7 157.7Z" fill="white"/>
</mask>
<g mask="url(#mask13_159_1152)">
<path opacity="0.3" d="M283.7 157.7L277.5 229.6L161.6 219.6L167.8 147.7C168 145.2 170.2 143.3 172.7 143.6L279.5 152.8C282 153 283.9 155.2 283.7 157.7Z" fill="black" fill-opacity="0.7"/>
</g>
<path d="M283.7 157.7L277.5 229.6L161.6 219.6L167.8 147.7C168 145.2 170.2 143.3 172.7 143.6L279.5 152.8C282 153 283.9 155.2 283.7 157.7Z" stroke="#263238" stroke-miterlimit="10" stroke-linecap="round" stroke-linejoin="round"/>
<path d="M283.7 157.7L277.5 229.6L191.5 222.2L197.7 150.3C197.9 147.8 200.1 145.9 202.6 146.2L279.5 152.8C282 153 283.9 155.2 283.7 157.7Z" fill="#8EA6FC" stroke="#263238" stroke-miterlimit="10" stroke-linecap="round" stroke-linejoin="round"/>
<path opacity="0.3" d="M277.7 159.8L204.2 153.5C203.2 153.4 202.4 152.5 202.5 151.5C202.6 150.5 203.5 149.7 204.5 149.8L278 156.1C279 156.2 279.8 157.1 279.7 158.1C279.6 159.1 278.7 159.8 277.7 159.8Z" fill="white" fill-opacity="0.7"/>
<path d="M344.2 179.5C344.2 179.5 322 183.8 300.2 176.8C295.4 175.2 290.6 173.1 286.1 170.3C286.1 170.3 286.2 168.9 286.2 166.6C286.4 157.7 286.3 135.2 281.6 129.6C278.6 126.1 276.2 104.4 282 93.4001L299.7 79.2001C324.2 84.0001 329.4 90.5001 333.5 104.5C334.3 107.1 335 109.9 335.7 113C336.5 116.4 337.3 120.5 338.1 125.1C341.8 147.3 344.2 179.5 344.2 179.5Z" fill="#999999"/>
<mask id="mask14_159_1152" style="mask-type:luminance" maskUnits="userSpaceOnUse" x="278" y="79" width="67" height="102">
<path d="M344.2 179.5C344.2 179.5 322 183.8 300.2 176.8C295.4 175.2 290.6 173.1 286.1 170.3C286.1 170.3 286.2 168.9 286.2 166.6C286.4 157.7 286.3 135.2 281.6 129.6C278.6 126.1 276.2 104.4 282 93.4001L299.7 79.2001C324.2 84.0001 329.4 90.5001 333.5 104.5C334.3 107.1 335 109.9 335.7 113C336.5 116.4 337.3 120.5 338.1 125.1C341.8 147.3 344.2 179.5 344.2 179.5Z" fill="white"/>
</mask>
<g mask="url(#mask14_159_1152)">
<path opacity="0.2" d="M338.1 124.9L328.1 169.6C328.1 169.6 313.7 173.6 300.2 176.8C295.4 175.2 290.6 173.1 286.1 170.3C286.1 170.3 286.2 168.9 286.2 166.6C298.3 160.4 316 151.3 315.8 150.9C315.6 150.2 315.8 126.9 315.8 126.9C315.8 126.9 331.8 123.2 333.5 104.4C334.3 107 335 109.8 335.7 112.9C336.5 116.3 337.4 120.4 338.1 124.9Z" fill="black"/>
</g>
<path d="M344.2 179.5C344.2 179.5 322 183.8 300.2 176.8C295.4 175.2 290.6 173.1 286.1 170.3C286.1 170.3 286.2 168.9 286.2 166.6C286.4 157.7 286.3 135.2 281.6 129.6C278.6 126.1 276.2 104.4 282 93.4001L299.7 79.2001C324.2 84.0001 329.4 90.5001 333.5 104.5C334.3 107.1 335 109.9 335.7 113C336.5 116.4 337.3 120.5 338.1 125.1C341.8 147.3 344.2 179.5 344.2 179.5Z" stroke="#263238" stroke-miterlimit="10" stroke-linecap="round" stroke-linejoin="round"/>
<path d="M300.5 60.5001C300.5 60.5001 292.7 71.7001 303.1 80.4001C303.1 80.4001 290.5 94.6001 286.3 92.6001C284.6 91.8001 286.3 86.7001 286.3 86.7001L279 73.2001L300.5 60.5001Z" fill="white" stroke="#263238" stroke-miterlimit="10" stroke-linecap="round" stroke-linejoin="round"/>
<path d="M297.9 66.2001C300.3 55.5001 299.2 39.6001 284.2 41.1001C273.7 42.1001 266.2 47.9001 269.2 62.0001C270.4 67.9001 271.4 76.3001 276.9 83.9001C278.4 86.0001 294.2 78.6001 293.3 72.6001" fill="white"/>
<path d="M297.9 66.2001C300.3 55.5001 299.2 39.6001 284.2 41.1001C273.7 42.1001 266.2 47.9001 269.2 62.0001C270.4 67.9001 271.4 76.3001 276.9 83.9001C278.4 86.0001 294.2 78.6001 293.3 72.6001" stroke="#263238" stroke-miterlimit="10" stroke-linecap="round" stroke-linejoin="round"/>
<path d="M276.6 59.6001C276.6 59.6001 279.7 58.2 283.1 60.2" stroke="#263238" stroke-miterlimit="10" stroke-linecap="round" stroke-linejoin="round"/>
<path d="M269 60.9001C269 60.9001 269.5 59.5001 271.2 59.9001" stroke="#263238" stroke-miterlimit="10" stroke-linecap="round" stroke-linejoin="round"/>
<path d="M272.8 63.2001C272.8 63.2001 269.7 68.8001 269.7 69.6001C269.7 70.4001 273.5 70.7001 273.5 70.7001" fill="white"/>
<path d="M272.8 63.2001C272.8 63.2001 269.7 68.8001 269.7 69.6001C269.7 70.4001 273.5 70.7001 273.5 70.7001" stroke="#263238" stroke-miterlimit="10" stroke-linecap="round" stroke-linejoin="round"/>
<path d="M279.4 64.3001C279.4 64.9001 279.1 65.4001 278.7 65.4001C278.3 65.4001 278 64.9001 278 64.3001C278 63.7001 278.3 63.2001 278.7 63.2001C279.1 63.2001 279.4 63.7001 279.4 64.3001Z" fill="#263238"/>
<path d="M275 74.7001C275 74.7001 280.9 73.6001 282 71.5001" stroke="#263238" stroke-miterlimit="10" stroke-linecap="round" stroke-linejoin="round"/>
<path d="M269 52.3001L273.6 51.0001C273.6 51.0001 280 48.0001 281.4 48.4001C282.8 48.8001 285.6 53.1001 285.5 55.5001C285.5 55.5001 289.8 59.3001 290.4 64.9001L291.7 64.3001C291.7 64.3001 291.6 59.3001 294.5 59.4001C297.3 59.5001 298.6 62.9001 298.4 64.0001C298.2 65.1001 295.1 69.5001 295.1 69.5001C295.1 69.5001 302.2 68.4001 302.4 54.5001C302.6 40.6001 287.4 38.2001 279.9 38.8001C272.5 39.4001 268.6 39.2001 268.6 39.2001L269 43.2001L266 44.0001L268.3 46.8001L265.8 47.9001L269 52.3001Z" fill="#263238"/>
<path d="M294.8 204.3C294.8 204.3 312.9 209.1 317.8 222.6" stroke="white" stroke-miterlimit="10" stroke-linecap="round" stroke-linejoin="round"/>
<path d="M303.1 211.6C303.1 211.6 293.3 227.9 278.3 236.3" stroke="white" stroke-miterlimit="10" stroke-linecap="round" stroke-linejoin="round"/>
<path d="M289.3 303.2C289.3 303.2 294.9 302 296.4 299.8" stroke="white" stroke-miterlimit="10" stroke-linecap="round" stroke-linejoin="round"/>
<path d="M320.3 305.2C320.3 305.2 325.7 302.4 331.2 305.2" stroke="white" stroke-miterlimit="10" stroke-linecap="round" stroke-linejoin="round"/>
<path d="M337.9 229.4C337.9 229.4 328.8 253 324.2 255.2" stroke="white" stroke-miterlimit="10" stroke-linecap="round" stroke-linejoin="round"/>
<path d="M297.9 192.3C298.1 194.9 308.9 206.8 317.8 211.5" stroke="white" stroke-miterlimit="10" stroke-linecap="round" stroke-linejoin="round"/>
<path d="M307.1 182.3C307.1 182.3 309.2 187 307.9 192.3C306.5 197.6 307.9 201.2 307.9 201.2" stroke="white" stroke-miterlimit="10" stroke-linecap="round" stroke-linejoin="round"/>
<path d="M287.5 133.1C287.5 133.1 304.3 154.9 322.4 162" stroke="#263238" stroke-miterlimit="10" stroke-linecap="round" stroke-linejoin="round"/>
<path d="M304.9 97.9001C304.9 97.9001 304.8 112.7 315.5 119.4" stroke="#263238" stroke-miterlimit="10" stroke-linecap="round" stroke-linejoin="round"/>
<path d="M310.9 119.5C308.6 121.7 311.1 149.6 311.1 149.6C311.1 149.6 298 154.7 293.9 158.1C289.8 161.5 270.3 169 270.3 169C270.3 169 267.3 179.2 271 179.6C274.7 179.9 313.5 166.7 322.3 162.1C322.3 162.1 328.1 128.1 328 119.4" fill="white"/>
<path d="M310.9 119.5C308.6 121.7 311.1 149.6 311.1 149.6C311.1 149.6 298 154.7 293.9 158.1C289.8 161.5 270.3 169 270.3 169C270.3 169 267.3 179.2 271 179.6C274.7 179.9 313.5 166.7 322.3 162.1C322.3 162.1 328.1 128.1 328 119.4" stroke="#263238" stroke-miterlimit="10" stroke-linecap="round" stroke-linejoin="round"/>
<path d="M271.8 168.4C270 168.1 266.8 166.9 265.1 167.3C263.4 167.7 260.4 169.5 257.2 170.3C254 171.1 255.4 172.3 257.2 172.7C259 173.1 261.3 172.7 261.3 172.7L258.7 175.2C258.7 175.2 254.6 177.3 254.1 177.3C253.2 177.3 249.9 178.2 250.1 179.6C250.4 181 252.2 180.8 254.3 180.9C254.3 180.9 250.9 181.6 251.3 183.5C251.5 184.8 255.3 183.6 257.2 183.6C257.2 183.6 255.6 185.3 256.8 185.8C258 186.3 260.6 185 260.6 185C260.6 185 260.5 186.4 261.7 186.6C262.9 186.8 265.8 185.6 267.9 184.4C270 183.2 271.7 181.7 273.6 180.2C275.5 178.7 276.2 178.5 276.2 178.5" fill="white"/>
<path d="M271.8 168.4C270 168.1 266.8 166.9 265.1 167.3C263.4 167.7 260.4 169.5 257.2 170.3C254 171.1 255.4 172.3 257.2 172.7C259 173.1 261.3 172.7 261.3 172.7L258.7 175.2C258.7 175.2 254.6 177.3 254.1 177.3C253.2 177.3 249.9 178.2 250.1 179.6C250.4 181 252.2 180.8 254.3 180.9C254.3 180.9 250.9 181.6 251.3 183.5C251.5 184.8 255.3 183.6 257.2 183.6C257.2 183.6 255.6 185.3 256.8 185.8C258 186.3 260.6 185 260.6 185C260.6 185 260.5 186.4 261.7 186.6C262.9 186.8 265.8 185.6 267.9 184.4C270 183.2 271.7 181.7 273.6 180.2C275.5 178.7 276.2 178.5 276.2 178.5" stroke="#263238" stroke-miterlimit="10" stroke-linecap="round" stroke-linejoin="round"/>
<path d="M254.5 180.9C254.5 180.9 256.5 180.8 257.3 180.6C258.1 180.4 258.9 180.1 258.9 180.1" stroke="#263238" stroke-miterlimit="10" stroke-linecap="round" stroke-linejoin="round"/>
<path d="M257.4 183.6C257.4 183.6 259.6 183.3 260.8 182.4" stroke="#263238" stroke-miterlimit="10" stroke-linecap="round" stroke-linejoin="round"/>
<path d="M260.8 185C260.8 185 262.4 184.8 263.3 184.1" stroke="#263238" stroke-miterlimit="10" stroke-linecap="round" stroke-linejoin="round"/>
<path d="M259.1 175.9C259.1 175.9 258.4 177.5 259.1 178.5C259.8 179.4 260.7 179.5 260.8 180.5C260.9 181.6 262.6 181.5 263.3 182.2C263.9 182.9 264.4 184.1 266.4 184.2" stroke="#263238" stroke-miterlimit="10" stroke-linecap="round" stroke-linejoin="round"/>
<path d="M310.1 90.6001C303.3 106 310.1 127.4 310.1 127.4C310.1 127.4 326.6 133 328.1 130.6C329.6 128.2 332.4 116.4 332.9 110.9" fill="#999999"/>
<path d="M310.1 90.6001C303.3 106 310.1 127.4 310.1 127.4C310.1 127.4 326.6 133 328.1 130.6C329.6 128.2 332.4 116.4 332.9 110.9" stroke="#263238" stroke-miterlimit="10" stroke-linecap="round" stroke-linejoin="round"/>
<path d="M328.1 112.6C328.1 112.6 321.1 122.2 315.5 122.4" stroke="#263238" stroke-miterlimit="10" stroke-linecap="round" stroke-linejoin="round"/>
<path d="M82.5 241.8C82.5 241.8 87.8 238.4 95.1 240.2C102.4 242 121.4 269.2 124 271.8C126.6 274.4 131.6 275.8 136.1 280.6C143.3 288.1 153.8 294.8 154.8 294.8C155.9 294.8 156.7 294.1 158 293.9C159.3 293.6 169.5 292.7 169.5 292.7C169.5 292.7 172.9 293.5 169.5 294.9C166.1 296.4 166.3 297.7 166.3 297.7C166.3 297.7 165.6 298.8 167 299.9C168.4 301 169.2 300.4 171.2 303.2C173.2 306 168.4 304.4 168.4 304.4C168.4 304.4 169.5 307.4 167.3 307.1C165.2 306.8 167 310 163.6 309.6C160.2 309.2 152.8 304.5 151 299.7C151 299.7 121.1 285.4 116.6 281.7C112.1 278 93.3 258.2 92 258" fill="#263238"/>
<path d="M184.7 286.2H159V270.5C159 269.5 159.8 268.6 160.9 268.6H182.9C183.9 268.6 184.8 269.4 184.8 270.5V286.2H184.7Z" fill="#8EA6FC"/>
<mask id="mask15_159_1152" style="mask-type:luminance" maskUnits="userSpaceOnUse" x="159" y="268" width="26" height="19">
<path d="M184.7 286.2H159V270.5C159 269.5 159.8 268.6 160.9 268.6H182.9C183.9 268.6 184.8 269.4 184.8 270.5V286.2H184.7Z" fill="white"/>
</mask>
<g mask="url(#mask15_159_1152)">
<path opacity="0.3" d="M184.7 286.2H159V270.5C159 269.5 159.8 268.6 160.9 268.6H182.9C183.9 268.6 184.8 269.4 184.8 270.5V286.2H184.7Z" fill="black" fill-opacity="0.7"/>
</g>
<mask id="mask16_159_1152" style="mask-type:luminance" maskUnits="userSpaceOnUse" x="159" y="268" width="26" height="19">
<path d="M184.7 286.2H159V270.5C159 269.5 159.8 268.6 160.9 268.6H182.9C183.9 268.6 184.8 269.4 184.8 270.5V286.2H184.7Z" fill="white"/>
</mask>
<g mask="url(#mask16_159_1152)">
<path opacity="0.3" d="M183.3 270.3H177V283H183.3V270.3Z" fill="white" fill-opacity="0.7"/>
</g>
<path d="M184.7 286.2H159V270.5C159 269.5 159.8 268.6 160.9 268.6H182.9C183.9 268.6 184.8 269.4 184.8 270.5V286.2H184.7Z" stroke="#263238" stroke-miterlimit="10" stroke-linecap="round" stroke-linejoin="round"/>
<path d="M222.7 286.2H197V270.5C197 269.5 197.8 268.6 198.9 268.6H220.9C221.9 268.6 222.8 269.4 222.8 270.5V286.2H222.7Z" fill="#8EA6FC"/>
<mask id="mask17_159_1152" style="mask-type:luminance" maskUnits="userSpaceOnUse" x="197" y="268" width="26" height="19">
<path d="M222.7 286.2H197V270.5C197 269.5 197.8 268.6 198.9 268.6H220.9C221.9 268.6 222.8 269.4 222.8 270.5V286.2H222.7Z" fill="white"/>
</mask>
<g mask="url(#mask17_159_1152)">
<path opacity="0.3" d="M222.7 286.2H197V270.5C197 269.5 197.8 268.6 198.9 268.6H220.9C221.9 268.6 222.8 269.4 222.8 270.5V286.2H222.7Z" fill="black" fill-opacity="0.7"/>
</g>
<mask id="mask18_159_1152" style="mask-type:luminance" maskUnits="userSpaceOnUse" x="197" y="268" width="26" height="19">
<path d="M222.7 286.2H197V270.5C197 269.5 197.8 268.6 198.9 268.6H220.9C221.9 268.6 222.8 269.4 222.8 270.5V286.2H222.7Z" fill="white"/>
</mask>
<g mask="url(#mask18_159_1152)">
<path opacity="0.3" d="M220.8 270.3H217V283H220.8V270.3Z" fill="white" fill-opacity="0.7"/>
</g>
<path d="M222.7 286.2H197V270.5C197 269.5 197.8 268.6 198.9 268.6H220.9C221.9 268.6 222.8 269.4 222.8 270.5V286.2H222.7Z" stroke="#263238" stroke-miterlimit="10" stroke-linecap="round" stroke-linejoin="round"/>
<path d="M214.7 286.2H189V270.5C189 269.5 189.8 268.6 190.9 268.6H212.9C213.9 268.6 214.8 269.4 214.8 270.5V286.2H214.7Z" fill="#8EA6FC" stroke="#263238" stroke-miterlimit="10" stroke-linecap="round" stroke-linejoin="round"/>
<path d="M252.7 286.2H227V270.5C227 269.5 227.8 268.6 228.9 268.6H250.9C251.9 268.6 252.8 269.4 252.8 270.5V286.2H252.7Z" fill="#8EA6FC" stroke="#263238" stroke-miterlimit="10" stroke-linecap="round" stroke-linejoin="round"/>
<path opacity="0.3" d="M213.3 270.3H207V283H213.3V270.3Z" fill="white" fill-opacity="0.7"/>
<path opacity="0.3" d="M250.8 270.3H244.5V283H250.8V270.3Z" fill="white" fill-opacity="0.7"/>
<path d="M263.9 282.5V354.7H147.6V282.5C147.6 280 149.6 278 152.2 278H259.4C261.9 278 263.9 280 263.9 282.5Z" fill="#8EA6FC"/>
<mask id="mask19_159_1152" style="mask-type:luminance" maskUnits="userSpaceOnUse" x="147" y="278" width="117" height="77">
<path d="M263.9 282.5V354.7H147.6V282.5C147.6 280 149.6 278 152.2 278H259.4C261.9 278 263.9 280 263.9 282.5Z" fill="white"/>
</mask>
<g mask="url(#mask19_159_1152)">
<path opacity="0.3" d="M263.9 282.5V354.7H147.6V282.5C147.6 280 149.6 278 152.2 278H259.4C261.9 278 263.9 280 263.9 282.5Z" fill="black" fill-opacity="0.7"/>
</g>
<path d="M263.9 282.5V354.7H147.6V282.5C147.6 280 149.6 278 152.2 278H259.4C261.9 278 263.9 280 263.9 282.5Z" stroke="#263238" stroke-miterlimit="10" stroke-linecap="round" stroke-linejoin="round"/>
<path d="M263.9 282.5V354.7H177.6V282.5C177.6 280 179.6 278 182.2 278H259.4C261.9 278 263.9 280 263.9 282.5Z" fill="#8EA6FC" stroke="#263238" stroke-miterlimit="10" stroke-linecap="round" stroke-linejoin="round"/>
<path opacity="0.3" d="M258.1 285.1H184.3C183.3 285.1 182.4 284.3 182.4 283.2C182.4 282.2 183.2 281.3 184.3 281.3H258.1C259.1 281.3 260 282.1 260 283.2C260 284.3 259.1 285.1 258.1 285.1Z" fill="white" fill-opacity="0.7"/>
<path d="M121.5 354.7C115.5 354.7 107.1 350.8 97.4001 346.8C87.3001 342.6 75.9001 338.1 64.2001 337.4C59.9001 337.1 62.5001 354.7 62.5001 354.7H53.0001C53.0001 354.7 43.6001 342.2 42.6001 331C42.6001 331 50.3001 326.3 52.1001 326C52.5001 325.9 53.2001 325.9 54.0001 325.9C56.1001 325.9 58.8001 326 58.8001 326C58.4001 325.7 51.3001 321.5 47.5001 317.2C44.3001 313.7 42.8001 308.1 42.7001 304.7C42.6001 303 43.4001 298.1 43.4001 298.1L93.3001 298.9C93.3001 298.9 93.8001 299.3 94.8001 300C100.6 304.2 121.7 319.9 132.3 331.8C135.7 335.6 138 339.1 138.4 341.6C140 353.1 130.6 354.7 121.5 354.7Z" fill="#757575" stroke="#263238" stroke-miterlimit="10" stroke-linecap="round" stroke-linejoin="round"/>
<path d="M132.3 331.8L108 337.3C108 337.3 101.7 340.7 97.3 346.7C87.2 342.5 75.8 338 64.1 337.3C59.8 337 62.4 354.6 62.4 354.6H52.9C52.9 354.6 43.5 342.1 42.5 330.9C42.5 330.9 51.3 343.5 53.5 349.9C53.5 349.9 56.9 338.1 62.5 333.3C62.5 333.3 58.8 329 54 325.8C56.1 325.8 58.8 325.9 58.8 325.9C58.4 325.6 51.3 321.4 47.5 317.1C44.3 313.6 43 308 42.7 304.6C42.6 303 42.8 298 42.8 298C42.8 298 80 303.3 94.9 299.9C100.6 304.3 121.8 320 132.3 331.8Z" fill="#263238"/>
<path d="M127 190.8C127 190.8 137.6 186.2 136.6 205.7C135.6 225.2 139.2 226.2 139.2 226.2C139.2 226.2 112.7 237.1 106 227.8C99.1001 218.4 105.5 193 127 190.8Z" fill="#263238"/>
<path d="M125.5 226.2C125.5 226.2 114.6 231.3 113.6 236.1C112.6 240.8 99 233.7 99 233.7L108.9 219.5L125.5 226.2Z" fill="white" stroke="#263238" stroke-miterlimit="10" stroke-linecap="round" stroke-linejoin="round"/>
<path d="M54.0001 278.3C29.0001 310.1 49.3001 325.5 77.6001 323L71.9001 332L86.2001 334.5C86.2001 334.5 97.1001 327.4 112 319.7C137.4 306.7 147.6 307.5 145 294.5C142.4 281.5 111.3 273.1 80.2001 286.8C80.2001 286.7 63.3001 266.6 54.0001 278.3Z" fill="#757575" stroke="#263238" stroke-miterlimit="10" stroke-linecap="round" stroke-linejoin="round"/>
<path d="M77.7 323C89.5 321.7 112.5 307.1 120.5 302.1C128.5 297 130.6 298.3 130.6 298.3" stroke="#263238" stroke-miterlimit="10" stroke-linecap="round" stroke-linejoin="round"/>
<path d="M42.7 298.1L44.6 283.7L49.2 280.3C56.6 262.4 90.1 228.9 99.2 229C112.9 229.2 115.3 243.5 117 259.3C118.7 275.1 97.3 272.7 97.3 272.7V276.7L85.2 283L92.6 282.8C92.5 282.7 71.3 303.3 42.7 298.1Z" fill="#8EA6FC" stroke="#263238" stroke-miterlimit="10" stroke-linecap="round" stroke-linejoin="round"/>
<path d="M102 201.2C104.9 192.2 118 189.8 122.7 191.3C125.7 192.2 129.8 195.5 131.6 199.4C132.8 202 130.3 206.6 132.1 209.2C134.7 213 134.4 221.1 133.5 226.2C133 228.9 121.8 230.5 112.6 224.2C102.8 217.5 99.3 210 102 201.2Z" fill="white" stroke="#263238" stroke-miterlimit="10" stroke-linecap="round" stroke-linejoin="round"/>
<path d="M115.3 188.7C115.3 188.7 126.9 186.8 126.9 189.8C127.4 209.5 115.6 213.7 115.6 213.7C115.6 213.7 110.8 209.9 109.7 212.5C108.6 215.1 111.4 222.4 114.8 222.6C114.8 222.6 112.2 226 114.7 230.8C114.7 230.8 95.1 234.1 93.5 225C93.5 225 94.6 220.7 95.1 215.4C96.4 202.7 93.4 194.1 115.3 188.7Z" fill="#263238"/>
<path d="M130.8 208.8C133.2 211 134.9 211 134.9 211.7C134.8 214.1 131.9 215.3 131.9 215.3" fill="white"/>
<path d="M130.8 208.8C133.2 211 134.9 211 134.9 211.7C134.8 214.1 131.9 215.3 131.9 215.3" stroke="#263238" stroke-miterlimit="10" stroke-linecap="round" stroke-linejoin="round"/>
<path d="M131.8 219.4C131.8 219.4 129.4 220.4 126.5 219.5" stroke="#263238" stroke-miterlimit="10" stroke-linecap="round" stroke-linejoin="round"/>
<path d="M125.4 196.7C125.4 196.7 133.1 194.5 131.7 206.9C131.7 206.9 134.9 202.6 134.9 197.7C134.9 189.2 123.6 190.9 123.6 190.9L125.1 196.9" fill="#263238"/>
<path d="M132.4 202.8C132.4 202.8 131.8 202.2 130.4 202.4" stroke="#263238" stroke-miterlimit="10" stroke-linecap="round" stroke-linejoin="round"/>
<path d="M127.2 202.7C127.2 202.7 123.1 202.9 121.3 205.7" stroke="#263238" stroke-miterlimit="10" stroke-linecap="round" stroke-linejoin="round"/>
<path d="M126.2 209.2C126.3 209.9 126 210.4 125.6 210.5C125.2 210.5 124.8 210 124.7 209.4C124.6 208.7 124.9 208.2 125.3 208.1C125.8 208.1 126.2 208.6 126.2 209.2Z" fill="#263238"/>
<path d="M101.6 235.8C101.6 235.8 106.9 232.4 114.2 234.2C121.5 236 140.5 263.2 143.1 265.8C145.7 268.4 150.7 269.8 155.2 274.6C162.4 282.1 172.9 288.8 173.9 288.8C175 288.8 175.8 288.1 177.1 287.9C178.4 287.6 188.6 286.7 188.6 286.7C188.6 286.7 192 287.5 188.6 288.9C185.2 290.4 185.4 291.7 185.4 291.7C185.4 291.7 184.7 292.8 186.1 293.9C187.5 295 188.3 294.4 190.3 297.2C192.3 300 187.5 298.4 187.5 298.4C187.5 298.4 188.6 301.4 186.4 301.1C184.3 300.8 186.1 304 182.7 303.6C179.3 303.2 171.9 298.5 170.1 293.7C170.1 293.7 140.2 279.4 135.7 275.7C131.2 272 112.4 252.2 111.1 252" fill="white"/>
<path d="M101.6 235.8C101.6 235.8 106.9 232.4 114.2 234.2C121.5 236 140.5 263.2 143.1 265.8C145.7 268.4 150.7 269.8 155.2 274.6C162.4 282.1 172.9 288.8 173.9 288.8C175 288.8 175.8 288.1 177.1 287.9C178.4 287.6 188.6 286.7 188.6 286.7C188.6 286.7 192 287.5 188.6 288.9C185.2 290.4 185.4 291.7 185.4 291.7C185.4 291.7 184.7 292.8 186.1 293.9C187.5 295 188.3 294.4 190.3 297.2C192.3 300 187.5 298.4 187.5 298.4C187.5 298.4 188.6 301.4 186.4 301.1C184.3 300.8 186.1 304 182.7 303.6C179.3 303.2 171.9 298.5 170.1 293.7C170.1 293.7 140.2 279.4 135.7 275.7C131.2 272 112.4 252.2 111.1 252" stroke="#263238" stroke-miterlimit="10" stroke-linecap="round" stroke-linejoin="round"/>
<path d="M97.3 232.9C97.3 232.9 112.1 228.9 117.2 231.8C122.3 234.7 132.1 248.2 132.1 248.2C132.1 248.2 120.2 258.9 116.5 257.9C112.8 256.9 101.6 255.3 101.6 255.3" fill="#8EA6FC"/>
<path d="M97.3 232.9C97.3 232.9 112.1 228.9 117.2 231.8C122.3 234.7 132.1 248.2 132.1 248.2C132.1 248.2 120.2 258.9 116.5 257.9C112.8 256.9 101.6 255.3 101.6 255.3" stroke="#263238" stroke-miterlimit="10" stroke-linecap="round" stroke-linejoin="round"/>
<path d="M110.1 256.6C110.1 256.6 104.8 259.5 102.8 259.5" stroke="#263238" stroke-miterlimit="10" stroke-linecap="round" stroke-linejoin="round"/>
<path d="M101.6 241.8C102 242.6 101.9 251.2 111.3 253.9" stroke="#263238" stroke-miterlimit="10" stroke-linecap="round" stroke-linejoin="round"/>
<path d="M51.3999 280.6C51.3999 280.6 71.3999 284 78.2999 278" stroke="#263238" stroke-miterlimit="10" stroke-linecap="round" stroke-linejoin="round"/>
<path d="M85.2 283C85.2 283 80.2 282.1 78.4 284.7C76.6 287.3 66.5 289.6 66.5 289.6" stroke="#263238" stroke-miterlimit="10" stroke-linecap="round" stroke-linejoin="round"/>
<path d="M44.9999 302C44.9999 302 42.0999 314.5 54.3999 320" stroke="#263238" stroke-miterlimit="10" stroke-linecap="round" stroke-linejoin="round"/>
<path d="M51.3999 302.9C51.3999 302.9 51.4999 309 53.3999 312.4L59.4999 314.4L66.3999 310.6C66.3999 310.6 64.8999 302.7 64.7999 301.2" stroke="#263238" stroke-miterlimit="10" stroke-linecap="round" stroke-linejoin="round"/>
</g>
</svg>
