<svg width="24" height="25" viewBox="0 0 24 25" fill="none" xmlns="http://www.w3.org/2000/svg">
<path d="M12 24.5C11.5143 24.5 11.1069 24.3354 10.7777 24.0063C10.4486 23.6771 10.2846 23.2703 10.2857 22.7857V14.2143H1.71429C1.22858 14.2143 0.821149 14.0497 0.492006 13.7206C0.162863 13.3914 -0.00113692 12.9846 5.93177e-06 12.5C5.93177e-06 12.0143 0.164577 11.6069 0.49372 11.2777C0.822863 10.9486 1.22972 10.7846 1.71429 10.7857H10.2857V2.21429C10.2857 1.72858 10.4503 1.32115 10.7794 0.992006C11.1086 0.662863 11.5154 0.498863 12 0.500006C12.4857 0.500006 12.8931 0.664577 13.2223 0.99372C13.5514 1.32286 13.7154 1.72972 13.7143 2.21429V10.7857H22.2857C22.7714 10.7857 23.1789 10.9503 23.508 11.2794C23.8371 11.6086 24.0011 12.0154 24 12.5C24 12.9857 23.8354 13.3931 23.5063 13.7223C23.1771 14.0514 22.7703 14.2154 22.2857 14.2143H13.7143V22.7857C13.7143 23.2714 13.5497 23.6789 13.2206 24.008C12.8914 24.3371 12.4846 24.5011 12 24.5Z" fill="#FFD260"/>
</svg>
