<svg width="25" height="28" viewBox="0 0 25 28" fill="none" xmlns="http://www.w3.org/2000/svg">
<path d="M12.5 16.8C12.1065 16.8 11.7769 16.6656 11.5111 16.3968C11.2444 16.1289 11.1111 15.7967 11.1111 15.4C11.1111 15.0033 11.2444 14.6706 11.5111 14.4018C11.7769 14.1339 12.1065 14 12.5 14C12.8935 14 13.2236 14.1339 13.4903 14.4018C13.756 14.6706 13.8889 15.0033 13.8889 15.4C13.8889 15.7967 13.756 16.1289 13.4903 16.3968C13.2236 16.6656 12.8935 16.8 12.5 16.8ZM6.94444 16.8C6.55093 16.8 6.22083 16.6656 5.95417 16.3968C5.68843 16.1289 5.55556 15.7967 5.55556 15.4C5.55556 15.0033 5.68843 14.6706 5.95417 14.4018C6.22083 14.1339 6.55093 14 6.94444 14C7.33796 14 7.66806 14.1339 7.93472 14.4018C8.20046 14.6706 8.33333 15.0033 8.33333 15.4C8.33333 15.7967 8.20046 16.1289 7.93472 16.3968C7.66806 16.6656 7.33796 16.8 6.94444 16.8ZM18.0556 16.8C17.662 16.8 17.3324 16.6656 17.0667 16.3968C16.8 16.1289 16.6667 15.7967 16.6667 15.4C16.6667 15.0033 16.8 14.6706 17.0667 14.4018C17.3324 14.1339 17.662 14 18.0556 14C18.4491 14 18.7787 14.1339 19.0444 14.4018C19.3111 14.6706 19.4444 15.0033 19.4444 15.4C19.4444 15.7967 19.3111 16.1289 19.0444 16.3968C18.7787 16.6656 18.4491 16.8 18.0556 16.8ZM12.5 22.4C12.1065 22.4 11.7769 22.2656 11.5111 21.9968C11.2444 21.7289 11.1111 21.3967 11.1111 21C11.1111 20.6033 11.2444 20.2711 11.5111 20.0032C11.7769 19.7344 12.1065 19.6 12.5 19.6C12.8935 19.6 13.2236 19.7344 13.4903 20.0032C13.756 20.2711 13.8889 20.6033 13.8889 21C13.8889 21.3967 13.756 21.7289 13.4903 21.9968C13.2236 22.2656 12.8935 22.4 12.5 22.4ZM6.94444 22.4C6.55093 22.4 6.22083 22.2656 5.95417 21.9968C5.68843 21.7289 5.55556 21.3967 5.55556 21C5.55556 20.6033 5.68843 20.2711 5.95417 20.0032C6.22083 19.7344 6.55093 19.6 6.94444 19.6C7.33796 19.6 7.66806 19.7344 7.93472 20.0032C8.20046 20.2711 8.33333 20.6033 8.33333 21C8.33333 21.3967 8.20046 21.7289 7.93472 21.9968C7.66806 22.2656 7.33796 22.4 6.94444 22.4ZM18.0556 22.4C17.662 22.4 17.3324 22.2656 17.0667 21.9968C16.8 21.7289 16.6667 21.3967 16.6667 21C16.6667 20.6033 16.8 20.2711 17.0667 20.0032C17.3324 19.7344 17.662 19.6 18.0556 19.6C18.4491 19.6 18.7787 19.7344 19.0444 20.0032C19.3111 20.2711 19.4444 20.6033 19.4444 21C19.4444 21.3967 19.3111 21.7289 19.0444 21.9968C18.7787 22.2656 18.4491 22.4 18.0556 22.4ZM2.77778 28C2.01389 28 1.35972 27.7261 0.815278 27.1782C0.271759 26.6294 0 25.97 0 25.2V5.6C0 4.83 0.271759 4.17107 0.815278 3.6232C1.35972 3.0744 2.01389 2.8 2.77778 2.8H4.16667V0H6.94444V2.8H18.0556V0H20.8333V2.8H22.2222C22.9861 2.8 23.6403 3.0744 24.1847 3.6232C24.7282 4.17107 25 4.83 25 5.6V25.2C25 25.97 24.7282 26.6294 24.1847 27.1782C23.6403 27.7261 22.9861 28 22.2222 28H2.77778ZM2.77778 25.2H22.2222V11.2H2.77778V25.2Z" fill="#FFEFC6"/>
</svg>
