<svg width="22" height="6" viewBox="0 0 22 6" fill="none" xmlns="http://www.w3.org/2000/svg">
<path d="M16.3334 2.99998C16.3334 2.29274 16.6143 1.61446 17.1144 1.11436C17.6145 0.614265 18.2928 0.333313 19 0.333313C19.7073 0.333313 20.3856 0.614265 20.8857 1.11436C21.3858 1.61446 21.6667 2.29274 21.6667 2.99998C21.6667 3.70722 21.3858 4.3855 20.8857 4.8856C20.3856 5.38569 19.7073 5.66665 19 5.66665C18.2928 5.66665 17.6145 5.38569 17.1144 4.8856C16.6143 4.3855 16.3334 3.70722 16.3334 2.99998ZM8.33337 2.99998C8.33337 2.29274 8.61433 1.61446 9.11442 1.11436C9.61452 0.614265 10.2928 0.333313 11 0.333313C11.7073 0.333313 12.3856 0.614265 12.8857 1.11436C13.3858 1.61446 13.6667 2.29274 13.6667 2.99998C13.6667 3.70722 13.3858 4.3855 12.8857 4.8856C12.3856 5.38569 11.7073 5.66665 11 5.66665C10.2928 5.66665 9.61452 5.38569 9.11442 4.8856C8.61433 4.3855 8.33337 3.70722 8.33337 2.99998ZM0.333374 2.99998C0.333374 2.29274 0.614325 1.61446 1.11442 1.11436C1.61452 0.614265 2.2928 0.333313 3.00004 0.333313C3.70728 0.333313 4.38556 0.614265 4.88566 1.11436C5.38576 1.61446 5.66671 2.29274 5.66671 2.99998C5.66671 3.70722 5.38576 4.3855 4.88566 4.8856C4.38556 5.38569 3.70728 5.66665 3.00004 5.66665C2.2928 5.66665 1.61452 5.38569 1.11442 4.8856C0.614325 4.3855 0.333374 3.70722 0.333374 2.99998Z" fill="#0D2569"/>
</svg>
