<svg width="28" height="28" viewBox="0 0 28 28" fill="none" xmlns="http://www.w3.org/2000/svg">
<path d="M14.0001 22C16.2223 22 18.1112 21.2222 19.6667 19.6666C21.2223 18.1111 22.0001 16.2222 22.0001 14C22.0001 11.7777 21.2223 9.88885 19.6667 8.33329C18.1112 6.77774 16.2223 5.99996 14.0001 5.99996V14L8.33341 19.6666C9.11119 20.4 9.98364 20.9724 10.9507 21.384C11.917 21.7946 12.9334 22 14.0001 22ZM14.0001 27.3333C12.1556 27.3333 10.4223 26.9831 8.80008 26.2826C7.17786 25.5831 5.76675 24.6333 4.56675 23.4333C3.36675 22.2333 2.41697 20.8222 1.71741 19.2C1.01697 17.5777 0.666748 15.8444 0.666748 14C0.666748 12.1555 1.01697 10.4222 1.71741 8.79996C2.41697 7.17774 3.36675 5.76663 4.56675 4.56663C5.76675 3.36663 7.17786 2.4164 8.80008 1.71596C10.4223 1.0164 12.1556 0.666626 14.0001 0.666626C15.8445 0.666626 17.5779 1.0164 19.2001 1.71596C20.8223 2.4164 22.2334 3.36663 23.4334 4.56663C24.6334 5.76663 25.5832 7.17774 26.2827 8.79996C26.9832 10.4222 27.3334 12.1555 27.3334 14C27.3334 15.8444 26.9832 17.5777 26.2827 19.2C25.5832 20.8222 24.6334 22.2333 23.4334 23.4333C22.2334 24.6333 20.8223 25.5831 19.2001 26.2826C17.5779 26.9831 15.8445 27.3333 14.0001 27.3333ZM14.0001 24.6666C16.9779 24.6666 19.5001 23.6333 21.5667 21.5666C23.6334 19.5 24.6667 16.9777 24.6667 14C24.6667 11.0222 23.6334 8.49996 21.5667 6.43329C19.5001 4.36663 16.9779 3.33329 14.0001 3.33329C11.0223 3.33329 8.50008 4.36663 6.43341 6.43329C4.36675 8.49996 3.33341 11.0222 3.33341 14C3.33341 16.9777 4.36675 19.5 6.43341 21.5666C8.50008 23.6333 11.0223 24.6666 14.0001 24.6666Z" fill="#FFF6E0"/>
</svg>
