<svg width="18" height="19" viewBox="0 0 18 19" fill="none" xmlns="http://www.w3.org/2000/svg">
<path d="M1.7561 18.5C1.27317 18.5 0.859611 18.3284 0.515416 17.9852C0.171221 17.642 -0.000583875 17.229 1.49075e-06 16.746V4.46833C1.49075e-06 3.98599 0.172099 3.57294 0.516294 3.22916C0.860489 2.88538 1.27376 2.71379 1.7561 2.71437H9.59268L7.83659 4.46833H1.7561V16.746H14.0488V10.651L15.8049 8.89708V16.746C15.8049 17.2284 15.6328 17.6414 15.2886 17.9852C14.9444 18.329 14.5311 18.5006 14.0488 18.5H1.7561ZM11.5683 3.21864L12.8195 4.44641L7.02439 10.2345V11.4842H8.25366L14.0707 5.67418L15.322 6.90195L9.50488 12.7119C9.3439 12.8727 9.15717 13.0008 8.94468 13.0961C8.7322 13.1913 8.50917 13.2387 8.27561 13.2381H6.14634C5.89756 13.2381 5.68888 13.1539 5.52029 12.9856C5.35171 12.8172 5.26771 12.609 5.26829 12.3611V10.2345C5.26829 10.0006 5.3122 9.77756 5.4 9.56533C5.48781 9.3531 5.6122 9.16689 5.77317 9.0067L11.5683 3.21864ZM15.322 6.90195L11.5683 3.21864L13.7634 1.02619C14.1146 0.675396 14.5355 0.5 15.0261 0.5C15.5166 0.5 15.9299 0.675396 16.2659 1.02619L17.4951 2.27588C17.8317 2.61206 18 3.02132 18 3.50365C18 3.98599 17.8317 4.39525 17.4951 4.73142L15.322 6.90195Z" fill="#FFD260"/>
</svg>
