<svg width="32" height="32" viewBox="0 0 32 32" fill="none" xmlns="http://www.w3.org/2000/svg">
<g clip-path="url(#clip0_245_399)">
<path d="M35.896 0.496624H33.4146L27.3266 6.58196C27.5363 7.11635 27.5556 7.70663 27.3812 8.25357C27.2069 8.8005 26.8495 9.27072 26.3692 9.58515C25.889 9.89958 25.3151 10.039 24.744 9.9801C24.173 9.92115 23.6397 9.66738 23.2338 9.26146C22.8279 8.85555 22.5741 8.32224 22.5152 7.75122C22.4562 7.18021 22.5957 6.6063 22.9101 6.12602C23.2245 5.64574 23.6948 5.28837 24.2417 5.11402C24.7886 4.93966 25.3789 4.95894 25.9133 5.16862L32 -0.918043V-3.39938C32.0001 -3.73141 32.132 -4.04982 32.3666 -4.28471L34.6733 -6.59138C34.7159 -6.63446 34.7695 -6.66507 34.8283 -6.67988C34.887 -6.69468 34.9487 -6.69313 35.0066 -6.67538C35.1253 -6.64071 35.2133 -6.54204 35.2373 -6.42071L35.8506 -3.35271L38.9173 -2.73938C39.0373 -2.71538 39.136 -2.62738 39.1706 -2.50871C39.1882 -2.45107 39.1897 -2.38975 39.1752 -2.3313C39.1606 -2.27284 39.1305 -2.21941 39.088 -2.17671L36.78 0.129957C36.664 0.246173 36.5262 0.338376 36.3745 0.401292C36.2228 0.464208 36.0602 0.496603 35.896 0.496624Z" fill="#FFD260"/>
<path d="M3.50001 16C3.50001 19.3152 4.81697 22.4946 7.16117 24.8388C9.50538 27.183 12.6848 28.5 16 28.5C17.6415 28.5 19.267 28.1767 20.7836 27.5485C22.3001 26.9203 23.6781 25.9996 24.8388 24.8388C25.9996 23.6781 26.9203 22.3001 27.5485 20.7836C28.1767 19.267 28.5 17.6415 28.5 16C28.5 14.8027 28.332 13.6453 28.0187 12.5507C27.9564 12.2993 27.994 12.0336 28.1237 11.8095C28.2533 11.5853 28.4649 11.4202 28.7138 11.3489C28.9627 11.2775 29.2296 11.3055 29.4583 11.427C29.687 11.5484 29.8597 11.7538 29.94 12C30.3053 13.272 30.5 14.6133 30.5 16C30.5 24.008 24.008 30.5 16 30.5C7.99201 30.5 1.50001 24.008 1.50001 16C1.50001 7.99201 7.99201 1.50001 16 1.50001C17.3533 1.49867 18.6987 1.68667 20 2.05867C20.1269 2.09427 20.2455 2.15459 20.349 2.23617C20.4525 2.31775 20.5388 2.41898 20.6031 2.53404C20.6673 2.64911 20.7082 2.77573 20.7233 2.90664C20.7384 3.03755 20.7276 3.17016 20.6913 3.29685C20.655 3.42353 20.594 3.5418 20.5119 3.64485C20.4297 3.74789 20.328 3.83369 20.2126 3.8973C20.0972 3.96091 19.9704 4.00108 19.8394 4.0155C19.7084 4.02993 19.5758 4.01832 19.4493 3.98134C18.3276 3.66098 17.1666 3.49897 16 3.50001C12.6848 3.50001 9.50538 4.81697 7.16117 7.16117C4.81697 9.50538 3.50001 12.6848 3.50001 16Z" fill="#FFD260"/>
<path d="M16 28.5C19.3152 28.5 22.4946 27.183 24.8388 24.8388C27.183 22.4946 28.5 19.3152 28.5 16C28.5 14.3585 28.1767 12.7331 27.5485 11.2166C26.9203 9.70001 25.9996 8.32202 24.8389 7.16129C23.6781 6.00055 22.3001 5.07981 20.7836 4.45163C19.267 3.82344 17.6415 3.50001 16 3.50001C14.8027 3.50001 13.6454 3.66812 12.5507 3.98145C12.2993 4.04374 12.0336 4.0061 11.8095 3.87645C11.5853 3.7468 11.4202 3.53525 11.3489 3.28633C11.2775 3.0374 11.3055 2.77051 11.427 2.54181C11.5484 2.3131 11.7538 2.14043 12 2.06012C13.272 1.69479 14.6133 1.50001 16 1.50001C24.008 1.50001 30.5 7.99201 30.5 16C30.5 24.008 24.008 30.5 16 30.5C7.99201 30.5 1.50001 24.008 1.50001 16C1.49867 14.6467 1.68668 13.3015 2.05868 12.0001C2.09428 11.8732 2.1546 11.7546 2.23618 11.6511C2.31776 11.5477 2.41899 11.4613 2.53405 11.3971C2.64912 11.3328 2.77574 11.292 2.90665 11.2768C3.03756 11.2617 3.17017 11.2726 3.29686 11.3089C3.42354 11.3451 3.54181 11.4061 3.64486 11.4883C3.7479 11.5704 3.8337 11.6721 3.89731 11.7875C3.96092 11.9029 4.00109 12.0298 4.01551 12.1608C4.02994 12.2918 4.01833 12.4243 3.98135 12.5508C3.66099 13.6725 3.49897 14.8334 3.50001 16C3.50001 19.3152 4.81697 22.4946 7.16117 24.8388C9.50538 27.183 12.6848 28.5 16 28.5Z" fill="#FFD260"/>
<path d="M9.49978 16C9.5035 16.8831 9.68717 17.7561 10.0396 18.5659C10.392 19.3756 10.9057 20.1051 11.5494 20.7096C12.1932 21.3142 12.9533 21.7812 13.7836 22.0822C14.6138 22.3832 15.4967 22.5118 16.3783 22.4601C17.2599 22.4085 18.1217 22.1777 18.9111 21.7819C19.7006 21.3861 20.401 20.8336 20.9698 20.158C21.5386 19.4824 21.9637 18.698 22.2191 17.8527C22.4746 17.0073 22.5551 16.1188 22.4558 15.2413C22.4278 15.0636 22.4484 14.8816 22.5154 14.7146C22.5824 14.5477 22.6933 14.4019 22.8364 14.2929C22.9795 14.1838 23.1494 14.1155 23.3282 14.0952C23.5069 14.0748 23.6878 14.1032 23.8518 14.1773C24.1864 14.3266 24.4118 14.6453 24.4411 15.0106C24.6481 16.7643 24.3037 18.5389 23.4556 20.0878C22.6076 21.6366 21.298 22.8828 19.7091 23.6531C18.1201 24.4234 16.3306 24.6795 14.5894 24.3859C12.8481 24.0922 11.2416 23.2634 9.99311 22.0146C8.74497 20.7672 7.91595 19.1623 7.62101 17.4225C7.32608 15.6827 7.57985 13.8942 8.34714 12.3051C9.11443 10.716 10.3572 9.40506 11.9031 8.55408C13.449 7.7031 15.2214 7.35427 16.9744 7.55597C17.107 7.56826 17.2357 7.60689 17.3531 7.66959C17.4705 7.73228 17.5742 7.81778 17.6582 7.92108C17.7421 8.02438 17.8046 8.14339 17.8419 8.27114C17.8792 8.39889 17.8907 8.53281 17.8756 8.66505C17.8605 8.79729 17.8192 8.92518 17.754 9.04124C17.6889 9.15729 17.6012 9.25918 17.4962 9.34091C17.3911 9.42265 17.2708 9.48259 17.1423 9.51723C17.0138 9.55187 16.8797 9.5605 16.7478 9.54263C15.8371 9.43735 14.9145 9.52584 14.0405 9.80228C13.1665 10.0787 12.3608 10.5369 11.6764 11.1467C10.9919 11.7565 10.4442 12.5041 10.069 13.3405C9.69391 14.177 9.49991 15.0833 9.49978 16Z" fill="#FFD260"/>
<path d="M15.9983 22.503C16.8814 22.4993 17.7544 22.3156 18.5642 21.9632C19.3739 21.6108 20.1033 21.097 20.7079 20.4533C21.3125 19.8096 21.7795 19.0494 22.0805 18.2192C22.3814 17.3889 22.51 16.5061 22.4584 15.6245C22.4068 14.7429 22.176 13.8811 21.7802 13.0916C21.3844 12.3022 20.8318 11.6017 20.1563 11.033C19.4807 10.4642 18.6963 10.0391 17.851 9.78361C17.0056 9.52812 16.1171 9.44761 15.2396 9.54698C15.0619 9.57498 14.8799 9.55438 14.7129 9.48738C14.546 9.42037 14.4002 9.30945 14.2912 9.16636C14.1821 9.02328 14.1138 8.85335 14.0934 8.6746C14.0731 8.49585 14.1015 8.31492 14.1756 8.15098C14.3249 7.81631 14.6436 7.59098 15.0089 7.56165C16.7626 7.35462 18.5372 7.69908 20.086 8.54713C21.6349 9.39519 22.8811 10.7047 23.6514 12.2937C24.4217 13.8827 24.6778 15.6721 24.3842 17.4134C24.0905 19.1546 23.2617 20.7612 22.0129 22.0096C20.7655 23.2578 19.1606 24.0868 17.4208 24.3817C15.6809 24.6767 13.8925 24.4229 12.3034 23.6556C10.7143 22.8883 9.40335 21.6456 8.55237 20.0997C7.70139 18.5538 7.35256 16.7814 7.55426 15.0283C7.56655 14.8958 7.60518 14.767 7.66788 14.6496C7.73057 14.5322 7.81607 14.4285 7.91937 14.3446C8.02267 14.2607 8.14168 14.1982 8.26943 14.1609C8.39718 14.1235 8.5311 14.1121 8.66334 14.1271C8.79558 14.1422 8.92347 14.1836 9.03953 14.2487C9.15559 14.3139 9.25747 14.4016 9.3392 14.5066C9.42094 14.6116 9.48088 14.7319 9.51552 14.8604C9.55016 14.989 9.5588 15.1231 9.54092 15.255C9.43564 16.1656 9.52413 17.0882 9.80057 17.9622C10.077 18.8362 10.5352 19.6419 11.145 20.3264C11.7548 21.0108 12.5024 21.5586 13.3388 21.9337C14.1753 22.3088 15.0816 22.5028 15.9983 22.503Z" fill="#FFD260"/>
</g>
<defs>
<clipPath id="clip0_245_399">
<rect width="32" height="32" fill="white"/>
</clipPath>
</defs>
</svg>
