<svg width="32" height="32" viewBox="0 0 32 32" fill="none" xmlns="http://www.w3.org/2000/svg">
<path d="M26.896 9.50004H24.4146L18.3266 15.5854C18.5363 16.1198 18.5556 16.7101 18.3812 17.257C18.2069 17.8039 17.8495 18.2741 17.3692 18.5886C16.889 18.903 16.3151 19.0425 15.744 18.9835C15.173 18.9246 14.6397 18.6708 14.2338 18.2649C13.8279 17.859 13.5741 17.3257 13.5152 16.7546C13.4562 16.1836 13.5957 15.6097 13.9101 15.1294C14.2245 14.6492 14.6948 14.2918 15.2417 14.1174C15.7886 13.9431 16.3789 13.9624 16.9133 14.172L23 8.08537V5.60404C23.0001 5.27201 23.132 4.9536 23.3666 4.71871L25.6733 2.41204C25.7159 2.36895 25.7695 2.33835 25.8283 2.32354C25.887 2.30873 25.9487 2.31029 26.0066 2.32804C26.1253 2.36271 26.2133 2.46137 26.2373 2.58271L26.8506 5.65071L29.9173 6.26404C30.0373 6.28804 30.136 6.37604 30.1706 6.49471C30.1882 6.55235 30.1897 6.61366 30.1752 6.67212C30.1606 6.73058 30.1305 6.784 30.088 6.82671L27.78 9.13337C27.664 9.24959 27.5262 9.34179 27.3745 9.40471C27.2228 9.46763 27.0602 9.50002 26.896 9.50004Z" fill="#FFD260"/>
<path d="M3.5 16.5C3.5 19.8152 4.81696 22.9946 7.16117 25.3388C9.50537 27.683 12.6848 29 16 29C17.6415 29 19.267 28.6767 20.7835 28.0485C22.3001 27.4203 23.6781 26.4996 24.8388 25.3388C25.9996 24.1781 26.9203 22.8001 27.5485 21.2836C28.1767 19.767 28.5 18.1415 28.5 16.5C28.5 15.3027 28.332 14.1453 28.0187 13.0507C27.9564 12.7993 27.994 12.5336 28.1237 12.3095C28.2533 12.0853 28.4649 11.9202 28.7138 11.8489C28.9627 11.7775 29.2296 11.8055 29.4583 11.927C29.687 12.0484 29.8597 12.2538 29.94 12.5C30.3053 13.772 30.5 15.1133 30.5 16.5C30.5 24.508 24.008 31 16 31C7.992 31 1.5 24.508 1.5 16.5C1.5 8.49201 7.992 2.00001 16 2.00001C17.3533 1.99867 18.6987 2.18667 20 2.55867C20.1269 2.59427 20.2455 2.65459 20.349 2.73617C20.4525 2.81775 20.5388 2.91898 20.6031 3.03404C20.6673 3.14911 20.7082 3.27573 20.7233 3.40664C20.7384 3.53755 20.7275 3.67016 20.6913 3.79685C20.655 3.92353 20.594 4.0418 20.5119 4.14485C20.4297 4.24789 20.328 4.33369 20.2126 4.3973C20.0972 4.46091 19.9703 4.50108 19.8394 4.5155C19.7084 4.52993 19.5758 4.51832 19.4493 4.48134C18.3276 4.16098 17.1666 3.99897 16 4.00001C12.6848 4.00001 9.50537 5.31697 7.16117 7.66117C4.81696 10.0054 3.5 13.1848 3.5 16.5Z" fill="#FFD260"/>
<path d="M9.49982 16.5C9.50354 17.3831 9.68721 18.2561 10.0396 19.0659C10.392 19.8756 10.9058 20.6051 11.5495 21.2096C12.1932 21.8142 12.9534 22.2812 13.7836 22.5822C14.6139 22.8832 15.4967 23.0118 16.3783 22.9601C17.2599 22.9085 18.1217 22.6777 18.9112 22.2819C19.7006 21.8861 20.4011 21.3336 20.9698 20.658C21.5386 19.9824 21.9637 19.198 22.2192 18.3527C22.4747 17.5073 22.5552 16.6188 22.4558 15.7413C22.4278 15.5636 22.4484 15.3816 22.5154 15.2146C22.5824 15.0477 22.6934 14.9019 22.8364 14.7929C22.9795 14.6838 23.1494 14.6155 23.3282 14.5952C23.507 14.5748 23.6879 14.6032 23.8518 14.6773C24.1865 14.8266 24.4118 15.1453 24.4412 15.5106C24.6482 17.2643 24.3037 19.0389 23.4557 20.5878C22.6076 22.1366 21.2981 23.3828 19.7091 24.1531C18.1201 24.9234 16.3307 25.1795 14.5894 24.8859C12.8482 24.5922 11.2416 23.7634 9.99315 22.5146C8.74501 21.2672 7.91599 19.6623 7.62105 17.9225C7.32612 16.1827 7.57989 14.3942 8.34718 12.8051C9.11447 11.216 10.3572 9.90506 11.9031 9.05408C13.449 8.2031 15.2214 7.85427 16.9745 8.05597C17.107 8.06826 17.2358 8.10689 17.3532 8.16959C17.4706 8.23228 17.5743 8.31778 17.6582 8.42108C17.7421 8.52438 17.8046 8.64339 17.8419 8.77114C17.8793 8.89889 17.8907 9.03281 17.8757 9.16505C17.8606 9.29729 17.8192 9.42518 17.7541 9.54124C17.6889 9.65729 17.6012 9.75918 17.4962 9.84091C17.3912 9.92265 17.2709 9.98259 17.1424 10.0172C17.0138 10.0519 16.8797 10.0605 16.7478 10.0426C15.8372 9.93735 14.9146 10.0258 14.0406 10.3023C13.1666 10.5787 12.3609 11.0369 11.6764 11.6467C10.992 12.2565 10.4442 13.0041 10.0691 13.8405C9.69395 14.677 9.49996 15.5833 9.49982 16.5Z" fill="#FFD260"/>
</svg>
