<svg width="25" height="28" viewBox="0 0 25 28" fill="none" xmlns="http://www.w3.org/2000/svg">
<path d="M2.77778 28C2.01389 28 1.35972 27.7261 0.815278 27.1782C0.271759 26.6294 0 25.97 0 25.2V5.6C0 4.83 0.271759 4.1706 0.815278 3.6218C1.35972 3.07393 2.01389 2.8 2.77778 2.8H8.61111C8.91204 1.96 9.41574 1.28333 10.1222 0.77C10.8278 0.256667 11.6204 0 12.5 0C13.3796 0 14.1727 0.256667 14.8792 0.77C15.5847 1.28333 16.088 1.96 16.3889 2.8H22.2222C22.9861 2.8 23.6403 3.07393 24.1847 3.6218C24.7282 4.1706 25 4.83 25 5.6V25.2C25 25.97 24.7282 26.6294 24.1847 27.1782C23.6403 27.7261 22.9861 28 22.2222 28H2.77778ZM2.77778 25.2H22.2222V5.6H2.77778V25.2ZM5.55556 22.4H15.2778V19.6H5.55556V22.4ZM5.55556 16.8H19.4444V14H5.55556V16.8ZM5.55556 11.2H19.4444V8.4H5.55556V11.2ZM12.5 4.55C12.8009 4.55 13.05 4.4506 13.2472 4.2518C13.4435 4.05393 13.5417 3.80333 13.5417 3.5C13.5417 3.19667 13.4435 2.9456 13.2472 2.7468C13.05 2.54893 12.8009 2.45 12.5 2.45C12.1991 2.45 11.9505 2.54893 11.7542 2.7468C11.5569 2.9456 11.4583 3.19667 11.4583 3.5C11.4583 3.80333 11.5569 4.05393 11.7542 4.2518C11.9505 4.4506 12.1991 4.55 12.5 4.55Z" fill="#FFEFC6"/>
</svg>
