<svg width="25" height="24" viewBox="0 0 25 24" fill="none" xmlns="http://www.w3.org/2000/svg">
<g clip-path="url(#clip0_1082_2493)">
<rect x="0.5" width="24" height="24" rx="12" fill="white"/>
<path d="M0.5 0H32.5V32H0.5V0Z" fill="white"/>
<path d="M12.6517 8.72742C13.6265 8.72742 14.2841 9.14852 14.6591 9.5004L16.1243 8.06981C15.2244 7.23337 14.0534 6.71997 12.6517 6.71997C10.6211 6.71997 8.8675 7.88521 8.01375 9.58116L9.6924 10.8849C10.1135 9.63308 11.2787 8.72742 12.6517 8.72742Z" fill="#EA4335"/>
<path d="M17.6357 12.027C17.6357 11.6001 17.601 11.2886 17.5261 10.9656H12.6516V12.8923H15.5128C15.4552 13.3711 15.1437 14.0922 14.4514 14.5767L16.0897 15.8458C17.0703 14.9401 17.6357 13.6076 17.6357 12.027Z" fill="#4285F4"/>
<path d="M9.69815 12.9384C9.58855 12.6154 9.5251 12.2693 9.5251 11.9116C9.5251 11.554 9.58856 11.2079 9.6924 10.8849L8.01375 9.58116C7.66187 10.2849 7.45996 11.0752 7.45996 11.9116C7.45996 12.7481 7.66186 13.5384 8.01374 14.2421L9.69815 12.9384Z" fill="#FBBC05"/>
<path d="M12.6516 17.1033C14.0534 17.1033 15.2302 16.6418 16.0897 15.8458L14.4514 14.5767C14.013 14.8824 13.4246 15.0959 12.6516 15.0959C11.2787 15.0959 10.1135 14.1902 9.69815 12.9384L8.0195 14.2421C8.87324 15.9381 10.6211 17.1033 12.6516 17.1033Z" fill="#34A853"/>
</g>
<defs>
<clipPath id="clip0_1082_2493">
<rect x="0.5" width="24" height="24" rx="12" fill="white"/>
</clipPath>
</defs>
</svg>
