<svg width="32" height="33" viewBox="0 0 32 33" fill="none" xmlns="http://www.w3.org/2000/svg">
<path d="M15.9999 9.83325C12.3199 9.83325 9.33325 12.8199 9.33325 16.4999C9.33325 20.1799 12.3199 23.1666 15.9999 23.1666C19.6799 23.1666 22.6666 20.1799 22.6666 16.4999C22.6666 12.8199 19.6799 9.83325 15.9999 9.83325ZM2.66659 17.8333H5.33325C6.06659 17.8333 6.66659 17.2333 6.66659 16.4999C6.66659 15.7666 6.06659 15.1666 5.33325 15.1666H2.66659C1.93325 15.1666 1.33325 15.7666 1.33325 16.4999C1.33325 17.2333 1.93325 17.8333 2.66659 17.8333ZM26.6666 17.8333H29.3333C30.0666 17.8333 30.6666 17.2333 30.6666 16.4999C30.6666 15.7666 30.0666 15.1666 29.3333 15.1666H26.6666C25.9333 15.1666 25.3333 15.7666 25.3333 16.4999C25.3333 17.2333 25.9333 17.8333 26.6666 17.8333ZM14.6666 3.16659V5.83325C14.6666 6.56659 15.2666 7.16659 15.9999 7.16659C16.7333 7.16659 17.3333 6.56659 17.3333 5.83325V3.16659C17.3333 2.43325 16.7333 1.83325 15.9999 1.83325C15.2666 1.83325 14.6666 2.43325 14.6666 3.16659ZM14.6666 27.1666V29.8333C14.6666 30.5666 15.2666 31.1666 15.9999 31.1666C16.7333 31.1666 17.3333 30.5666 17.3333 29.8333V27.1666C17.3333 26.4333 16.7333 25.8333 15.9999 25.8333C15.2666 25.8333 14.6666 26.4333 14.6666 27.1666ZM7.98659 6.60659C7.86323 6.48298 7.71672 6.38492 7.55542 6.31801C7.39412 6.2511 7.22121 6.21666 7.04659 6.21666C6.87196 6.21666 6.69905 6.2511 6.53775 6.31801C6.37646 6.38492 6.22994 6.48298 6.10659 6.60659C5.98298 6.72994 5.88492 6.87646 5.81801 7.03775C5.7511 7.19905 5.71666 7.37196 5.71666 7.54659C5.71666 7.72121 5.7511 7.89412 5.81801 8.05542C5.88492 8.21672 5.98298 8.36323 6.10659 8.48659L7.51992 9.89992C8.03992 10.4199 8.89325 10.4199 9.39992 9.89992C9.90659 9.37992 9.91992 8.52659 9.39992 8.01992L7.98659 6.60659ZM24.4799 23.0999C24.3566 22.9763 24.2101 22.8783 24.0488 22.8113C23.8875 22.7444 23.7145 22.71 23.5399 22.71C23.3653 22.71 23.1924 22.7444 23.0311 22.8113C22.8698 22.8783 22.7233 22.9763 22.5999 23.0999C22.4763 23.2233 22.3783 23.3698 22.3113 23.5311C22.2444 23.6924 22.21 23.8653 22.21 24.0399C22.21 24.2145 22.2444 24.3875 22.3113 24.5488C22.3783 24.7101 22.4763 24.8566 22.5999 24.9799L24.0133 26.3933C24.5333 26.9133 25.3866 26.9133 25.8933 26.3933C26.0169 26.2699 26.1149 26.1234 26.1818 25.9621C26.2487 25.8008 26.2832 25.6279 26.2832 25.4533C26.2832 25.2786 26.2487 25.1057 26.1818 24.9444C26.1149 24.7831 26.0169 24.6366 25.8933 24.5133L24.4799 23.0999ZM25.8933 8.48659C26.0169 8.36323 26.1149 8.21672 26.1818 8.05542C26.2487 7.89412 26.2832 7.72121 26.2832 7.54659C26.2832 7.37196 26.2487 7.19905 26.1818 7.03775C26.1149 6.87646 26.0169 6.72994 25.8933 6.60659C25.7699 6.48298 25.6234 6.38492 25.4621 6.31801C25.3008 6.2511 25.1279 6.21666 24.9533 6.21666C24.7786 6.21666 24.6057 6.2511 24.4444 6.31801C24.2831 6.38492 24.1366 6.48298 24.0133 6.60659L22.5999 8.01992C22.0799 8.53992 22.0799 9.39325 22.5999 9.89992C23.1199 10.4066 23.9733 10.4199 24.4799 9.89992L25.8933 8.48659ZM9.39992 24.9799C9.52352 24.8566 9.62159 24.7101 9.6885 24.5488C9.7554 24.3875 9.78984 24.2145 9.78984 24.0399C9.78984 23.8653 9.7554 23.6924 9.6885 23.5311C9.62159 23.3698 9.52352 23.2233 9.39992 23.0999C9.27657 22.9763 9.13005 22.8783 8.96875 22.8113C8.80745 22.7444 8.63454 22.71 8.45992 22.71C8.28529 22.71 8.11238 22.7444 7.95109 22.8113C7.78979 22.8783 7.64327 22.9763 7.51992 23.0999L6.10659 24.5133C5.58659 25.0333 5.58659 25.8866 6.10659 26.3933C6.62659 26.8999 7.47992 26.9133 7.98659 26.3933L9.39992 24.9799Z" fill="#E29B29"/>
</svg>
