<svg width="61" height="54" viewBox="0 0 61 54" fill="none" xmlns="http://www.w3.org/2000/svg">
<path d="M6.5 54C4.85001 54 3.437 53.412 2.261 52.236C1.085 51.06 0.498005 49.648 0.500005 48V12C0.500005 10.35 1.08801 8.937 2.26401 7.761C3.44001 6.585 4.85201 5.998 6.5 6H36.8C36.6 7 36.5 8 36.5 9C36.5 10 36.6 11 36.8 12H6.5V48H54.5V23.7C55.65 23.45 56.725 23.1 57.725 22.65C58.725 22.2 59.65 21.65 60.5 21V48C60.5 49.65 59.912 51.063 58.736 52.239C57.56 53.415 56.148 54.002 54.5 54H6.5ZM51.5 18C49 18 46.875 17.125 45.125 15.375C43.375 13.625 42.5 11.5 42.5 9C42.5 6.5 43.375 4.375 45.125 2.625C46.875 0.875 49 0 51.5 0C54 0 56.125 0.875 57.875 2.625C59.625 4.375 60.5 6.5 60.5 9C60.5 11.5 59.625 13.625 57.875 15.375C56.125 17.125 54 18 51.5 18ZM30.5 27L41.45 20.175C42.15 20.825 42.913 21.388 43.739 21.864C44.565 22.34 45.427 22.752 46.325 23.1L32.075 32.025C31.575 32.325 31.05 32.475 30.5 32.475C29.95 32.475 29.425 32.325 28.925 32.025L6.5 18V12L30.5 27Z" fill="#200568"/>
</svg>
