<svg width="160" height="201" viewBox="0 0 160 201" fill="none" xmlns="http://www.w3.org/2000/svg">
<path d="M80 146.667C76.3333 146.667 73.1933 145.36 70.58 142.747C67.9667 140.133 66.6622 136.996 66.6667 133.333H93.3334C93.3334 137 92.0267 140.14 89.4133 142.753C86.8 145.367 83.6622 146.671 80 146.667ZM53.3333 126.667V113.333H106.667V126.667H53.3333ZM55 106.667C47.3333 102.111 41.2489 96 36.7467 88.3333C32.2445 80.6667 29.9956 72.3333 30 63.3333C30 49.4445 34.8622 37.6378 44.5867 27.9133C54.3111 18.1889 66.1156 13.3289 80 13.3333C93.8889 13.3333 105.696 18.1956 115.42 27.92C125.144 37.6444 130.004 49.4489 130 63.3333C130 72.3333 127.751 80.6667 123.253 88.3333C118.756 96 112.671 102.111 105 106.667H55Z" fill="url(#paint0_linear_427_3068)"/>
<path d="M16.6803 197.888C14.3549 197.888 12.6163 197.376 11.4643 196.352C10.6963 195.883 10.3123 195.253 10.3123 194.464C10.3123 193.973 10.4723 193.547 10.7923 193.184C11.0909 192.843 11.4856 192.672 11.9763 192.672C12.8296 192.672 13.5229 193.088 14.0563 193.92C14.3763 194.453 14.7709 194.869 15.2403 195.168C15.7096 195.488 16.3709 195.648 17.2243 195.648C18.4616 195.648 19.4536 195.2 20.2003 194.304C20.9469 193.429 21.5016 192.117 21.8643 190.368L22.2483 188.544C22.2696 188.48 22.2803 188.405 22.2803 188.32C22.2803 188.149 22.2269 188.064 22.1203 188.064C22.0349 188.064 21.9389 188.149 21.8323 188.32C21.1283 189.323 20.3283 190.144 19.4323 190.784C18.5576 191.424 17.5123 191.744 16.2963 191.744C14.8243 191.744 13.7149 191.328 12.9683 190.496C12.2216 189.643 11.8483 188.48 11.8483 187.008C11.8483 185.216 12.1896 183.488 12.8723 181.824C13.5549 180.16 14.5576 178.805 15.8803 177.76C17.2029 176.693 18.7816 176.16 20.6163 176.16C21.2989 176.16 21.8643 176.256 22.3123 176.448C22.7603 176.64 23.2829 176.928 23.8803 177.312C24.0936 177.44 24.3496 177.557 24.6483 177.664C24.9683 177.749 25.2136 177.792 25.3843 177.792C25.5976 177.792 25.7896 177.749 25.9603 177.664C26.1309 177.557 26.3656 177.376 26.6643 177.12C27.0909 176.736 27.4003 176.48 27.5923 176.352C27.8056 176.203 28.0189 176.128 28.2323 176.128C28.5096 176.128 28.7016 176.213 28.8083 176.384C28.9149 176.555 28.9469 176.768 28.9043 177.024L26.0883 190.24C25.4909 193.035 24.3069 195.008 22.5363 196.16C20.7869 197.312 18.8349 197.888 16.6803 197.888ZM18.9203 188.128C19.7949 188.128 20.5843 187.68 21.2883 186.784C21.9923 185.888 22.4829 184.885 22.7603 183.776C22.9949 182.944 23.1443 182.325 23.2083 181.92C23.2723 181.493 23.3043 181.067 23.3043 180.64C23.3043 179.872 23.1229 179.275 22.7603 178.848C22.4189 178.421 21.9496 178.208 21.3523 178.208C20.5203 178.208 19.7629 178.603 19.0803 179.392C18.3976 180.181 17.8643 181.152 17.4803 182.304C17.0963 183.435 16.9043 184.48 16.9043 185.44C16.9043 186.336 17.0749 187.008 17.4163 187.456C17.7789 187.904 18.2803 188.128 18.9203 188.128ZM36.53 192.352C34.3113 192.352 32.594 191.787 31.378 190.656C30.1833 189.525 29.586 188 29.586 186.08C29.586 184.8 29.9273 183.381 30.61 181.824C31.2927 180.267 32.3913 178.923 33.906 177.792C35.4207 176.661 37.3407 176.096 39.666 176.096C41.778 176.096 43.4207 176.672 44.594 177.824C45.7673 178.955 46.354 180.48 46.354 182.4C46.354 183.68 46.0233 185.099 45.362 186.656C44.7007 188.192 43.6233 189.525 42.13 190.656C40.658 191.787 38.7913 192.352 36.53 192.352ZM36.914 190.304C37.8953 190.304 38.7273 189.771 39.41 188.704C40.0927 187.616 40.6047 186.368 40.946 184.96C41.2873 183.552 41.458 182.421 41.458 181.568C41.458 180.501 41.2553 179.669 40.85 179.072C40.466 178.475 39.8687 178.176 39.058 178.176C38.0767 178.176 37.2447 178.72 36.562 179.808C35.8793 180.875 35.3673 182.112 35.026 183.52C34.6847 184.907 34.514 186.027 34.514 186.88C34.514 187.968 34.706 188.811 35.09 189.408C35.4953 190.005 36.1033 190.304 36.914 190.304ZM51.8603 192.384C50.4096 192.384 49.3003 191.936 48.5323 191.04C47.7856 190.144 47.4123 188.928 47.4123 187.392C47.4123 185.643 47.7536 183.904 48.4363 182.176C49.1403 180.427 50.1536 178.987 51.4763 177.856C52.7989 176.725 54.3563 176.16 56.1483 176.16C57.2363 176.16 58.3243 176.533 59.4123 177.28C60.0309 177.621 60.5643 177.792 61.0123 177.792C61.2256 177.792 61.4176 177.749 61.5883 177.664C61.7589 177.557 61.9936 177.376 62.2923 177.12C62.6976 176.736 62.9963 176.48 63.1883 176.352C63.4016 176.203 63.6256 176.128 63.8603 176.128C64.0736 176.128 64.2336 176.181 64.3403 176.288C64.4683 176.395 64.5323 176.544 64.5323 176.736C64.5323 176.864 64.5216 176.96 64.5003 177.024L62.3243 187.136C62.2816 187.285 62.2603 187.509 62.2603 187.808C62.2603 188.448 62.5056 188.768 62.9963 188.768C63.2736 188.768 63.5189 188.661 63.7323 188.448C63.9669 188.235 64.2123 187.904 64.4683 187.456C64.6603 187.285 64.8629 187.2 65.0763 187.2C65.2469 187.2 65.3749 187.264 65.4603 187.392C65.5669 187.499 65.6203 187.659 65.6203 187.872C65.6203 188.128 65.5456 188.405 65.3963 188.704C64.9483 189.771 64.3083 190.656 63.4763 191.36C62.6656 192.043 61.7269 192.384 60.6603 192.384C59.6789 192.384 58.9323 192.117 58.4203 191.584C57.9083 191.029 57.6523 190.325 57.6523 189.472C57.6523 189.237 57.6629 189.056 57.6843 188.928V188.864C57.6843 188.651 57.6203 188.544 57.4923 188.544C57.3856 188.544 57.2896 188.619 57.2043 188.768C56.4363 189.835 55.6256 190.709 54.7723 191.392C53.9403 192.053 52.9696 192.384 51.8603 192.384ZM54.1963 188.768C55.0709 188.768 55.9029 188.267 56.6923 187.264C57.4816 186.24 58.0256 185.141 58.3243 183.968C58.5589 183.093 58.7083 182.421 58.7723 181.952C58.8576 181.483 58.9003 181.045 58.9003 180.64C58.9003 179.851 58.7083 179.253 58.3243 178.848C57.9616 178.421 57.4709 178.208 56.8523 178.208C56.0203 178.208 55.2629 178.635 54.5803 179.488C53.8976 180.32 53.3643 181.333 52.9803 182.528C52.5963 183.723 52.4043 184.811 52.4043 185.792C52.4043 186.731 52.5643 187.467 52.8843 188C53.2043 188.512 53.6416 188.768 54.1963 188.768ZM70.862 192.384C69.7527 192.384 68.9633 192.128 68.494 191.616C68.0247 191.104 67.79 190.368 67.79 189.408C67.79 188.725 67.8967 187.872 68.11 186.848L70.798 174.048C70.862 173.792 70.894 173.547 70.894 173.312C70.894 172.843 70.6913 172.523 70.286 172.352C70.1367 172.288 69.934 172.224 69.678 172.16C69.4433 172.075 69.262 171.989 69.134 171.904C69.0273 171.819 68.974 171.712 68.974 171.584C68.974 171.264 69.0913 171.029 69.326 170.88C69.582 170.709 69.966 170.539 70.478 170.368C72.846 169.728 74.4247 169.408 75.214 169.408C75.598 169.408 75.8647 169.461 76.014 169.568C76.1847 169.675 76.27 169.867 76.27 170.144C76.27 170.293 76.2593 170.421 76.238 170.528L72.718 187.168C72.6753 187.339 72.654 187.552 72.654 187.808C72.654 188.448 72.8993 188.768 73.39 188.768C73.6887 188.768 73.9233 188.693 74.094 188.544C74.2647 188.373 74.4247 188.171 74.574 187.936C74.7447 187.701 74.862 187.541 74.926 187.456C75.0753 187.307 75.2567 187.232 75.47 187.232C75.6407 187.232 75.7793 187.296 75.886 187.424C75.9927 187.552 76.046 187.723 76.046 187.936C76.046 188.149 75.982 188.405 75.854 188.704C75.4273 189.728 74.7553 190.603 73.838 191.328C72.9207 192.032 71.9287 192.384 70.862 192.384ZM78.76 192.16C78.4613 192.16 78.2267 192.096 78.056 191.968C77.9067 191.819 77.832 191.627 77.832 191.392C77.832 191.349 77.8533 191.243 77.896 191.072L78.088 190.336C78.5147 188.757 78.8347 187.509 79.048 186.592L80.328 180.896C80.3707 180.555 80.392 180.331 80.392 180.224C80.392 179.712 80.2 179.371 79.816 179.2C79.6453 179.136 79.432 179.072 79.176 179.008C78.9413 178.944 78.76 178.869 78.632 178.784C78.5253 178.699 78.472 178.581 78.472 178.432C78.472 178.133 78.6 177.909 78.856 177.76C79.112 177.589 79.496 177.419 80.008 177.248C82.3333 176.608 83.912 176.288 84.744 176.288C85.128 176.288 85.3947 176.341 85.544 176.448C85.7147 176.555 85.8 176.747 85.8 177.024C85.8 177.173 85.7893 177.301 85.768 177.408L85.224 179.712C85.2027 179.797 85.192 179.893 85.192 180C85.192 180.149 85.2347 180.224 85.32 180.224C85.4053 180.224 85.544 180.085 85.736 179.808C86.3973 178.72 87.1547 177.835 88.008 177.152C88.8613 176.448 89.736 176.096 90.632 176.096C91.5493 176.096 92.232 176.416 92.68 177.056C93.1493 177.675 93.3413 178.464 93.256 179.424C93.2347 180.469 92.968 181.28 92.456 181.856C91.9653 182.432 91.3787 182.72 90.696 182.72C90.312 182.72 90.0133 182.645 89.8 182.496C89.608 182.347 89.4267 182.101 89.256 181.76C89.2347 181.632 89.192 181.408 89.128 181.088C89.0853 180.747 88.9787 180.491 88.808 180.32C88.6587 180.128 88.4133 180.032 88.072 180.032C87.5813 180.032 87.0587 180.256 86.504 180.704C85.9493 181.152 85.4373 181.803 84.968 182.656C84.52 183.488 84.1787 184.448 83.944 185.536C83.56 187.605 83.2827 189.227 83.112 190.4C83.0693 190.869 82.9307 191.221 82.696 191.456C82.4613 191.691 82.0453 191.861 81.448 191.968C80.8507 192.075 79.9547 192.139 78.76 192.16ZM97.2193 192.384C95.1073 192.384 94.0513 191.381 94.0513 189.376C94.0513 188.757 94.1793 187.915 94.4353 186.848L95.7793 180.896C95.8433 180.64 95.8753 180.416 95.8753 180.224C95.8753 179.755 95.6726 179.413 95.2673 179.2C95.0966 179.136 94.8833 179.072 94.6273 179.008C94.3926 178.944 94.2113 178.869 94.0833 178.784C93.9766 178.699 93.9233 178.581 93.9233 178.432C93.9233 178.155 94.0406 177.941 94.2753 177.792C94.5313 177.621 94.9259 177.44 95.4593 177.248C97.7846 176.608 99.3633 176.288 100.195 176.288C100.579 176.288 100.857 176.341 101.027 176.448C101.198 176.555 101.283 176.736 101.283 176.992C101.283 177.056 101.262 177.195 101.219 177.408L99.1073 187.136C99.0433 187.392 99.0113 187.627 99.0113 187.84C99.0113 188.459 99.2566 188.768 99.7473 188.768C100.025 188.768 100.27 188.661 100.483 188.448C100.697 188.235 100.953 187.893 101.251 187.424C101.401 187.275 101.571 187.2 101.763 187.2C101.934 187.2 102.073 187.264 102.179 187.392C102.307 187.499 102.371 187.669 102.371 187.904C102.371 188.139 102.297 188.405 102.147 188.704C101.742 189.728 101.091 190.603 100.195 191.328C99.2993 192.032 98.3073 192.384 97.2193 192.384ZM98.4993 174.304C97.8806 174.304 97.4113 174.187 97.0913 173.952C96.7713 173.717 96.6113 173.408 96.6113 173.024C96.6113 172.491 96.8353 172 97.2833 171.552C97.7313 171.083 98.3179 170.72 99.0433 170.464C99.7899 170.187 100.569 170.048 101.379 170.048C101.955 170.048 102.393 170.165 102.691 170.4C102.99 170.613 103.139 170.923 103.139 171.328C103.139 171.84 102.915 172.331 102.467 172.8C102.041 173.248 101.465 173.611 100.739 173.888C100.035 174.165 99.2886 174.304 98.4993 174.304ZM113.875 192.288C113.683 192.288 113.363 192.256 112.915 192.192C112.744 192.171 112.349 192.128 111.731 192.064C111.133 192.021 110.515 192 109.875 192H104.147C103.421 192 103.059 191.797 103.059 191.392C103.059 191.243 103.165 191.008 103.379 190.688C103.613 190.368 103.773 190.144 103.859 190.016L111.571 179.616C111.827 179.275 111.987 179.029 112.051 178.88C112.115 178.709 112.072 178.624 111.923 178.624H109.459C109.032 178.624 108.712 178.667 108.499 178.752C108.307 178.837 108.136 178.987 107.987 179.2C107.837 179.392 107.603 179.776 107.283 180.352C107.155 180.608 107.048 180.8 106.963 180.928C106.685 181.248 106.408 181.483 106.131 181.632C105.875 181.781 105.576 181.856 105.235 181.856C104.808 181.856 104.595 181.653 104.595 181.248C104.595 180.992 104.701 180.683 104.915 180.32L106.483 177.056C106.696 176.672 106.931 176.427 107.187 176.32C107.443 176.213 107.731 176.16 108.051 176.16C108.179 176.16 108.541 176.213 109.139 176.32C109.757 176.427 110.696 176.48 111.955 176.48H117.907C118.099 176.48 118.237 176.512 118.323 176.576C118.408 176.64 118.483 176.736 118.547 176.864V176.928C118.547 177.035 118.515 177.173 118.451 177.344C118.387 177.493 118.323 177.621 118.259 177.728L109.939 188.96C109.917 189.003 109.843 189.109 109.715 189.28C109.608 189.451 109.544 189.589 109.523 189.696C109.501 189.803 109.555 189.856 109.683 189.856H112.627C113.16 189.856 113.523 189.792 113.715 189.664C113.907 189.515 114.173 189.12 114.515 188.48C114.643 188.224 114.867 187.829 115.187 187.296C115.443 186.997 115.731 186.784 116.051 186.656C116.371 186.507 116.68 186.432 116.979 186.432C117.405 186.432 117.619 186.603 117.619 186.944C117.619 187.179 117.491 187.488 117.235 187.872L115.475 191.2C115.155 191.669 114.867 191.968 114.611 192.096C114.376 192.224 114.131 192.288 113.875 192.288ZM125.118 192.384C123.176 192.384 121.651 191.829 120.542 190.72C119.454 189.611 118.91 188.149 118.91 186.336C118.91 184.587 119.326 182.923 120.158 181.344C121.011 179.765 122.174 178.496 123.646 177.536C125.139 176.576 126.792 176.096 128.606 176.096C129.886 176.096 130.931 176.448 131.742 177.152C132.574 177.835 132.99 178.699 132.99 179.744C132.99 180.811 132.744 181.717 132.254 182.464C131.763 183.211 130.899 183.84 129.662 184.352C128.424 184.864 126.707 185.259 124.51 185.536C124.318 185.557 124.179 185.621 124.094 185.728C124.03 185.813 124.019 185.995 124.062 186.272C124.168 187.104 124.467 187.808 124.958 188.384C125.448 188.96 126.227 189.248 127.294 189.248C127.955 189.248 128.574 189.088 129.15 188.768C129.726 188.448 130.302 188.011 130.878 187.456C131.112 187.264 131.336 187.168 131.55 187.168C131.72 187.168 131.859 187.221 131.966 187.328C132.072 187.435 132.126 187.584 132.126 187.776C132.126 187.925 132.083 188.085 131.998 188.256C131.4 189.451 130.504 190.443 129.31 191.232C128.136 192 126.739 192.384 125.118 192.384ZM124.606 183.744C126.056 183.445 127.23 183.04 128.126 182.528C129.043 181.995 129.512 181.163 129.534 180.032C129.534 178.816 129.032 178.208 128.03 178.208C127.368 178.208 126.739 178.485 126.142 179.04C125.566 179.595 125.096 180.288 124.734 181.12C124.371 181.931 124.158 182.677 124.094 183.36V183.456C124.094 183.691 124.168 183.808 124.318 183.808C124.382 183.808 124.478 183.787 124.606 183.744ZM134.892 192.16C134.594 192.16 134.359 192.096 134.188 191.968C134.039 191.819 133.964 191.627 133.964 191.392C133.964 191.349 133.986 191.243 134.028 191.072L134.22 190.336C134.647 188.757 134.967 187.509 135.18 186.592L136.46 180.896C136.503 180.555 136.524 180.331 136.524 180.224C136.524 179.712 136.332 179.371 135.948 179.2C135.778 179.136 135.564 179.072 135.308 179.008C135.074 178.944 134.892 178.869 134.764 178.784C134.658 178.699 134.604 178.581 134.604 178.432C134.604 178.133 134.732 177.909 134.988 177.76C135.244 177.589 135.628 177.419 136.14 177.248C138.466 176.608 140.045 176.288 140.877 176.288C141.261 176.288 141.527 176.341 141.677 176.448C141.847 176.555 141.932 176.747 141.932 177.024C141.932 177.173 141.922 177.301 141.901 177.408L141.356 179.712C141.335 179.797 141.325 179.893 141.325 180C141.325 180.149 141.367 180.224 141.453 180.224C141.538 180.224 141.676 180.085 141.868 179.808C142.53 178.72 143.287 177.835 144.141 177.152C144.994 176.448 145.869 176.096 146.765 176.096C147.682 176.096 148.365 176.416 148.812 177.056C149.282 177.675 149.474 178.464 149.389 179.424C149.367 180.469 149.101 181.28 148.589 181.856C148.098 182.432 147.511 182.72 146.829 182.72C146.445 182.72 146.146 182.645 145.932 182.496C145.741 182.347 145.559 182.101 145.389 181.76C145.367 181.632 145.325 181.408 145.26 181.088C145.218 180.747 145.111 180.491 144.941 180.32C144.791 180.128 144.546 180.032 144.205 180.032C143.714 180.032 143.191 180.256 142.637 180.704C142.082 181.152 141.57 181.803 141.101 182.656C140.653 183.488 140.311 184.448 140.076 185.536C139.693 187.605 139.415 189.227 139.245 190.4C139.202 190.869 139.063 191.221 138.828 191.456C138.594 191.691 138.178 191.861 137.581 191.968C136.983 192.075 136.087 192.139 134.892 192.16Z" fill="#FFF6E0"/>
<defs>
<linearGradient id="paint0_linear_427_3068" x1="80" y1="13.3333" x2="80" y2="146.667" gradientUnits="userSpaceOnUse">
<stop offset="0.9999" stop-color="#FFF6E0"/>
<stop offset="1" stop-color="#FFD260"/>
</linearGradient>
</defs>
</svg>
