<svg width="28" height="23" viewBox="0 0 28 23" fill="none" xmlns="http://www.w3.org/2000/svg">
<path d="M1.10833 12.4263C0.758333 11.7316 0.486111 11.0272 0.291667 10.3132C0.0972222 9.59912 0 8.87544 0 8.14211C0 5.9807 0.738889 4.16667 2.21667 2.7C3.69444 1.23333 5.52222 0.5 7.7 0.5C8.925 0.5 10.0917 0.755509 11.2 1.26653C12.3083 1.77832 13.2417 2.48772 14 3.39474C14.7583 2.48772 15.6917 1.77832 16.8 1.26653C17.9083 0.755509 19.075 0.5 20.3 0.5C22.4778 0.5 24.3056 1.23333 25.7833 2.7C27.2611 4.16667 28 5.9807 28 8.14211C28 8.87544 27.9028 9.59912 27.7083 10.3132C27.5139 11.0272 27.2417 11.7316 26.8917 12.4263C26.6778 12.0596 26.425 11.7316 26.1333 11.4421C25.8417 11.1526 25.5014 10.9211 25.1125 10.7474C25.2875 10.3035 25.4236 9.8693 25.5208 9.44474C25.6181 9.02018 25.6667 8.58597 25.6667 8.14211C25.6667 6.63684 25.1514 5.37281 24.1208 4.35C23.0903 3.32719 21.8167 2.81579 20.3 2.81579C18.725 2.81579 17.5148 3.24498 16.6693 4.10337C15.8231 4.96253 14.9333 5.92281 14 6.98421C13.0667 5.90351 12.1773 4.9386 11.3318 4.08947C10.4856 3.24035 9.275 2.81579 7.7 2.81579C6.18333 2.81579 4.90972 3.32719 3.87917 4.35C2.84861 5.37281 2.33333 6.63684 2.33333 8.14211C2.33333 8.58597 2.38194 9.02018 2.47917 9.44474C2.57639 9.8693 2.7125 10.3035 2.8875 10.7474C2.49861 10.9211 2.15833 11.1526 1.86667 11.4421C1.575 11.7316 1.32222 12.0596 1.10833 12.4263ZM0 22.5V20.6763C0 19.8272 0.432833 19.1471 1.2985 18.6361C2.16339 18.1243 3.28611 17.8684 4.66667 17.8684C4.91944 17.8684 5.1625 17.8731 5.39583 17.8823C5.62917 17.8923 5.85278 17.9167 6.06667 17.9553C5.79444 18.3412 5.59028 18.7561 5.45417 19.2C5.31806 19.6439 5.25 20.1167 5.25 20.6184V22.5H0ZM7 22.5V20.6184C7 19.364 7.64672 18.3509 8.94017 17.5789C10.2328 16.807 11.9194 16.4211 14 16.4211C16.1 16.4211 17.7917 16.807 19.075 17.5789C20.3583 18.3509 21 19.364 21 20.6184V22.5H7ZM22.75 22.5V20.6184C22.75 20.1167 22.6866 19.6439 22.5598 19.2C22.4338 18.7561 22.2444 18.3412 21.9917 17.9553C22.2056 17.9167 22.4245 17.8923 22.6485 17.8823C22.8717 17.8731 23.1 17.8684 23.3333 17.8684C24.7333 17.8684 25.8611 18.1243 26.7167 18.6361C27.5722 19.1471 28 19.8272 28 20.6763V22.5H22.75ZM4.66667 16.7105C4.025 16.7105 3.47589 16.484 3.01933 16.0308C2.562 15.5769 2.33333 15.0316 2.33333 14.3947C2.33333 13.7386 2.562 13.1886 3.01933 12.7447C3.47589 12.3009 4.025 12.0789 4.66667 12.0789C5.32778 12.0789 5.88194 12.3009 6.32917 12.7447C6.77639 13.1886 7 13.7386 7 14.3947C7 15.0316 6.77639 15.5769 6.32917 16.0308C5.88194 16.484 5.32778 16.7105 4.66667 16.7105ZM23.3333 16.7105C22.6917 16.7105 22.1422 16.484 21.6848 16.0308C21.2283 15.5769 21 15.0316 21 14.3947C21 13.7386 21.2283 13.1886 21.6848 12.7447C22.1422 12.3009 22.6917 12.0789 23.3333 12.0789C23.9944 12.0789 24.5486 12.3009 24.9958 12.7447C25.4431 13.1886 25.6667 13.7386 25.6667 14.3947C25.6667 15.0316 25.4431 15.5769 24.9958 16.0308C24.5486 16.484 23.9944 16.7105 23.3333 16.7105ZM14 15.5526C13.0278 15.5526 12.2014 15.2149 11.5208 14.5395C10.8403 13.864 10.5 13.0439 10.5 12.0789C10.5 11.0947 10.8403 10.2699 11.5208 9.60453C12.2014 8.93835 13.0278 8.60526 14 8.60526C14.9917 8.60526 15.8227 8.93835 16.4932 9.60453C17.1644 10.2699 17.5 11.0947 17.5 12.0789C17.5 13.0439 17.1644 13.864 16.4932 14.5395C15.8227 15.2149 14.9917 15.5526 14 15.5526Z" fill="#FFEFC6"/>
</svg>
