<svg width="20" height="28" viewBox="0 0 20 28" fill="none" xmlns="http://www.w3.org/2000/svg">
<path d="M10 27.3334C9.26667 27.3334 8.63867 27.0721 8.116 26.5494C7.59333 26.0268 7.33245 25.3992 7.33333 24.6667H12.6667C12.6667 25.4001 12.4053 26.0281 11.8827 26.5507C11.36 27.0734 10.7324 27.3343 10 27.3334ZM4.66667 23.3334V20.6667H15.3333V23.3334H4.66667ZM5 19.3334C3.46667 18.4223 2.24978 17.2001 1.34933 15.6667C0.44889 14.1334 -0.000887574 12.4667 1.31492e-06 10.6667C1.31492e-06 7.88897 0.972446 5.52764 2.91734 3.58275C4.86222 1.63786 7.22311 0.66586 10 0.666749C12.7778 0.666749 15.1391 1.63919 17.084 3.58408C19.0289 5.52897 20.0009 7.88986 20 10.6667C20 12.4667 19.5502 14.1334 18.6507 15.6667C17.7511 17.2001 16.5342 18.4223 15 19.3334H5ZM5.8 16.6667H14.2C15.2 15.9556 15.9724 15.0779 16.5173 14.0334C17.0622 12.989 17.3342 11.8667 17.3333 10.6667C17.3333 8.6223 16.6222 6.88897 15.2 5.46675C13.7778 4.04453 12.0444 3.33342 10 3.33342C7.95556 3.33342 6.22222 4.04453 4.8 5.46675C3.37778 6.88897 2.66667 8.6223 2.66667 10.6667C2.66667 11.8667 2.93911 12.989 3.484 14.0334C4.02889 15.0779 4.80089 15.9556 5.8 16.6667Z" fill="#200568"/>
</svg>
