<svg width="1366" height="768" viewBox="0 0 1366 768" fill="none" xmlns="http://www.w3.org/2000/svg">
<rect width="1366" height="768" fill="#200568"/>
<mask id="mask0_159_359" style="mask-type:alpha" maskUnits="userSpaceOnUse" x="0" y="0" width="1366" height="768">
<rect width="1366" height="768" fill="#46527D"/>
</mask>
<g mask="url(#mask0_159_359)">
<g filter="url(#filter0_f_159_359)">
<path fill-rule="evenodd" clip-rule="evenodd" d="M553.032 992.354C484.083 1042.1 390.985 1007.08 307.983 1027.97C171.085 1062.42 43.9064 1224.95 -79.5916 1151.54C-198.837 1080.66 -174.11 892.406 -143.104 759.836C-118.815 655.986 -1.27358 618.411 64.5304 535.326C142.621 436.729 143.619 233.792 271.179 236.762C400.329 239.768 402.86 445.777 487.702 545.178C553.457 622.216 688.65 643.639 703.145 742.853C717.949 844.186 634.843 933.326 553.032 992.354Z" fill="#7B28AD"/>
<path fill-rule="evenodd" clip-rule="evenodd" d="M1555.58 857.838C1466.98 911.439 1354.82 832.42 1251.83 842.661C1170.66 850.733 1103.42 907.58 1021.91 910.908C910.07 915.474 750.643 963.052 696.161 865.348C637.345 759.875 787.565 647.279 808.524 528.236C821.702 453.39 754.291 369.729 794.755 305.364C835.584 240.419 941.759 265.194 1002.97 218.947C1077 163.004 1094.86 45.4546 1181.75 12.9519C1276.23 -22.3879 1430.35 -47.7386 1476.63 41.7669C1534.55 153.758 1338.22 282.285 1382.15 400.48C1423.51 511.741 1636.31 473.606 1678.4 584.592C1714.5 679.793 1642.79 805.076 1555.58 857.838Z" fill="#7B28AD"/>
<path fill-rule="evenodd" clip-rule="evenodd" d="M-12.8578 33.6192C72.6982 -70.4658 241.835 10.3119 370.618 -29.0885C494.482 -66.9838 582.819 -214.555 709.351 -187.335C850.266 -157.021 987.276 -36.3516 1003.07 106.967C1018.2 244.355 864.627 328.829 778.116 436.789C718.734 510.893 675.685 606.044 583.869 630.095C495.183 653.325 417.877 582.167 330.725 553.979C211.144 515.302 56.6053 542.029 -12.6339 437.165C-89.6229 320.565 -101.719 141.726 -12.8578 33.6192Z" fill="#200568"/>
</g>
</g>
<defs>
<filter id="filter0_f_159_359" x="-568.671" y="-590.663" width="2656.62" height="2617.84" filterUnits="userSpaceOnUse" color-interpolation-filters="sRGB">
<feFlood flood-opacity="0" result="BackgroundImageFix"/>
<feBlend mode="normal" in="SourceGraphic" in2="BackgroundImageFix" result="shape"/>
<feGaussianBlur stdDeviation="200" result="effect1_foregroundBlur_159_359"/>
</filter>
</defs>
</svg>
