<svg width="16" height="11" viewBox="0 0 16 11" fill="none" xmlns="http://www.w3.org/2000/svg">
<path d="M5.45493 11C5.31675 11 5.18721 10.9793 5.0663 10.938C4.94539 10.8966 4.83311 10.8271 4.72948 10.7293L0.273085 6.49663C0.0830841 6.31617 -0.00777097 6.08223 0.000519991 5.7948C0.00881095 5.50737 0.108302 5.27376 0.298994 5.09395C0.488995 4.91349 0.730815 4.82326 1.02445 4.82326C1.31809 4.82326 1.55991 4.91349 1.74991 5.09395L5.45493 8.61296L14.2382 0.270693C14.4282 0.0902311 14.6745 0 14.9771 0C15.2797 0 15.5257 0.0902311 15.715 0.270693C15.905 0.451155 16 0.6851 16 0.972526C16 1.25995 15.905 1.49357 15.715 1.67338L6.18039 10.7293C6.07676 10.8277 5.96448 10.8976 5.84357 10.939C5.72266 10.9803 5.59312 11.0006 5.45493 11Z" fill="#FFD260"/>
</svg>
