<svg width="32" height="33" viewBox="0 0 32 33" fill="none" xmlns="http://www.w3.org/2000/svg">
<g clip-path="url(#clip0_167_155)">
<path d="M44.896 -8.49996H42.4146L36.3266 -2.41462C36.5363 -1.88024 36.5556 -1.28995 36.3812 -0.743015C36.2069 -0.196082 35.8495 0.274134 35.3692 0.588566C34.889 0.902996 34.3151 1.04247 33.744 0.983517C33.173 0.924568 32.6397 0.670797 32.2338 0.264881C31.8279 -0.141035 31.5741 -0.67434 31.5152 -1.24536C31.4562 -1.81638 31.5957 -2.39028 31.9101 -2.87056C32.2245 -3.35084 32.6948 -3.70821 33.2417 -3.88257C33.7886 -4.05692 34.3789 -4.03764 34.9133 -3.82796L41 -9.91463V-12.396C41.0001 -12.728 41.132 -13.0464 41.3666 -13.2813L43.6733 -15.588C43.7159 -15.631 43.7695 -15.6617 43.8283 -15.6765C43.887 -15.6913 43.9487 -15.6897 44.0066 -15.672C44.1253 -15.6373 44.2133 -15.5386 44.2373 -15.4173L44.8506 -12.3493L47.9173 -11.736C48.0373 -11.712 48.136 -11.624 48.1706 -11.5053C48.1882 -11.4476 48.1897 -11.3863 48.1752 -11.3279C48.1606 -11.2694 48.1305 -11.216 48.088 -11.1733L45.78 -8.86663C45.664 -8.75041 45.5262 -8.65821 45.3745 -8.59529C45.2228 -8.53237 45.0602 -8.49998 44.896 -8.49996Z" fill="#FFD260"/>
<path d="M3.50001 16.5C3.50001 19.8152 4.81697 22.9946 7.16117 25.3388C9.50538 27.683 12.6848 29 16 29C17.6415 29 19.267 28.6767 20.7836 28.0485C22.3001 27.4203 23.6781 26.4996 24.8388 25.3388C25.9996 24.1781 26.9203 22.8001 27.5485 21.2836C28.1767 19.767 28.5 18.1415 28.5 16.5C28.5 15.3027 28.332 14.1453 28.0187 13.0507C27.9564 12.7993 27.994 12.5336 28.1237 12.3095C28.2533 12.0853 28.4649 11.9202 28.7138 11.8489C28.9627 11.7775 29.2296 11.8055 29.4583 11.927C29.687 12.0484 29.8597 12.2538 29.94 12.5C30.3053 13.772 30.5 15.1133 30.5 16.5C30.5 24.508 24.008 31 16 31C7.99201 31 1.50001 24.508 1.50001 16.5C1.50001 8.49201 7.99201 2.00001 16 2.00001C17.3533 1.99867 18.6987 2.18667 20 2.55867C20.1269 2.59427 20.2455 2.65459 20.349 2.73617C20.4525 2.81775 20.5388 2.91898 20.6031 3.03404C20.6673 3.14911 20.7082 3.27573 20.7233 3.40664C20.7384 3.53755 20.7276 3.67016 20.6913 3.79685C20.655 3.92353 20.594 4.0418 20.5119 4.14485C20.4297 4.24789 20.328 4.33369 20.2126 4.3973C20.0972 4.46091 19.9704 4.50108 19.8394 4.5155C19.7084 4.52993 19.5758 4.51832 19.4493 4.48134C18.3276 4.16098 17.1666 3.99897 16 4.00001C12.6848 4.00001 9.50538 5.31697 7.16117 7.66117C4.81697 10.0054 3.50001 13.1848 3.50001 16.5Z" fill="#FFD260"/>
<path d="M16 29C19.3152 29 22.4946 27.683 24.8388 25.3388C27.183 22.9946 28.5 19.8152 28.5 16.5C28.5 14.8585 28.1767 13.2331 27.5485 11.7166C26.9203 10.2 25.9996 8.82202 24.8389 7.66129C23.6781 6.50055 22.3001 5.57981 20.7836 4.95163C19.267 4.32344 17.6415 4.00001 16 4.00001C14.8027 4.00001 13.6454 4.16812 12.5507 4.48145C12.2993 4.54374 12.0336 4.5061 11.8095 4.37645C11.5853 4.2468 11.4202 4.03525 11.3489 3.78633C11.2775 3.5374 11.3055 3.27051 11.427 3.04181C11.5484 2.8131 11.7538 2.64043 12 2.56012C13.272 2.19479 14.6133 2.00001 16 2.00001C24.008 2.00001 30.5 8.49201 30.5 16.5C30.5 24.508 24.008 31 16 31C7.99201 31 1.50001 24.508 1.50001 16.5C1.49867 15.1467 1.68668 13.8015 2.05868 12.5001C2.09428 12.3732 2.1546 12.2546 2.23618 12.1511C2.31776 12.0477 2.41899 11.9613 2.53405 11.8971C2.64912 11.8328 2.77574 11.792 2.90665 11.7768C3.03756 11.7617 3.17017 11.7726 3.29686 11.8089C3.42354 11.8451 3.54181 11.9061 3.64486 11.9883C3.7479 12.0704 3.8337 12.1721 3.89731 12.2875C3.96092 12.4029 4.00109 12.5298 4.01551 12.6608C4.02994 12.7918 4.01833 12.9243 3.98135 13.0508C3.66099 14.1725 3.49897 15.3334 3.50001 16.5C3.50001 19.8152 4.81697 22.9946 7.16117 25.3388C9.50538 27.683 12.6848 29 16 29Z" fill="#FFD260"/>
<path d="M9.50002 16.5C9.50374 17.3831 9.68741 18.2561 10.0398 19.0659C10.3922 19.8756 10.906 20.6051 11.5497 21.2096C12.1934 21.8142 12.9536 22.2812 13.7838 22.5822C14.6141 22.8832 15.4969 23.0118 16.3785 22.9601C17.2601 22.9085 18.1219 22.6777 18.9114 22.2819C19.7008 21.8861 20.4013 21.3336 20.97 20.658C21.5388 19.9824 21.9639 19.198 22.2194 18.3527C22.4749 17.5073 22.5554 16.6188 22.456 15.7413C22.428 15.5636 22.4486 15.3816 22.5156 15.2146C22.5826 15.0477 22.6936 14.9019 22.8366 14.7929C22.9797 14.6838 23.1496 14.6155 23.3284 14.5952C23.5072 14.5748 23.6881 14.6032 23.852 14.6773C24.1867 14.8266 24.412 15.1453 24.4414 15.5106C24.6484 17.2643 24.3039 19.0389 23.4559 20.5878C22.6078 22.1366 21.2983 23.3828 19.7093 24.1531C18.1203 24.9234 16.3309 25.1795 14.5896 24.8859C12.8484 24.5922 11.2418 23.7634 9.99335 22.5146C8.74522 21.2672 7.91619 19.6623 7.62126 17.9225C7.32632 16.1827 7.5801 14.3942 8.34739 12.8051C9.11467 11.216 10.3574 9.90506 11.9033 9.05408C13.4492 8.2031 15.2216 7.85427 16.9747 8.05597C17.1072 8.06826 17.236 8.10689 17.3534 8.16959C17.4708 8.23228 17.5745 8.31778 17.6584 8.42108C17.7423 8.52438 17.8048 8.64339 17.8421 8.77114C17.8795 8.89889 17.8909 9.03281 17.8759 9.16505C17.8608 9.29729 17.8194 9.42518 17.7543 9.54124C17.6891 9.65729 17.6014 9.75918 17.4964 9.84091C17.3914 9.92265 17.2711 9.98259 17.1426 10.0172C17.014 10.0519 16.8799 10.0605 16.748 10.0426C15.8374 9.93735 14.9148 10.0258 14.0408 10.3023C13.1668 10.5787 12.3611 11.0369 11.6766 11.6467C10.9922 12.2565 10.4444 13.0041 10.0693 13.8405C9.69415 14.677 9.50016 15.5833 9.50002 16.5Z" fill="#FFD260"/>
<path d="M15.9985 23.003C16.8816 22.9993 17.7547 22.8156 18.5644 22.4632C19.3742 22.1108 20.1036 21.597 20.7082 20.9533C21.3127 20.3096 21.7797 19.5494 22.0807 18.7192C22.3817 17.8889 22.5103 17.0061 22.4587 16.1245C22.407 15.2429 22.1763 14.3811 21.7805 13.5916C21.3847 12.8022 20.8321 12.1017 20.1565 11.533C19.481 10.9642 18.6966 10.5391 17.8512 10.2836C17.0059 10.0281 16.1173 9.94761 15.2398 10.047C15.0621 10.075 14.8801 10.0544 14.7132 9.98738C14.5462 9.92037 14.4005 9.80945 14.2914 9.66636C14.1824 9.52328 14.114 9.35335 14.0937 9.1746C14.0733 8.99585 14.1017 8.81492 14.1758 8.65098C14.3252 8.31631 14.6438 8.09098 15.0092 8.06165C16.7628 7.85462 18.5374 8.19908 20.0863 9.04713C21.6352 9.89519 22.8813 11.2047 23.6516 12.7937C24.4219 14.3827 24.6781 16.1721 24.3844 17.9134C24.0908 19.6546 23.262 21.2612 22.0132 22.5096C20.7657 23.7578 19.1608 24.5868 17.421 24.8817C15.6812 25.1767 13.8927 24.9229 12.3036 24.1556C10.7145 23.3883 9.40359 22.1456 8.55261 20.5997C7.70164 19.0538 7.35281 17.2814 7.5545 15.5283C7.5668 15.3958 7.60543 15.267 7.66812 15.1496C7.73082 15.0322 7.81632 14.9285 7.91962 14.8446C8.02291 14.7607 8.14192 14.6982 8.26967 14.6609C8.39742 14.6235 8.53134 14.6121 8.66358 14.6271C8.79582 14.6422 8.92372 14.6836 9.03977 14.7487C9.15583 14.8139 9.25771 14.9016 9.33945 15.0066C9.42118 15.1116 9.48113 15.2319 9.51576 15.3604C9.5504 15.489 9.55904 15.6231 9.54117 15.755C9.43589 16.6656 9.52437 17.5882 9.80082 18.4622C10.0773 19.3362 10.5354 20.1419 11.1452 20.8264C11.755 21.5108 12.5026 22.0586 13.3391 22.4337C14.1755 22.8088 15.0818 23.0028 15.9985 23.003Z" fill="#FFD260"/>
</g>
<defs>
<clipPath id="clip0_167_155">
<rect width="32" height="32" fill="white" transform="translate(0 0.5)"/>
</clipPath>
</defs>
</svg>
