<svg width="500" height="500" viewBox="0 0 500 500" fill="none" xmlns="http://www.w3.org/2000/svg">
<path d="M460.5 313.7C446.3 351.8 417.2 393 376.3 405.2C314.5 423.6 307.1 473.4 196.5 468.8C179.2 468.1 163.3 465.7 148.7 461.8C140.8 459.7 133.3 457.2 126.2 454.3C61.5 428.2 27.8 370.5 25 310.2C21.3 230.9 76.6 193.1 112.6 171C148.6 148.9 191.9 63.1 300.7 66.8C317.3 67.4 333.8 69.6 349.9 74C386.5 83.9 423.7 105.8 445.4 137.9C447 140.3 448.6 142.8 450.1 145.3C479 194.3 479.9 261.8 460.5 313.7Z" fill="#8EA6FC"/>
<path opacity="0.8" d="M460.5 313.7C446.3 351.8 417.2 393 376.3 405.2C314.5 423.6 307.1 473.4 196.5 468.8C179.2 468.1 163.3 465.7 148.7 461.8C140.8 459.7 133.3 457.2 126.2 454.3C61.5 428.2 27.8 370.5 25 310.2C21.3 230.9 76.6 193.1 112.6 171C148.6 148.9 191.9 63.1 300.7 66.8C317.3 67.4 333.8 69.6 349.9 74C386.5 83.9 423.7 105.8 445.4 137.9C447 140.3 448.6 142.8 450.1 145.3C479 194.3 479.9 261.8 460.5 313.7Z" fill="white"/>
<g opacity="0.3">
<path d="M142.833 135.623C155.759 122.697 155.759 101.739 142.833 88.8129C129.907 75.8867 108.949 75.8867 96.0229 88.8129C83.0967 101.739 83.0967 122.697 96.0229 135.623C108.949 148.549 129.907 148.549 142.833 135.623Z" fill="black"/>
<path d="M135.418 126.748C143.441 117.919 142.787 104.259 133.958 96.2361C125.129 88.2136 111.469 88.8674 103.446 97.6963C95.4237 106.525 96.0774 120.186 104.906 128.208C113.735 136.231 127.396 135.577 135.418 126.748Z" fill="white"/>
<path d="M119.4 123.6C125.696 123.6 130.8 118.496 130.8 112.2C130.8 105.904 125.696 100.8 119.4 100.8C113.104 100.8 108 105.904 108 112.2C108 118.496 113.104 123.6 119.4 123.6Z" fill="black"/>
</g>
<path d="M106.3 118.7L105.4 125.6L118.3 112.7L100.1 112.9L105.7 117.1L73.5999 130.5L64.6999 128.9L56.2 132.5L61.7999 135.7C61.6999 135.9 61.6 136.2 61.7 136.4C61.8 136.7 61.9999 136.8 62.2999 136.9L60.5999 143.1L69.0999 139.5L74.0999 132.1L106.3 118.7Z" fill="#263238"/>
<path opacity="0.3" d="M428.3 34.8V30.1H423.8V34.8H410.7V30.1H406.2V34.8H393.1V30.1H388.6V34.8H375.5V30.1H371V34.8H358V30.1H353.5V34.8H337.3V130H441.1V34.8H428.3ZM353.7 123H344.5V113.8H353.7V123ZM353.7 109.9H344.5V100.7H353.7V109.9ZM353.7 96.9H344.5V87.7H353.7V96.9ZM353.7 83.8H344.5V74.6H353.7V83.8ZM367.1 123H357.9V113.8H367.1V123ZM367.1 109.9H357.9V100.7H367.1V109.9ZM367.1 96.9H357.9V87.7H367.1V96.9ZM367.1 83.8H357.9V74.6H367.1V83.8ZM380.5 123H371.3V113.8H380.5V123ZM380.5 109.9H371.3V100.7H380.5V109.9ZM380.5 96.9H371.3V87.7H380.5V96.9ZM380.5 83.8H371.3V74.6H380.5V83.8ZM393.9 123H384.7V113.8H393.9V123ZM393.9 109.9H384.7V100.7H393.9V109.9ZM393.9 96.9H384.7V87.7H393.9V96.9ZM393.9 83.8H384.7V74.6H393.9V83.8ZM407.3 123H398.1V113.8H407.3V123ZM407.3 109.9H398.1V100.7H407.3V109.9ZM407.3 96.9H398.1V87.7H407.3V96.9ZM407.3 83.8H398.1V74.6H407.3V83.8ZM420.7 123H411.5V113.8H420.7V123ZM420.7 109.9H411.5V100.7H420.7V109.9ZM420.7 96.9H411.5V87.7H420.7V96.9ZM420.7 83.8H411.5V74.6H420.7V83.8ZM434.1 123H424.9V113.8H434.1V123ZM434.1 109.9H424.9V100.7H434.1V109.9ZM434.1 96.9H424.9V87.7H434.1V96.9ZM434.1 83.8H424.9V74.6H434.1V83.8ZM435 64.3H343.6V42.7H435V64.3Z" fill="black"/>
<path d="M369.4 160.2C369.4 160.2 370.9 145.1 364.9 138.3C358.9 131.5 349.8 139.8 352.1 148.9C354.3 158 369.4 160.2 369.4 160.2Z" fill="#8EA6FC"/>
<path d="M352 227.5C352 227.5 354.4 204 344.9 193.4C335.5 182.8 321.4 195.8 324.9 209.9C328.5 224 352 227.5 352 227.5Z" fill="#8EA6FC"/>
<path d="M346.9 265.6C346.9 265.6 344.3 242.1 332.9 233.7C321.5 225.3 310.4 240.9 316.8 254C323.2 267.1 346.9 265.6 346.9 265.6Z" fill="#8EA6FC"/>
<path d="M370.9 285.3C357 288 344.5 308.1 344.5 308.1C344.5 308.1 365.3 319.6 376.7 310.6C388.1 301.5 384.8 282.6 370.9 285.3Z" fill="#8EA6FC"/>
<path d="M375.5 320.7C355.6 324.5 337.8 353.3 337.8 353.3C337.8 353.3 367.6 369.8 383.9 356.8C400.2 343.9 395.4 316.9 375.5 320.7Z" fill="#8EA6FC"/>
<path d="M343 308.4C343.6 308.4 344 308.4 344 308.4C344 308.4 343.9 307.3 343.6 305.4C345.2 296.5 346.8 285.3 348.7 271.9C349 270.1 349.2 268.2 349.5 266.3C354.9 268.9 370.5 275.2 379.8 267.8C391.2 258.7 387.9 239.9 373.9 242.6C363.8 244.5 354.5 255.6 350.2 261.6C351.4 253.1 352.8 244 354.3 234.4C354.6 232.8 354.8 231.1 355.2 229.4C360.5 233.3 373.6 241.6 383.8 236.6C396.8 230.1 397.5 211 383.3 210.7C373.1 210.5 361.8 219.3 356.2 224.3C358.2 214.2 361.1 202.6 364.1 191.1C367.4 193.5 376 199.2 382.7 195.9C391.1 191.7 391.5 179.5 382.4 179.3C375.8 179.2 368.5 184.9 364.9 188.1C367.3 178.9 369.8 170 372.1 162.1C375.8 164.8 383.7 169.3 389.8 166.3C398.2 162.1 398.6 149.9 389.5 149.7C383.7 149.6 377.4 154 373.5 157.2C376.8 145.7 379.4 137.3 380.1 135.1C383.5 132.9 393.7 125.9 395.4 121.7C397.4 116.7 395 110.9 390 108.9C385 106.9 379.2 109.3 377.2 114.3C375.6 118.3 377.7 129.7 378.7 134.1L378.1 133.9C378 134.2 374.6 145.1 370.3 160.3C370.1 160.5 370 160.6 370 160.6C370 160.6 370.1 160.6 370.2 160.7C367.8 168.9 365.2 178.3 362.7 187.9C362.8 183.3 362.6 173.6 358 168.5C352 161.7 342.9 170 345.2 179.1C347.2 187.2 359.5 189.9 362.1 190.3C358.7 203.2 355.5 216.4 353.4 227.3C353.1 227.6 352.9 227.8 352.9 227.8C352.9 227.8 353 227.9 353.2 228.1C352.8 230.3 352.4 232.4 352.1 234.4C349.9 248 348.1 260.8 346.5 272C345 282.6 343.7 291.7 342.4 299.5C340.5 292 336.9 281.8 330.2 276.9C318.8 268.5 307.7 284.1 314.1 297.2C319 307.2 334 308.7 340.8 308.9C340.5 310.2 340.3 311.5 340 312.7C339 317.6 337.3 330.9 335.7 345.6C333.5 334.8 328.2 316.7 317.1 308.6C300.8 296.6 284.9 318.9 294 337.6C301.7 353.3 326.9 354.4 334.7 354.3C332.5 374.8 330.6 395.1 330.5 396.6L332.9 396.8C333 396.1 339.6 325.5 342.3 313.2C342.4 311.4 342.7 309.9 343 308.4Z" fill="#8EA6FC"/>
<path d="M163.9 233.4C163.9 233.4 163 224.6 166.5 220.7C170 216.7 175.3 221.6 174 226.9C172.7 232.1 163.9 233.4 163.9 233.4Z" fill="#8EA6FC"/>
<path d="M174 272.6C174 272.6 172.6 258.9 178.1 252.7C183.6 246.5 191.8 254.1 189.7 262.3C187.7 270.5 174 272.6 174 272.6Z" fill="#8EA6FC"/>
<path d="M176.9 294.8C176.9 294.8 178.4 281.1 185 276.2C191.6 271.3 198.1 280.4 194.4 288C190.8 295.6 176.9 294.8 176.9 294.8Z" fill="#8EA6FC"/>
<path d="M163 306.2C171.1 307.8 178.3 319.5 178.3 319.5C178.3 319.5 166.2 326.2 159.5 320.9C152.9 315.6 154.9 304.7 163 306.2Z" fill="#8EA6FC"/>
<path d="M160.3 326.8C171.9 329 182.3 345.8 182.3 345.8C182.3 345.8 165 355.4 155.5 347.8C145.9 340.3 148.7 324.6 160.3 326.8Z" fill="#8EA6FC"/>
<path d="M179.2 319.7C178.8 319.7 178.6 319.7 178.6 319.7C178.6 319.7 178.7 319 178.9 318C178 312.8 177 306.3 175.9 298.5C175.7 297.4 175.6 296.4 175.4 295.2C172.2 296.7 163.2 300.4 157.8 296.1C151.2 290.8 153.1 279.8 161.2 281.4C167.1 282.5 172.5 289 175 292.4C174.3 287.4 173.5 282.1 172.6 276.6C172.5 275.7 172.3 274.7 172.1 273.7C169 276 161.4 280.8 155.5 277.9C147.9 274.1 147.5 263 155.8 262.8C161.7 262.7 168.3 267.8 171.6 270.7C170.4 264.8 168.8 258.1 167 251.4C165.1 252.8 160.1 256.1 156.2 254.2C151.3 251.8 151.1 244.6 156.4 244.5C160.2 244.4 164.5 247.8 166.6 249.6C165.2 244.3 163.7 239.1 162.4 234.5C160.2 236 155.7 238.7 152.1 236.9C147.2 234.5 147 227.3 152.3 227.2C155.7 227.1 159.3 229.7 161.6 231.6C159.7 224.9 158.2 220 157.8 218.7C155.8 217.4 149.9 213.3 148.9 210.9C147.7 208 149.1 204.6 152.1 203.4C155 202.2 158.4 203.6 159.6 206.6C160.6 208.9 159.3 215.5 158.7 218.1L159.1 218C159.1 218.2 161.1 224.5 163.7 233.4C163.8 233.5 163.9 233.6 163.9 233.6C163.9 233.6 163.9 233.6 163.8 233.7C165.2 238.5 166.7 244 168.2 249.5C168.1 246.8 168.3 241.2 170.9 238.2C174.4 234.2 179.7 239.1 178.4 244.4C177.2 249.1 170.1 250.7 168.6 250.9C170.6 258.4 172.4 266.1 173.6 272.5C173.8 272.7 173.9 272.8 173.9 272.8C173.9 272.8 173.8 272.9 173.7 273C173.9 274.3 174.2 275.5 174.3 276.7C175.6 284.6 176.6 292.1 177.5 298.6C178.4 304.7 179.1 310.1 179.9 314.6C181 310.2 183.1 304.3 187 301.4C193.6 296.5 200.1 305.6 196.4 313.2C193.6 319 184.8 319.9 180.8 320C181 320.8 181.1 321.5 181.3 322.2C181.9 325 182.8 332.8 183.8 341.3C185.1 335 188.2 324.5 194.6 319.7C204.1 312.7 213.4 325.7 208 336.6C203.5 345.7 188.9 346.4 184.3 346.3C185.6 358.2 186.7 370 186.8 370.9L185.4 371C185.4 370.6 181.5 329.5 179.9 322.3C179.6 321.4 179.4 320.6 179.2 319.7Z" fill="#8EA6FC"/>
<path d="M55.9001 341.8C55.9001 341.8 53.6001 336.7 54.9001 333.6C56.2001 330.5 60.4001 332.3 60.6001 335.8C60.9001 339.2 55.9001 341.8 55.9001 341.8Z" fill="#8EA6FC"/>
<path d="M69.9002 363.2C69.9002 363.2 66.3002 355.3 68.3002 350.4C70.3002 345.6 76.8002 348.4 77.2002 353.8C77.7002 359.2 69.9002 363.2 69.9002 363.2Z" fill="#8EA6FC"/>
<path d="M76.2 376C76.2 376 74.3 367.5 77.3 363.2C80.3 358.9 86 363.1 85.3 368.4C84.6 373.7 76.2 376 76.2 376Z" fill="#8EA6FC"/>
<path d="M70.1002 385.7C75.3002 385 82.0002 390.6 82.0002 390.6C82.0002 390.6 76.1002 397.1 71.0002 395.3C66.0002 393.3 64.9002 386.4 70.1002 385.7Z" fill="#8EA6FC"/>
<path d="M72.7002 398.6C80.1002 397.6 89.7002 405.5 89.7002 405.5C89.7002 405.5 81.2002 414.8 74.0002 412.2C66.8002 409.6 65.3002 399.6 72.7002 398.6Z" fill="#8EA6FC"/>
<path d="M82.6001 390.4C82.4001 390.5 82.3001 390.5 82.3001 390.5C82.3001 390.5 82.2001 390.1 82.1001 389.4C80.5001 386.5 78.6001 382.7 76.4001 378.3C76.1001 377.7 75.8001 377.1 75.5001 376.4C73.9001 377.9 69.2001 382 65.1001 380.5C60.1001 378.7 59.0001 371.7 64.2001 371C67.9001 370.5 72.5001 373.3 74.7001 374.8C73.3001 372 71.7001 368.9 70.1001 365.8C69.8001 365.3 69.5001 364.7 69.2001 364.1C67.8001 366.1 64.2001 370.5 60.1001 370C54.8001 369.3 52.3001 362.7 57.2001 360.9C60.7001 359.6 65.7001 361.4 68.3001 362.4C66.4001 359.1 64.0001 355.4 61.6001 351.7C60.8001 352.9 58.4001 355.9 55.7001 355.6C52.3001 355.1 50.7001 350.9 53.8001 349.8C56.1001 349 59.3001 350.1 60.9001 350.8C59.0001 347.9 57.0001 345.1 55.3001 342.6C54.3001 344 52.1001 346.5 49.6001 346.1C46.2001 345.6 44.6001 341.4 47.7001 340.3C49.7001 339.6 52.4001 340.4 54.2001 341C51.7001 337.4 49.8001 334.7 49.3001 334.1C47.9001 333.7 43.5001 332.5 42.4001 331.2C41.1001 329.7 41.3001 327.4 42.8001 326.1C44.3001 324.8 46.6001 325 47.9001 326.5C48.9001 327.7 49.5001 331.9 49.7001 333.6L49.9001 333.5C50.0001 333.6 52.4001 337 55.8001 341.8C55.9001 341.8 55.9001 341.9 55.9001 341.9C55.9001 341.9 55.9001 341.9 55.9001 342C57.7001 344.6 59.7001 347.6 61.7001 350.6C61.1001 349 60.1001 345.6 61.0001 343.3C62.3001 340.2 66.5001 342 66.7001 345.5C66.9001 348.6 63.0001 350.9 62.1001 351.4C64.8001 355.5 67.5001 359.7 69.5001 363.3C69.6001 363.4 69.7001 363.4 69.7001 363.4C69.7001 363.4 69.7001 363.5 69.6001 363.5C70.0001 364.2 70.4001 364.9 70.7001 365.6C73.1001 370.1 75.2001 374.3 77.1001 378.1C78.9001 381.6 80.4001 384.7 81.8001 387.2C81.6001 384.3 81.6001 380.4 83.4001 377.9C86.4001 373.6 92.1001 377.8 91.4001 383.1C90.9001 387.2 85.8001 389.5 83.4001 390.3C83.6001 390.7 83.9001 391.2 84.1001 391.5C85.0001 393.1 87.2001 397.5 89.5001 402.5C89.0001 398.5 88.7001 391.5 91.6001 387.4C95.9001 381.3 104.1 387.2 103.1 394.8C102.3 401.2 93.6001 404.5 90.8001 405.4C94.0001 412.3 97.0001 419.2 97.3001 419.7L96.5001 420.1C96.4001 419.9 85.7001 396 83.4001 392C83.2001 391.4 82.9001 390.9 82.6001 390.4Z" fill="#8EA6FC"/>
<path d="M446.2 369.3C446.2 369.3 449.9 365.1 453.3 365C456.7 364.9 456.7 369.5 453.7 371.1C450.6 372.9 446.2 369.3 446.2 369.3Z" fill="#8EA6FC"/>
<path d="M432.4 390.9C432.4 390.9 438.2 384.4 443.4 384.3C448.6 384.2 448.7 391.3 444 393.8C439.2 396.4 432.4 390.9 432.4 390.9Z" fill="#8EA6FC"/>
<path d="M423.4 401.8C423.4 401.8 430.4 396.6 435.5 397.6C440.6 398.6 439.2 405.5 434.1 407C428.9 408.6 423.4 401.8 423.4 401.8Z" fill="#8EA6FC"/>
<path d="M412 400.3C414.8 404.7 412.4 413.1 412.4 413.1C412.4 413.1 404.1 410.4 403.7 405C403.3 399.7 409.3 395.9 412 400.3Z" fill="#8EA6FC"/>
<path d="M401.3 407.9C405.3 414.2 401.9 426.3 401.9 426.3C401.9 426.3 390 422.4 389.4 414.7C388.9 407.1 397.3 401.6 401.3 407.9Z" fill="#8EA6FC"/>
<path d="M412.8 413.6C412.6 413.4 412.6 413.3 412.6 413.3C412.6 413.3 412.9 413.1 413.5 412.7C415.5 410 418.1 406.8 421.3 402.9C421.7 402.4 422.2 401.8 422.6 401.3C420.5 400.5 414.9 397.9 414.6 393.5C414.2 388.1 420.1 384.3 422.9 388.8C424.9 392 424.2 397.3 423.7 400C425.7 397.5 427.8 394.9 430 392.1C430.4 391.6 430.8 391.1 431.1 390.6C428.7 390.1 423.2 388.7 422 384.7C420.5 379.6 425.5 374.6 429.1 378.3C431.7 381 432.2 386.3 432.2 389C434.4 385.9 436.9 382.2 439.2 378.5C437.7 378.2 434 377.3 433.2 374.7C432.2 371.4 435.4 368.2 437.8 370.6C439.5 372.4 439.8 375.8 439.8 377.5C441.7 374.5 443.5 371.6 445 369C443.3 368.7 440.1 367.7 439.4 365.3C438.4 362 441.6 358.8 444 361.2C445.5 362.7 445.9 365.5 446 367.4C448.3 363.6 449.9 360.8 450.3 360.1C450.1 358.6 449.4 354.1 450.1 352.6C451 350.8 453.1 350 454.9 350.8C456.7 351.7 457.5 353.8 456.7 355.6C456 357.1 452.4 359.3 451 360.2L451.2 360.3C451.1 360.4 449 364.1 446 369C446 369.1 446 369.1 446 369.1C446 369.1 446 369.1 445.9 369.1C444.3 371.8 442.4 374.9 440.4 378C441.6 376.8 444.3 374.4 446.8 374.4C450.2 374.3 450.2 378.9 447.2 380.5C444.5 382 440.7 379.3 439.9 378.8C437.3 383 434.5 387.1 432.1 390.4C432.1 390.6 432.1 390.6 432.1 390.6C432.1 390.6 432 390.6 431.9 390.6C431.4 391.3 430.9 391.9 430.5 392.5C427.4 396.5 424.4 400.2 421.7 403.4C419.2 406.5 417.1 409.1 415.3 411.4C417.8 410 421.5 408.5 424.5 409C429.6 410 428.2 416.9 423.1 418.4C419.2 419.6 415 415.9 413.2 414.1C412.9 414.5 412.6 414.9 412.4 415.3C411.3 416.8 408.1 420.6 404.6 424.7C408.1 422.6 414.3 419.5 419.3 420.4C426.6 421.8 424.6 431.7 417.3 433.9C411.1 435.8 404.5 429.2 402.6 427.1C397.6 432.8 392.6 438.4 392.2 438.9L391.5 438.3C391.7 438.1 409.1 418.6 411.8 414.8C412.1 414.5 412.4 414.1 412.8 413.6Z" fill="#8EA6FC"/>
<path d="M417.5 297.5L415 300L411.9 301.5L409.8 308.6L412 309.3L413.5 307.7L414.9 309.2L413.1 314.4C413.1 314.4 410.6 315.1 410.6 315.7C410.6 316.3 412.2 317.6 412.2 317.6L415.1 316.3L423.1 315.4L425.4 313.9L422.9 300.4L417.5 297.5Z" fill="#CCCCCC" stroke="#263238" stroke-miterlimit="10" stroke-linecap="round" stroke-linejoin="round"/>
<path d="M414.9 316.4L417.8 311.7" stroke="#263238" stroke-miterlimit="10" stroke-linecap="round" stroke-linejoin="round"/>
<path d="M418.7 316L420.7 311.4" stroke="#263238" stroke-miterlimit="10" stroke-linecap="round" stroke-linejoin="round"/>
<path d="M422.9 315.5L423.6 311.5" stroke="#263238" stroke-miterlimit="10" stroke-linecap="round" stroke-linejoin="round"/>
<path d="M411.5 236.5L430.9 267.3L423.8 300.7L416.2 299L415.7 267.8L403.5 255.6L411.5 236.5Z" fill="white" stroke="#263238" stroke-miterlimit="10" stroke-linecap="round" stroke-linejoin="round"/>
<path d="M396.4 226.2L411.5 236.5L394.8 279.7L366.9 271.5L364.1 246.8L367.4 225.2L381.1 223.7L396.4 226.2Z" fill="white" stroke="#263238" stroke-miterlimit="10" stroke-linecap="round" stroke-linejoin="round"/>
<path d="M382.8 235L385.6 238C387.4 239.9 390.5 239.6 391.8 237.4L398.3 226.5L393.8 221.9L383.9 222.3L379.7 224.5L377.8 230C376.7 233.2 379.7 236.2 382.8 235Z" fill="white" stroke="#263238" stroke-miterlimit="10" stroke-linecap="round" stroke-linejoin="round"/>
<path d="M386.7 193.5C386.7 193.5 382 196.6 381.4 197.9C380.8 199.2 380.6 201.4 380.6 201.4L375.3 203.5L377.6 206.9C377.6 206.9 375.6 214.6 377 215.8C378.4 217 383.3 219.9 383.3 219.9L383.2 229.5C383.2 231.8 385.7 233.1 387.6 231.8L396.1 226L398.7 220.1C398.7 220.1 407.2 213.1 407.1 208.8C407 204.5 404.9 197.8 398.7 194.3C392.4 190.8 387.2 192.4 387.2 192.4L386.7 193.5Z" fill="#CCCCCC" stroke="#263238" stroke-miterlimit="10" stroke-linecap="round" stroke-linejoin="round"/>
<path d="M389.5 193.1C389.5 193.1 393 193.8 389.7 202.1C386.4 210.4 383.2 216.7 388.1 221.9C393 227.2 396.4 230.4 394 234.1C391.7 237.8 384.8 236.5 386.8 244.8C388.8 253.1 395.4 254.8 398.3 250.4C401.2 246 399.7 238.4 400 236.9C400.3 235.3 401.1 234.5 401.1 234.5L403 234.9L414.4 240.9C414.4 240.9 414.3 239.8 415 232.6C415.8 225.5 409.3 224.5 410.6 218.2C411.9 211.8 418.8 213.5 416.3 204.5C413.8 195.4 399.2 189.2 399.2 189.2C399.2 189.2 393.3 179.1 386.6 184.4C379.9 189.7 384.4 195.1 384.4 195.1L389.5 193.1Z" fill="#263238" stroke="#263238" stroke-miterlimit="10" stroke-linecap="round" stroke-linejoin="round"/>
<path d="M383.2 202.2C383 203 383.2 203.8 383.6 203.9C384 204 384.6 203.4 384.8 202.6C385 201.8 384.8 201 384.4 200.9C383.9 200.8 383.4 201.3 383.2 202.2Z" fill="#263238"/>
<path d="M387.6 200.2C387.6 200.2 386.3 197.8 383.6 198.6" stroke="#263238" stroke-miterlimit="10" stroke-linecap="round" stroke-linejoin="round"/>
<path d="M329.3 225.1L328.9 220.7C328.9 220.7 329.3 217.8 328.9 216.3C328.5 214.8 327.9 213.1 327.4 211.8C326.9 210.5 326.2 209.8 325.5 211C324.8 212.2 325.1 214.6 325.1 214.6C325.1 214.6 324.6 212.2 323.9 211.3C323.1 210.3 320.5 209.5 318 208.7C315.4 207.9 316.6 209.3 317 210C317.4 210.7 319.8 211.9 319.8 211.9C319.8 211.9 316 210.5 314.9 210.2C313.8 209.9 312.1 211.2 313.3 211.9C314.5 212.6 317.1 213.4 317.1 213.4C317.1 213.4 314.2 214.1 313.1 214.7C312 215.3 312.5 216.6 313.2 216.6C313.9 216.6 316 216.3 316 216.3C316 216.3 314.2 217.7 314.5 218.6C314.9 219.4 318.4 218.3 318.4 218.3C318.4 218.3 318.9 220.5 320.5 222C322.1 223.4 324.1 224.5 324.1 224.5L327.2 228.2L329.3 225.1Z" fill="#CCCCCC" stroke="#263238" stroke-miterlimit="10" stroke-linecap="round" stroke-linejoin="round"/>
<path d="M319.8 212L318.7 217" stroke="#263238" stroke-miterlimit="10" stroke-linecap="round" stroke-linejoin="round"/>
<path d="M325.2 214.7L325.4 216.4C325.4 216.4 323.1 217.8 323.5 220" fill="#CCCCCC"/>
<path d="M325.2 214.7L325.4 216.4C325.4 216.4 323.1 217.8 323.5 220" stroke="#263238" stroke-miterlimit="10" stroke-linecap="round" stroke-linejoin="round"/>
<path d="M367.4 225.2L345.6 241.8L329.4 224.2L325 228L341.7 257.1L364.4 244.6L367.4 225.2Z" fill="white" stroke="#263238" stroke-miterlimit="10" stroke-linecap="round" stroke-linejoin="round"/>
<path d="M400 334.3L400.1 308.7C400.5 292 395.6 280.7 394.7 279.9C394.4 279.7 394.2 279.6 394.2 279.6L366.3 271.4C366.3 271.4 362.7 281.6 359.9 283.4C328.4 303.9 321.1 313.9 321.4 314.4C329.6 329.6 356.3 355.1 355.4 353.3L362.1 351L341.5 317L371.9 305L377.9 334.1L408.5 391.1L416.8 388.1L400 334.3Z" fill="#263238" stroke="#263238" stroke-miterlimit="10" stroke-linecap="round" stroke-linejoin="round"/>
<path d="M355.5 353.4L352.3 359.7C352.3 359.7 349.1 360.7 347.9 361.3C346.7 361.8 346.1 362 345.5 363C344.9 364 344.8 365.3 344.8 365.3L360.6 365.9C360.6 365.9 365.5 361 367.7 358.8C369.9 356.5 362.1 351.1 362.1 351.1L355.5 353.4Z" fill="white" stroke="#263238" stroke-miterlimit="10" stroke-linecap="round" stroke-linejoin="round"/>
<path d="M416.9 388.1C416.9 388.1 416.7 392 416.6 395.5C416.5 399 412.1 404.3 409.5 406.2C406.9 408.1 404.5 408.3 405.3 403.5C406.1 398.6 408.5 391.1 408.5 391.1C408.5 391.1 416.1 387.9 416.9 388.1Z" fill="white" stroke="#263238" stroke-miterlimit="10" stroke-linecap="round" stroke-linejoin="round"/>
<path d="M234.2 45.2L216.4 57.5" stroke="#263238" stroke-miterlimit="10" stroke-linecap="round" stroke-linejoin="round"/>
<path d="M236.7 43.5L235.5 44.3" stroke="#263238" stroke-miterlimit="10" stroke-linecap="round" stroke-linejoin="round"/>
<path d="M210 31.8L206 31.3" stroke="#263238" stroke-miterlimit="10" stroke-linecap="round" stroke-linejoin="round"/>
<path d="M235.9 35.4L212.5 32.2" stroke="#263238" stroke-miterlimit="10" stroke-linecap="round" stroke-linejoin="round"/>
<path d="M240.1 19.7L232.4 11.8" stroke="#263238" stroke-miterlimit="10" stroke-linecap="round" stroke-linejoin="round"/>
<path d="M243.3 22.9L241.5 21.1" stroke="#263238" stroke-miterlimit="10" stroke-linecap="round" stroke-linejoin="round"/>
<path d="M264 23L272.9 13.9" stroke="#263238" stroke-miterlimit="10" stroke-linecap="round" stroke-linejoin="round"/>
<path d="M262.3 24.8L263.1 23.9" stroke="#263238" stroke-miterlimit="10" stroke-linecap="round" stroke-linejoin="round"/>
<path d="M283.7 35.9L301.9 33.9" stroke="#263238" stroke-miterlimit="10" stroke-linecap="round" stroke-linejoin="round"/>
<path d="M267.1 37.7L281.5 36.1" stroke="#263238" stroke-miterlimit="10" stroke-linecap="round" stroke-linejoin="round"/>
<path d="M279.5 53.7L287.7 62.2" stroke="#263238" stroke-miterlimit="10" stroke-linecap="round" stroke-linejoin="round"/>
<path d="M267.8 41.6L277.9 52" stroke="#263238" stroke-miterlimit="10" stroke-linecap="round" stroke-linejoin="round"/>
<path d="M256 41.1H251.4V54.4H256V41.1Z" fill="#8EA6FC" stroke="#263238" stroke-miterlimit="10" stroke-linecap="round" stroke-linejoin="round"/>
<path d="M259.4 53.3V51.4H248V53.3H242.6V60.9H264.8V53.3H259.4Z" fill="#263238" stroke="#263238" stroke-miterlimit="10" stroke-linecap="round" stroke-linejoin="round"/>
<path d="M253.7 16.4L259.1 27.3L271.2 29.1L262.4 37.6L264.5 49.6L253.7 43.9L243 49.6L245 37.6L236.3 29.1L248.3 27.3L253.7 16.4Z" fill="#8EA6FC" stroke="#263238" stroke-miterlimit="10" stroke-linecap="round" stroke-linejoin="round"/>
<path d="M238.6 30.2L253.7 34.2L267 30.8" fill="#8EA6FC"/>
<path d="M238.6 30.2L253.7 34.2L267 30.8" stroke="#263238" stroke-miterlimit="10" stroke-linecap="round" stroke-linejoin="round"/>
<path d="M254 21.2V30.8" stroke="#263238" stroke-miterlimit="10" stroke-linecap="round" stroke-linejoin="round"/>
<path d="M244.7 47.7L253.4 36.3V41.1" fill="#8EA6FC"/>
<path d="M244.7 47.7L253.4 36.3V41.1" stroke="#263238" stroke-miterlimit="10" stroke-linecap="round" stroke-linejoin="round"/>
<path d="M264.5 49.6L255.5 36.3" stroke="#263238" stroke-miterlimit="10" stroke-linecap="round" stroke-linejoin="round"/>
<path d="M221.5 183.9C221.5 183.9 235.6 189.8 249.6 190.4C263.6 191.1 288.8 183.9 288.8 183.9L272.1 162.4H233.3L221.5 183.9Z" fill="#263238" stroke="#263238" stroke-miterlimit="10" stroke-linecap="round" stroke-linejoin="round"/>
<path d="M288.1 292.2C287.6 290.7 283.2 279.1 283.2 279.1C283.2 279.1 280.6 259.8 280.6 250.9C280.6 242 277.5 236.5 277.5 236.5L273.9 172.2L271.6 164.1H266.5L252.2 164.2L237.9 164.1H236.1L230.2 175.3L226.8 236.6C226.8 236.6 223.7 242 223.7 251C223.7 260 221.1 279.2 221.1 279.2C221.1 279.2 216.7 290.8 216.2 292.3C215.7 293.8 211.8 297.4 211.8 298.7C211.8 300 212.8 300.8 212.8 300.8H227C227 300.8 227.8 300.5 228.3 298C228.8 295.4 228.8 292.9 228.8 291.3C228.8 289.8 230.3 276.9 230.3 276.9L250.1 194.6H250.6H253.9H254.4L274.2 276.9C274.2 276.9 275.7 289.7 275.7 291.3C275.7 292.8 275.7 295.4 276.2 298C276.7 300.6 277.5 300.8 277.5 300.8H291.4C291.4 300.8 292.4 300 292.4 298.7C292.5 297.4 288.6 293.8 288.1 292.2Z" fill="white" stroke="#263238" stroke-miterlimit="10" stroke-linecap="round" stroke-linejoin="round"/>
<path d="M283.2 279.1C283.2 279.1 280.6 259.8 280.6 250.9C280.6 242 277.5 236.5 277.5 236.5L273.9 172.2L271.6 164.1H266.5L252.2 164.2L237.9 164.1H236.1L230.2 175.3L226.8 236.6C226.8 236.6 223.7 242 223.7 251C223.7 260 221.1 279.2 221.1 279.2C221.1 279.2 221.1 279.3 221 279.5H229.8C230 278 230.1 276.9 230.1 276.9L249.9 194.6H250.4H253.7H254.2L274 276.9C274 276.9 274.1 277.9 274.3 279.5H283.1C283.3 279.2 283.2 279.1 283.2 279.1Z" fill="#263238" stroke="#263238" stroke-miterlimit="10" stroke-linecap="round" stroke-linejoin="round"/>
<path d="M229.7 282.2L224.7 294.1H215.3C214 295.8 212.1 297.8 212.1 298.7C212.1 300 213.1 300.8 213.1 300.8H227C227 300.8 227.8 300.5 228.3 298C228.8 295.4 228.8 292.9 228.8 291.3C228.8 290.4 229.3 285.9 229.7 282.2Z" fill="#8EA6FC" stroke="#263238" stroke-miterlimit="10" stroke-linecap="round" stroke-linejoin="round"/>
<path d="M274.9 282.2L279.9 294.1H289.3C290.6 295.8 292.5 297.8 292.5 298.7C292.5 300 291.5 300.8 291.5 300.8H277.6C277.6 300.8 276.8 300.5 276.3 298C275.8 295.4 275.8 292.9 275.8 291.3C275.8 290.4 275.3 285.9 274.9 282.2Z" fill="#8EA6FC" stroke="#263238" stroke-miterlimit="10" stroke-linecap="round" stroke-linejoin="round"/>
<path d="M250.9 80.6C250.9 80.6 246.3 78.2 242.9 83C239.4 87.8 241.8 92.1 241.8 93.4C241.8 94.7 236.6 99.1 238.1 101C239.6 103 242 104 241.8 104.9C241.6 105.8 235.5 104.5 235.9 106.6C236.3 108.8 236.8 112.3 244.6 118.1C252.4 124 263.7 119.2 266.8 115.9C269.8 112.6 272.5 109.4 272 107.4C271.6 105.4 268.5 106.1 268.5 105.2C268.5 104.3 271.8 101.3 271.8 99.5C271.8 97.8 268.3 95.6 268.1 94.5C267.9 93.4 269.8 91.9 269.8 90.2C269.8 88.5 265.5 86.3 265.5 84.8C265.5 83.3 268.8 80.7 263.8 77.2C258.8 73.7 251.9 76.5 250.9 80.6Z" fill="#263238" stroke="#263238" stroke-miterlimit="10" stroke-linecap="round" stroke-linejoin="round"/>
<path d="M249.5 107.7L247.8 116.5C247.8 116.5 243.7 114.8 242.6 114.3C241.4 113.9 238.1 164 238.1 164H270.4L268.7 114.5L261.5 116.4L259.3 107.4L249.5 107.7Z" fill="white" stroke="#263238" stroke-miterlimit="10" stroke-linecap="round" stroke-linejoin="round"/>
<path d="M261.8 131L263.1 116.1L261.4 116.5L259.2 107.5L249.5 107.6L247.8 116.4C247.8 116.4 247.2 116.1 246.4 115.8L248 130.9H261.8V131Z" fill="white" stroke="#263238" stroke-miterlimit="10" stroke-linecap="round" stroke-linejoin="round"/>
<path d="M248.4 109.5C248.4 109.5 254.2 115.1 255.4 115.1C256.6 115.1 260.2 110 260.2 110L259.7 108.3L248.3 108.1V109.5H248.4Z" fill="#263238" stroke="#263238" stroke-miterlimit="10" stroke-linecap="round" stroke-linejoin="round"/>
<path d="M229.7 74L239.7 63.6L236.8 55.8C236.8 55.8 239.6 50.5 239.9 49.9C240.1 49.3 241.2 47.5 241.2 47.5C241.2 47.5 242.8 47.4 242.9 49.1C243 50.8 243.2 54 243 54.9C242.8 55.8 245.3 60.7 244.3 62.9C243.3 65.1 233.1 79.1 233.1 79.1L229.7 74Z" fill="white" stroke="#263238" stroke-miterlimit="10" stroke-linecap="round" stroke-linejoin="round"/>
<path d="M242.9 50.7C242.9 50.7 239.7 55.3 239.8 55.7C239.8 56.1 240 56.8 240 56.8" stroke="#263238" stroke-miterlimit="10" stroke-linecap="round" stroke-linejoin="round"/>
<path d="M242.3 48L238 54.2V56.3" stroke="#263238" stroke-miterlimit="10" stroke-linecap="round" stroke-linejoin="round"/>
<path d="M245.4 115C245.4 115 244.4 141.7 242.9 152C241.5 162.3 239.7 168.2 236.2 173.4C232.7 178.6 221.4 183.8 221.4 183.8C221.4 183.8 229.5 155.8 231.1 148.2C232.7 140.5 232.7 124.4 232.7 124.4C232.7 124.4 225.5 119 219.7 110.8C213.9 102.5 209.2 94 209.5 92.8C209.7 91.6 232.5 69.7 232.5 69.7L237.2 76L224.6 95.3C224.6 95.3 236.5 109.1 237.3 109.8C238.2 110.6 241.5 111 245.4 115Z" fill="#8EA6FC" stroke="#263238" stroke-miterlimit="10" stroke-linecap="round" stroke-linejoin="round"/>
<path d="M244.7 114.4C244.7 114.5 239.9 123.3 239.9 131.6C239.9 136.4 241.3 151.6 242.6 154.6C242.7 153.8 242.9 152.9 243 152C244.4 141.7 245.5 115 245.5 115C245.2 114.8 245 114.6 244.7 114.4Z" fill="#8EA6FC" stroke="#263238" stroke-miterlimit="10" stroke-linecap="round" stroke-linejoin="round"/>
<path d="M279.5 73.8L268.8 64L271.1 56C271.1 56 267.9 50.9 267.6 50.3C267.3 49.7 266.2 48 266.2 48C266.2 48 264.6 48 264.6 49.7C264.6 51.4 264.6 54.6 264.9 55.5C265.2 56.4 263 61.4 264.2 63.6C265.4 65.8 276.5 79 276.5 79L279.5 73.8Z" fill="white" stroke="#263238" stroke-miterlimit="10" stroke-linecap="round" stroke-linejoin="round"/>
<path d="M264.7 51.4C264.7 51.4 268.2 55.7 268.2 56.2C268.2 56.7 268.1 57.4 268.1 57.4" stroke="#263238" stroke-miterlimit="10" stroke-linecap="round" stroke-linejoin="round"/>
<path d="M265.2 48.7L269.8 54.6L270 56.7" stroke="#263238" stroke-miterlimit="10" stroke-linecap="round" stroke-linejoin="round"/>
<path d="M264.9 115C264.9 115 265.9 141.7 267.4 152C268.8 162.3 270.6 168.2 274.1 173.4C277.6 178.6 288.9 183.8 288.9 183.8C288.9 183.8 280.8 155.8 279.2 148.2C277.6 140.5 277.6 124.4 277.6 124.4C277.6 124.4 284.8 119 290.6 110.8C296.4 102.6 303.5 92.9 303.1 91.7C302.7 90.5 277.1 70.3 277.1 70.3L273.5 77.3L286 96.3C286 96.3 274 109.1 273.1 109.8C272.2 110.6 268.8 111 264.9 115Z" fill="#8EA6FC" stroke="#263238" stroke-miterlimit="10" stroke-linecap="round" stroke-linejoin="round"/>
<path d="M238 115.2C236.8 120.1 232.8 124.5 232.8 124.5C232.8 124.5 235.2 118.9 234.6 114" stroke="#263238" stroke-miterlimit="10" stroke-linecap="round" stroke-linejoin="round"/>
<path d="M270.8 114C272.9 118.6 277.5 124.5 277.5 124.5C277.5 124.5 274.4 113.4 274.4 111.9" stroke="#263238" stroke-miterlimit="10" stroke-linecap="round" stroke-linejoin="round"/>
<path d="M265.6 114.4C265.6 114.5 270.4 123.3 270.4 131.6C270.4 136.4 269 151.6 267.7 154.6C267.6 153.8 267.4 152.9 267.3 152C265.9 141.7 264.8 115 264.8 115C265.1 114.8 265.4 114.6 265.6 114.4Z" fill="#8EA6FC" stroke="#263238" stroke-miterlimit="10" stroke-linecap="round" stroke-linejoin="round"/>
<path d="M245.3 98.8C245.3 98.8 242.4 94.6 242 98.2C241.6 101.8 245 104.4 245 104.4L245.3 98.8Z" fill="white" stroke="#263238" stroke-miterlimit="10" stroke-linecap="round" stroke-linejoin="round"/>
<path d="M264.8 97.9C264.8 97.9 267.3 95.4 268 98.3C268.7 101.2 265 103.8 265 103.8L264.8 97.9Z" fill="white" stroke="#263238" stroke-miterlimit="10" stroke-linecap="round" stroke-linejoin="round"/>
<path d="M251.7 84.5C251.7 84.5 251 88.2 248.4 89.1C245.8 90 244.9 91.3 244.9 91.3C244.9 91.3 244.5 103.9 245.3 105.2C246.1 106.5 251.9 112 254.7 112C257.5 112 264.3 106.9 264.6 105.6C264.8 104.3 264.5 92.1 264.2 91.3C264 90.4 261.2 89.1 258.8 89.1C256.4 89.1 254.5 86.5 254 85.6C253.7 84.8 251.7 84.5 251.7 84.5Z" fill="white" stroke="#263238" stroke-miterlimit="10" stroke-linecap="round" stroke-linejoin="round"/>
<path d="M253.6 94.9C253.6 94.9 254.7 95.8 255.6 95.8C256.5 95.8 257.2 94.8 257.2 94.8" stroke="#263238" stroke-miterlimit="10" stroke-linecap="round" stroke-linejoin="round"/>
<path d="M249.3 90.8C249.3 90.8 250.1 88.4 252.6 89.7" stroke="#263238" stroke-miterlimit="10" stroke-linecap="round" stroke-linejoin="round"/>
<path d="M257.4 89.8C257.4 89.8 259.7 88 261.5 91.1" stroke="#263238" stroke-miterlimit="10" stroke-linecap="round" stroke-linejoin="round"/>
<path d="M251.6 99C251.6 99 256.6 102 259.9 97.9" stroke="#263238" stroke-miterlimit="10" stroke-linecap="round" stroke-linejoin="round"/>
<path d="M251.7 91.7C251.7 92.3 251.4 92.8 250.9 92.8C250.5 92.8 250.1 92.3 250.1 91.7C250.1 91.1 250.4 90.6 250.9 90.6C251.3 90.6 251.7 91.1 251.7 91.7Z" fill="#263238"/>
<path d="M259.7 91.8C259.7 92.4 259.4 92.9 258.9 92.9C258.5 92.9 258.1 92.4 258.1 91.8C258.1 91.2 258.4 90.7 258.9 90.7C259.4 90.7 259.7 91.2 259.7 91.8Z" fill="#263238"/>
<path d="M106.7 226.2L91.6001 236.5L103.6 287.3L140 280.6L140.4 227.3L122 223.7L106.7 226.2Z" fill="white" stroke="#263238" stroke-miterlimit="10" stroke-linecap="round" stroke-linejoin="round"/>
<path d="M115 235.8L119.7 242L120.5 275L126.3 284.2L130.8 270.2L121.9 241.9L124.1 234.9L119.2 230.1L115 235.8Z" fill="#8EA6FC" stroke="#263238" stroke-miterlimit="10" stroke-linecap="round" stroke-linejoin="round"/>
<path d="M120.2 235L113.9 241.9L104.7 226.5L109.2 222L119.2 222.4L127.6 226.7L128.1 238L120.2 235Z" fill="white" stroke="#263238" stroke-miterlimit="10" stroke-linecap="round" stroke-linejoin="round"/>
<path d="M124.7 193.7C124.7 193.7 128.7 197.7 129.1 199C129.4 200.4 129.2 202.6 129.2 202.6L134 205.7L131.1 208.6C131.1 208.6 133.9 216.5 132.3 217.4C130.7 218.3 123 220.3 123 220.3L120.3 235L109.4 223.8L108 217.5C108 217.5 101 208.9 102 204.8C102.9 200.6 106.3 194.4 113.1 192.2C119.9 190 120.3 190.8 120.3 190.8L124.7 193.7Z" fill="#CCCCCC" stroke="#263238" stroke-miterlimit="10" stroke-linecap="round" stroke-linejoin="round"/>
<path d="M111.3 211.4C111.3 211.4 115.4 210.4 115.3 208.5C115.2 206.6 112.4 205 114.6 203.6C116.7 202.1 118.9 201.5 118.9 200.4C118.9 199.3 116.9 198.3 118.2 197.1C119.5 195.9 124.7 193.8 124.7 193.8C124.7 193.8 122.5 187.8 114.5 187.6C106.5 187.4 99.2001 197.3 99.7001 203.6C100.2 209.9 107.2 218.2 108.9 218.7C110.5 219.1 111.3 211.4 111.3 211.4Z" fill="#263238" stroke="#263238" stroke-miterlimit="10" stroke-linecap="round" stroke-linejoin="round"/>
<path d="M113 212.7C113 212.7 110.4 208.9 108.3 212.1C106.2 215.2 111 218.3 113.5 218.2C116 218.1 116.5 217 116.5 217" fill="#CCCCCC"/>
<path d="M113 212.7C113 212.7 110.4 208.9 108.3 212.1C106.2 215.2 111 218.3 113.5 218.2C116 218.1 116.5 217 116.5 217" stroke="#263238" stroke-miterlimit="10" stroke-linecap="round" stroke-linejoin="round"/>
<path d="M126.4 202.9C126.4 203.7 126.1 204.4 125.6 204.4C125.1 204.4 124.7 203.8 124.7 202.9C124.7 202.1 125 201.4 125.5 201.4C126 201.4 126.4 202.1 126.4 202.9Z" fill="#263238"/>
<path d="M122.4 200.2C122.4 200.2 124.8 197.3 127.3 198.6" stroke="#263238" stroke-miterlimit="10" stroke-linecap="round" stroke-linejoin="round"/>
<path d="M85.6 297.5L88.2 300.1L91.3 301.6L93.4 308.7L91.2 309.4L89.7 307.8L88.3 309.3L90.1 314.5C90.1 314.5 92.6 315.2 92.6 315.8C92.6 316.4 91 317.7 91 317.7L88.1 316.4L80.1 315.5L77.8 314L80.3 300.5L85.6 297.5Z" fill="#CCCCCC" stroke="#263238" stroke-miterlimit="10" stroke-linecap="round" stroke-linejoin="round"/>
<path d="M88.2 316.4L85.3 311.7" stroke="#263238" stroke-miterlimit="10" stroke-linecap="round" stroke-linejoin="round"/>
<path d="M84.3001 316L82.4001 311.4" stroke="#263238" stroke-miterlimit="10" stroke-linecap="round" stroke-linejoin="round"/>
<path d="M80.2 315.5L79.5 311.5" stroke="#263238" stroke-miterlimit="10" stroke-linecap="round" stroke-linejoin="round"/>
<path d="M91.6001 236.5L72.1001 267.3L79.3001 300.7L86.9001 299L87.3001 267.8L97.1001 255.5L91.6001 236.5Z" fill="white" stroke="#263238" stroke-miterlimit="10" stroke-linecap="round" stroke-linejoin="round"/>
<path d="M178.6 219.4L179 215C179 215 178.6 212.1 179 210.6C179.4 209.1 180 207.4 180.5 206.1C181 204.8 181.7 204.1 182.4 205.3C183.1 206.5 182.8 208.9 182.8 208.9C182.8 208.9 183.3 206.5 184 205.6C184.8 204.6 187.4 203.8 189.9 203C192.5 202.2 191.3 203.6 190.9 204.3C190.5 205 188.1 206.2 188.1 206.2C188.1 206.2 191.9 204.8 193 204.5C194.1 204.2 195.8 205.5 194.6 206.2C193.4 206.9 190.8 207.7 190.8 207.7C190.8 207.7 193.7 208.4 194.8 209C195.9 209.6 195.4 210.9 194.7 210.9C194 210.9 191.9 210.6 191.9 210.6C191.9 210.6 193.7 212 193.4 212.9C193 213.7 189.5 212.6 189.5 212.6C189.5 212.6 189 214.8 187.4 216.3C185.8 217.7 183.8 218.8 183.8 218.8L180.7 222.5L178.6 219.4Z" fill="#CCCCCC" stroke="#263238" stroke-miterlimit="10" stroke-linecap="round" stroke-linejoin="round"/>
<path d="M188.1 206.3L189.2 211.3" stroke="#263238" stroke-miterlimit="10" stroke-linecap="round" stroke-linejoin="round"/>
<path d="M182.7 209L182.5 210.7C182.5 210.7 184.8 212.1 184.4 214.3" fill="#CCCCCC"/>
<path d="M182.7 209L182.5 210.7C182.5 210.7 184.8 212.1 184.4 214.3" stroke="#263238" stroke-miterlimit="10" stroke-linecap="round" stroke-linejoin="round"/>
<path d="M140.4 227.3L157.5 241.8L178.5 218.5L182.9 222.3L161.4 257.1L140.4 248.9V227.3Z" fill="white" stroke="#263238" stroke-miterlimit="10" stroke-linecap="round" stroke-linejoin="round"/>
<path d="M103.6 287.3L106.2 334.7L86.2002 388.1L94.5002 391.1L125.1 334.1L129.6 308.7L157 313.3L140.9 351.1L147.6 353.4C147.6 353.4 181.6 302.2 182.1 302.1C182.7 302.1 141.1 285.3 141.1 285.3L139.9 280.5L103.6 287.3Z" fill="#263238" stroke="#263238" stroke-miterlimit="10" stroke-linecap="round" stroke-linejoin="round"/>
<path d="M147.6 353.4L150.8 359.7C150.8 359.7 154 360.7 155.2 361.3C156.4 361.8 157 362 157.6 363C158.2 364 158.3 365.3 158.3 365.3L142.5 365.9C142.5 365.9 137.6 361 135.4 358.8C133.2 356.5 141 351.1 141 351.1L147.6 353.4Z" fill="white" stroke="#263238" stroke-miterlimit="10" stroke-linecap="round" stroke-linejoin="round"/>
<path d="M86.2002 388.1C86.2002 388.1 86.4002 392 86.5002 395.5C86.6002 399 91.0002 404.3 93.6002 406.2C96.2002 408.1 98.6002 408.3 97.8002 403.5C97.0002 398.6 94.6002 391.1 94.6002 391.1C94.6002 391.1 87.0002 387.9 86.2002 388.1Z" fill="white" stroke="#263238" stroke-miterlimit="10" stroke-linecap="round" stroke-linejoin="round"/>
<path d="M308.9 298.9H193.3V365H308.9V298.9Z" fill="#DBDBDB" stroke="#263238" stroke-miterlimit="10" stroke-linecap="round" stroke-linejoin="round"/>
<path d="M376.8 363.3H125.5V429.4H376.8V363.3Z" fill="#ADADAD" stroke="#263238" stroke-miterlimit="10" stroke-linecap="round" stroke-linejoin="round"/>
<path d="M451 408.3H51.2V474.4H451V408.3Z" fill="#919191" stroke="#263238" stroke-miterlimit="10" stroke-linecap="round" stroke-linejoin="round"/>
<path d="M251.1 306.2L256.5 317.1L268.6 318.9L259.8 327.4L261.9 339.4L251.1 333.7L240.3 339.4L242.4 327.4L233.7 318.9L245.7 317.1L251.1 306.2Z" fill="#8EA6FC" stroke="#263238" stroke-miterlimit="10" stroke-linecap="round" stroke-linejoin="round"/>
<path d="M160.7 366.1L166.1 377L178.1 378.7L169.4 387.2L171.4 399.2L160.7 393.6L149.9 399.2L151.9 387.2L143.2 378.7L155.3 377L160.7 366.1Z" fill="#8EA6FC" stroke="#263238" stroke-miterlimit="10" stroke-linecap="round" stroke-linejoin="round"/>
<path d="M343.3 366.1L348.7 377L360.8 378.7L352.1 387.2L354.1 399.2L343.3 393.6L332.6 399.2L334.6 387.2L325.9 378.7L337.9 377L343.3 366.1Z" fill="#8EA6FC" stroke="#263238" stroke-miterlimit="10" stroke-linecap="round" stroke-linejoin="round"/>
<path d="M21.2 474.4H482.8" stroke="#263238" stroke-miterlimit="10" stroke-linecap="round" stroke-linejoin="round"/>
</svg>
