<svg width="256" height="256" viewBox="0 0 256 256" fill="none" xmlns="http://www.w3.org/2000/svg">
<path d="M134.553 44.1856L124.109 46.3872C122.675 46.6944 121.293 45.7728 121.037 44.3904L118.835 33.9456C118.528 32.512 119.449 31.1296 120.832 30.8736L131.277 28.672C132.71 28.3648 134.093 29.2864 134.349 30.6688L136.55 41.1136C136.857 42.496 135.987 43.8784 134.553 44.1856Z" stroke="#263238" stroke-miterlimit="10" stroke-linecap="round" stroke-linejoin="round"/>
<path d="M127.027 34.304L128.358 40.6528" stroke="#263238" stroke-miterlimit="10" stroke-linecap="round" stroke-linejoin="round"/>
<path d="M130.867 36.8128L124.518 38.144" stroke="#263238" stroke-miterlimit="10" stroke-linecap="round" stroke-linejoin="round"/>
<path d="M239.872 155.853L229.427 158.054C227.993 158.362 226.611 157.44 226.355 156.058L224.153 145.613C223.846 144.179 224.768 142.797 226.15 142.541L236.595 140.339C238.029 140.032 239.411 140.954 239.667 142.336L241.869 152.781C242.176 154.163 241.254 155.546 239.872 155.853Z" stroke="#263238" stroke-miterlimit="10" stroke-linecap="round" stroke-linejoin="round"/>
<path d="M234.752 146.483L231.219 151.91" stroke="#263238" stroke-miterlimit="10" stroke-linecap="round" stroke-linejoin="round"/>
<path d="M235.725 150.938L230.297 147.405" stroke="#263238" stroke-miterlimit="10" stroke-linecap="round" stroke-linejoin="round"/>
<path d="M94.976 223.59L84.3264 222.976C82.8928 222.874 81.7664 221.645 81.8688 220.211L82.4832 209.562C82.5856 208.128 83.8144 207.002 85.248 207.104L95.8976 207.718C97.3312 207.821 98.4576 209.05 98.3552 210.483L97.7408 221.133C97.6384 222.618 96.4096 223.693 94.976 223.59Z" stroke="#263238" stroke-miterlimit="10" stroke-linecap="round" stroke-linejoin="round"/>
<path d="M93.3376 215.552L86.8352 215.194" stroke="#263238" stroke-miterlimit="10" stroke-linecap="round" stroke-linejoin="round"/>
<path d="M26.8799 149.094L16.7423 145.715C15.3599 145.254 14.6431 143.77 15.1039 142.438L18.4831 132.301C18.9439 130.918 20.4287 130.202 21.7599 130.662L31.8975 134.042C33.2799 134.502 33.9967 135.987 33.5359 137.318L30.1567 147.456C29.6959 148.787 28.2111 149.555 26.8799 149.094Z" stroke="#263238" stroke-miterlimit="10" stroke-linecap="round" stroke-linejoin="round"/>
<path d="M28.3647 137.83L20.2239 141.926" stroke="#263238" stroke-miterlimit="10" stroke-linecap="round" stroke-linejoin="round"/>
<path d="M23.7056 136.141C23.9616 136.704 23.7568 137.37 23.1936 137.677C22.6304 137.933 21.9648 137.728 21.6576 137.165C21.4016 136.602 21.6064 135.936 22.1696 135.629C22.7328 135.373 23.3984 135.629 23.7056 136.141Z" stroke="#263238" stroke-miterlimit="10" stroke-linecap="round" stroke-linejoin="round"/>
<path d="M26.9311 142.592C27.1871 143.155 26.9823 143.821 26.4191 144.128C25.8559 144.384 25.1903 144.179 24.8831 143.616C24.6271 143.053 24.8319 142.387 25.3951 142.08C25.9583 141.773 26.6239 142.029 26.9311 142.592Z" stroke="#263238" stroke-miterlimit="10" stroke-linecap="round" stroke-linejoin="round"/>
<path d="M131.943 205.21C128.973 209.51 123.085 210.586 118.835 207.616C117.197 206.49 116.019 204.902 115.354 203.162C114.33 200.346 114.637 197.12 116.429 194.509C117.709 192.666 119.501 191.437 121.498 190.822C124.16 190.003 127.13 190.413 129.587 192.102C133.837 195.021 134.912 200.909 131.943 205.21Z" fill="#8EA6FC"/>
<mask id="mask0_159_1474" style="mask-type:luminance" maskUnits="userSpaceOnUse" x="114" y="190" width="20" height="20">
<path d="M131.943 205.21C128.973 209.51 123.085 210.586 118.835 207.616C117.197 206.49 116.019 204.902 115.354 203.162C114.33 200.346 114.637 197.12 116.429 194.509C117.709 192.666 119.501 191.437 121.498 190.822C124.16 190.003 127.13 190.413 129.587 192.102C133.837 195.021 134.912 200.909 131.943 205.21Z" fill="white"/>
</mask>
<g mask="url(#mask0_159_1474)">
<path opacity="0.3" d="M130.714 204.339C128.205 207.923 123.29 208.845 119.655 206.336C116.019 203.827 115.149 198.912 117.658 195.277C120.167 191.693 125.082 190.771 128.717 193.28C132.301 195.789 133.223 200.755 130.714 204.339Z" fill="black" fill-opacity="0.7"/>
</g>
<mask id="mask1_159_1474" style="mask-type:luminance" maskUnits="userSpaceOnUse" x="114" y="190" width="20" height="20">
<path d="M131.943 205.21C128.973 209.51 123.085 210.586 118.835 207.616C117.197 206.49 116.019 204.902 115.354 203.162C114.33 200.346 114.637 197.12 116.429 194.509C117.709 192.666 119.501 191.437 121.498 190.822C124.16 190.003 127.13 190.413 129.587 192.102C133.837 195.021 134.912 200.909 131.943 205.21Z" fill="white"/>
</mask>
<g mask="url(#mask1_159_1474)">
<path d="M130.714 204.339C128.205 207.923 123.29 208.845 119.655 206.336C116.019 203.827 115.149 198.912 117.658 195.277C120.167 191.693 125.082 190.771 128.717 193.28C132.301 195.789 133.223 200.755 130.714 204.339Z" stroke="#263238" stroke-miterlimit="10" stroke-linecap="round" stroke-linejoin="round"/>
</g>
<mask id="mask2_159_1474" style="mask-type:luminance" maskUnits="userSpaceOnUse" x="114" y="190" width="20" height="20">
<path d="M131.943 205.21C128.973 209.51 123.085 210.586 118.835 207.616C117.197 206.49 116.019 204.902 115.354 203.162C114.33 200.346 114.637 197.12 116.429 194.509C117.709 192.666 119.501 191.437 121.498 190.822C124.16 190.003 127.13 190.413 129.587 192.102C133.837 195.021 134.912 200.909 131.943 205.21Z" fill="white"/>
</mask>
<g mask="url(#mask2_159_1474)">
<path d="M126.208 195.891L126.567 195.328L127.539 195.994L127.181 196.557C127.898 197.274 127.898 198.246 127.181 199.219L127.027 199.475L125.901 198.707L126.106 198.4C126.464 197.888 126.413 197.53 126.003 197.274C125.645 197.018 125.287 197.069 124.928 197.581C124.57 198.093 124.519 198.605 124.877 199.782C125.287 201.216 125.235 202.035 124.621 202.854C123.904 203.878 123.034 204.186 122.112 203.827L121.754 204.39L120.781 203.725L121.139 203.162C120.423 202.394 120.423 201.472 121.139 200.448L121.498 199.936L122.624 200.704L122.215 201.267C121.856 201.779 121.959 202.138 122.317 202.394C122.675 202.65 123.034 202.598 123.443 202.086C123.802 201.574 123.853 201.011 123.495 199.885C123.085 198.451 123.136 197.632 123.751 196.813C124.416 195.84 125.287 195.482 126.208 195.891Z" fill="#8EA6FC" stroke="#263238" stroke-miterlimit="10" stroke-linecap="round" stroke-linejoin="round"/>
</g>
<mask id="mask3_159_1474" style="mask-type:luminance" maskUnits="userSpaceOnUse" x="114" y="190" width="20" height="20">
<path d="M131.943 205.21C128.973 209.51 123.085 210.586 118.835 207.616C117.197 206.49 116.019 204.902 115.354 203.162C114.33 200.346 114.637 197.12 116.429 194.509C117.709 192.666 119.501 191.437 121.498 190.822C124.16 190.003 127.13 190.413 129.587 192.102C133.837 195.021 134.912 200.909 131.943 205.21Z" fill="white"/>
</mask>
<g mask="url(#mask3_159_1474)">
<path opacity="0.2" d="M121.549 192.205C121.549 196.864 119.04 200.909 115.354 203.162C114.33 200.346 114.637 197.12 116.429 194.509C117.709 192.666 119.501 191.437 121.498 190.822C121.549 191.283 121.549 191.744 121.549 192.205Z" fill="black" fill-opacity="0.7"/>
</g>
<path d="M131.943 205.21C128.973 209.51 123.085 210.586 118.835 207.616C117.197 206.49 116.019 204.902 115.354 203.162C114.33 200.346 114.637 197.12 116.429 194.509C117.709 192.666 119.501 191.437 121.498 190.822C124.16 190.003 127.13 190.413 129.587 192.102C133.837 195.021 134.912 200.909 131.943 205.21Z" stroke="#263238" stroke-miterlimit="10" stroke-linecap="round" stroke-linejoin="round"/>
<path d="M110.694 201.318C115.897 201.318 120.115 197.101 120.115 191.898C120.115 186.695 115.897 182.477 110.694 182.477C105.492 182.477 101.274 186.695 101.274 191.898C101.274 197.101 105.492 201.318 110.694 201.318Z" fill="#8EA6FC" stroke="#263238" stroke-miterlimit="10" stroke-linecap="round" stroke-linejoin="round"/>
<path opacity="0.3" d="M110.695 199.834C115.077 199.834 118.631 196.281 118.631 191.898C118.631 187.515 115.077 183.962 110.695 183.962C106.312 183.962 102.759 187.515 102.759 191.898C102.759 196.281 106.312 199.834 110.695 199.834Z" fill="black" fill-opacity="0.7"/>
<path d="M110.695 199.834C115.077 199.834 118.631 196.281 118.631 191.898C118.631 187.515 115.077 183.962 110.695 183.962C106.312 183.962 102.759 187.515 102.759 191.898C102.759 196.281 106.312 199.834 110.695 199.834Z" stroke="#263238" stroke-miterlimit="10" stroke-linecap="round" stroke-linejoin="round"/>
<path d="M110.131 187.494V186.829H111.309V187.494C112.333 187.699 112.845 188.467 112.845 189.696V190.003H111.514V189.645C111.514 188.979 111.258 188.774 110.797 188.774C110.336 188.774 110.08 189.03 110.08 189.645C110.08 190.31 110.336 190.72 111.309 191.488C112.486 192.41 112.845 193.126 112.845 194.15C112.845 195.379 112.333 196.147 111.309 196.352V197.018H110.131V196.352C109.107 196.147 108.595 195.379 108.595 194.15V193.536H109.926V194.253C109.926 194.918 110.234 195.123 110.643 195.123C111.053 195.123 111.36 194.867 111.36 194.253C111.36 193.587 111.104 193.126 110.131 192.41C108.954 191.488 108.595 190.771 108.595 189.747C108.646 188.467 109.158 187.699 110.131 187.494Z" fill="#8EA6FC" stroke="#263238" stroke-miterlimit="10" stroke-linecap="round" stroke-linejoin="round"/>
<path d="M163.693 199.805C166.5 195.425 165.224 189.598 160.843 186.791C156.462 183.984 150.635 185.26 147.828 189.64C145.021 194.021 146.297 199.848 150.678 202.655C155.059 205.462 160.886 204.186 163.693 199.805Z" fill="#8EA6FC" stroke="#263238" stroke-miterlimit="10" stroke-linecap="round" stroke-linejoin="round"/>
<path opacity="0.3" d="M161.536 189.338C164.506 192.563 164.352 197.581 161.127 200.55C157.901 203.52 152.883 203.366 149.914 200.141C146.944 196.915 147.098 191.898 150.323 188.928C153.549 185.958 158.567 186.112 161.536 189.338Z" fill="black" fill-opacity="0.7"/>
<path d="M161.536 189.338C164.506 192.563 164.352 197.581 161.127 200.55C157.901 203.52 152.883 203.366 149.914 200.141C146.944 196.915 147.098 191.898 150.323 188.928C153.549 185.958 158.567 186.112 161.536 189.338Z" stroke="#263238" stroke-miterlimit="10" stroke-linecap="round" stroke-linejoin="round"/>
<path d="M152.32 191.898L151.859 191.386L152.73 190.618L153.191 191.13C154.061 190.618 154.983 190.822 155.802 191.693L156.007 191.898L155.034 192.819L154.778 192.563C154.317 192.102 154.01 192.102 153.651 192.41C153.344 192.717 153.293 193.075 153.754 193.536C154.215 193.997 154.675 194.15 155.904 194.048C157.389 193.946 158.157 194.202 158.874 194.918C159.693 195.84 159.847 196.762 159.232 197.581L159.693 198.042L158.823 198.81L158.362 198.349C157.491 198.912 156.57 198.656 155.751 197.786L155.341 197.325L156.314 196.403L156.775 196.915C157.235 197.376 157.594 197.376 157.901 197.069C158.208 196.762 158.259 196.403 157.85 195.942C157.389 195.482 156.928 195.328 155.699 195.43C154.215 195.533 153.447 195.277 152.73 194.56C151.859 193.638 151.706 192.717 152.32 191.898Z" fill="#8EA6FC" stroke="#263238" stroke-miterlimit="10" stroke-linecap="round" stroke-linejoin="round"/>
<path opacity="0.2" d="M151.859 153.754C151.859 153.754 151.808 173.312 151.859 174.49C151.911 175.616 153.395 182.528 153.395 182.528L148.634 191.283L152.73 194.56L160.717 186.726C160.717 186.726 167.475 190.925 168.755 196.915C169.984 202.906 177.357 207.258 185.037 223.846C192.717 240.435 201.421 186.726 201.421 186.726L177.818 156.979L151.859 153.754Z" fill="black" fill-opacity="0.7"/>
<path d="M224.051 48.5376L216.832 119.142L212.378 162.56L150.17 156.211L138.086 154.931L130.355 154.163L137.216 87.1424L142.029 40.1408L224.051 48.5376Z" fill="white"/>
<mask id="mask4_159_1474" style="mask-type:luminance" maskUnits="userSpaceOnUse" x="130" y="40" width="95" height="123">
<path d="M224.051 48.5376L216.832 119.142L212.378 162.56L150.17 156.211L138.086 154.931L130.355 154.163L137.216 87.1424L142.029 40.1408L224.051 48.5376Z" fill="white"/>
</mask>
<g mask="url(#mask4_159_1474)">
<path d="M200.243 51.2L164.813 47.5648C164.147 47.5136 163.533 47.9744 163.482 48.64C163.43 49.3056 163.891 49.92 164.557 49.9712L199.987 53.6064C200.653 53.6576 201.267 53.1968 201.318 52.5312C201.37 51.8656 200.909 51.2512 200.243 51.2Z" fill="#263238"/>
</g>
<mask id="mask5_159_1474" style="mask-type:luminance" maskUnits="userSpaceOnUse" x="130" y="40" width="95" height="123">
<path d="M224.051 48.5376L216.832 119.142L212.378 162.56L150.17 156.211L138.086 154.931L130.355 154.163L137.216 87.1424L142.029 40.1408L224.051 48.5376Z" fill="white"/>
</mask>
<g mask="url(#mask5_159_1474)">
<path d="M190.874 55.1936L173.158 53.4016C172.851 53.3504 172.544 53.6064 172.493 53.9648C172.442 54.272 172.698 54.5792 173.056 54.6304L190.771 56.4224C191.078 56.4736 191.386 56.2176 191.437 55.8592C191.437 55.552 191.181 55.2448 190.874 55.1936Z" fill="#263238"/>
</g>
<mask id="mask6_159_1474" style="mask-type:luminance" maskUnits="userSpaceOnUse" x="130" y="40" width="95" height="123">
<path d="M224.051 48.5376L216.832 119.142L212.378 162.56L150.17 156.211L138.086 154.931L130.355 154.163L137.216 87.1424L142.029 40.1408L224.051 48.5376Z" fill="white"/>
</mask>
<g mask="url(#mask6_159_1474)">
<path d="M210.33 107.315L152.883 101.427C152.576 101.376 152.269 101.632 152.218 101.99C152.167 102.298 152.423 102.605 152.781 102.656L210.227 108.544C210.535 108.595 210.842 108.339 210.893 107.981C210.944 107.622 210.688 107.366 210.33 107.315Z" fill="#263238"/>
<path d="M209.92 111.667L143.104 104.806C142.797 104.755 142.49 105.011 142.438 105.37C142.387 105.677 142.643 105.984 143.002 106.035L209.818 112.896C210.125 112.947 210.432 112.691 210.483 112.333C210.483 111.974 210.227 111.667 209.92 111.667Z" fill="#263238"/>
<path d="M190.72 114.074L142.592 109.158C142.285 109.107 141.978 109.363 141.926 109.722C141.875 110.029 142.131 110.336 142.49 110.387L190.618 115.302C190.925 115.354 191.232 115.098 191.283 114.739C191.334 114.381 191.078 114.074 190.72 114.074Z" fill="#263238"/>
</g>
<mask id="mask7_159_1474" style="mask-type:luminance" maskUnits="userSpaceOnUse" x="85" y="69" width="130" height="105">
<path d="M101.78 69.6005L171.282 83.9768L214.02 92.8323L201.365 154.07L198.86 165.96L197.308 173.572L131.335 159.918L85.0684 150.341L101.78 69.6005Z" fill="white"/>
</mask>
<g mask="url(#mask7_159_1474)">
<path d="M141.88 113.75L139.924 132.85L207.309 139.753L209.266 120.653L141.88 113.75Z" fill="#BFBFBF" stroke="#263238" stroke-miterlimit="10"/>
</g>
<mask id="mask8_159_1474" style="mask-type:luminance" maskUnits="userSpaceOnUse" x="130" y="40" width="95" height="123">
<path d="M224.051 48.5376L216.832 119.142L212.378 162.56L150.17 156.211L138.086 154.931L130.355 154.163L137.216 87.1424L142.029 40.1408L224.051 48.5376Z" fill="white"/>
</mask>
<g mask="url(#mask8_159_1474)">
<path d="M172.791 91.7419C179.156 86.4386 180.017 76.9793 174.714 70.6138C169.411 64.2484 159.951 63.3873 153.586 68.6906C147.221 73.9939 146.359 83.4533 151.663 89.8187C156.966 96.1842 166.425 97.0452 172.791 91.7419Z" fill="#8EA6FC"/>
<mask id="mask9_159_1474" style="mask-type:luminance" maskUnits="userSpaceOnUse" x="148" y="65" width="31" height="31">
<path d="M177.945 82.905C179.441 74.756 174.048 66.9372 165.899 65.4413C157.75 63.9453 149.931 69.3387 148.435 77.4878C146.939 85.6368 152.333 93.4556 160.482 94.9515C168.631 96.4475 176.45 91.0541 177.945 82.905Z" fill="white"/>
</mask>
<g mask="url(#mask9_159_1474)">
<path opacity="0.5" d="M172.791 91.742C179.157 86.4387 180.018 76.9793 174.714 70.6138C169.411 64.2483 159.952 63.3872 153.586 68.6906C147.221 73.9939 146.359 83.4533 151.663 89.8188C156.966 96.1843 166.426 97.0454 172.791 91.742Z" fill="white"/>
</g>
<path d="M172.791 91.7419C179.156 86.4386 180.017 76.9793 174.714 70.6138C169.411 64.2484 159.951 63.3873 153.586 68.6906C147.221 73.9939 146.359 83.4533 151.663 89.8187C156.966 96.1842 166.425 97.0452 172.791 91.7419Z" stroke="#263238" stroke-width="1.00001" stroke-miterlimit="10"/>
<path d="M163.584 80.1792L176.077 86.4768C176.794 85.0432 177.254 83.4048 177.408 81.7152C177.818 77.8752 176.64 74.24 174.387 71.3728L163.584 80.1792Z" fill="white"/>
<path d="M163.687 79.4624L174.131 70.9632C172.595 69.12 170.599 67.6864 168.295 66.816L166.4 71.9872L163.687 79.4624Z" fill="#8EA6FC"/>
<path d="M164.864 65.9968L163.584 78.336L167.834 66.6624C166.912 66.3552 165.888 66.0992 164.864 65.9968Z" fill="#757575"/>
<path d="M162.97 80.0256L164.403 65.8944C156.621 65.2288 149.709 70.912 148.941 78.6944C148.685 81.2544 149.094 83.6608 150.067 85.8624L162.97 80.0256Z" fill="#999999"/>
<path d="M161.741 94.464C167.731 95.0784 173.261 91.904 175.872 86.8864L163.174 80.4864L150.221 86.3744C152.32 90.7264 156.57 93.9008 161.741 94.464Z" fill="#BFBFBF"/>
<path d="M186.982 72.8064L185.293 72.6528C185.139 72.6528 184.986 72.4992 184.986 72.2944L185.139 70.6048C185.139 70.4512 185.293 70.2976 185.498 70.2976L187.187 70.4512C187.341 70.4512 187.494 70.6048 187.494 70.8096L187.341 72.4992C187.341 72.704 187.187 72.8576 186.982 72.8064Z" fill="#8EA6FC" stroke="#263238" stroke-miterlimit="10"/>
<path d="M210.995 73.7792L188.928 71.5264C188.775 71.5264 188.672 71.3728 188.672 71.2192C188.672 71.0656 188.826 70.9632 188.979 70.9632L211.047 73.216C211.2 73.216 211.303 73.3696 211.303 73.5232C211.303 73.6768 211.149 73.7792 210.995 73.7792Z" fill="#263238"/>
<path d="M208.742 74.7008L188.877 72.6528C188.723 72.6528 188.621 72.4992 188.621 72.3456C188.621 72.192 188.774 72.0896 188.928 72.0896L208.794 74.1376C208.947 74.1376 209.05 74.2912 209.05 74.4448C208.998 74.6496 208.896 74.752 208.742 74.7008Z" fill="#263238"/>
<path d="M186.47 78.08L184.781 77.9264C184.627 77.9264 184.474 77.7728 184.474 77.568L184.627 75.8784C184.627 75.7248 184.781 75.5712 184.986 75.5712L186.675 75.7248C186.829 75.7248 186.982 75.8784 186.982 76.0832L186.829 77.7728C186.778 77.9776 186.624 78.08 186.47 78.08Z" fill="#757575" stroke="#263238" stroke-miterlimit="10" stroke-linecap="round" stroke-linejoin="round"/>
<path d="M210.483 79.0528L188.416 76.8C188.262 76.8 188.16 76.6464 188.16 76.4928C188.16 76.3392 188.314 76.2368 188.467 76.2368L210.534 78.4896C210.688 78.4896 210.79 78.6432 210.79 78.7968C210.739 78.9504 210.637 79.0528 210.483 79.0528Z" fill="#263238"/>
<path d="M208.179 79.9744L188.314 77.9264C188.16 77.9264 188.058 77.7728 188.058 77.6192C188.058 77.4656 188.211 77.3632 188.365 77.3632L208.23 79.4112C208.384 79.4112 208.486 79.5648 208.486 79.7184C208.486 79.872 208.333 79.9744 208.179 79.9744Z" fill="#263238"/>
<path d="M185.907 83.3536L184.218 83.2C184.064 83.2 183.91 83.0464 183.91 82.8416L184.064 81.152C184.064 80.9984 184.218 80.8448 184.422 80.8448L186.112 80.9984C186.266 80.9984 186.419 81.152 186.419 81.3568L186.266 83.0464C186.266 83.2 186.112 83.3536 185.907 83.3536Z" fill="#999999" stroke="#263238" stroke-miterlimit="10" stroke-linecap="round" stroke-linejoin="round"/>
<path d="M209.92 84.2752L187.853 82.0224C187.699 82.0224 187.597 81.8688 187.597 81.7152C187.597 81.5616 187.751 81.4592 187.904 81.4592L209.971 83.712C210.125 83.712 210.227 83.8656 210.227 84.0192C210.227 84.1728 210.074 84.3264 209.92 84.2752Z" fill="#263238"/>
<path d="M207.667 85.248L187.802 83.2C187.648 83.2 187.546 83.0464 187.546 82.8928C187.546 82.7392 187.699 82.6368 187.853 82.6368L207.718 84.6848C207.872 84.6848 207.974 84.8384 207.974 84.992C207.923 85.1456 207.821 85.248 207.667 85.248Z" fill="#263238"/>
<path d="M185.395 88.576L183.706 88.4224C183.552 88.4224 183.398 88.2688 183.398 88.064L183.552 86.3744C183.552 86.2208 183.706 86.0672 183.91 86.0672L185.6 86.2208C185.754 86.2208 185.907 86.3744 185.907 86.5792L185.754 88.2688C185.702 88.4736 185.549 88.6272 185.395 88.576Z" fill="#BFBFBF" stroke="#263238" stroke-miterlimit="10"/>
<path d="M209.408 89.5488L187.341 87.296C187.187 87.296 187.085 87.1424 187.085 86.9888C187.085 86.8352 187.238 86.7328 187.392 86.7328L209.459 88.9856C209.613 88.9856 209.715 89.1392 209.715 89.2928C209.664 89.4464 209.562 89.5488 209.408 89.5488Z" fill="#263238"/>
<path d="M207.104 90.5216L187.238 88.4736C187.085 88.4736 186.982 88.32 186.982 88.1664C186.982 88.0128 187.136 87.9104 187.29 87.9104L207.155 89.9584C207.309 89.9584 207.411 90.112 207.411 90.2656C207.411 90.4192 207.258 90.5216 207.104 90.5216Z" fill="#263238"/>
<path d="M184.832 93.8496L183.142 93.696C182.989 93.696 182.835 93.5424 182.835 93.3376L182.989 91.648C182.989 91.4944 183.142 91.3408 183.347 91.3408L185.037 91.4944C185.19 91.4944 185.344 91.648 185.344 91.8528L185.19 93.5424C185.19 93.7472 185.037 93.8496 184.832 93.8496Z" fill="white" stroke="#263238" stroke-miterlimit="10" stroke-linecap="round" stroke-linejoin="round"/>
<path d="M208.845 94.8224L186.778 92.5696C186.624 92.5696 186.522 92.416 186.522 92.2624C186.522 92.1088 186.675 92.0064 186.829 92.0064L208.896 94.2592C209.05 94.2592 209.152 94.4128 209.152 94.5664C209.152 94.72 208.999 94.8224 208.845 94.8224Z" fill="#263238"/>
<path d="M206.592 95.744L186.726 93.696C186.573 93.696 186.47 93.5424 186.47 93.3888C186.47 93.2352 186.624 93.1328 186.778 93.1328L206.643 95.1808C206.797 95.1808 206.899 95.3344 206.899 95.488C206.848 95.6928 206.746 95.7952 206.592 95.744Z" fill="#263238"/>
</g>
<mask id="mask10_159_1474" style="mask-type:luminance" maskUnits="userSpaceOnUse" x="130" y="40" width="95" height="123">
<path d="M224.051 48.5376L216.832 119.142L212.378 162.56L150.17 156.211L138.086 154.931L130.355 154.163L137.216 87.1424L142.029 40.1408L224.051 48.5376Z" fill="white"/>
</mask>
<g mask="url(#mask10_159_1474)">
<path d="M199.03 133.301L200.303 133.431L201.039 126.249L199.766 126.119L199.03 133.301Z" fill="#757575" stroke="#263238" stroke-miterlimit="10" stroke-linecap="round" stroke-linejoin="round"/>
<path d="M199.15 132.252L200.423 132.382L200.773 128.97L199.5 128.839L199.15 132.252Z" fill="#8EA6FC" stroke="#263238" stroke-miterlimit="10"/>
<path d="M202.04 131.798L203.313 131.928L204.049 124.746L202.776 124.616L202.04 131.798Z" fill="#757575" stroke="#263238" stroke-miterlimit="10" stroke-linecap="round" stroke-linejoin="round"/>
<path d="M202.613 126.494L202.263 129.907L203.537 130.037L203.887 126.625L202.613 126.494Z" fill="#8EA6FC" stroke="#263238" stroke-miterlimit="10"/>
<path d="M204.758 133.504L206.032 133.634L206.767 126.452L205.494 126.322L204.758 133.504Z" fill="#757575" stroke="#263238" stroke-miterlimit="10" stroke-linecap="round" stroke-linejoin="round"/>
<path d="M205.025 130.76L206.299 130.891L206.649 127.478L205.375 127.347L205.025 130.76Z" fill="#8EA6FC" stroke="#263238" stroke-miterlimit="10"/>
<path d="M196.365 131.62L197.638 131.75L198.374 124.569L197.101 124.438L196.365 131.62Z" fill="#757575" stroke="#263238" stroke-miterlimit="10" stroke-linecap="round" stroke-linejoin="round"/>
<path d="M196.439 130.515L197.713 130.645L198.062 127.233L196.789 127.102L196.439 130.515Z" fill="#8EA6FC" stroke="#263238" stroke-miterlimit="10"/>
<path d="M193.276 133.463L194.55 133.593L195.285 126.412L194.012 126.281L193.276 133.463Z" fill="#757575" stroke="#263238" stroke-miterlimit="10" stroke-linecap="round" stroke-linejoin="round"/>
<path d="M193.359 132.621L194.632 132.751L194.982 129.339L193.709 129.208L193.359 132.621Z" fill="#8EA6FC" stroke="#263238" stroke-miterlimit="10"/>
<path d="M190.653 131.318L191.926 131.448L192.662 124.267L191.389 124.136L190.653 131.318Z" fill="#757575" stroke="#263238" stroke-miterlimit="10" stroke-linecap="round" stroke-linejoin="round"/>
<path d="M190.672 131.048L191.946 131.179L192.295 127.766L191.022 127.636L190.672 131.048Z" fill="#8EA6FC" stroke="#263238" stroke-miterlimit="10"/>
<path d="M187.448 134.77L188.721 134.9L189.457 127.718L188.184 127.588L187.448 134.77Z" fill="#757575" stroke="#263238" stroke-miterlimit="10" stroke-linecap="round" stroke-linejoin="round"/>
<path d="M187.461 134.511L188.734 134.642L189.084 131.229L187.811 131.099L187.461 134.511Z" fill="#8EA6FC" stroke="#263238" stroke-miterlimit="10"/>
<path d="M185.059 129.949L186.332 130.079L187.068 122.898L185.795 122.767L185.059 129.949Z" fill="#757575" stroke="#263238" stroke-miterlimit="10" stroke-linecap="round" stroke-linejoin="round"/>
<path d="M185.187 128.887L186.46 129.017L186.81 125.605L185.536 125.474L185.187 128.887Z" fill="#8EA6FC" stroke="#263238" stroke-miterlimit="10"/>
<path d="M182.3 129.235L183.574 129.366L184.31 122.184L183.037 122.054L182.3 129.235Z" fill="#757575" stroke="#263238" stroke-miterlimit="10" stroke-linecap="round" stroke-linejoin="round"/>
<path d="M182.548 126.568L183.822 126.698L184.171 123.286L182.898 123.155L182.548 126.568Z" fill="#8EA6FC" stroke="#263238" stroke-miterlimit="10"/>
<path d="M178.975 133.498L180.249 133.629L180.984 126.447L179.711 126.317L178.975 133.498Z" fill="#757575" stroke="#263238" stroke-miterlimit="10" stroke-linecap="round" stroke-linejoin="round"/>
<path d="M179.291 130.486L180.565 130.616L180.914 127.204L179.641 127.073L179.291 130.486Z" fill="#8EA6FC" stroke="#263238" stroke-miterlimit="10"/>
<path d="M176.468 130.023L177.741 130.153L178.477 122.971L177.204 122.841L176.468 130.023Z" fill="#757575" stroke="#263238" stroke-miterlimit="10" stroke-linecap="round" stroke-linejoin="round"/>
<path d="M176.6 128.674L177.874 128.804L178.223 125.391L176.95 125.261L176.6 128.674Z" fill="#8EA6FC" stroke="#263238" stroke-miterlimit="10"/>
<path d="M173.443 131.599L174.716 131.729L175.453 124.547L174.179 124.417L173.443 131.599Z" fill="#757575" stroke="#263238" stroke-miterlimit="10" stroke-linecap="round" stroke-linejoin="round"/>
<path d="M173.563 130.548L174.837 130.679L175.186 127.266L173.913 127.136L173.563 130.548Z" fill="#8EA6FC" stroke="#263238" stroke-miterlimit="10"/>
<path d="M170.287 134.562L171.56 134.692L172.297 127.511L171.023 127.38L170.287 134.562Z" fill="#757575" stroke="#263238" stroke-miterlimit="10" stroke-linecap="round" stroke-linejoin="round"/>
<path d="M170.292 134.552L171.565 134.683L171.915 131.27L170.641 131.14L170.292 134.552Z" fill="#8EA6FC" stroke="#263238" stroke-miterlimit="10"/>
<path d="M167.906 129.688L169.179 129.819L169.915 122.637L168.642 122.507L167.906 129.688Z" fill="#757575" stroke="#263238" stroke-miterlimit="10" stroke-linecap="round" stroke-linejoin="round"/>
<path d="M167.976 128.911L169.249 129.041L169.599 125.629L168.325 125.498L167.976 128.911Z" fill="#8EA6FC" stroke="#263238" stroke-miterlimit="10"/>
<path d="M165.4 126.254L166.673 126.384L167.409 119.203L166.136 119.072L165.4 126.254Z" fill="#757575" stroke="#263238" stroke-miterlimit="10" stroke-linecap="round" stroke-linejoin="round"/>
<path d="M165.468 125.436L166.741 125.566L167.091 122.154L165.818 122.023L165.468 125.436Z" fill="#8EA6FC" stroke="#263238" stroke-miterlimit="10"/>
<path d="M162.172 129.769L163.446 129.9L164.181 122.718L162.908 122.587L162.172 129.769Z" fill="#757575" stroke="#263238" stroke-miterlimit="10" stroke-linecap="round" stroke-linejoin="round"/>
<path d="M162.439 127.028L163.713 127.159L164.063 123.746L162.789 123.616L162.439 127.028Z" fill="#8EA6FC" stroke="#263238" stroke-miterlimit="10"/>
<path d="M158.95 133.538L160.223 133.668L160.959 126.486L159.685 126.356L158.95 133.538Z" fill="#757575" stroke="#263238" stroke-miterlimit="10" stroke-linecap="round" stroke-linejoin="round"/>
<path d="M159.267 130.287L160.54 130.417L160.89 127.005L159.616 126.874L159.267 130.287Z" fill="#8EA6FC" stroke="#263238" stroke-miterlimit="10"/>
<path d="M156.524 129.172L157.797 129.303L158.533 122.121L157.259 121.991L156.524 129.172Z" fill="#757575" stroke="#263238" stroke-miterlimit="10" stroke-linecap="round" stroke-linejoin="round"/>
<path d="M156.606 128.096L157.88 128.227L158.23 124.814L156.956 124.683L156.606 128.096Z" fill="#8EA6FC" stroke="#263238" stroke-miterlimit="10"/>
<path d="M153.823 127.672L155.096 127.803L155.833 120.621L154.559 120.49L153.823 127.672Z" fill="#757575" stroke="#263238" stroke-miterlimit="10" stroke-linecap="round" stroke-linejoin="round"/>
<path d="M154.127 124.72L155.4 124.851L155.75 121.438L154.477 121.308L154.127 124.72Z" fill="#8EA6FC" stroke="#263238" stroke-miterlimit="10"/>
<path d="M150.716 129.631L151.989 129.762L152.725 122.58L151.452 122.449L150.716 129.631Z" fill="#757575" stroke="#263238" stroke-miterlimit="10" stroke-linecap="round" stroke-linejoin="round"/>
<path d="M150.716 129.671L151.99 129.801L152.339 126.389L151.066 126.258L150.716 129.671Z" fill="#8EA6FC" stroke="#263238" stroke-miterlimit="10"/>
<path d="M148.111 127.131L149.385 127.261L150.12 120.08L148.847 119.949L148.111 127.131Z" fill="#757575" stroke="#263238" stroke-miterlimit="10" stroke-linecap="round" stroke-linejoin="round"/>
<path d="M148.187 126.581L149.461 126.711L149.811 123.299L148.537 123.168L148.187 126.581Z" fill="#8EA6FC" stroke="#263238" stroke-miterlimit="10"/>
<path d="M145.213 127.83L146.486 127.961L147.222 120.779L145.948 120.649L145.213 127.83Z" fill="#757575" stroke="#263238" stroke-miterlimit="10" stroke-linecap="round" stroke-linejoin="round"/>
<path d="M145.231 127.521L146.504 127.651L146.854 124.239L145.58 124.108L145.231 127.521Z" fill="#8EA6FC" stroke="#263238" stroke-miterlimit="10"/>
<path d="M142.453 126.576L143.727 126.706L144.462 119.524L143.189 119.394L142.453 126.576Z" fill="#757575" stroke="#263238" stroke-miterlimit="10" stroke-linecap="round" stroke-linejoin="round"/>
<path d="M142.828 123.042L144.101 123.172L144.451 119.76L143.178 119.629L142.828 123.042Z" fill="#8EA6FC" stroke="#263238" stroke-miterlimit="10"/>
</g>
<mask id="mask11_159_1474" style="mask-type:luminance" maskUnits="userSpaceOnUse" x="130" y="40" width="95" height="123">
<path d="M224.051 48.5376L216.832 119.142L212.378 162.56L150.17 156.211L138.086 154.931L130.355 154.163L137.216 87.1424L142.029 40.1408L224.051 48.5376Z" fill="white"/>
</mask>
<g mask="url(#mask11_159_1474)">
<path d="M206.797 142.182L149.35 136.294C149.043 136.243 148.736 136.499 148.685 136.858C148.634 137.165 148.89 137.472 149.248 137.523L206.643 143.36C206.95 143.411 207.258 143.155 207.309 142.797C207.36 142.49 207.104 142.182 206.797 142.182Z" fill="#263238"/>
<path d="M206.336 146.483L139.52 139.622C139.213 139.571 138.905 139.827 138.854 140.186C138.803 140.493 139.059 140.8 139.417 140.851L206.233 147.712C206.541 147.763 206.848 147.507 206.899 147.149C206.899 146.842 206.643 146.534 206.336 146.483Z" fill="#263238"/>
<path d="M177.817 147.968L139.059 143.974C138.752 143.923 138.445 144.179 138.393 144.538C138.342 144.845 138.598 145.152 138.957 145.203L177.715 149.197C178.022 149.248 178.329 148.992 178.381 148.634C178.381 148.275 178.176 147.968 177.817 147.968Z" fill="#263238"/>
</g>
<mask id="mask12_159_1474" style="mask-type:luminance" maskUnits="userSpaceOnUse" x="130" y="40" width="95" height="123">
<path d="M224.051 48.5376L216.832 119.142L212.378 162.56L150.17 156.211L138.086 154.931L130.355 154.163L137.216 87.1424L142.029 40.1408L224.051 48.5376Z" fill="white"/>
</mask>
<g mask="url(#mask12_159_1474)">
<path opacity="0.2" d="M213.094 109.312C211.098 109.158 210.432 112.333 210.432 112.333C210.432 112.333 207.309 108.237 207.821 98.56C207.821 98.56 206.285 94.2592 202.189 96.8704C198.093 99.4816 193.843 108.544 194.867 118.477L186.88 92.0064C184.115 92.5696 178.534 96.3072 180.019 114.176L171.315 104.96C171.315 104.96 168.96 104.192 167.629 106.291C166.298 108.39 166.912 123.29 168.038 128.87C169.165 134.451 166.349 145.664 166.349 145.664C166.349 145.664 163.328 132.966 157.901 129.741L137.216 87.1424L130.355 154.163L138.086 154.931L150.528 148.89C150.477 151.706 150.374 154.266 150.17 156.16L212.326 162.509L216.781 119.091C215.296 113.715 213.862 109.363 213.094 109.312Z" fill="black" fill-opacity="0.7"/>
</g>
<path d="M224.051 48.5376L216.832 119.142L212.378 162.56L150.17 156.211L138.086 154.931L130.355 154.163L137.216 87.1424L142.029 40.1408L224.051 48.5376Z" stroke="#263238" stroke-miterlimit="10" stroke-linecap="round" stroke-linejoin="round"/>
<path d="M223.027 230.298L186.675 236.493C186.675 236.493 180.326 202.906 176.589 197.581C172.8 192.307 173.517 190.106 171.674 186.522C170.547 184.371 165.018 180.326 160.666 176.384C160.307 176.026 159.898 175.718 159.539 175.36C159.386 175.206 159.232 175.053 159.078 174.95C158.515 174.387 157.952 173.824 157.491 173.261C157.338 173.056 157.133 172.851 156.979 172.698C156.058 171.571 155.443 170.547 155.238 169.574C155.238 169.523 155.238 169.472 155.187 169.421C155.187 169.37 155.187 169.267 155.136 169.216C155.034 168.397 154.931 167.526 154.829 166.554C154.829 166.349 154.778 166.144 154.778 165.939C154.778 165.837 154.778 165.786 154.726 165.683C154.624 164.864 154.522 163.994 154.419 163.123C154.317 162.202 154.163 161.229 154.061 160.256C154.01 159.898 153.958 159.59 153.907 159.232C153.856 158.874 153.805 158.464 153.702 158.106C153.651 157.798 153.6 157.44 153.549 157.133C153.549 157.082 153.498 157.03 153.498 156.979C153.446 156.57 153.344 156.211 153.293 155.853C153.293 155.802 153.293 155.75 153.293 155.699C153.242 155.392 153.139 155.034 153.088 154.726C152.934 154.01 152.73 153.242 152.576 152.525C152.166 151.091 151.757 149.811 151.245 148.634C148.634 142.797 152.013 144.896 149.965 129.843C149.965 129.843 151.501 126.362 155.802 129.126C156.109 129.331 156.467 129.587 156.774 129.843C157.645 130.56 158.413 131.379 159.078 132.301C159.949 133.53 160.614 134.861 161.075 136.397C161.741 138.598 161.997 141.107 161.638 143.718C161.638 143.718 164.864 154.829 166.554 157.338C168.243 159.846 175.309 145.357 174.848 143.667C174.746 143.309 174.643 142.49 174.49 141.363C174.438 141.107 174.438 140.851 174.387 140.544C174.336 140.288 174.336 139.981 174.285 139.674C174.285 139.52 174.234 139.366 174.234 139.213C174.234 139.162 174.234 139.11 174.234 139.008C174.182 138.445 174.08 137.83 174.029 137.165C174.029 137.011 173.978 136.806 173.978 136.653C173.926 136.346 173.926 136.038 173.875 135.731C173.875 135.68 173.875 135.629 173.875 135.578C173.875 135.424 173.824 135.219 173.824 135.066C173.773 134.707 173.722 134.349 173.722 133.99C173.67 133.683 173.67 133.376 173.619 133.069C173.568 132.506 173.517 131.891 173.466 131.328C173.414 130.918 173.363 130.509 173.363 130.099C173.363 129.997 173.363 129.894 173.312 129.843C173.107 127.59 172.902 125.747 172.851 124.928C172.851 124.928 167.731 117.35 167.219 113.766C166.707 110.182 166.758 106.445 168.909 104.909C173.978 101.274 172.493 107.11 174.797 109.517C177.05 111.923 180.582 115.866 182.528 117.094C184.371 118.272 185.958 122.726 186.214 123.392C185.958 122.419 183.347 112.742 183.296 110.797C183.245 108.749 181.658 97.8944 184.32 94.0032C186.982 90.112 190.515 93.1328 190.874 93.9008C191.181 94.6688 191.283 105.165 192.256 108.083C193.178 111.002 197.12 123.187 197.12 123.187C197.12 123.187 197.274 111.36 198.144 106.035C199.014 100.762 201.318 96.6144 203.571 96.3584C205.824 96.1024 207.923 98.6112 207.923 98.6112C207.923 98.6112 207.053 107.059 207.309 109.005C207.565 110.95 206.95 118.016 208.026 121.805C208.026 121.805 207.923 111.718 209.459 110.438C211.046 109.158 212.378 108.544 213.248 109.414C214.118 110.285 214.323 116.275 215.194 119.859C216.115 123.443 215.962 128.358 216.576 133.939C217.139 139.52 219.494 147.302 219.034 151.757C218.573 156.211 217.139 167.219 216.013 173.722C214.886 180.224 211.968 189.082 211.968 189.082C211.968 189.082 213.299 193.843 213.043 198.042C212.634 202.189 223.027 230.298 223.027 230.298Z" fill="white"/>
<path opacity="0.4" d="M192.102 108.032C192.819 110.182 195.123 117.402 196.301 121.037C196.301 121.037 191.232 124.774 191.334 128.256C191.488 131.738 190.413 138.752 188.109 138.547C185.856 138.342 186.01 123.75 185.293 121.344C185.754 122.419 186.061 123.238 186.112 123.443C185.958 122.829 183.245 112.794 183.194 110.797C183.194 110.336 183.091 109.414 182.989 108.186C182.989 108.186 188.058 103.373 191.744 106.291C191.846 106.957 192 107.571 192.102 108.032Z" fill="#8EA6FC"/>
<path opacity="0.4" d="M207.206 112.179C204.851 114.432 201.267 118.374 200.806 122.214C200.806 122.214 202.138 132.915 201.574 137.523L196.966 123.085C196.966 123.085 197.12 111.258 198.041 105.933C198.041 105.779 198.093 105.626 198.144 105.472C200.397 104.294 203.52 103.27 207.411 103.219C207.258 105.523 207.104 107.93 207.206 108.902C207.258 109.568 207.258 110.746 207.206 112.179Z" fill="#8EA6FC"/>
<path opacity="0.4" d="M209.306 110.336C209.254 110.387 209.101 110.49 208.896 110.694C208.998 110.438 209.152 110.234 209.306 110.029V110.336Z" fill="#8EA6FC"/>
<path opacity="0.4" d="M210.534 139.878C210.534 139.878 207.514 128.461 207.462 119.296C207.462 115.917 207.821 112.794 208.947 110.694C209.05 110.438 209.203 110.234 209.357 110.029V110.336C210.022 109.824 210.637 109.363 211.149 109.158C210.278 110.49 209.306 113.101 210.432 117.35C212.224 123.955 210.637 132.045 210.534 139.878Z" fill="#8EA6FC"/>
<path opacity="0.4" d="M168.55 161.587C168.55 161.587 169.37 172.442 160.614 176.333C160.256 175.974 159.846 175.667 159.539 175.309C159.386 175.155 159.232 175.002 159.078 174.899C158.515 174.336 157.952 173.773 157.491 173.21C157.338 173.005 157.133 172.8 156.979 172.646C156.058 171.52 155.443 170.496 155.238 169.523C155.238 169.472 155.187 169.421 155.187 169.37C155.187 169.318 155.187 169.216 155.136 169.165C155.034 168.397 154.931 167.475 154.829 166.502C154.829 166.298 154.778 166.093 154.778 165.888C154.778 165.786 154.778 165.734 154.726 165.632C154.624 164.813 154.522 163.942 154.419 163.021C154.317 162.099 154.163 161.126 154.061 160.154C154.01 159.795 153.958 159.488 153.907 159.13C153.856 158.771 153.805 158.362 153.702 158.003C153.651 157.696 153.6 157.338 153.549 157.03C153.549 156.979 153.549 156.928 153.498 156.877C153.446 156.518 153.344 156.109 153.293 155.75C153.293 155.699 153.293 155.648 153.293 155.597C153.242 155.238 153.139 154.931 153.088 154.624C152.934 153.907 152.73 153.139 152.576 152.422C156.058 149.094 163.994 151.194 160.154 143.462C160.154 143.462 162.099 136.858 156.723 129.741C160.41 132.71 162.253 137.882 161.587 143.565C161.587 143.565 164.813 154.675 166.502 157.184C168.192 159.693 175.258 145.203 174.797 143.514C174.694 143.155 174.592 142.336 174.438 141.21C174.387 140.954 174.387 140.698 174.336 140.39C174.285 140.134 174.285 139.827 174.234 139.52C174.234 139.366 174.182 139.213 174.182 139.059C174.182 139.008 174.182 138.957 174.182 138.854C174.131 138.291 174.029 137.677 173.978 137.011C173.978 136.858 173.926 136.653 173.926 136.499C173.875 136.192 173.875 135.885 173.824 135.578C173.824 135.526 173.824 135.475 173.824 135.424C173.824 135.27 173.773 135.066 173.773 134.861C173.722 134.502 173.722 134.144 173.67 133.786C173.619 133.478 173.619 133.171 173.568 132.864C173.517 132.301 173.466 131.686 173.414 131.123C173.363 130.714 173.312 130.253 173.312 129.894C173.312 129.792 173.312 129.69 173.312 129.638C173.466 130.304 176.026 142.643 177.51 145.562C178.995 148.582 172.544 164.198 168.55 161.587Z" fill="#8EA6FC"/>
<path opacity="0.4" d="M215.859 173.619C214.733 180.122 211.814 188.979 211.814 188.979C211.814 188.979 213.146 193.741 212.89 197.939C212.838 199.066 213.504 201.933 214.579 205.517C214.272 204.749 210.995 196.25 211.046 193.331C211.098 190.259 210.227 189.389 208.486 185.6C206.746 181.811 204.134 182.221 204.134 182.221C204.134 182.221 203.11 191.693 200.755 185.498C198.349 179.251 197.888 171.981 203.93 146.79C203.93 146.79 204.851 149.965 204.083 159.334C203.315 168.704 205.568 171.571 205.568 171.571C205.568 171.571 210.432 163.584 213.555 152.934C213.555 152.934 212.787 163.891 212.07 168.858C211.354 173.824 214.528 163.072 216.73 156.416C218.778 150.17 218.88 147.814 218.112 143.36C218.675 146.483 219.136 149.453 218.931 151.654C218.419 156.109 217.037 167.168 215.859 173.619Z" fill="#8EA6FC"/>
<path opacity="0.4" d="M174.797 194.765C176.589 197.581 180.889 201.318 183.501 211.61C186.061 221.901 184.473 233.165 184.473 233.165L174.797 194.765Z" fill="#8EA6FC"/>
<path opacity="0.2" d="M161.024 136.294C161.024 136.294 151.962 140.902 151.245 148.582C148.634 142.746 152.013 144.845 149.965 129.792C149.965 129.792 151.501 126.31 155.802 129.075C156.109 129.28 156.467 129.536 156.774 129.792C157.645 130.509 158.413 131.328 159.078 132.25L161.024 136.294Z" fill="black" fill-opacity="0.7"/>
<path d="M186.675 236.493C186.675 236.493 180.327 202.854 176.589 197.581C172.8 192.307 173.517 190.106 171.674 186.522C169.831 182.938 155.853 174.285 155.239 169.216C154.624 164.147 153.907 154.419 151.296 148.582C148.685 142.746 152.064 144.845 150.016 129.792C150.016 129.792 151.552 126.31 155.853 129.075C160.154 131.84 162.407 137.421 161.69 143.616C161.69 143.616 164.915 154.675 166.656 157.235C168.346 159.744 175.411 145.254 174.951 143.565C174.49 141.875 173.159 127.437 172.954 124.826C172.954 124.826 167.834 117.248 167.322 113.664C166.81 110.08 166.861 106.342 168.96 104.806C174.029 101.171 172.544 107.008 174.848 109.414C177.101 111.821 180.634 115.763 182.579 116.992C184.576 118.221 186.266 123.392 186.266 123.392C186.266 123.392 183.399 112.794 183.296 110.694C183.245 108.646 181.658 97.792 184.32 93.952C186.983 90.0608 190.515 93.0816 190.874 93.8496C191.181 94.6176 191.283 105.114 192.256 108.032C193.178 110.95 197.12 123.136 197.12 123.136C197.12 123.136 197.274 111.309 198.195 105.984C199.066 100.71 201.37 96.5632 203.623 96.3072C205.875 96.0512 207.975 98.56 207.975 98.56C207.975 98.56 207.104 107.008 207.36 108.954C207.616 110.899 207.002 117.965 208.077 121.754C208.077 121.754 207.975 111.667 209.511 110.387C211.098 109.107 212.429 108.493 213.299 109.363C214.17 110.234 214.375 116.224 215.245 119.808C216.167 123.392 216.013 128.307 216.627 133.888C217.191 139.469 219.546 147.302 219.085 151.706C218.624 156.16 217.191 167.168 216.064 173.67C214.938 180.173 212.019 189.03 212.019 189.03C212.019 189.03 213.351 193.741 213.095 197.99C212.839 202.189 223.232 230.349 223.232 230.349" stroke="#263238" stroke-miterlimit="10" stroke-linecap="round" stroke-linejoin="round"/>
<path d="M196.967 123.136C198.042 125.645 200.653 136.141 201.575 137.574C202.496 139.008 203.571 139.469 203.571 139.469" stroke="#263238" stroke-miterlimit="10" stroke-linecap="round" stroke-linejoin="round"/>
<path d="M207.872 121.754C207.872 121.754 207.667 123.904 208.794 130.765C209.971 137.626 210.535 140.544 211.2 142.08" stroke="#263238" stroke-miterlimit="10" stroke-linecap="round" stroke-linejoin="round"/>
<path d="M186.163 123.392C187.597 127.59 188.365 134.246 189.184 136.243C190.003 138.24 190.72 138.65 190.72 138.65" stroke="#263238" stroke-miterlimit="10" stroke-linecap="round" stroke-linejoin="round"/>
<path d="M188.467 133.427C188.467 133.427 189.952 134.554 190.413 135.885" stroke="#263238" stroke-miterlimit="10" stroke-linecap="round" stroke-linejoin="round"/>
<path d="M166.554 157.235C166.554 157.235 167.322 162.765 170.803 162.355" stroke="#263238" stroke-miterlimit="10" stroke-linecap="round" stroke-linejoin="round"/>
<path d="M174.848 143.565C174.848 143.565 175.77 150.17 174.285 152.934" stroke="#263238" stroke-miterlimit="10" stroke-linecap="round" stroke-linejoin="round"/>
<path d="M202.598 143.616C202.598 143.616 204.954 145.05 203.366 149.248C201.779 153.446 199.066 170.342 199.066 170.342" stroke="#263238" stroke-miterlimit="10" stroke-linecap="round" stroke-linejoin="round"/>
<path d="M212.787 148.019C213.76 151.808 213.863 151.91 212.275 156.57C210.688 161.229 208.128 172.646 208.128 172.646" stroke="#263238" stroke-miterlimit="10" stroke-linecap="round" stroke-linejoin="round"/>
<path d="M211.814 188.979C211.814 188.979 210.278 185.907 211.558 183.347" stroke="#263238" stroke-miterlimit="10" stroke-linecap="round" stroke-linejoin="round"/>
<path d="M176.589 197.581C176.589 197.581 180.429 203.008 182.118 209.05" stroke="#263238" stroke-miterlimit="10" stroke-linecap="round" stroke-linejoin="round"/>
<path d="M204.954 102.502L206.029 101.478L206.49 101.376L206.438 101.888L205.517 103.066L204.954 102.502Z" fill="#757575" stroke="#263238" stroke-miterlimit="10" stroke-linecap="round" stroke-linejoin="round"/>
<path d="M205.824 103.066L204.134 106.906L158.464 167.782L153.395 164.557L160.307 155.904L201.318 104.448L204.954 102.144C204.902 102.195 205.67 102.349 205.824 103.066Z" fill="#8EA6FC"/>
<mask id="mask13_159_1474" style="mask-type:luminance" maskUnits="userSpaceOnUse" x="153" y="102" width="53" height="66">
<path d="M205.824 103.066L204.134 106.906L158.464 167.782L153.395 164.557L160.307 155.904L201.318 104.448L204.954 102.144C204.902 102.195 205.67 102.349 205.824 103.066Z" fill="white"/>
</mask>
<g mask="url(#mask13_159_1474)">
<path opacity="0.3" d="M205.824 103.066L204.134 106.906L158.464 167.782L153.395 164.557L160.307 155.904C163.482 155.597 163.994 157.44 163.994 157.44L203.366 106.086C202.957 104.704 201.318 104.448 201.318 104.448L204.954 102.144C204.902 102.195 205.67 102.349 205.824 103.066Z" fill="black" fill-opacity="0.7"/>
</g>
<path d="M205.824 103.066L204.134 106.906L158.464 167.782L153.395 164.557L160.307 155.904L201.318 104.448L204.954 102.144C204.902 102.195 205.67 102.349 205.824 103.066Z" stroke="#263238" stroke-miterlimit="10" stroke-linecap="round" stroke-linejoin="round"/>
<path d="M173.363 149.811C173.363 149.811 168.243 159.949 163.379 167.066L159.898 167.987C159.898 167.987 151.859 175.974 146.944 179.968C146.944 179.968 145.664 179.251 144.538 177.971C144.538 177.971 151.501 164.608 159.181 156.16C159.181 156.16 160.307 156.518 161.69 157.491C162.509 158.106 163.482 158.925 164.352 160L172.954 149.197L173.363 149.811Z" fill="#8EA6FC"/>
<mask id="mask14_159_1474" style="mask-type:luminance" maskUnits="userSpaceOnUse" x="144" y="149" width="30" height="31">
<path d="M173.363 149.811C173.363 149.811 168.243 159.949 163.379 167.066L159.898 167.987C159.898 167.987 151.859 175.974 146.944 179.968C146.944 179.968 145.664 179.251 144.538 177.971C144.538 177.971 151.501 164.608 159.181 156.16C159.181 156.16 160.307 156.518 161.69 157.491C162.509 158.106 163.482 158.925 164.352 160L172.954 149.197L173.363 149.811Z" fill="white"/>
</mask>
<g mask="url(#mask14_159_1474)">
<path opacity="0.3" d="M173.363 149.811C173.363 149.811 168.243 159.949 163.379 167.066L159.898 167.987C159.898 167.987 151.859 175.974 146.944 179.968L147.098 177.818C152.422 169.677 159.181 160.819 161.741 157.491C162.56 158.106 163.533 158.925 164.403 160L159.642 166.349L162.355 165.837L173.005 149.146L173.363 149.811Z" fill="black" fill-opacity="0.7"/>
</g>
<path d="M173.363 149.811C173.363 149.811 168.243 159.949 163.379 167.066L159.898 167.987C159.898 167.987 151.859 175.974 146.944 179.968C146.944 179.968 145.664 179.251 144.538 177.971C144.538 177.971 151.501 164.608 159.181 156.16C159.181 156.16 160.307 156.518 161.69 157.491C162.509 158.106 163.482 158.925 164.352 160L172.954 149.197L173.363 149.811Z" stroke="#263238" stroke-miterlimit="10" stroke-linecap="round" stroke-linejoin="round"/>
<path d="M190.72 138.65L176.435 152.474L174.131 154.675C175.667 150.682 174.95 144.435 174.848 143.718C174.848 143.667 174.848 143.667 174.848 143.667C174.848 143.616 174.848 143.565 174.848 143.565C174.746 143.206 174.643 142.387 174.49 141.261C174.438 141.005 174.438 140.749 174.387 140.442C174.336 140.186 174.336 139.878 174.285 139.571C174.285 139.418 174.234 139.264 174.234 139.11C174.234 139.059 174.234 139.008 174.234 138.906C174.182 138.342 174.08 137.728 174.029 137.062C174.029 136.909 173.978 136.704 173.978 136.55C173.926 136.243 173.926 135.936 173.875 135.629C173.875 135.578 173.875 135.526 173.875 135.475C173.875 135.322 173.824 135.117 173.824 134.912C173.773 134.554 173.773 134.195 173.722 133.837C173.67 133.53 173.67 133.222 173.619 132.915C173.568 132.352 173.517 131.738 173.466 131.174C173.414 130.765 173.363 130.355 173.363 129.946C173.363 129.843 173.363 129.741 173.363 129.69C173.158 127.437 172.954 125.594 172.902 124.774C172.902 124.774 167.782 117.197 167.27 113.613C166.758 110.029 166.81 106.291 168.96 104.755C174.029 101.12 172.544 106.957 174.848 109.363C177.101 111.77 180.634 115.712 182.579 116.941C184.576 118.17 186.266 123.341 186.266 123.341C187.699 127.539 188.467 134.195 189.286 136.192C190.003 138.24 190.72 138.65 190.72 138.65Z" fill="white"/>
<path d="M188.467 133.427C188.467 133.427 189.952 134.554 190.413 135.885" stroke="#263238" stroke-miterlimit="10" stroke-linecap="round" stroke-linejoin="round"/>
<path opacity="0.4" d="M174.695 109.414C176.947 111.821 180.429 115.763 182.426 116.992C182.17 116.838 178.535 115.098 176.487 117.043C174.387 119.091 172.851 124.826 172.851 124.826C172.851 124.826 167.731 117.248 167.219 113.664C166.707 110.08 166.759 106.342 168.909 104.806C173.927 101.171 172.442 107.008 174.695 109.414Z" fill="#8EA6FC"/>
<path opacity="0.4" d="M176.435 152.474L174.131 154.675C175.667 150.682 174.95 144.435 174.848 143.718C174.848 143.667 174.848 143.616 174.848 143.565C174.746 143.206 174.643 142.387 174.49 141.261C174.438 141.005 174.438 140.749 174.387 140.442C174.336 140.186 174.336 139.878 174.285 139.571C174.285 139.418 174.234 139.264 174.234 139.11C174.234 139.059 174.234 139.008 174.234 138.906C174.182 138.342 174.08 137.728 174.029 137.062C174.029 136.909 173.978 136.704 173.978 136.55C173.926 136.243 173.926 135.936 173.875 135.629C173.875 135.578 173.875 135.526 173.875 135.475C173.875 135.322 173.824 135.117 173.824 134.912C173.773 134.554 173.773 134.195 173.722 133.837C173.67 133.53 173.67 133.222 173.619 132.915C173.568 132.352 173.517 131.738 173.466 131.174C173.414 130.765 173.363 130.304 173.363 129.946C173.363 129.843 173.363 129.741 173.363 129.69C173.517 130.355 176.077 142.694 177.562 145.613C178.074 146.688 177.51 149.504 176.435 152.474Z" fill="#8EA6FC"/>
<path d="M190.72 138.65C190.72 138.65 190.003 138.24 189.184 136.243C188.365 134.246 187.597 127.59 186.163 123.392C186.163 123.392 184.422 118.272 182.477 116.992C180.48 115.763 176.998 111.821 174.746 109.414C172.493 107.008 173.978 101.171 168.858 104.806C166.707 106.342 166.656 110.08 167.219 113.664C167.731 117.248 172.851 124.826 172.851 124.826C173.056 127.437 174.438 141.875 174.848 143.565" stroke="#263238" stroke-miterlimit="10" stroke-linecap="round" stroke-linejoin="round"/>
<path d="M174.848 143.565C174.848 143.565 175.77 150.17 174.285 152.934" stroke="#263238" stroke-miterlimit="10" stroke-linecap="round" stroke-linejoin="round"/>
<path opacity="0.2" d="M87.2959 151.603C87.2959 151.603 90.5215 166.656 83.5071 177.613C76.4927 188.57 71.0655 191.488 68.6591 194.765C66.2527 198.042 56.7295 216.32 56.7295 216.32L45.6191 183.398L56.7295 142.694L87.2959 151.603Z" fill="black" fill-opacity="0.7"/>
<path d="M152.781 140.083L83.8655 169.114L76.7487 172.083L63.3855 140.288L32.3071 66.4576L108.288 34.4576L152.781 140.083Z" fill="white"/>
<mask id="mask15_159_1474" style="mask-type:luminance" maskUnits="userSpaceOnUse" x="32" y="34" width="121" height="139">
<path d="M152.781 140.083L83.8655 169.114L76.7487 172.083L63.3855 140.288L32.3071 66.4576L108.288 34.4576L152.781 140.083Z" fill="white"/>
</mask>
<g mask="url(#mask15_159_1474)">
<path d="M88.6784 48.1792L55.8592 62.0032C55.2448 62.2592 54.9376 62.976 55.1936 63.5904C55.4496 64.2048 56.1664 64.512 56.7808 64.256L89.6 50.432C90.2144 50.176 90.5216 49.4592 90.2656 48.8448C90.0096 48.2304 89.2928 47.9232 88.6784 48.1792Z" fill="#263238"/>
</g>
<mask id="mask16_159_1474" style="mask-type:luminance" maskUnits="userSpaceOnUse" x="32" y="34" width="121" height="139">
<path d="M152.781 140.083L83.8655 169.114L76.7487 172.083L63.3855 140.288L32.3071 66.4576L108.288 34.4576L152.781 140.083Z" fill="white"/>
</mask>
<g mask="url(#mask16_159_1474)">
<path d="M82.3808 56.2176L65.9968 63.1296C65.6896 63.2832 65.5361 63.5904 65.6897 63.8976C65.8433 64.2048 66.1505 64.3584 66.4577 64.2048L82.8417 57.2928C83.1489 57.1392 83.3025 56.832 83.1489 56.5248C83.0464 56.2688 82.6881 56.1152 82.3808 56.2176Z" fill="#263238"/>
</g>
<mask id="mask17_159_1474" style="mask-type:luminance" maskUnits="userSpaceOnUse" x="32" y="34" width="121" height="139">
<path d="M152.781 140.083L83.8655 169.114L76.7487 172.083L63.3855 140.288L32.3071 66.4576L108.288 34.4576L152.781 140.083Z" fill="white"/>
</mask>
<g mask="url(#mask17_159_1474)">
<path d="M109.363 98.304C109.363 98.304 110.08 103.731 108.032 104.602C106.189 105.37 103.731 102.451 101.632 103.373C99.4817 104.243 101.171 111.974 99.1233 112.845C97.0753 113.715 94.6177 110.541 92.8257 111.309C91.0337 112.077 92.1089 116.019 90.3169 116.787C88.8321 117.402 86.6817 114.278 84.9409 113.562C84.5825 113.408 84.2241 113.357 83.9169 113.51C82.1249 114.278 82.9953 122.522 81.4593 123.187C80.9473 123.392 80.4865 123.443 80.0769 123.392C79.4625 123.341 78.8993 123.187 78.3361 123.238C78.1313 123.238 77.9265 123.29 77.6705 123.392C76.3393 123.955 76.5441 128.307 75.3153 128.819C74.0865 129.331 72.9089 128.717 71.6289 129.229C70.3489 129.792 70.3489 132.045 68.4033 132.864L69.2225 134.81L116.378 114.944" fill="#BFBFBF"/>
<path d="M109.363 98.304C109.363 98.304 110.08 103.731 108.032 104.602C106.189 105.37 103.731 102.451 101.632 103.373C99.4817 104.243 101.171 111.974 99.1233 112.845C97.0753 113.715 94.6177 110.541 92.8257 111.309C91.0337 112.077 92.1089 116.019 90.3169 116.787C88.8321 117.402 86.6817 114.278 84.9409 113.562C84.5825 113.408 84.2241 113.357 83.9169 113.51C82.1249 114.278 82.9953 122.522 81.4593 123.187C80.9473 123.392 80.4865 123.443 80.0769 123.392C79.4625 123.341 78.8993 123.187 78.3361 123.238C78.1313 123.238 77.9265 123.29 77.6705 123.392C76.3393 123.955 76.5441 128.307 75.3153 128.819C74.0865 129.331 72.9089 128.717 71.6289 129.229C70.3489 129.792 70.3489 132.045 68.4033 132.864L69.2225 134.81L116.378 114.944" stroke="#263238" stroke-miterlimit="10"/>
<path d="M59.6992 112.077L69.2224 134.758L118.579 113.971" stroke="#263238" stroke-miterlimit="10" stroke-linecap="round" stroke-linejoin="round"/>
<path d="M113.152 107.315C113.152 107.315 112.896 107.008 112.589 106.701C111.975 106.138 111.002 105.37 110.285 105.677C109.568 105.984 109.517 107.162 109.517 108.442C109.517 109.978 109.671 111.667 108.903 111.974C108.237 112.23 107.623 111.821 107.008 111.36C106.291 110.848 105.575 110.285 104.704 110.643C103.271 111.258 103.68 113.152 103.168 114.79C102.912 115.61 102.4 116.378 101.274 116.838C99.9937 117.35 98.7649 116.838 97.5361 116.019C95.4881 114.637 93.6961 112.384 92.5185 112.896C90.6241 113.664 92.7233 118.784 90.6753 119.603C89.5489 120.064 87.1937 116.531 84.9409 113.459C83.1489 111.053 81.4081 108.954 80.3329 109.363C77.8753 110.387 81.9201 122.522 80.1281 123.29H80.0769C79.3601 123.597 78.7969 123.392 78.3361 123.136C77.7217 122.778 77.1585 122.266 76.4929 122.573C75.2129 123.136 75.9297 127.898 74.4961 128.512C73.0625 129.126 72.1921 128.256 70.6049 128.922C69.2225 129.485 68.4033 132.813 68.4033 132.813L69.2225 134.758L116.378 114.893" fill="#757575"/>
<path d="M113.152 107.315C113.152 107.315 112.896 107.008 112.589 106.701C111.975 106.138 111.002 105.37 110.285 105.677C109.568 105.984 109.517 107.162 109.517 108.442C109.517 109.978 109.671 111.667 108.903 111.974C108.237 112.23 107.623 111.821 107.008 111.36C106.291 110.848 105.575 110.285 104.704 110.643C103.271 111.258 103.68 113.152 103.168 114.79C102.912 115.61 102.4 116.378 101.274 116.838C99.9937 117.35 98.7649 116.838 97.5361 116.019C95.4881 114.637 93.6961 112.384 92.5185 112.896C90.6241 113.664 92.7233 118.784 90.6753 119.603C89.5489 120.064 87.1937 116.531 84.9409 113.459C83.1489 111.053 81.4081 108.954 80.3329 109.363C77.8753 110.387 81.9201 122.522 80.1281 123.29H80.0769C79.3601 123.597 78.7969 123.392 78.3361 123.136C77.7217 122.778 77.1585 122.266 76.4929 122.573C75.2129 123.136 75.9297 127.898 74.4961 128.512C73.0625 129.126 72.1921 128.256 70.6049 128.922C69.2225 129.485 68.4033 132.813 68.4033 132.813L69.2225 134.758L116.378 114.893" stroke="#263238" stroke-miterlimit="10" stroke-linecap="round" stroke-linejoin="round"/>
<path d="M103.219 123.494L86.8352 130.406C86.528 130.56 86.3744 130.867 86.528 131.174C86.6816 131.482 86.9888 131.635 87.296 131.482L103.68 124.57C103.987 124.416 104.141 124.109 103.987 123.802C103.834 123.494 103.526 123.392 103.219 123.494Z" fill="#263238"/>
<path d="M117.094 98.5088L115.507 99.1744C115.354 99.2256 115.149 99.1744 115.098 99.0208L114.432 97.4336C114.381 97.28 114.432 97.0752 114.586 97.024L116.173 96.3584C116.326 96.3072 116.531 96.3584 116.582 96.512L117.248 98.0992C117.35 98.2528 117.248 98.4064 117.094 98.5088Z" fill="#BFBFBF" stroke="#263238" stroke-miterlimit="10"/>
<path d="M124.774 93.6448L118.221 96.4096C118.067 96.4608 117.914 96.4096 117.862 96.256C117.811 96.1024 117.862 95.9488 118.016 95.8976L124.57 93.1328C124.723 93.0816 124.877 93.1328 124.928 93.2864C124.979 93.44 124.877 93.5936 124.774 93.6448Z" fill="#263238"/>
<path d="M123.238 95.5904L118.682 97.4848C118.528 97.536 118.374 97.4848 118.323 97.3312C118.272 97.1776 118.323 97.024 118.477 96.9728L123.034 95.0784C123.187 95.0272 123.341 95.0784 123.392 95.232C123.443 95.3344 123.341 95.5392 123.238 95.5904Z" fill="#263238"/>
<path d="M119.143 103.373L117.555 104.038C117.402 104.09 117.197 104.038 117.146 103.885L116.48 102.298C116.429 102.144 116.48 101.939 116.634 101.888L118.221 101.222C118.375 101.171 118.579 101.222 118.631 101.376L119.296 102.963C119.399 103.117 119.296 103.27 119.143 103.373Z" fill="#757575" stroke="#263238" stroke-miterlimit="10" stroke-linecap="round" stroke-linejoin="round"/>
<path d="M126.823 98.5088L120.269 101.274C120.115 101.325 119.962 101.274 119.911 101.12C119.859 100.966 119.911 100.813 120.064 100.762L126.618 97.9968C126.771 97.9456 126.925 97.9968 126.976 98.1504C127.027 98.304 126.925 98.4576 126.823 98.5088Z" fill="#263238"/>
<path d="M125.286 100.454L120.73 102.349C120.576 102.4 120.422 102.349 120.371 102.195C120.32 102.042 120.371 101.888 120.525 101.837L125.082 99.9424C125.235 99.8912 125.389 99.9424 125.44 100.096C125.491 100.25 125.389 100.403 125.286 100.454Z" fill="#263238"/>
</g>
<mask id="mask18_159_1474" style="mask-type:luminance" maskUnits="userSpaceOnUse" x="32" y="34" width="121" height="139">
<path d="M152.781 140.083L83.8655 169.114L76.7487 172.083L63.3855 140.288L32.3071 66.4576L108.288 34.4576L152.781 140.083Z" fill="white"/>
</mask>
<g mask="url(#mask18_159_1474)">
<path d="M135.424 118.63L82.1758 141.056C81.8686 141.21 81.715 141.517 81.8686 141.824C82.0222 142.131 82.3294 142.285 82.6366 142.131L135.885 119.706C136.192 119.552 136.345 119.245 136.192 118.938C136.089 118.63 135.731 118.477 135.424 118.63Z" fill="#263238"/>
<path d="M137.113 122.624L75.2127 148.685C74.9055 148.838 74.7519 149.146 74.9055 149.453C75.0591 149.76 75.3663 149.914 75.6735 149.76L137.574 123.699C137.881 123.546 138.035 123.238 137.881 122.931C137.779 122.624 137.421 122.47 137.113 122.624Z" fill="#263238"/>
<path d="M138.803 126.618L76.9024 152.678C76.5952 152.832 76.4416 153.139 76.5952 153.446C76.7488 153.754 77.056 153.907 77.3632 153.754L139.264 127.744C139.571 127.59 139.725 127.283 139.571 126.976C139.469 126.618 139.11 126.515 138.803 126.618Z" fill="#263238"/>
<path d="M140.493 130.611L78.5918 156.672C78.2846 156.826 78.131 157.133 78.2846 157.44C78.4382 157.747 78.7454 157.901 79.0526 157.747L140.953 131.686C141.261 131.533 141.414 131.226 141.261 130.918C141.158 130.662 140.8 130.509 140.493 130.611Z" fill="#263238"/>
<path d="M116.173 145.613L80.2815 160.717C79.9743 160.87 79.8207 161.178 79.9743 161.485C80.1279 161.792 80.4351 161.946 80.7423 161.792L116.634 146.688C116.941 146.534 117.094 146.227 116.941 145.92C116.838 145.613 116.48 145.459 116.173 145.613Z" fill="#263238"/>
</g>
<mask id="mask19_159_1474" style="mask-type:luminance" maskUnits="userSpaceOnUse" x="32" y="34" width="121" height="139">
<path d="M152.781 140.083L83.8655 169.114L76.7487 172.083L63.3855 140.288L32.3071 66.4576L108.288 34.4576L152.781 140.083Z" fill="white"/>
</mask>
<g mask="url(#mask19_159_1474)">
<path d="M96.4095 67.4304C96.4095 67.4304 97.1263 72.8576 95.0783 73.728C93.2351 74.496 90.7775 71.5776 88.6783 72.4992C86.5279 73.3696 88.2175 81.1008 86.1695 81.9712C84.1215 82.8416 81.6639 79.6672 79.8719 80.4352C78.0799 81.2032 79.1551 85.1456 77.3631 85.9136C75.8783 86.528 73.7279 83.4048 71.9871 82.688C71.6287 82.5344 71.2703 82.4832 70.9631 82.6368C69.1711 83.4048 70.0415 91.648 68.5055 92.3136C67.9935 92.5184 67.5327 92.5696 67.1231 92.5184C66.5087 92.4672 65.9455 92.3136 65.3823 92.3648C65.1775 92.3648 64.9727 92.416 64.7167 92.5184C63.3855 93.0816 63.5903 97.4336 62.3615 97.9456C61.1327 98.4576 59.9551 97.8432 58.6751 98.3552C57.3951 98.9184 57.3951 101.171 55.4495 101.99L56.2687 103.936L103.424 84.0704" fill="#BFBFBF"/>
<path d="M96.4095 67.4304C96.4095 67.4304 97.1263 72.8576 95.0783 73.728C93.2351 74.496 90.7775 71.5776 88.6783 72.4992C86.5279 73.3696 88.2175 81.1008 86.1695 81.9712C84.1215 82.8416 81.6639 79.6672 79.8719 80.4352C78.0799 81.2032 79.1551 85.1456 77.3631 85.9136C75.8783 86.528 73.7279 83.4048 71.9871 82.688C71.6287 82.5344 71.2703 82.4832 70.9631 82.6368C69.1711 83.4048 70.0415 91.648 68.5055 92.3136C67.9935 92.5184 67.5327 92.5696 67.1231 92.5184C66.5087 92.4672 65.9455 92.3136 65.3823 92.3648C65.1775 92.3648 64.9727 92.416 64.7167 92.5184C63.3855 93.0816 63.5903 97.4336 62.3615 97.9456C61.1327 98.4576 59.9551 97.8432 58.6751 98.3552C57.3951 98.9184 57.3951 101.171 55.4495 101.99L56.2687 103.936L103.424 84.0704" stroke="#263238" stroke-miterlimit="10"/>
<path d="M99.4303 74.6495C99.4303 74.6495 99.8399 77.2607 98.8159 77.7215C97.9455 78.0799 97.4335 77.5679 96.5119 77.5679C96.1535 77.5679 95.7439 77.6191 95.1807 77.8239C94.3615 78.1823 94.1567 79.3087 94.0031 80.4863C93.7983 81.9711 93.7471 83.6095 92.6207 84.0703C91.8527 84.3775 91.0335 84.2239 90.1631 83.9167C88.8319 83.4559 87.3983 82.6879 86.0159 83.2511C85.3503 83.5071 84.8895 84.2751 84.5311 85.1455C83.6607 87.2447 83.4047 90.3167 82.4831 90.7263C81.1519 91.2895 78.7455 89.0367 77.5679 89.4975C76.3903 90.0095 76.9023 92.0063 75.9295 92.4159C74.9567 92.8255 74.4447 91.6479 72.7551 92.3647C71.0655 93.0815 71.8847 95.5391 69.5295 96.5119C67.1743 97.4847 66.1503 95.6927 63.8463 96.6143C61.5935 97.5871 62.0031 99.2767 60.3647 99.9935C58.7263 100.71 58.0607 99.4815 56.9343 99.9935C55.8079 100.454 55.5007 102.298 55.5007 102.4L56.1151 103.885L103.27 84.0191" fill="#8EA6FC"/>
<path d="M99.4303 74.6495C99.4303 74.6495 99.8399 77.2607 98.8159 77.7215C97.9455 78.0799 97.4335 77.5679 96.5119 77.5679C96.1535 77.5679 95.7439 77.6191 95.1807 77.8239C94.3615 78.1823 94.1567 79.3087 94.0031 80.4863C93.7983 81.9711 93.7471 83.6095 92.6207 84.0703C91.8527 84.3775 91.0335 84.2239 90.1631 83.9167C88.8319 83.4559 87.3983 82.6879 86.0159 83.2511C85.3503 83.5071 84.8895 84.2751 84.5311 85.1455C83.6607 87.2447 83.4047 90.3167 82.4831 90.7263C81.1519 91.2895 78.7455 89.0367 77.5679 89.4975C76.3903 90.0095 76.9023 92.0063 75.9295 92.4159C74.9567 92.8255 74.4447 91.6479 72.7551 92.3647C71.0655 93.0815 71.8847 95.5391 69.5295 96.5119C67.1743 97.4847 66.1503 95.6927 63.8463 96.6143C61.5935 97.5871 62.0031 99.2767 60.3647 99.9935C58.7263 100.71 58.0607 99.4815 56.9343 99.9935C55.8079 100.454 55.5007 102.298 55.5007 102.4L56.1151 103.885L103.27 84.0191" stroke="#263238" stroke-miterlimit="10"/>
<path d="M46.6943 81.2543L56.2175 103.936L105.626 83.1487" stroke="#263238" stroke-miterlimit="10" stroke-linecap="round" stroke-linejoin="round"/>
<path d="M90.0608 92.3136L73.6768 99.2256C73.3696 99.3792 73.216 99.6864 73.3696 99.9936C73.5232 100.301 73.8304 100.454 74.1376 100.301L90.5216 93.3888C90.8288 93.2352 90.9824 92.928 90.8288 92.6208C90.7264 92.3136 90.368 92.16 90.0608 92.3136Z" fill="#263238"/>
<path d="M103.27 65.6896L101.683 66.3552C101.529 66.4064 101.325 66.3552 101.273 66.2016L100.608 64.6144C100.557 64.4608 100.608 64.256 100.761 64.2048L102.349 63.5392C102.502 63.488 102.707 63.5392 102.758 63.6928L103.424 65.28C103.526 65.4336 103.475 65.5872 103.27 65.6896Z" fill="#BFBFBF" stroke="#263238" stroke-miterlimit="10"/>
<path d="M110.95 60.8256L104.397 63.5904C104.243 63.6416 104.089 63.5904 104.038 63.4368C103.987 63.2832 104.038 63.1296 104.192 63.0784L110.745 60.3136C110.899 60.2624 111.053 60.3136 111.104 60.4672C111.155 60.6208 111.104 60.7744 110.95 60.8256Z" fill="#263238"/>
<path d="M109.414 62.7712L104.857 64.6656C104.704 64.7168 104.55 64.6656 104.499 64.512C104.448 64.3584 104.499 64.2048 104.653 64.1536L109.209 62.2592C109.363 62.208 109.517 62.2592 109.568 62.4128C109.619 62.5152 109.517 62.6688 109.414 62.7712Z" fill="#263238"/>
<path d="M105.318 70.5536L103.731 71.2192C103.578 71.2704 103.373 71.2192 103.322 71.0656L102.656 69.4784C102.605 69.3248 102.656 69.12 102.81 69.0688L104.397 68.4032C104.55 68.352 104.755 68.4032 104.806 68.5568L105.472 70.144C105.574 70.2976 105.523 70.4512 105.318 70.5536Z" fill="#8EA6FC" stroke="#263238" stroke-miterlimit="10"/>
<path d="M112.998 65.6896L106.445 68.4544C106.291 68.5056 106.138 68.4544 106.086 68.3008C106.035 68.1472 106.086 67.9936 106.24 67.9424L112.794 65.1776C112.947 65.1264 113.101 65.1776 113.152 65.3312C113.203 65.4848 113.152 65.6384 112.998 65.6896Z" fill="#263238"/>
<path d="M111.462 67.6352L106.905 69.5296C106.752 69.5808 106.598 69.5296 106.547 69.376C106.496 69.2224 106.547 69.0688 106.701 69.0176L111.257 67.1232C111.411 67.072 111.565 67.1232 111.616 67.2768C111.667 67.4304 111.616 67.584 111.462 67.6352Z" fill="#263238"/>
</g>
<mask id="mask20_159_1474" style="mask-type:luminance" maskUnits="userSpaceOnUse" x="32" y="34" width="121" height="139">
<path d="M152.781 140.083L83.8655 169.114L76.7487 172.083L63.3855 140.288L32.3071 66.4576L108.288 34.4576L152.781 140.083Z" fill="white"/>
</mask>
<g mask="url(#mask20_159_1474)">
<path opacity="0.2" d="M83.8655 169.114L76.7487 172.083L63.3855 140.288C64.2047 139.469 65.2287 138.138 65.6383 135.885C66.4575 131.635 65.8943 117.914 76.5439 116.531C87.1935 115.098 78.2335 139.11 78.6943 143.667C79.1551 147.814 85.1967 159.949 83.8655 169.114Z" fill="black" fill-opacity="0.7"/>
</g>
<path d="M152.781 140.083L83.8655 169.114L76.7487 172.083L63.3855 140.288L32.3071 66.4576L108.288 34.4576L152.781 140.083Z" stroke="#263238" stroke-miterlimit="10" stroke-linecap="round" stroke-linejoin="round"/>
<path d="M79.5647 145.408C80.7423 141.312 85.4527 128.205 84.8383 122.419C84.7871 121.907 84.6847 121.446 84.5311 120.986C82.8927 116.634 76.1855 117.094 73.6255 120.678C70.8095 124.621 68.5055 131.738 68.3007 136.038C68.1983 138.445 67.1743 140.646 66.2527 142.131C65.5359 143.309 64.9215 144.077 64.9215 144.077L49.6639 107.827C49.6639 107.827 47.2063 109.824 45.6703 112.282C45.0559 113.254 44.5951 114.33 44.4927 115.405C44.1855 118.989 40.1407 133.632 38.4511 139.827C38.3999 139.981 38.3999 140.083 38.3487 140.186C36.7103 146.125 41.0111 168.243 39.7823 174.643C38.5535 181.043 37.7855 180.941 37.6319 185.498C37.4783 188.826 32.7167 198.963 27.3919 209.357C24.3199 215.296 21.0943 221.338 18.4319 226.253L57.4975 224.614C58.1631 219.853 58.8799 214.835 59.4943 210.022C59.7503 208.026 60.1599 205.978 60.6719 204.032C61.5423 200.55 62.5663 197.376 63.2319 195.533C64.2559 192.666 65.2799 187.29 65.2799 187.29C69.8367 182.477 75.7759 174.899 77.5167 169.779C77.5167 169.779 77.5167 169.779 77.5167 169.728C77.9775 168.448 78.1311 167.322 77.9263 166.4C77.7727 165.683 77.6703 164.71 77.6191 163.584C77.3119 158.054 78.5919 148.787 79.5647 145.408Z" fill="white"/>
<path opacity="0.4" d="M66.2526 142.131C65.0238 144.538 63.5902 146.944 62.6686 149.658C61.747 152.371 60.723 152.781 58.0094 154.88C55.2958 157.03 53.299 153.498 53.299 153.498C53.299 153.498 56.9342 149.76 55.7054 147.661C54.4766 145.562 50.0222 140.339 50.2782 137.472C50.5342 134.605 47.5646 128.154 47.5646 128.154C47.5646 128.154 54.3742 124.16 53.043 119.45C52.3262 116.89 48.7422 114.176 45.6702 112.23C47.2062 109.773 49.6638 107.776 49.6638 107.776L64.9214 144.026C64.8702 144.026 65.5358 143.309 66.2526 142.131Z" fill="#8EA6FC"/>
<path opacity="0.4" d="M41.4718 164.352C41.5742 164.659 43.7758 171.981 41.9326 175.053C40.0382 178.176 38.1438 182.17 39.0654 186.317C39.7822 189.645 33.6382 201.626 27.3918 209.306C32.7166 198.912 37.4782 188.774 37.6318 185.446C37.7854 180.89 38.5534 181.043 39.7822 174.592C41.011 168.192 36.7102 146.074 38.3486 140.134C38.3998 140.032 38.3998 139.878 38.451 139.776C39.6286 146.534 42.4446 159.949 43.1614 164.25C44.083 169.779 41.5742 164.608 41.4718 164.352Z" fill="#8EA6FC"/>
<path opacity="0.4" d="M55.5007 208.64C60.0575 189.082 75.3151 174.08 77.4143 169.779C75.6735 174.899 69.7343 182.477 65.1775 187.29C65.1775 187.29 64.1535 192.666 63.1295 195.533C62.5151 197.376 61.4399 200.55 60.5695 204.032C56.1663 209.203 55.5007 208.64 55.5007 208.64Z" fill="#8EA6FC"/>
<path opacity="0.4" d="M79.5647 145.408C78.5407 148.838 77.3119 158.054 77.5167 163.584C76.6975 160.102 75.1615 155.699 74.9055 149.504C74.4959 139.059 80.3839 142.797 78.3359 137.677C76.2879 132.557 70.3999 139.11 73.2671 128.256C75.3663 120.32 81.4079 120.371 84.4799 120.986C84.6335 121.395 84.7359 121.856 84.7871 122.419C85.4527 128.205 80.7935 141.312 79.5647 145.408Z" fill="#8EA6FC"/>
<path d="M24.2688 215.398C29.184 206.438 33.9456 197.222 37.376 187.29C37.7856 185.856 37.2224 184.013 37.632 182.579C42.2912 169.677 37.0176 156.262 37.888 143.053C38.6048 137.83 40.2944 132.608 41.9328 127.334C42.7008 123.546 43.008 119.296 44.288 115.456C45.568 112.589 46.848 109.21 49.6128 107.776C54.8352 119.757 60.0576 131.789 64.8704 144.026C67.072 142.746 67.4304 139.93 67.7888 137.574C68.9664 131.891 70.144 126.669 72.2944 121.856C74.496 118.016 80.0768 116.378 83.5072 119.501C84.48 120.422 84.992 121.805 85.0944 123.187C84.4288 129.792 82.3296 136.499 80.2816 142.694C79.4624 145.562 78.592 147.917 78.2848 150.784C78.336 151.706 78.336 152.218 78.3872 153.139C77.1584 157.901 78.2848 162.099 78.0288 166.81C76.9536 175.309 70.144 181.248 65.2288 187.597C64 192.358 62.8224 197.12 61.1328 201.882C59.0848 209.05 58.4192 216.115 57.7024 222.976" stroke="#263238" stroke-miterlimit="10" stroke-linecap="round" stroke-linejoin="round"/>
<path d="M64.8705 144.026C64.8705 144.026 63.2833 147.098 62.6177 149.606C61.9521 152.115 58.7265 151.757 57.0369 153.293" stroke="#263238" stroke-miterlimit="10" stroke-linecap="round" stroke-linejoin="round"/>
<path d="M52.6335 139.622C52.6335 139.622 57.0367 141.158 59.5967 143.155C62.1567 145.152 64.0511 145.664 64.0511 145.664" stroke="#263238" stroke-miterlimit="10" stroke-linecap="round" stroke-linejoin="round"/>
<path d="M49.8689 128.717C49.8689 128.717 53.4017 129.69 56.0641 128.461C56.0641 128.461 56.2689 126.259 56.7297 124.672" stroke="#263238" stroke-miterlimit="10" stroke-linecap="round" stroke-linejoin="round"/>
<path d="M56.8833 128.973C56.8833 128.973 56.9345 129.485 58.7265 129.485" stroke="#263238" stroke-miterlimit="10" stroke-linecap="round" stroke-linejoin="round"/>
<path d="M65.1775 187.238C65.1775 187.238 61.6959 190.362 59.5967 196.045" stroke="#263238" stroke-miterlimit="10" stroke-linecap="round" stroke-linejoin="round"/>
<path d="M38.0927 141.261C37.9391 144.333 41.5231 155.238 42.6495 160.666C43.7247 166.093 44.1343 169.933 44.1343 169.933" stroke="#263238" stroke-miterlimit="10" stroke-linecap="round" stroke-linejoin="round"/>
</svg>
